<?xml version="1.0" encoding="utf-8" standalone="no"?>
<!DOCTYPE svg PUBLIC "-//W3C//DTD SVG 1.1//EN"
  "http://www.w3.org/Graphics/SVG/1.1/DTD/svg11.dtd">
<svg xmlns:xlink="http://www.w3.org/1999/xlink" width="460.8pt" height="345.6pt" viewBox="0 0 460.8 345.6" xmlns="http://www.w3.org/2000/svg" version="1.1">
 <metadata>
  <rdf:RDF xmlns:dc="http://purl.org/dc/elements/1.1/" xmlns:cc="http://creativecommons.org/ns#" xmlns:rdf="http://www.w3.org/1999/02/22-rdf-syntax-ns#">
   <cc:Work>
    <dc:type rdf:resource="http://purl.org/dc/dcmitype/StillImage"/>
    <dc:date>2023-05-08T13:23:54.641855</dc:date>
    <dc:format>image/svg+xml</dc:format>
    <dc:creator>
     <cc:Agent>
      <dc:title>Matplotlib v3.5.3, https://matplotlib.org/</dc:title>
     </cc:Agent>
    </dc:creator>
   </cc:Work>
  </rdf:RDF>
 </metadata>
 <defs>
  <style type="text/css">*{stroke-linejoin: round; stroke-linecap: butt}</style>
 </defs>
 <g id="figure_1">
  <g id="patch_1">
   <path d="M 0 345.6 
L 460.8 345.6 
L 460.8 0 
L 0 0 
z
" style="fill: #ffffff"/>
  </g>
  <g id="axes_1">
   <g id="patch_2">
    <path d="M 57.6 307.584 
L 414.72 307.584 
L 414.72 41.472 
L 57.6 41.472 
z
" style="fill: #ffffff"/>
   </g>
   <g id="PolyCollection_1">
    <path d="M 73.832727 236.030438 
L 73.832727 250.922945 
L 90.919809 239.834927 
L 108.00689 233.861721 
L 125.093971 223.601734 
L 142.181053 207.065541 
L 159.268134 207.955137 
L 176.355215 202.853383 
L 193.442297 199.326968 
L 210.529378 195.33913 
L 227.616459 194.808319 
L 244.703541 196.686578 
L 261.790622 196.686578 
L 278.877703 196.688453 
L 295.964785 189.854375 
L 313.051866 181.758026 
L 330.138947 178.594572 
L 347.226029 178.240976 
L 364.31311 177.99816 
L 381.400191 177.082317 
L 398.487273 175.210451 
L 398.487273 166.953761 
L 398.487273 166.953761 
L 381.400191 168.12004 
L 364.31311 169.015403 
L 347.226029 169.063979 
L 330.138947 169.379838 
L 313.051866 170.367243 
L 295.964785 175.778014 
L 278.877703 177.703234 
L 261.790622 180.398119 
L 244.703541 180.398119 
L 227.616459 180.631533 
L 210.529378 180.787196 
L 193.442297 187.419898 
L 176.355215 189.760731 
L 159.268134 198.067205 
L 142.181053 197.245954 
L 125.093971 204.466081 
L 108.00689 212.414651 
L 90.919809 214.709708 
L 73.832727 236.030438 
z
" clip-path="url(#p209e23920c)" style="fill: #1f77b4; fill-opacity: 0.5"/>
   </g>
   <g id="PolyCollection_2">
    <path d="M 73.832727 248.393005 
L 73.832727 256.431845 
L 90.919809 237.300532 
L 108.00689 225.867369 
L 125.093971 222.950168 
L 142.181053 220.477424 
L 159.268134 217.799644 
L 176.355215 195.476497 
L 193.442297 187.74105 
L 210.529378 186.118901 
L 227.616459 186.047883 
L 244.703541 178.837389 
L 261.790622 178.938093 
L 278.877703 177.63288 
L 295.964785 177.584297 
L 313.051866 178.170711 
L 330.138947 178.635859 
L 347.226029 177.698917 
L 364.31311 175.888037 
L 381.400191 176.077512 
L 398.487273 176.12767 
L 398.487273 163.921301 
L 398.487273 163.921301 
L 381.400191 163.58962 
L 364.31311 164.227667 
L 347.226029 165.069693 
L 330.138947 168.543449 
L 313.051866 168.353924 
L 295.964785 168.494037 
L 278.877703 168.676835 
L 261.790622 170.076189 
L 244.703541 170.279027 
L 227.616459 172.879394 
L 210.529378 172.915689 
L 193.442297 176.380327 
L 176.355215 185.50689 
L 159.268134 198.880532 
L 142.181053 198.18413 
L 125.093971 199.666826 
L 108.00689 201.212608 
L 90.919809 223.497108 
L 73.832727 248.393005 
z
" clip-path="url(#p209e23920c)" style="fill: #ff7f0e; fill-opacity: 0.5"/>
   </g>
   <g id="PolyCollection_3">
    <path d="M 73.832727 245.897417 
L 73.832727 257.681604 
L 90.919809 227.534223 
L 108.00689 216.83156 
L 125.093971 206.761829 
L 142.181053 202.034172 
L 159.268134 191.494438 
L 176.355215 189.069886 
L 193.442297 188.41535 
L 210.529378 185.154304 
L 227.616459 183.239854 
L 244.703541 184.741628 
L 261.790622 183.614571 
L 278.877703 177.07566 
L 295.964785 176.027123 
L 313.051866 172.979436 
L 330.138947 172.82383 
L 347.226029 171.596251 
L 364.31311 171.022069 
L 381.400191 170.773685 
L 398.487273 170.773685 
L 398.487273 153.607338 
L 398.487273 153.607338 
L 381.400191 153.607338 
L 364.31311 153.802834 
L 347.226029 154.700732 
L 330.138947 150.536791 
L 313.051866 151.355215 
L 295.964785 151.413856 
L 278.877703 153.113222 
L 261.790622 160.781424 
L 244.703541 161.880914 
L 227.616459 160.177696 
L 210.529378 162.252244 
L 193.442297 164.168554 
L 176.355215 164.428867 
L 159.268134 166.733191 
L 142.181053 174.945894 
L 125.093971 176.171783 
L 108.00689 190.142647 
L 90.919809 205.123621 
L 73.832727 245.897417 
z
" clip-path="url(#p209e23920c)" style="fill: #2ca02c; fill-opacity: 0.5"/>
   </g>
   <g id="PolyCollection_4">
    <path d="M 73.832727 211.874234 
L 73.832727 256.640068 
L 90.919809 240.073883 
L 108.00689 236.65896 
L 125.093971 213.712478 
L 142.181053 212.431899 
L 159.268134 215.218245 
L 176.355215 196.721982 
L 193.442297 192.667302 
L 210.529378 190.390841 
L 227.616459 174.530419 
L 244.703541 171.419421 
L 261.790622 167.374177 
L 278.877703 167.513564 
L 295.964785 167.507854 
L 313.051866 166.39894 
L 330.138947 160.664206 
L 347.226029 154.708504 
L 364.31311 153.35836 
L 381.400191 153.127084 
L 398.487273 153.127084 
L 398.487273 136.425991 
L 398.487273 136.425991 
L 381.400191 136.425991 
L 364.31311 136.766592 
L 347.226029 137.957104 
L 330.138947 144.888836 
L 313.051866 150.700192 
L 295.964785 151.455481 
L 278.877703 151.450525 
L 261.790622 152.850102 
L 244.703541 152.94996 
L 227.616459 159.753788 
L 210.529378 162.920082 
L 193.442297 166.128679 
L 176.355215 172.359583 
L 159.268134 183.674345 
L 142.181053 175.920323 
L 125.093971 175.923801 
L 108.00689 200.977346 
L 90.919809 203.541759 
L 73.832727 211.874234 
z
" clip-path="url(#p209e23920c)" style="fill: #d62728; fill-opacity: 0.5"/>
   </g>
   <g id="PolyCollection_5">
    <path d="M 73.832727 253.827897 
L 73.832727 270.243498 
L 90.919809 242.934009 
L 108.00689 232.88982 
L 125.093971 224.536244 
L 142.181053 215.085677 
L 159.268134 200.606514 
L 176.355215 202.721744 
L 193.442297 203.139815 
L 210.529378 202.572327 
L 227.616459 199.117631 
L 244.703541 190.750935 
L 261.790622 178.324405 
L 278.877703 176.550064 
L 295.964785 176.552839 
L 313.051866 176.552839 
L 330.138947 172.977408 
L 347.226029 172.92655 
L 364.31311 170.717313 
L 381.400191 169.931434 
L 398.487273 166.094088 
L 398.487273 152.454023 
L 398.487273 152.454023 
L 381.400191 155.547222 
L 364.31311 157.352261 
L 347.226029 162.930828 
L 330.138947 162.960882 
L 313.051866 166.165237 
L 295.964785 166.165237 
L 278.877703 166.164416 
L 261.790622 169.410484 
L 244.703541 171.737129 
L 227.616459 180.834614 
L 210.529378 183.566409 
L 193.442297 185.027649 
L 176.355215 185.025287 
L 159.268134 184.291555 
L 142.181053 202.862914 
L 125.093971 210.454644 
L 108.00689 215.764021 
L 90.919809 221.919933 
L 73.832727 253.827897 
z
" clip-path="url(#p209e23920c)" style="fill: #9467bd; fill-opacity: 0.5"/>
   </g>
   <g id="matplotlib.axis_1">
    <g id="xtick_1">
     <g id="line2d_1">
      <defs>
       <path id="m0778c36a40" d="M 0 0 
L 0 3.5 
" style="stroke: #000000; stroke-width: 0.8"/>
      </defs>
      <g>
       <use xlink:href="#m0778c36a40" x="99.463349" y="307.584" style="stroke: #000000; stroke-width: 0.8"/>
      </g>
     </g>
     <g id="text_1">
      <!-- 25000 -->
      <g transform="translate(83.557099 322.182437)scale(0.1 -0.1)">
       <defs>
        <path id="DejaVuSans-32" d="M 1228 531 
L 3431 531 
L 3431 0 
L 469 0 
L 469 531 
Q 828 903 1448 1529 
Q 2069 2156 2228 2338 
Q 2531 2678 2651 2914 
Q 2772 3150 2772 3378 
Q 2772 3750 2511 3984 
Q 2250 4219 1831 4219 
Q 1534 4219 1204 4116 
Q 875 4013 500 3803 
L 500 4441 
Q 881 4594 1212 4672 
Q 1544 4750 1819 4750 
Q 2544 4750 2975 4387 
Q 3406 4025 3406 3419 
Q 3406 3131 3298 2873 
Q 3191 2616 2906 2266 
Q 2828 2175 2409 1742 
Q 1991 1309 1228 531 
z
" transform="scale(0.015625)"/>
        <path id="DejaVuSans-35" d="M 691 4666 
L 3169 4666 
L 3169 4134 
L 1269 4134 
L 1269 2991 
Q 1406 3038 1543 3061 
Q 1681 3084 1819 3084 
Q 2600 3084 3056 2656 
Q 3513 2228 3513 1497 
Q 3513 744 3044 326 
Q 2575 -91 1722 -91 
Q 1428 -91 1123 -41 
Q 819 9 494 109 
L 494 744 
Q 775 591 1075 516 
Q 1375 441 1709 441 
Q 2250 441 2565 725 
Q 2881 1009 2881 1497 
Q 2881 1984 2565 2268 
Q 2250 2553 1709 2553 
Q 1456 2553 1204 2497 
Q 953 2441 691 2322 
L 691 4666 
z
" transform="scale(0.015625)"/>
        <path id="DejaVuSans-30" d="M 2034 4250 
Q 1547 4250 1301 3770 
Q 1056 3291 1056 2328 
Q 1056 1369 1301 889 
Q 1547 409 2034 409 
Q 2525 409 2770 889 
Q 3016 1369 3016 2328 
Q 3016 3291 2770 3770 
Q 2525 4250 2034 4250 
z
M 2034 4750 
Q 2819 4750 3233 4129 
Q 3647 3509 3647 2328 
Q 3647 1150 3233 529 
Q 2819 -91 2034 -91 
Q 1250 -91 836 529 
Q 422 1150 422 2328 
Q 422 3509 836 4129 
Q 1250 4750 2034 4750 
z
" transform="scale(0.015625)"/>
       </defs>
       <use xlink:href="#DejaVuSans-32"/>
       <use xlink:href="#DejaVuSans-35" x="63.623047"/>
       <use xlink:href="#DejaVuSans-30" x="127.246094"/>
       <use xlink:href="#DejaVuSans-30" x="190.869141"/>
       <use xlink:href="#DejaVuSans-30" x="254.492188"/>
      </g>
     </g>
    </g>
    <g id="xtick_2">
     <g id="line2d_2">
      <g>
       <use xlink:href="#m0778c36a40" x="142.181053" y="307.584" style="stroke: #000000; stroke-width: 0.8"/>
      </g>
     </g>
     <g id="text_2">
      <!-- 50000 -->
      <g transform="translate(126.274803 322.182437)scale(0.1 -0.1)">
       <use xlink:href="#DejaVuSans-35"/>
       <use xlink:href="#DejaVuSans-30" x="63.623047"/>
       <use xlink:href="#DejaVuSans-30" x="127.246094"/>
       <use xlink:href="#DejaVuSans-30" x="190.869141"/>
       <use xlink:href="#DejaVuSans-30" x="254.492188"/>
      </g>
     </g>
    </g>
    <g id="xtick_3">
     <g id="line2d_3">
      <g>
       <use xlink:href="#m0778c36a40" x="184.898756" y="307.584" style="stroke: #000000; stroke-width: 0.8"/>
      </g>
     </g>
     <g id="text_3">
      <!-- 75000 -->
      <g transform="translate(168.992506 322.182437)scale(0.1 -0.1)">
       <defs>
        <path id="DejaVuSans-37" d="M 525 4666 
L 3525 4666 
L 3525 4397 
L 1831 0 
L 1172 0 
L 2766 4134 
L 525 4134 
L 525 4666 
z
" transform="scale(0.015625)"/>
       </defs>
       <use xlink:href="#DejaVuSans-37"/>
       <use xlink:href="#DejaVuSans-35" x="63.623047"/>
       <use xlink:href="#DejaVuSans-30" x="127.246094"/>
       <use xlink:href="#DejaVuSans-30" x="190.869141"/>
       <use xlink:href="#DejaVuSans-30" x="254.492188"/>
      </g>
     </g>
    </g>
    <g id="xtick_4">
     <g id="line2d_4">
      <g>
       <use xlink:href="#m0778c36a40" x="227.616459" y="307.584" style="stroke: #000000; stroke-width: 0.8"/>
      </g>
     </g>
     <g id="text_4">
      <!-- 100000 -->
      <g transform="translate(208.528959 322.182437)scale(0.1 -0.1)">
       <defs>
        <path id="DejaVuSans-31" d="M 794 531 
L 1825 531 
L 1825 4091 
L 703 3866 
L 703 4441 
L 1819 4666 
L 2450 4666 
L 2450 531 
L 3481 531 
L 3481 0 
L 794 0 
L 794 531 
z
" transform="scale(0.015625)"/>
       </defs>
       <use xlink:href="#DejaVuSans-31"/>
       <use xlink:href="#DejaVuSans-30" x="63.623047"/>
       <use xlink:href="#DejaVuSans-30" x="127.246094"/>
       <use xlink:href="#DejaVuSans-30" x="190.869141"/>
       <use xlink:href="#DejaVuSans-30" x="254.492188"/>
       <use xlink:href="#DejaVuSans-30" x="318.115234"/>
      </g>
     </g>
    </g>
    <g id="xtick_5">
     <g id="line2d_5">
      <g>
       <use xlink:href="#m0778c36a40" x="270.334163" y="307.584" style="stroke: #000000; stroke-width: 0.8"/>
      </g>
     </g>
     <g id="text_5">
      <!-- 125000 -->
      <g transform="translate(251.246663 322.182437)scale(0.1 -0.1)">
       <use xlink:href="#DejaVuSans-31"/>
       <use xlink:href="#DejaVuSans-32" x="63.623047"/>
       <use xlink:href="#DejaVuSans-35" x="127.246094"/>
       <use xlink:href="#DejaVuSans-30" x="190.869141"/>
       <use xlink:href="#DejaVuSans-30" x="254.492188"/>
       <use xlink:href="#DejaVuSans-30" x="318.115234"/>
      </g>
     </g>
    </g>
    <g id="xtick_6">
     <g id="line2d_6">
      <g>
       <use xlink:href="#m0778c36a40" x="313.051866" y="307.584" style="stroke: #000000; stroke-width: 0.8"/>
      </g>
     </g>
     <g id="text_6">
      <!-- 150000 -->
      <g transform="translate(293.964366 322.182437)scale(0.1 -0.1)">
       <use xlink:href="#DejaVuSans-31"/>
       <use xlink:href="#DejaVuSans-35" x="63.623047"/>
       <use xlink:href="#DejaVuSans-30" x="127.246094"/>
       <use xlink:href="#DejaVuSans-30" x="190.869141"/>
       <use xlink:href="#DejaVuSans-30" x="254.492188"/>
       <use xlink:href="#DejaVuSans-30" x="318.115234"/>
      </g>
     </g>
    </g>
    <g id="xtick_7">
     <g id="line2d_7">
      <g>
       <use xlink:href="#m0778c36a40" x="355.769569" y="307.584" style="stroke: #000000; stroke-width: 0.8"/>
      </g>
     </g>
     <g id="text_7">
      <!-- 175000 -->
      <g transform="translate(336.682069 322.182437)scale(0.1 -0.1)">
       <use xlink:href="#DejaVuSans-31"/>
       <use xlink:href="#DejaVuSans-37" x="63.623047"/>
       <use xlink:href="#DejaVuSans-35" x="127.246094"/>
       <use xlink:href="#DejaVuSans-30" x="190.869141"/>
       <use xlink:href="#DejaVuSans-30" x="254.492188"/>
       <use xlink:href="#DejaVuSans-30" x="318.115234"/>
      </g>
     </g>
    </g>
    <g id="xtick_8">
     <g id="line2d_8">
      <g>
       <use xlink:href="#m0778c36a40" x="398.487273" y="307.584" style="stroke: #000000; stroke-width: 0.8"/>
      </g>
     </g>
     <g id="text_8">
      <!-- 200000 -->
      <g transform="translate(379.399773 322.182437)scale(0.1 -0.1)">
       <use xlink:href="#DejaVuSans-32"/>
       <use xlink:href="#DejaVuSans-30" x="63.623047"/>
       <use xlink:href="#DejaVuSans-30" x="127.246094"/>
       <use xlink:href="#DejaVuSans-30" x="190.869141"/>
       <use xlink:href="#DejaVuSans-30" x="254.492188"/>
       <use xlink:href="#DejaVuSans-30" x="318.115234"/>
      </g>
     </g>
    </g>
   </g>
   <g id="matplotlib.axis_2">
    <g id="ytick_1">
     <g id="line2d_9">
      <defs>
       <path id="m985bf671e6" d="M 0 0 
L -3.5 0 
" style="stroke: #000000; stroke-width: 0.8"/>
      </defs>
      <g>
       <use xlink:href="#m985bf671e6" x="57.6" y="295.488" style="stroke: #000000; stroke-width: 0.8"/>
      </g>
     </g>
     <g id="text_9">
      <!-- 0.00 -->
      <g transform="translate(28.334375 299.287219)scale(0.1 -0.1)">
       <defs>
        <path id="DejaVuSans-2e" d="M 684 794 
L 1344 794 
L 1344 0 
L 684 0 
L 684 794 
z
" transform="scale(0.015625)"/>
       </defs>
       <use xlink:href="#DejaVuSans-30"/>
       <use xlink:href="#DejaVuSans-2e" x="63.623047"/>
       <use xlink:href="#DejaVuSans-30" x="95.410156"/>
       <use xlink:href="#DejaVuSans-30" x="159.033203"/>
      </g>
     </g>
    </g>
    <g id="ytick_2">
     <g id="line2d_10">
      <g>
       <use xlink:href="#m985bf671e6" x="57.6" y="265.248" style="stroke: #000000; stroke-width: 0.8"/>
      </g>
     </g>
     <g id="text_10">
      <!-- 0.25 -->
      <g transform="translate(28.334375 269.047219)scale(0.1 -0.1)">
       <use xlink:href="#DejaVuSans-30"/>
       <use xlink:href="#DejaVuSans-2e" x="63.623047"/>
       <use xlink:href="#DejaVuSans-32" x="95.410156"/>
       <use xlink:href="#DejaVuSans-35" x="159.033203"/>
      </g>
     </g>
    </g>
    <g id="ytick_3">
     <g id="line2d_11">
      <g>
       <use xlink:href="#m985bf671e6" x="57.6" y="235.008" style="stroke: #000000; stroke-width: 0.8"/>
      </g>
     </g>
     <g id="text_11">
      <!-- 0.50 -->
      <g transform="translate(28.334375 238.807219)scale(0.1 -0.1)">
       <use xlink:href="#DejaVuSans-30"/>
       <use xlink:href="#DejaVuSans-2e" x="63.623047"/>
       <use xlink:href="#DejaVuSans-35" x="95.410156"/>
       <use xlink:href="#DejaVuSans-30" x="159.033203"/>
      </g>
     </g>
    </g>
    <g id="ytick_4">
     <g id="line2d_12">
      <g>
       <use xlink:href="#m985bf671e6" x="57.6" y="204.768" style="stroke: #000000; stroke-width: 0.8"/>
      </g>
     </g>
     <g id="text_12">
      <!-- 0.75 -->
      <g transform="translate(28.334375 208.567219)scale(0.1 -0.1)">
       <use xlink:href="#DejaVuSans-30"/>
       <use xlink:href="#DejaVuSans-2e" x="63.623047"/>
       <use xlink:href="#DejaVuSans-37" x="95.410156"/>
       <use xlink:href="#DejaVuSans-35" x="159.033203"/>
      </g>
     </g>
    </g>
    <g id="ytick_5">
     <g id="line2d_13">
      <g>
       <use xlink:href="#m985bf671e6" x="57.6" y="174.528" style="stroke: #000000; stroke-width: 0.8"/>
      </g>
     </g>
     <g id="text_13">
      <!-- 1.00 -->
      <g transform="translate(28.334375 178.327219)scale(0.1 -0.1)">
       <use xlink:href="#DejaVuSans-31"/>
       <use xlink:href="#DejaVuSans-2e" x="63.623047"/>
       <use xlink:href="#DejaVuSans-30" x="95.410156"/>
       <use xlink:href="#DejaVuSans-30" x="159.033203"/>
      </g>
     </g>
    </g>
    <g id="ytick_6">
     <g id="line2d_14">
      <g>
       <use xlink:href="#m985bf671e6" x="57.6" y="144.288" style="stroke: #000000; stroke-width: 0.8"/>
      </g>
     </g>
     <g id="text_14">
      <!-- 1.25 -->
      <g transform="translate(28.334375 148.087219)scale(0.1 -0.1)">
       <use xlink:href="#DejaVuSans-31"/>
       <use xlink:href="#DejaVuSans-2e" x="63.623047"/>
       <use xlink:href="#DejaVuSans-32" x="95.410156"/>
       <use xlink:href="#DejaVuSans-35" x="159.033203"/>
      </g>
     </g>
    </g>
    <g id="ytick_7">
     <g id="line2d_15">
      <g>
       <use xlink:href="#m985bf671e6" x="57.6" y="114.048" style="stroke: #000000; stroke-width: 0.8"/>
      </g>
     </g>
     <g id="text_15">
      <!-- 1.50 -->
      <g transform="translate(28.334375 117.847219)scale(0.1 -0.1)">
       <use xlink:href="#DejaVuSans-31"/>
       <use xlink:href="#DejaVuSans-2e" x="63.623047"/>
       <use xlink:href="#DejaVuSans-35" x="95.410156"/>
       <use xlink:href="#DejaVuSans-30" x="159.033203"/>
      </g>
     </g>
    </g>
    <g id="ytick_8">
     <g id="line2d_16">
      <g>
       <use xlink:href="#m985bf671e6" x="57.6" y="83.808" style="stroke: #000000; stroke-width: 0.8"/>
      </g>
     </g>
     <g id="text_16">
      <!-- 1.75 -->
      <g transform="translate(28.334375 87.607219)scale(0.1 -0.1)">
       <use xlink:href="#DejaVuSans-31"/>
       <use xlink:href="#DejaVuSans-2e" x="63.623047"/>
       <use xlink:href="#DejaVuSans-37" x="95.410156"/>
       <use xlink:href="#DejaVuSans-35" x="159.033203"/>
      </g>
     </g>
    </g>
    <g id="ytick_9">
     <g id="line2d_17">
      <g>
       <use xlink:href="#m985bf671e6" x="57.6" y="53.568" style="stroke: #000000; stroke-width: 0.8"/>
      </g>
     </g>
     <g id="text_17">
      <!-- 2.00 -->
      <g transform="translate(28.334375 57.367219)scale(0.1 -0.1)">
       <use xlink:href="#DejaVuSans-32"/>
       <use xlink:href="#DejaVuSans-2e" x="63.623047"/>
       <use xlink:href="#DejaVuSans-30" x="95.410156"/>
       <use xlink:href="#DejaVuSans-30" x="159.033203"/>
      </g>
     </g>
    </g>
   </g>
   <g id="line2d_18">
    <path d="M 73.832727 243.476691 
L 90.919809 227.272318 
L 108.00689 223.138186 
L 125.093971 214.033908 
L 142.181053 202.155748 
L 159.268134 203.011171 
L 176.355215 196.307057 
L 193.442297 193.373433 
L 210.529378 188.063163 
L 227.616459 187.719926 
L 244.703541 188.542348 
L 261.790622 188.542348 
L 278.877703 187.195843 
L 295.964785 182.816194 
L 313.051866 176.062634 
L 330.138947 173.987205 
L 347.226029 173.652478 
L 364.31311 173.506782 
L 381.400191 172.601178 
L 398.487273 171.082106 
" clip-path="url(#p209e23920c)" style="fill: none; stroke: #1f77b4; stroke-width: 1.5; stroke-linecap: square"/>
   </g>
   <g id="line2d_19">
    <path d="M 73.832727 252.412425 
L 90.919809 230.39882 
L 108.00689 213.539989 
L 125.093971 211.308497 
L 142.181053 209.330777 
L 159.268134 208.340088 
L 176.355215 190.491693 
L 193.442297 182.060689 
L 210.529378 179.517295 
L 227.616459 179.463638 
L 244.703541 174.558208 
L 261.790622 174.507141 
L 278.877703 173.154858 
L 295.964785 173.039167 
L 313.051866 173.262317 
L 330.138947 173.589654 
L 347.226029 171.384305 
L 364.31311 170.057852 
L 381.400191 169.833566 
L 398.487273 170.024485 
" clip-path="url(#p209e23920c)" style="fill: none; stroke: #ff7f0e; stroke-width: 1.5; stroke-linecap: square"/>
   </g>
   <g id="line2d_20">
    <path d="M 73.832727 251.78951 
L 90.919809 216.328922 
L 108.00689 203.487104 
L 125.093971 191.466806 
L 142.181053 188.490033 
L 159.268134 179.113815 
L 176.355215 176.749377 
L 193.442297 176.291952 
L 210.529378 173.703274 
L 227.616459 171.708775 
L 244.703541 173.311271 
L 261.790622 172.197998 
L 278.877703 165.094441 
L 295.964785 163.720489 
L 313.051866 162.167326 
L 330.138947 161.68031 
L 347.226029 163.148491 
L 364.31311 162.412452 
L 381.400191 162.190512 
L 398.487273 162.190512 
" clip-path="url(#p209e23920c)" style="fill: none; stroke: #2ca02c; stroke-width: 1.5; stroke-linecap: square"/>
   </g>
   <g id="line2d_21">
    <path d="M 73.832727 234.257151 
L 90.919809 221.807821 
L 108.00689 218.818153 
L 125.093971 194.81814 
L 142.181053 194.176111 
L 159.268134 199.446295 
L 176.355215 184.540782 
L 193.442297 179.39799 
L 210.529378 176.655462 
L 227.616459 167.142103 
L 244.703541 162.184691 
L 261.790622 160.11214 
L 278.877703 159.482044 
L 295.964785 159.481668 
L 313.051866 158.549566 
L 330.138947 152.776521 
L 347.226029 146.332804 
L 364.31311 145.062476 
L 381.400191 144.776538 
L 398.487273 144.776538 
" clip-path="url(#p209e23920c)" style="fill: none; stroke: #d62728; stroke-width: 1.5; stroke-linecap: square"/>
   </g>
   <g id="line2d_22">
    <path d="M 73.832727 262.035697 
L 90.919809 232.426971 
L 108.00689 224.326921 
L 125.093971 217.495444 
L 142.181053 208.974296 
L 159.268134 192.449035 
L 176.355215 193.873516 
L 193.442297 194.083732 
L 210.529378 193.069368 
L 227.616459 189.976123 
L 244.703541 181.244032 
L 261.790622 173.867445 
L 278.877703 171.35724 
L 295.964785 171.359038 
L 313.051866 171.359038 
L 330.138947 167.969145 
L 347.226029 167.928689 
L 364.31311 164.034787 
L 381.400191 162.739328 
L 398.487273 159.274055 
" clip-path="url(#p209e23920c)" style="fill: none; stroke: #9467bd; stroke-width: 1.5; stroke-linecap: square"/>
   </g>
   <g id="patch_3">
    <path d="M 57.6 307.584 
L 57.6 41.472 
" style="fill: none; stroke: #000000; stroke-width: 0.8; stroke-linejoin: miter; stroke-linecap: square"/>
   </g>
   <g id="patch_4">
    <path d="M 414.72 307.584 
L 414.72 41.472 
" style="fill: none; stroke: #000000; stroke-width: 0.8; stroke-linejoin: miter; stroke-linecap: square"/>
   </g>
   <g id="patch_5">
    <path d="M 57.6 307.584 
L 414.72 307.584 
" style="fill: none; stroke: #000000; stroke-width: 0.8; stroke-linejoin: miter; stroke-linecap: square"/>
   </g>
   <g id="patch_6">
    <path d="M 57.6 41.472 
L 414.72 41.472 
" style="fill: none; stroke: #000000; stroke-width: 0.8; stroke-linejoin: miter; stroke-linecap: square"/>
   </g>
   <g id="text_18">
    <!-- no move, By num of CF areas -->
    <g transform="translate(147.535313 35.472)scale(0.12 -0.12)">
     <defs>
      <path id="DejaVuSans-6e" d="M 3513 2113 
L 3513 0 
L 2938 0 
L 2938 2094 
Q 2938 2591 2744 2837 
Q 2550 3084 2163 3084 
Q 1697 3084 1428 2787 
Q 1159 2491 1159 1978 
L 1159 0 
L 581 0 
L 581 3500 
L 1159 3500 
L 1159 2956 
Q 1366 3272 1645 3428 
Q 1925 3584 2291 3584 
Q 2894 3584 3203 3211 
Q 3513 2838 3513 2113 
z
" transform="scale(0.015625)"/>
      <path id="DejaVuSans-6f" d="M 1959 3097 
Q 1497 3097 1228 2736 
Q 959 2375 959 1747 
Q 959 1119 1226 758 
Q 1494 397 1959 397 
Q 2419 397 2687 759 
Q 2956 1122 2956 1747 
Q 2956 2369 2687 2733 
Q 2419 3097 1959 3097 
z
M 1959 3584 
Q 2709 3584 3137 3096 
Q 3566 2609 3566 1747 
Q 3566 888 3137 398 
Q 2709 -91 1959 -91 
Q 1206 -91 779 398 
Q 353 888 353 1747 
Q 353 2609 779 3096 
Q 1206 3584 1959 3584 
z
" transform="scale(0.015625)"/>
      <path id="DejaVuSans-20" transform="scale(0.015625)"/>
      <path id="DejaVuSans-6d" d="M 3328 2828 
Q 3544 3216 3844 3400 
Q 4144 3584 4550 3584 
Q 5097 3584 5394 3201 
Q 5691 2819 5691 2113 
L 5691 0 
L 5113 0 
L 5113 2094 
Q 5113 2597 4934 2840 
Q 4756 3084 4391 3084 
Q 3944 3084 3684 2787 
Q 3425 2491 3425 1978 
L 3425 0 
L 2847 0 
L 2847 2094 
Q 2847 2600 2669 2842 
Q 2491 3084 2119 3084 
Q 1678 3084 1418 2786 
Q 1159 2488 1159 1978 
L 1159 0 
L 581 0 
L 581 3500 
L 1159 3500 
L 1159 2956 
Q 1356 3278 1631 3431 
Q 1906 3584 2284 3584 
Q 2666 3584 2933 3390 
Q 3200 3197 3328 2828 
z
" transform="scale(0.015625)"/>
      <path id="DejaVuSans-76" d="M 191 3500 
L 800 3500 
L 1894 563 
L 2988 3500 
L 3597 3500 
L 2284 0 
L 1503 0 
L 191 3500 
z
" transform="scale(0.015625)"/>
      <path id="DejaVuSans-65" d="M 3597 1894 
L 3597 1613 
L 953 1613 
Q 991 1019 1311 708 
Q 1631 397 2203 397 
Q 2534 397 2845 478 
Q 3156 559 3463 722 
L 3463 178 
Q 3153 47 2828 -22 
Q 2503 -91 2169 -91 
Q 1331 -91 842 396 
Q 353 884 353 1716 
Q 353 2575 817 3079 
Q 1281 3584 2069 3584 
Q 2775 3584 3186 3129 
Q 3597 2675 3597 1894 
z
M 3022 2063 
Q 3016 2534 2758 2815 
Q 2500 3097 2075 3097 
Q 1594 3097 1305 2825 
Q 1016 2553 972 2059 
L 3022 2063 
z
" transform="scale(0.015625)"/>
      <path id="DejaVuSans-2c" d="M 750 794 
L 1409 794 
L 1409 256 
L 897 -744 
L 494 -744 
L 750 256 
L 750 794 
z
" transform="scale(0.015625)"/>
      <path id="DejaVuSans-42" d="M 1259 2228 
L 1259 519 
L 2272 519 
Q 2781 519 3026 730 
Q 3272 941 3272 1375 
Q 3272 1813 3026 2020 
Q 2781 2228 2272 2228 
L 1259 2228 
z
M 1259 4147 
L 1259 2741 
L 2194 2741 
Q 2656 2741 2882 2914 
Q 3109 3088 3109 3444 
Q 3109 3797 2882 3972 
Q 2656 4147 2194 4147 
L 1259 4147 
z
M 628 4666 
L 2241 4666 
Q 2963 4666 3353 4366 
Q 3744 4066 3744 3513 
Q 3744 3084 3544 2831 
Q 3344 2578 2956 2516 
Q 3422 2416 3680 2098 
Q 3938 1781 3938 1306 
Q 3938 681 3513 340 
Q 3088 0 2303 0 
L 628 0 
L 628 4666 
z
" transform="scale(0.015625)"/>
      <path id="DejaVuSans-79" d="M 2059 -325 
Q 1816 -950 1584 -1140 
Q 1353 -1331 966 -1331 
L 506 -1331 
L 506 -850 
L 844 -850 
Q 1081 -850 1212 -737 
Q 1344 -625 1503 -206 
L 1606 56 
L 191 3500 
L 800 3500 
L 1894 763 
L 2988 3500 
L 3597 3500 
L 2059 -325 
z
" transform="scale(0.015625)"/>
      <path id="DejaVuSans-75" d="M 544 1381 
L 544 3500 
L 1119 3500 
L 1119 1403 
Q 1119 906 1312 657 
Q 1506 409 1894 409 
Q 2359 409 2629 706 
Q 2900 1003 2900 1516 
L 2900 3500 
L 3475 3500 
L 3475 0 
L 2900 0 
L 2900 538 
Q 2691 219 2414 64 
Q 2138 -91 1772 -91 
Q 1169 -91 856 284 
Q 544 659 544 1381 
z
M 1991 3584 
L 1991 3584 
z
" transform="scale(0.015625)"/>
      <path id="DejaVuSans-66" d="M 2375 4863 
L 2375 4384 
L 1825 4384 
Q 1516 4384 1395 4259 
Q 1275 4134 1275 3809 
L 1275 3500 
L 2222 3500 
L 2222 3053 
L 1275 3053 
L 1275 0 
L 697 0 
L 697 3053 
L 147 3053 
L 147 3500 
L 697 3500 
L 697 3744 
Q 697 4328 969 4595 
Q 1241 4863 1831 4863 
L 2375 4863 
z
" transform="scale(0.015625)"/>
      <path id="DejaVuSans-43" d="M 4122 4306 
L 4122 3641 
Q 3803 3938 3442 4084 
Q 3081 4231 2675 4231 
Q 1875 4231 1450 3742 
Q 1025 3253 1025 2328 
Q 1025 1406 1450 917 
Q 1875 428 2675 428 
Q 3081 428 3442 575 
Q 3803 722 4122 1019 
L 4122 359 
Q 3791 134 3420 21 
Q 3050 -91 2638 -91 
Q 1578 -91 968 557 
Q 359 1206 359 2328 
Q 359 3453 968 4101 
Q 1578 4750 2638 4750 
Q 3056 4750 3426 4639 
Q 3797 4528 4122 4306 
z
" transform="scale(0.015625)"/>
      <path id="DejaVuSans-46" d="M 628 4666 
L 3309 4666 
L 3309 4134 
L 1259 4134 
L 1259 2759 
L 3109 2759 
L 3109 2228 
L 1259 2228 
L 1259 0 
L 628 0 
L 628 4666 
z
" transform="scale(0.015625)"/>
      <path id="DejaVuSans-61" d="M 2194 1759 
Q 1497 1759 1228 1600 
Q 959 1441 959 1056 
Q 959 750 1161 570 
Q 1363 391 1709 391 
Q 2188 391 2477 730 
Q 2766 1069 2766 1631 
L 2766 1759 
L 2194 1759 
z
M 3341 1997 
L 3341 0 
L 2766 0 
L 2766 531 
Q 2569 213 2275 61 
Q 1981 -91 1556 -91 
Q 1019 -91 701 211 
Q 384 513 384 1019 
Q 384 1609 779 1909 
Q 1175 2209 1959 2209 
L 2766 2209 
L 2766 2266 
Q 2766 2663 2505 2880 
Q 2244 3097 1772 3097 
Q 1472 3097 1187 3025 
Q 903 2953 641 2809 
L 641 3341 
Q 956 3463 1253 3523 
Q 1550 3584 1831 3584 
Q 2591 3584 2966 3190 
Q 3341 2797 3341 1997 
z
" transform="scale(0.015625)"/>
      <path id="DejaVuSans-72" d="M 2631 2963 
Q 2534 3019 2420 3045 
Q 2306 3072 2169 3072 
Q 1681 3072 1420 2755 
Q 1159 2438 1159 1844 
L 1159 0 
L 581 0 
L 581 3500 
L 1159 3500 
L 1159 2956 
Q 1341 3275 1631 3429 
Q 1922 3584 2338 3584 
Q 2397 3584 2469 3576 
Q 2541 3569 2628 3553 
L 2631 2963 
z
" transform="scale(0.015625)"/>
      <path id="DejaVuSans-73" d="M 2834 3397 
L 2834 2853 
Q 2591 2978 2328 3040 
Q 2066 3103 1784 3103 
Q 1356 3103 1142 2972 
Q 928 2841 928 2578 
Q 928 2378 1081 2264 
Q 1234 2150 1697 2047 
L 1894 2003 
Q 2506 1872 2764 1633 
Q 3022 1394 3022 966 
Q 3022 478 2636 193 
Q 2250 -91 1575 -91 
Q 1294 -91 989 -36 
Q 684 19 347 128 
L 347 722 
Q 666 556 975 473 
Q 1284 391 1588 391 
Q 1994 391 2212 530 
Q 2431 669 2431 922 
Q 2431 1156 2273 1281 
Q 2116 1406 1581 1522 
L 1381 1569 
Q 847 1681 609 1914 
Q 372 2147 372 2553 
Q 372 3047 722 3315 
Q 1072 3584 1716 3584 
Q 2034 3584 2315 3537 
Q 2597 3491 2834 3397 
z
" transform="scale(0.015625)"/>
     </defs>
     <use xlink:href="#DejaVuSans-6e"/>
     <use xlink:href="#DejaVuSans-6f" x="63.378906"/>
     <use xlink:href="#DejaVuSans-20" x="124.560547"/>
     <use xlink:href="#DejaVuSans-6d" x="156.347656"/>
     <use xlink:href="#DejaVuSans-6f" x="253.759766"/>
     <use xlink:href="#DejaVuSans-76" x="314.941406"/>
     <use xlink:href="#DejaVuSans-65" x="374.121094"/>
     <use xlink:href="#DejaVuSans-2c" x="435.644531"/>
     <use xlink:href="#DejaVuSans-20" x="467.431641"/>
     <use xlink:href="#DejaVuSans-42" x="499.21875"/>
     <use xlink:href="#DejaVuSans-79" x="567.822266"/>
     <use xlink:href="#DejaVuSans-20" x="627.001953"/>
     <use xlink:href="#DejaVuSans-6e" x="658.789062"/>
     <use xlink:href="#DejaVuSans-75" x="722.167969"/>
     <use xlink:href="#DejaVuSans-6d" x="785.546875"/>
     <use xlink:href="#DejaVuSans-20" x="882.958984"/>
     <use xlink:href="#DejaVuSans-6f" x="914.746094"/>
     <use xlink:href="#DejaVuSans-66" x="975.927734"/>
     <use xlink:href="#DejaVuSans-20" x="1011.132812"/>
     <use xlink:href="#DejaVuSans-43" x="1042.919922"/>
     <use xlink:href="#DejaVuSans-46" x="1112.744141"/>
     <use xlink:href="#DejaVuSans-20" x="1170.263672"/>
     <use xlink:href="#DejaVuSans-61" x="1202.050781"/>
     <use xlink:href="#DejaVuSans-72" x="1263.330078"/>
     <use xlink:href="#DejaVuSans-65" x="1302.193359"/>
     <use xlink:href="#DejaVuSans-61" x="1363.716797"/>
     <use xlink:href="#DejaVuSans-73" x="1424.996094"/>
    </g>
   </g>
   <g id="legend_1">
    <g id="patch_7">
     <path d="M 340.421563 122.862625 
L 407.72 122.862625 
Q 409.72 122.862625 409.72 120.862625 
L 409.72 48.472 
Q 409.72 46.472 407.72 46.472 
L 340.421563 46.472 
Q 338.421563 46.472 338.421563 48.472 
L 338.421563 120.862625 
Q 338.421563 122.862625 340.421563 122.862625 
z
" style="fill: #ffffff; opacity: 0.8; stroke: #cccccc; stroke-linejoin: miter"/>
    </g>
    <g id="patch_8">
     <path d="M 342.421563 58.070438 
L 362.421563 58.070438 
L 362.421563 51.070438 
L 342.421563 51.070438 
z
" style="fill: #1f77b4; fill-opacity: 0.5"/>
    </g>
    <g id="text_19">
     <!-- 0cf -->
     <g transform="translate(370.421563 58.070438)scale(0.1 -0.1)">
      <defs>
       <path id="DejaVuSans-63" d="M 3122 3366 
L 3122 2828 
Q 2878 2963 2633 3030 
Q 2388 3097 2138 3097 
Q 1578 3097 1268 2742 
Q 959 2388 959 1747 
Q 959 1106 1268 751 
Q 1578 397 2138 397 
Q 2388 397 2633 464 
Q 2878 531 3122 666 
L 3122 134 
Q 2881 22 2623 -34 
Q 2366 -91 2075 -91 
Q 1284 -91 818 406 
Q 353 903 353 1747 
Q 353 2603 823 3093 
Q 1294 3584 2113 3584 
Q 2378 3584 2631 3529 
Q 2884 3475 3122 3366 
z
" transform="scale(0.015625)"/>
      </defs>
      <use xlink:href="#DejaVuSans-30"/>
      <use xlink:href="#DejaVuSans-63" x="63.623047"/>
      <use xlink:href="#DejaVuSans-66" x="118.603516"/>
     </g>
    </g>
    <g id="patch_9">
     <path d="M 342.421563 72.748563 
L 362.421563 72.748563 
L 362.421563 65.748563 
L 342.421563 65.748563 
z
" style="fill: #ff7f0e; fill-opacity: 0.5"/>
    </g>
    <g id="text_20">
     <!-- 1 close -->
     <g transform="translate(370.421563 72.748563)scale(0.1 -0.1)">
      <defs>
       <path id="DejaVuSans-6c" d="M 603 4863 
L 1178 4863 
L 1178 0 
L 603 0 
L 603 4863 
z
" transform="scale(0.015625)"/>
      </defs>
      <use xlink:href="#DejaVuSans-31"/>
      <use xlink:href="#DejaVuSans-20" x="63.623047"/>
      <use xlink:href="#DejaVuSans-63" x="95.410156"/>
      <use xlink:href="#DejaVuSans-6c" x="150.390625"/>
      <use xlink:href="#DejaVuSans-6f" x="178.173828"/>
      <use xlink:href="#DejaVuSans-73" x="239.355469"/>
      <use xlink:href="#DejaVuSans-65" x="291.455078"/>
     </g>
    </g>
    <g id="patch_10">
     <path d="M 342.421563 87.426688 
L 362.421563 87.426688 
L 362.421563 80.426688 
L 342.421563 80.426688 
z
" style="fill: #2ca02c; fill-opacity: 0.5"/>
    </g>
    <g id="text_21">
     <!-- 3 close -->
     <g transform="translate(370.421563 87.426688)scale(0.1 -0.1)">
      <defs>
       <path id="DejaVuSans-33" d="M 2597 2516 
Q 3050 2419 3304 2112 
Q 3559 1806 3559 1356 
Q 3559 666 3084 287 
Q 2609 -91 1734 -91 
Q 1441 -91 1130 -33 
Q 819 25 488 141 
L 488 750 
Q 750 597 1062 519 
Q 1375 441 1716 441 
Q 2309 441 2620 675 
Q 2931 909 2931 1356 
Q 2931 1769 2642 2001 
Q 2353 2234 1838 2234 
L 1294 2234 
L 1294 2753 
L 1863 2753 
Q 2328 2753 2575 2939 
Q 2822 3125 2822 3475 
Q 2822 3834 2567 4026 
Q 2313 4219 1838 4219 
Q 1578 4219 1281 4162 
Q 984 4106 628 3988 
L 628 4550 
Q 988 4650 1302 4700 
Q 1616 4750 1894 4750 
Q 2613 4750 3031 4423 
Q 3450 4097 3450 3541 
Q 3450 3153 3228 2886 
Q 3006 2619 2597 2516 
z
" transform="scale(0.015625)"/>
      </defs>
      <use xlink:href="#DejaVuSans-33"/>
      <use xlink:href="#DejaVuSans-20" x="63.623047"/>
      <use xlink:href="#DejaVuSans-63" x="95.410156"/>
      <use xlink:href="#DejaVuSans-6c" x="150.390625"/>
      <use xlink:href="#DejaVuSans-6f" x="178.173828"/>
      <use xlink:href="#DejaVuSans-73" x="239.355469"/>
      <use xlink:href="#DejaVuSans-65" x="291.455078"/>
     </g>
    </g>
    <g id="patch_11">
     <path d="M 342.421563 102.104813 
L 362.421563 102.104813 
L 362.421563 95.104813 
L 342.421563 95.104813 
z
" style="fill: #d62728; fill-opacity: 0.5"/>
    </g>
    <g id="text_22">
     <!-- 1 far -->
     <g transform="translate(370.421563 102.104813)scale(0.1 -0.1)">
      <use xlink:href="#DejaVuSans-31"/>
      <use xlink:href="#DejaVuSans-20" x="63.623047"/>
      <use xlink:href="#DejaVuSans-66" x="95.410156"/>
      <use xlink:href="#DejaVuSans-61" x="130.615234"/>
      <use xlink:href="#DejaVuSans-72" x="191.894531"/>
     </g>
    </g>
    <g id="patch_12">
     <path d="M 342.421563 116.782938 
L 362.421563 116.782938 
L 362.421563 109.782938 
L 342.421563 109.782938 
z
" style="fill: #9467bd; fill-opacity: 0.5"/>
    </g>
    <g id="text_23">
     <!-- 3 far -->
     <g transform="translate(370.421563 116.782938)scale(0.1 -0.1)">
      <use xlink:href="#DejaVuSans-33"/>
      <use xlink:href="#DejaVuSans-20" x="63.623047"/>
      <use xlink:href="#DejaVuSans-66" x="95.410156"/>
      <use xlink:href="#DejaVuSans-61" x="130.615234"/>
      <use xlink:href="#DejaVuSans-72" x="191.894531"/>
     </g>
    </g>
   </g>
  </g>
 </g>
 <defs>
  <clipPath id="p209e23920c">
   <rect x="57.6" y="41.472" width="357.12" height="266.112"/>
  </clipPath>
 </defs>
</svg>
