<?xml version="1.0" encoding="utf-8" standalone="no"?>
<!DOCTYPE svg PUBLIC "-//W3C//DTD SVG 1.1//EN"
  "http://www.w3.org/Graphics/SVG/1.1/DTD/svg11.dtd">
<svg xmlns:xlink="http://www.w3.org/1999/xlink" width="460.8pt" height="345.6pt" viewBox="0 0 460.8 345.6" xmlns="http://www.w3.org/2000/svg" version="1.1">
 <metadata>
  <rdf:RDF xmlns:dc="http://purl.org/dc/elements/1.1/" xmlns:cc="http://creativecommons.org/ns#" xmlns:rdf="http://www.w3.org/1999/02/22-rdf-syntax-ns#">
   <cc:Work>
    <dc:type rdf:resource="http://purl.org/dc/dcmitype/StillImage"/>
    <dc:date>2023-05-29T02:46:31.928310</dc:date>
    <dc:format>image/svg+xml</dc:format>
    <dc:creator>
     <cc:Agent>
      <dc:title>Matplotlib v3.5.3, https://matplotlib.org/</dc:title>
     </cc:Agent>
    </dc:creator>
   </cc:Work>
  </rdf:RDF>
 </metadata>
 <defs>
  <style type="text/css">*{stroke-linejoin: round; stroke-linecap: butt}</style>
 </defs>
 <g id="figure_1">
  <g id="patch_1">
   <path d="M 0 345.6 
L 460.8 345.6 
L 460.8 0 
L 0 0 
z
" style="fill: #ffffff"/>
  </g>
  <g id="axes_1">
   <g id="patch_2">
    <path d="M 57.6 307.584 
L 414.72 307.584 
L 414.72 41.472 
L 57.6 41.472 
z
" style="fill: #ffffff"/>
   </g>
   <g id="PathCollection_1">
    <defs>
     <path id="m9f674e5457" d="M 0 3 
C 0.795609 3 1.55874 2.683901 2.12132 2.12132 
C 2.683901 1.55874 3 0.795609 3 0 
C 3 -0.795609 2.683901 -1.55874 2.12132 -2.12132 
C 1.55874 -2.683901 0.795609 -3 0 -3 
C -0.795609 -3 -1.55874 -2.683901 -2.12132 -2.12132 
C -2.683901 -1.55874 -3 -0.795609 -3 0 
C -3 0.795609 -2.683901 1.55874 -2.12132 2.12132 
C -1.55874 2.683901 -0.795609 3 0 3 
z
" style="stroke: #ff0000"/>
    </defs>
    <g clip-path="url(#p00ed5fbdaf)">
     <use xlink:href="#m9f674e5457" x="72.48" y="27.03672" style="fill: #ff0000; stroke: #ff0000"/>
     <use xlink:href="#m9f674e5457" x="370.08" y="296.496" style="fill: #ff0000; stroke: #ff0000"/>
     <use xlink:href="#m9f674e5457" x="364.838436" y="215.127556" style="fill: #ff0000; stroke: #ff0000"/>
     <use xlink:href="#m9f674e5457" x="76.96049" y="54.047035" style="fill: #ff0000; stroke: #ff0000"/>
     <use xlink:href="#m9f674e5457" x="158.181536" y="84.024216" style="fill: #ff0000; stroke: #ff0000"/>
     <use xlink:href="#m9f674e5457" x="157.144825" y="80.739272" style="fill: #ff0000; stroke: #ff0000"/>
     <use xlink:href="#m9f674e5457" x="143.387698" y="76.389392" style="fill: #ff0000; stroke: #ff0000"/>
     <use xlink:href="#m9f674e5457" x="141.937135" y="74.097989" style="fill: #ff0000; stroke: #ff0000"/>
     <use xlink:href="#m9f674e5457" x="128.70381" y="70.123283" style="fill: #ff0000; stroke: #ff0000"/>
     <use xlink:href="#m9f674e5457" x="128.077358" y="68.023032" style="fill: #ff0000; stroke: #ff0000"/>
     <use xlink:href="#m9f674e5457" x="172.360271" y="88.571492" style="fill: #ff0000; stroke: #ff0000"/>
     <use xlink:href="#m9f674e5457" x="98.821701" y="63.397847" style="fill: #ff0000; stroke: #ff0000"/>
     <use xlink:href="#m9f674e5457" x="172.957977" y="94.68117" style="fill: #ff0000; stroke: #ff0000"/>
     <use xlink:href="#m9f674e5457" x="113.609835" y="65.501429" style="fill: #ff0000; stroke: #ff0000"/>
     <use xlink:href="#m9f674e5457" x="113.508293" y="64.572459" style="fill: #ff0000; stroke: #ff0000"/>
     <use xlink:href="#m9f674e5457" x="183.829415" y="96.143449" style="fill: #ff0000; stroke: #ff0000"/>
     <use xlink:href="#m9f674e5457" x="241.142399" y="131.774316" style="fill: #ff0000; stroke: #ff0000"/>
     <use xlink:href="#m9f674e5457" x="221.124018" y="118.559485" style="fill: #ff0000; stroke: #ff0000"/>
     <use xlink:href="#m9f674e5457" x="97.442297" y="61.37785" style="fill: #ff0000; stroke: #ff0000"/>
     <use xlink:href="#m9f674e5457" x="229.663571" y="130.963906" style="fill: #ff0000; stroke: #ff0000"/>
     <use xlink:href="#m9f674e5457" x="251.641245" y="138.969131" style="fill: #ff0000; stroke: #ff0000"/>
     <use xlink:href="#m9f674e5457" x="292.949727" y="164.371114" style="fill: #ff0000; stroke: #ff0000"/>
     <use xlink:href="#m9f674e5457" x="335.566698" y="192.766487" style="fill: #ff0000; stroke: #ff0000"/>
     <use xlink:href="#m9f674e5457" x="288.332986" y="161.708578" style="fill: #ff0000; stroke: #ff0000"/>
     <use xlink:href="#m9f674e5457" x="332.68999" y="191.368692" style="fill: #ff0000; stroke: #ff0000"/>
     <use xlink:href="#m9f674e5457" x="89.578431" y="60.081358" style="fill: #ff0000; stroke: #ff0000"/>
     <use xlink:href="#m9f674e5457" x="326.193708" y="186.71389" style="fill: #ff0000; stroke: #ff0000"/>
     <use xlink:href="#m9f674e5457" x="195.632767" y="103.424481" style="fill: #ff0000; stroke: #ff0000"/>
     <use xlink:href="#m9f674e5457" x="323.856872" y="183.421543" style="fill: #ff0000; stroke: #ff0000"/>
     <use xlink:href="#m9f674e5457" x="201.415525" y="107.616682" style="fill: #ff0000; stroke: #ff0000"/>
     <use xlink:href="#m9f674e5457" x="223.394607" y="121.113586" style="fill: #ff0000; stroke: #ff0000"/>
     <use xlink:href="#m9f674e5457" x="278.670146" y="156.712147" style="fill: #ff0000; stroke: #ff0000"/>
     <use xlink:href="#m9f674e5457" x="215.038371" y="116.913572" style="fill: #ff0000; stroke: #ff0000"/>
     <use xlink:href="#m9f674e5457" x="248.804689" y="137.220536" style="fill: #ff0000; stroke: #ff0000"/>
     <use xlink:href="#m9f674e5457" x="272.430826" y="156.173465" style="fill: #ff0000; stroke: #ff0000"/>
     <use xlink:href="#m9f674e5457" x="285.441514" y="160.787903" style="fill: #ff0000; stroke: #ff0000"/>
     <use xlink:href="#m9f674e5457" x="351.049859" y="210.890145" style="fill: #ff0000; stroke: #ff0000"/>
     <use xlink:href="#m9f674e5457" x="85.502686" y="58.346491" style="fill: #ff0000; stroke: #ff0000"/>
     <use xlink:href="#m9f674e5457" x="315.046077" y="176.403984" style="fill: #ff0000; stroke: #ff0000"/>
     <use xlink:href="#m9f674e5457" x="311.588278" y="174.856781" style="fill: #ff0000; stroke: #ff0000"/>
     <use xlink:href="#m9f674e5457" x="299.371805" y="168.40673" style="fill: #ff0000; stroke: #ff0000"/>
     <use xlink:href="#m9f674e5457" x="358.538158" y="211.694806" style="fill: #ff0000; stroke: #ff0000"/>
     <use xlink:href="#m9f674e5457" x="81.648807" y="57.511463" style="fill: #ff0000; stroke: #ff0000"/>
     <use xlink:href="#m9f674e5457" x="261.254298" y="147.733166" style="fill: #ff0000; stroke: #ff0000"/>
     <use xlink:href="#m9f674e5457" x="321.979183" y="181.015957" style="fill: #ff0000; stroke: #ff0000"/>
     <use xlink:href="#m9f674e5457" x="79.193435" y="56.102473" style="fill: #ff0000; stroke: #ff0000"/>
     <use xlink:href="#m9f674e5457" x="228.975983" y="125.46102" style="fill: #ff0000; stroke: #ff0000"/>
     <use xlink:href="#m9f674e5457" x="352.822916" y="211.23777" style="fill: #ff0000; stroke: #ff0000"/>
     <use xlink:href="#m9f674e5457" x="207.946482" y="112.197787" style="fill: #ff0000; stroke: #ff0000"/>
     <use xlink:href="#m9f674e5457" x="283.59203" y="157.543328" style="fill: #ff0000; stroke: #ff0000"/>
     <use xlink:href="#m9f674e5457" x="318.231844" y="180.713863" style="fill: #ff0000; stroke: #ff0000"/>
     <use xlink:href="#m9f674e5457" x="257.351338" y="145.241586" style="fill: #ff0000; stroke: #ff0000"/>
     <use xlink:href="#m9f674e5457" x="227.065045" y="122.348962" style="fill: #ff0000; stroke: #ff0000"/>
     <use xlink:href="#m9f674e5457" x="242.486597" y="131.862709" style="fill: #ff0000; stroke: #ff0000"/>
     <use xlink:href="#m9f674e5457" x="315.341964" y="179.592848" style="fill: #ff0000; stroke: #ff0000"/>
     <use xlink:href="#m9f674e5457" x="256.424633" y="141.13334" style="fill: #ff0000; stroke: #ff0000"/>
     <use xlink:href="#m9f674e5457" x="187.708387" y="99.065352" style="fill: #ff0000; stroke: #ff0000"/>
     <use xlink:href="#m9f674e5457" x="360.79579" y="212.05157" style="fill: #ff0000; stroke: #ff0000"/>
     <use xlink:href="#m9f674e5457" x="343.813148" y="204.061395" style="fill: #ff0000; stroke: #ff0000"/>
     <use xlink:href="#m9f674e5457" x="206.125432" y="109.125443" style="fill: #ff0000; stroke: #ff0000"/>
     <use xlink:href="#m9f674e5457" x="342.370438" y="198.617981" style="fill: #ff0000; stroke: #ff0000"/>
     <use xlink:href="#m9f674e5457" x="264.799218" y="149.455153" style="fill: #ff0000; stroke: #ff0000"/>
     <use xlink:href="#m9f674e5457" x="347.331901" y="207.758219" style="fill: #ff0000; stroke: #ff0000"/>
     <use xlink:href="#m9f674e5457" x="343.729202" y="203.975193" style="fill: #ff0000; stroke: #ff0000"/>
     <use xlink:href="#m9f674e5457" x="246.133172" y="134.466232" style="fill: #ff0000; stroke: #ff0000"/>
     <use xlink:href="#m9f674e5457" x="269.665619" y="152.817537" style="fill: #ff0000; stroke: #ff0000"/>
     <use xlink:href="#m9f674e5457" x="362.937356" y="214.77921" style="fill: #ff0000; stroke: #ff0000"/>
     <use xlink:href="#m9f674e5457" x="211.926067" y="112.578849" style="fill: #ff0000; stroke: #ff0000"/>
     <use xlink:href="#m9f674e5457" x="190.79656" y="102.213608" style="fill: #ff0000; stroke: #ff0000"/>
     <use xlink:href="#m9f674e5457" x="172.533447" y="89.256083" style="fill: #ff0000; stroke: #ff0000"/>
     <use xlink:href="#m9f674e5457" x="336.753212" y="198.192879" style="fill: #ff0000; stroke: #ff0000"/>
     <use xlink:href="#m9f674e5457" x="309.003762" y="173.744224" style="fill: #ff0000; stroke: #ff0000"/>
     <use xlink:href="#m9f674e5457" x="347.332123" y="207.758429" style="fill: #ff0000; stroke: #ff0000"/>
     <use xlink:href="#m9f674e5457" x="186.071937" y="98.244241" style="fill: #ff0000; stroke: #ff0000"/>
     <use xlink:href="#m9f674e5457" x="328.130974" y="189.60402" style="fill: #ff0000; stroke: #ff0000"/>
     <use xlink:href="#m9f674e5457" x="229.659763" y="130.950452" style="fill: #ff0000; stroke: #ff0000"/>
     <use xlink:href="#m9f674e5457" x="301.738522" y="170.408947" style="fill: #ff0000; stroke: #ff0000"/>
     <use xlink:href="#m9f674e5457" x="259.074894" y="146.812115" style="fill: #ff0000; stroke: #ff0000"/>
     <use xlink:href="#m9f674e5457" x="298.3904" y="165.384388" style="fill: #ff0000; stroke: #ff0000"/>
     <use xlink:href="#m9f674e5457" x="190.553538" y="101.320215" style="fill: #ff0000; stroke: #ff0000"/>
     <use xlink:href="#m9f674e5457" x="296.396453" y="165.094572" style="fill: #ff0000; stroke: #ff0000"/>
     <use xlink:href="#m9f674e5457" x="272.287222" y="154.026086" style="fill: #ff0000; stroke: #ff0000"/>
     <use xlink:href="#m9f674e5457" x="267.217699" y="151.874006" style="fill: #ff0000; stroke: #ff0000"/>
     <use xlink:href="#m9f674e5457" x="197.891899" y="105.373788" style="fill: #ff0000; stroke: #ff0000"/>
     <use xlink:href="#m9f674e5457" x="213.923446" y="113.511776" style="fill: #ff0000; stroke: #ff0000"/>
     <use xlink:href="#m9f674e5457" x="199.657002" y="105.497473" style="fill: #ff0000; stroke: #ff0000"/>
     <use xlink:href="#m9f674e5457" x="342.004841" y="198.614233" style="fill: #ff0000; stroke: #ff0000"/>
     <use xlink:href="#m9f674e5457" x="88.787863" y="59.352966" style="fill: #ff0000; stroke: #ff0000"/>
     <use xlink:href="#m9f674e5457" x="280.934384" y="157.371907" style="fill: #ff0000; stroke: #ff0000"/>
     <use xlink:href="#m9f674e5457" x="336.844698" y="198.193821" style="fill: #ff0000; stroke: #ff0000"/>
     <use xlink:href="#m9f674e5457" x="246.637482" y="134.85115" style="fill: #ff0000; stroke: #ff0000"/>
     <use xlink:href="#m9f674e5457" x="306.737132" y="172.750389" style="fill: #ff0000; stroke: #ff0000"/>
     <use xlink:href="#m9f674e5457" x="257.102816" y="141.173101" style="fill: #ff0000; stroke: #ff0000"/>
     <use xlink:href="#m9f674e5457" x="305.438347" y="171.892448" style="fill: #ff0000; stroke: #ff0000"/>
     <use xlink:href="#m9f674e5457" x="303.022356" y="171.169794" style="fill: #ff0000; stroke: #ff0000"/>
     <use xlink:href="#m9f674e5457" x="206.581693" y="109.909913" style="fill: #ff0000; stroke: #ff0000"/>
     <use xlink:href="#m9f674e5457" x="327.798925" y="189.490472" style="fill: #ff0000; stroke: #ff0000"/>
     <use xlink:href="#m9f674e5457" x="265.523688" y="150.765242" style="fill: #ff0000; stroke: #ff0000"/>
     <use xlink:href="#m9f674e5457" x="214.850371" y="115.55137" style="fill: #ff0000; stroke: #ff0000"/>
     <use xlink:href="#m9f674e5457" x="227.437868" y="124.73923" style="fill: #ff0000; stroke: #ff0000"/>
    </g>
   </g>
   <g id="PathCollection_2">
    <defs>
     <path id="m898d6b714f" d="M 0 3 
C 0.795609 3 1.55874 2.683901 2.12132 2.12132 
C 2.683901 1.55874 3 0.795609 3 0 
C 3 -0.795609 2.683901 -1.55874 2.12132 -2.12132 
C 1.55874 -2.683901 0.795609 -3 0 -3 
C -0.795609 -3 -1.55874 -2.683901 -2.12132 -2.12132 
C -2.683901 -1.55874 -3 -0.795609 -3 0 
C -3 0.795609 -2.683901 1.55874 -2.12132 2.12132 
C -1.55874 2.683901 -0.795609 3 0 3 
z
" style="stroke: #0000ff"/>
    </defs>
    <g clip-path="url(#p00ed5fbdaf)">
     <use xlink:href="#m898d6b714f" x="72.48" y="27.03672" style="fill: #0000ff; stroke: #0000ff"/>
     <use xlink:href="#m898d6b714f" x="370.08" y="296.496" style="fill: #0000ff; stroke: #0000ff"/>
     <use xlink:href="#m898d6b714f" x="364.838436" y="215.127556" style="fill: #0000ff; stroke: #0000ff"/>
     <use xlink:href="#m898d6b714f" x="76.96049" y="54.047035" style="fill: #0000ff; stroke: #0000ff"/>
     <use xlink:href="#m898d6b714f" x="158.181536" y="84.024216" style="fill: #0000ff; stroke: #0000ff"/>
     <use xlink:href="#m898d6b714f" x="157.144825" y="80.739272" style="fill: #0000ff; stroke: #0000ff"/>
     <use xlink:href="#m898d6b714f" x="143.387698" y="76.389392" style="fill: #0000ff; stroke: #0000ff"/>
     <use xlink:href="#m898d6b714f" x="141.937135" y="74.097989" style="fill: #0000ff; stroke: #0000ff"/>
     <use xlink:href="#m898d6b714f" x="128.70381" y="70.123283" style="fill: #0000ff; stroke: #0000ff"/>
     <use xlink:href="#m898d6b714f" x="128.077358" y="68.023032" style="fill: #0000ff; stroke: #0000ff"/>
     <use xlink:href="#m898d6b714f" x="172.360271" y="88.571492" style="fill: #0000ff; stroke: #0000ff"/>
     <use xlink:href="#m898d6b714f" x="98.821701" y="63.397847" style="fill: #0000ff; stroke: #0000ff"/>
     <use xlink:href="#m898d6b714f" x="172.957977" y="94.68117" style="fill: #0000ff; stroke: #0000ff"/>
     <use xlink:href="#m898d6b714f" x="113.609835" y="65.501429" style="fill: #0000ff; stroke: #0000ff"/>
     <use xlink:href="#m898d6b714f" x="113.508293" y="64.572459" style="fill: #0000ff; stroke: #0000ff"/>
     <use xlink:href="#m898d6b714f" x="183.829415" y="96.143449" style="fill: #0000ff; stroke: #0000ff"/>
     <use xlink:href="#m898d6b714f" x="241.142399" y="131.774316" style="fill: #0000ff; stroke: #0000ff"/>
     <use xlink:href="#m898d6b714f" x="221.124018" y="118.559485" style="fill: #0000ff; stroke: #0000ff"/>
     <use xlink:href="#m898d6b714f" x="97.442297" y="61.37785" style="fill: #0000ff; stroke: #0000ff"/>
     <use xlink:href="#m898d6b714f" x="229.663571" y="130.963906" style="fill: #0000ff; stroke: #0000ff"/>
     <use xlink:href="#m898d6b714f" x="251.641245" y="138.969131" style="fill: #0000ff; stroke: #0000ff"/>
     <use xlink:href="#m898d6b714f" x="292.949727" y="164.371114" style="fill: #0000ff; stroke: #0000ff"/>
     <use xlink:href="#m898d6b714f" x="335.566698" y="192.766487" style="fill: #0000ff; stroke: #0000ff"/>
     <use xlink:href="#m898d6b714f" x="288.332986" y="161.708578" style="fill: #0000ff; stroke: #0000ff"/>
     <use xlink:href="#m898d6b714f" x="332.68999" y="191.368692" style="fill: #0000ff; stroke: #0000ff"/>
     <use xlink:href="#m898d6b714f" x="89.578431" y="60.081358" style="fill: #0000ff; stroke: #0000ff"/>
     <use xlink:href="#m898d6b714f" x="326.193708" y="186.71389" style="fill: #0000ff; stroke: #0000ff"/>
     <use xlink:href="#m898d6b714f" x="195.632767" y="103.424481" style="fill: #0000ff; stroke: #0000ff"/>
     <use xlink:href="#m898d6b714f" x="323.856872" y="183.421543" style="fill: #0000ff; stroke: #0000ff"/>
     <use xlink:href="#m898d6b714f" x="201.415525" y="107.616682" style="fill: #0000ff; stroke: #0000ff"/>
     <use xlink:href="#m898d6b714f" x="223.394607" y="121.113586" style="fill: #0000ff; stroke: #0000ff"/>
     <use xlink:href="#m898d6b714f" x="278.670146" y="156.712147" style="fill: #0000ff; stroke: #0000ff"/>
     <use xlink:href="#m898d6b714f" x="215.038371" y="116.913572" style="fill: #0000ff; stroke: #0000ff"/>
     <use xlink:href="#m898d6b714f" x="248.804689" y="137.220536" style="fill: #0000ff; stroke: #0000ff"/>
     <use xlink:href="#m898d6b714f" x="272.430826" y="156.173465" style="fill: #0000ff; stroke: #0000ff"/>
     <use xlink:href="#m898d6b714f" x="285.441514" y="160.787903" style="fill: #0000ff; stroke: #0000ff"/>
     <use xlink:href="#m898d6b714f" x="351.049859" y="210.890145" style="fill: #0000ff; stroke: #0000ff"/>
     <use xlink:href="#m898d6b714f" x="85.502686" y="58.346491" style="fill: #0000ff; stroke: #0000ff"/>
     <use xlink:href="#m898d6b714f" x="315.046077" y="176.403984" style="fill: #0000ff; stroke: #0000ff"/>
     <use xlink:href="#m898d6b714f" x="311.588278" y="174.856781" style="fill: #0000ff; stroke: #0000ff"/>
     <use xlink:href="#m898d6b714f" x="299.371805" y="168.40673" style="fill: #0000ff; stroke: #0000ff"/>
     <use xlink:href="#m898d6b714f" x="358.538158" y="211.694806" style="fill: #0000ff; stroke: #0000ff"/>
     <use xlink:href="#m898d6b714f" x="81.648807" y="57.511463" style="fill: #0000ff; stroke: #0000ff"/>
     <use xlink:href="#m898d6b714f" x="261.254298" y="147.733166" style="fill: #0000ff; stroke: #0000ff"/>
     <use xlink:href="#m898d6b714f" x="321.979183" y="181.015957" style="fill: #0000ff; stroke: #0000ff"/>
     <use xlink:href="#m898d6b714f" x="79.193435" y="56.102473" style="fill: #0000ff; stroke: #0000ff"/>
     <use xlink:href="#m898d6b714f" x="228.975983" y="125.46102" style="fill: #0000ff; stroke: #0000ff"/>
     <use xlink:href="#m898d6b714f" x="352.822916" y="211.23777" style="fill: #0000ff; stroke: #0000ff"/>
     <use xlink:href="#m898d6b714f" x="207.946482" y="112.197787" style="fill: #0000ff; stroke: #0000ff"/>
     <use xlink:href="#m898d6b714f" x="283.59203" y="157.543328" style="fill: #0000ff; stroke: #0000ff"/>
     <use xlink:href="#m898d6b714f" x="318.231844" y="180.713863" style="fill: #0000ff; stroke: #0000ff"/>
     <use xlink:href="#m898d6b714f" x="257.351338" y="145.241586" style="fill: #0000ff; stroke: #0000ff"/>
     <use xlink:href="#m898d6b714f" x="227.065045" y="122.348962" style="fill: #0000ff; stroke: #0000ff"/>
     <use xlink:href="#m898d6b714f" x="242.486597" y="131.862709" style="fill: #0000ff; stroke: #0000ff"/>
     <use xlink:href="#m898d6b714f" x="315.341964" y="179.592848" style="fill: #0000ff; stroke: #0000ff"/>
     <use xlink:href="#m898d6b714f" x="256.424633" y="141.13334" style="fill: #0000ff; stroke: #0000ff"/>
     <use xlink:href="#m898d6b714f" x="187.708387" y="99.065352" style="fill: #0000ff; stroke: #0000ff"/>
     <use xlink:href="#m898d6b714f" x="360.79579" y="212.05157" style="fill: #0000ff; stroke: #0000ff"/>
     <use xlink:href="#m898d6b714f" x="343.813148" y="204.061395" style="fill: #0000ff; stroke: #0000ff"/>
     <use xlink:href="#m898d6b714f" x="206.125432" y="109.125443" style="fill: #0000ff; stroke: #0000ff"/>
     <use xlink:href="#m898d6b714f" x="342.370438" y="198.617981" style="fill: #0000ff; stroke: #0000ff"/>
     <use xlink:href="#m898d6b714f" x="264.799218" y="149.455153" style="fill: #0000ff; stroke: #0000ff"/>
     <use xlink:href="#m898d6b714f" x="347.331901" y="207.758219" style="fill: #0000ff; stroke: #0000ff"/>
     <use xlink:href="#m898d6b714f" x="343.729202" y="203.975193" style="fill: #0000ff; stroke: #0000ff"/>
     <use xlink:href="#m898d6b714f" x="246.133172" y="134.466232" style="fill: #0000ff; stroke: #0000ff"/>
     <use xlink:href="#m898d6b714f" x="269.665619" y="152.817537" style="fill: #0000ff; stroke: #0000ff"/>
     <use xlink:href="#m898d6b714f" x="362.937356" y="214.77921" style="fill: #0000ff; stroke: #0000ff"/>
     <use xlink:href="#m898d6b714f" x="211.926067" y="112.578849" style="fill: #0000ff; stroke: #0000ff"/>
     <use xlink:href="#m898d6b714f" x="190.79656" y="102.213608" style="fill: #0000ff; stroke: #0000ff"/>
     <use xlink:href="#m898d6b714f" x="172.533447" y="89.256083" style="fill: #0000ff; stroke: #0000ff"/>
     <use xlink:href="#m898d6b714f" x="336.753212" y="198.192879" style="fill: #0000ff; stroke: #0000ff"/>
     <use xlink:href="#m898d6b714f" x="309.003762" y="173.744224" style="fill: #0000ff; stroke: #0000ff"/>
     <use xlink:href="#m898d6b714f" x="347.332123" y="207.758429" style="fill: #0000ff; stroke: #0000ff"/>
     <use xlink:href="#m898d6b714f" x="186.071937" y="98.244241" style="fill: #0000ff; stroke: #0000ff"/>
     <use xlink:href="#m898d6b714f" x="328.130974" y="189.60402" style="fill: #0000ff; stroke: #0000ff"/>
     <use xlink:href="#m898d6b714f" x="229.659763" y="130.950452" style="fill: #0000ff; stroke: #0000ff"/>
     <use xlink:href="#m898d6b714f" x="301.738522" y="170.408947" style="fill: #0000ff; stroke: #0000ff"/>
     <use xlink:href="#m898d6b714f" x="259.074894" y="146.812115" style="fill: #0000ff; stroke: #0000ff"/>
     <use xlink:href="#m898d6b714f" x="298.3904" y="165.384388" style="fill: #0000ff; stroke: #0000ff"/>
     <use xlink:href="#m898d6b714f" x="190.553538" y="101.320215" style="fill: #0000ff; stroke: #0000ff"/>
     <use xlink:href="#m898d6b714f" x="296.396453" y="165.094572" style="fill: #0000ff; stroke: #0000ff"/>
     <use xlink:href="#m898d6b714f" x="272.287222" y="154.026086" style="fill: #0000ff; stroke: #0000ff"/>
     <use xlink:href="#m898d6b714f" x="267.217699" y="151.874006" style="fill: #0000ff; stroke: #0000ff"/>
     <use xlink:href="#m898d6b714f" x="197.891899" y="105.373788" style="fill: #0000ff; stroke: #0000ff"/>
     <use xlink:href="#m898d6b714f" x="213.923446" y="113.511776" style="fill: #0000ff; stroke: #0000ff"/>
     <use xlink:href="#m898d6b714f" x="199.657002" y="105.497473" style="fill: #0000ff; stroke: #0000ff"/>
     <use xlink:href="#m898d6b714f" x="342.004841" y="198.614233" style="fill: #0000ff; stroke: #0000ff"/>
     <use xlink:href="#m898d6b714f" x="88.787863" y="59.352966" style="fill: #0000ff; stroke: #0000ff"/>
     <use xlink:href="#m898d6b714f" x="280.934384" y="157.371907" style="fill: #0000ff; stroke: #0000ff"/>
     <use xlink:href="#m898d6b714f" x="336.844698" y="198.193821" style="fill: #0000ff; stroke: #0000ff"/>
     <use xlink:href="#m898d6b714f" x="246.637482" y="134.85115" style="fill: #0000ff; stroke: #0000ff"/>
     <use xlink:href="#m898d6b714f" x="306.737132" y="172.750389" style="fill: #0000ff; stroke: #0000ff"/>
     <use xlink:href="#m898d6b714f" x="257.102816" y="141.173101" style="fill: #0000ff; stroke: #0000ff"/>
     <use xlink:href="#m898d6b714f" x="305.438347" y="171.892448" style="fill: #0000ff; stroke: #0000ff"/>
     <use xlink:href="#m898d6b714f" x="303.022356" y="171.169794" style="fill: #0000ff; stroke: #0000ff"/>
     <use xlink:href="#m898d6b714f" x="206.581693" y="109.909913" style="fill: #0000ff; stroke: #0000ff"/>
     <use xlink:href="#m898d6b714f" x="327.798925" y="189.490472" style="fill: #0000ff; stroke: #0000ff"/>
     <use xlink:href="#m898d6b714f" x="265.523688" y="150.765242" style="fill: #0000ff; stroke: #0000ff"/>
     <use xlink:href="#m898d6b714f" x="214.850371" y="115.55137" style="fill: #0000ff; stroke: #0000ff"/>
     <use xlink:href="#m898d6b714f" x="227.437868" y="124.73923" style="fill: #0000ff; stroke: #0000ff"/>
    </g>
   </g>
   <g id="matplotlib.axis_1">
    <g id="xtick_1">
     <g id="line2d_1">
      <defs>
       <path id="m0c57606517" d="M 0 0 
L 0 3.5 
" style="stroke: #000000; stroke-width: 0.8"/>
      </defs>
      <g>
       <use xlink:href="#m0c57606517" x="72.48" y="307.584" style="stroke: #000000; stroke-width: 0.8"/>
      </g>
     </g>
     <g id="text_1">
      <!-- 0 -->
      <g transform="translate(69.29875 322.182437)scale(0.1 -0.1)">
       <defs>
        <path id="DejaVuSans-30" d="M 2034 4250 
Q 1547 4250 1301 3770 
Q 1056 3291 1056 2328 
Q 1056 1369 1301 889 
Q 1547 409 2034 409 
Q 2525 409 2770 889 
Q 3016 1369 3016 2328 
Q 3016 3291 2770 3770 
Q 2525 4250 2034 4250 
z
M 2034 4750 
Q 2819 4750 3233 4129 
Q 3647 3509 3647 2328 
Q 3647 1150 3233 529 
Q 2819 -91 2034 -91 
Q 1250 -91 836 529 
Q 422 1150 422 2328 
Q 422 3509 836 4129 
Q 1250 4750 2034 4750 
z
" transform="scale(0.015625)"/>
       </defs>
       <use xlink:href="#DejaVuSans-30"/>
      </g>
     </g>
    </g>
    <g id="xtick_2">
     <g id="line2d_2">
      <g>
       <use xlink:href="#m0c57606517" x="221.28" y="307.584" style="stroke: #000000; stroke-width: 0.8"/>
      </g>
     </g>
     <g id="text_2">
      <!-- 1 -->
      <g transform="translate(218.09875 322.182437)scale(0.1 -0.1)">
       <defs>
        <path id="DejaVuSans-31" d="M 794 531 
L 1825 531 
L 1825 4091 
L 703 3866 
L 703 4441 
L 1819 4666 
L 2450 4666 
L 2450 531 
L 3481 531 
L 3481 0 
L 794 0 
L 794 531 
z
" transform="scale(0.015625)"/>
       </defs>
       <use xlink:href="#DejaVuSans-31"/>
      </g>
     </g>
    </g>
    <g id="xtick_3">
     <g id="line2d_3">
      <g>
       <use xlink:href="#m0c57606517" x="370.08" y="307.584" style="stroke: #000000; stroke-width: 0.8"/>
      </g>
     </g>
     <g id="text_3">
      <!-- 2 -->
      <g transform="translate(366.89875 322.182437)scale(0.1 -0.1)">
       <defs>
        <path id="DejaVuSans-32" d="M 1228 531 
L 3431 531 
L 3431 0 
L 469 0 
L 469 531 
Q 828 903 1448 1529 
Q 2069 2156 2228 2338 
Q 2531 2678 2651 2914 
Q 2772 3150 2772 3378 
Q 2772 3750 2511 3984 
Q 2250 4219 1831 4219 
Q 1534 4219 1204 4116 
Q 875 4013 500 3803 
L 500 4441 
Q 881 4594 1212 4672 
Q 1544 4750 1819 4750 
Q 2544 4750 2975 4387 
Q 3406 4025 3406 3419 
Q 3406 3131 3298 2873 
Q 3191 2616 2906 2266 
Q 2828 2175 2409 1742 
Q 1991 1309 1228 531 
z
" transform="scale(0.015625)"/>
       </defs>
       <use xlink:href="#DejaVuSans-32"/>
      </g>
     </g>
    </g>
   </g>
   <g id="matplotlib.axis_2">
    <g id="ytick_1">
     <g id="line2d_4">
      <defs>
       <path id="m4546963d3b" d="M 0 0 
L -3.5 0 
" style="stroke: #000000; stroke-width: 0.8"/>
      </defs>
      <g>
       <use xlink:href="#m4546963d3b" x="57.6" y="296.496" style="stroke: #000000; stroke-width: 0.8"/>
      </g>
     </g>
     <g id="text_4">
      <!-- 0 -->
      <g transform="translate(44.2375 300.295219)scale(0.1 -0.1)">
       <use xlink:href="#DejaVuSans-30"/>
      </g>
     </g>
    </g>
    <g id="ytick_2">
     <g id="line2d_5">
      <g>
       <use xlink:href="#m4546963d3b" x="57.6" y="185.616" style="stroke: #000000; stroke-width: 0.8"/>
      </g>
     </g>
     <g id="text_5">
      <!-- 1 -->
      <g transform="translate(44.2375 189.415219)scale(0.1 -0.1)">
       <use xlink:href="#DejaVuSans-31"/>
      </g>
     </g>
    </g>
    <g id="ytick_3">
     <g id="line2d_6">
      <g>
       <use xlink:href="#m4546963d3b" x="57.6" y="74.736" style="stroke: #000000; stroke-width: 0.8"/>
      </g>
     </g>
     <g id="text_6">
      <!-- 2 -->
      <g transform="translate(44.2375 78.535219)scale(0.1 -0.1)">
       <use xlink:href="#DejaVuSans-32"/>
      </g>
     </g>
    </g>
   </g>
   <g id="patch_3">
    <path d="M 57.6 307.584 
L 57.6 41.472 
" style="fill: none; stroke: #000000; stroke-width: 0.8; stroke-linejoin: miter; stroke-linecap: square"/>
   </g>
   <g id="patch_4">
    <path d="M 414.72 307.584 
L 414.72 41.472 
" style="fill: none; stroke: #000000; stroke-width: 0.8; stroke-linejoin: miter; stroke-linecap: square"/>
   </g>
   <g id="patch_5">
    <path d="M 57.6 307.584 
L 414.72 307.584 
" style="fill: none; stroke: #000000; stroke-width: 0.8; stroke-linejoin: miter; stroke-linecap: square"/>
   </g>
   <g id="patch_6">
    <path d="M 57.6 41.472 
L 414.72 41.472 
" style="fill: none; stroke: #000000; stroke-width: 0.8; stroke-linejoin: miter; stroke-linecap: square"/>
   </g>
   <g id="text_7">
    <!-- 349_n_1998 AREA: 3.088 -->
    <g transform="translate(160.559062 35.472)scale(0.12 -0.12)">
     <defs>
      <path id="DejaVuSans-33" d="M 2597 2516 
Q 3050 2419 3304 2112 
Q 3559 1806 3559 1356 
Q 3559 666 3084 287 
Q 2609 -91 1734 -91 
Q 1441 -91 1130 -33 
Q 819 25 488 141 
L 488 750 
Q 750 597 1062 519 
Q 1375 441 1716 441 
Q 2309 441 2620 675 
Q 2931 909 2931 1356 
Q 2931 1769 2642 2001 
Q 2353 2234 1838 2234 
L 1294 2234 
L 1294 2753 
L 1863 2753 
Q 2328 2753 2575 2939 
Q 2822 3125 2822 3475 
Q 2822 3834 2567 4026 
Q 2313 4219 1838 4219 
Q 1578 4219 1281 4162 
Q 984 4106 628 3988 
L 628 4550 
Q 988 4650 1302 4700 
Q 1616 4750 1894 4750 
Q 2613 4750 3031 4423 
Q 3450 4097 3450 3541 
Q 3450 3153 3228 2886 
Q 3006 2619 2597 2516 
z
" transform="scale(0.015625)"/>
      <path id="DejaVuSans-34" d="M 2419 4116 
L 825 1625 
L 2419 1625 
L 2419 4116 
z
M 2253 4666 
L 3047 4666 
L 3047 1625 
L 3713 1625 
L 3713 1100 
L 3047 1100 
L 3047 0 
L 2419 0 
L 2419 1100 
L 313 1100 
L 313 1709 
L 2253 4666 
z
" transform="scale(0.015625)"/>
      <path id="DejaVuSans-39" d="M 703 97 
L 703 672 
Q 941 559 1184 500 
Q 1428 441 1663 441 
Q 2288 441 2617 861 
Q 2947 1281 2994 2138 
Q 2813 1869 2534 1725 
Q 2256 1581 1919 1581 
Q 1219 1581 811 2004 
Q 403 2428 403 3163 
Q 403 3881 828 4315 
Q 1253 4750 1959 4750 
Q 2769 4750 3195 4129 
Q 3622 3509 3622 2328 
Q 3622 1225 3098 567 
Q 2575 -91 1691 -91 
Q 1453 -91 1209 -44 
Q 966 3 703 97 
z
M 1959 2075 
Q 2384 2075 2632 2365 
Q 2881 2656 2881 3163 
Q 2881 3666 2632 3958 
Q 2384 4250 1959 4250 
Q 1534 4250 1286 3958 
Q 1038 3666 1038 3163 
Q 1038 2656 1286 2365 
Q 1534 2075 1959 2075 
z
" transform="scale(0.015625)"/>
      <path id="DejaVuSans-5f" d="M 3263 -1063 
L 3263 -1509 
L -63 -1509 
L -63 -1063 
L 3263 -1063 
z
" transform="scale(0.015625)"/>
      <path id="DejaVuSans-6e" d="M 3513 2113 
L 3513 0 
L 2938 0 
L 2938 2094 
Q 2938 2591 2744 2837 
Q 2550 3084 2163 3084 
Q 1697 3084 1428 2787 
Q 1159 2491 1159 1978 
L 1159 0 
L 581 0 
L 581 3500 
L 1159 3500 
L 1159 2956 
Q 1366 3272 1645 3428 
Q 1925 3584 2291 3584 
Q 2894 3584 3203 3211 
Q 3513 2838 3513 2113 
z
" transform="scale(0.015625)"/>
      <path id="DejaVuSans-38" d="M 2034 2216 
Q 1584 2216 1326 1975 
Q 1069 1734 1069 1313 
Q 1069 891 1326 650 
Q 1584 409 2034 409 
Q 2484 409 2743 651 
Q 3003 894 3003 1313 
Q 3003 1734 2745 1975 
Q 2488 2216 2034 2216 
z
M 1403 2484 
Q 997 2584 770 2862 
Q 544 3141 544 3541 
Q 544 4100 942 4425 
Q 1341 4750 2034 4750 
Q 2731 4750 3128 4425 
Q 3525 4100 3525 3541 
Q 3525 3141 3298 2862 
Q 3072 2584 2669 2484 
Q 3125 2378 3379 2068 
Q 3634 1759 3634 1313 
Q 3634 634 3220 271 
Q 2806 -91 2034 -91 
Q 1263 -91 848 271 
Q 434 634 434 1313 
Q 434 1759 690 2068 
Q 947 2378 1403 2484 
z
M 1172 3481 
Q 1172 3119 1398 2916 
Q 1625 2713 2034 2713 
Q 2441 2713 2670 2916 
Q 2900 3119 2900 3481 
Q 2900 3844 2670 4047 
Q 2441 4250 2034 4250 
Q 1625 4250 1398 4047 
Q 1172 3844 1172 3481 
z
" transform="scale(0.015625)"/>
      <path id="DejaVuSans-20" transform="scale(0.015625)"/>
      <path id="DejaVuSans-41" d="M 2188 4044 
L 1331 1722 
L 3047 1722 
L 2188 4044 
z
M 1831 4666 
L 2547 4666 
L 4325 0 
L 3669 0 
L 3244 1197 
L 1141 1197 
L 716 0 
L 50 0 
L 1831 4666 
z
" transform="scale(0.015625)"/>
      <path id="DejaVuSans-52" d="M 2841 2188 
Q 3044 2119 3236 1894 
Q 3428 1669 3622 1275 
L 4263 0 
L 3584 0 
L 2988 1197 
Q 2756 1666 2539 1819 
Q 2322 1972 1947 1972 
L 1259 1972 
L 1259 0 
L 628 0 
L 628 4666 
L 2053 4666 
Q 2853 4666 3247 4331 
Q 3641 3997 3641 3322 
Q 3641 2881 3436 2590 
Q 3231 2300 2841 2188 
z
M 1259 4147 
L 1259 2491 
L 2053 2491 
Q 2509 2491 2742 2702 
Q 2975 2913 2975 3322 
Q 2975 3731 2742 3939 
Q 2509 4147 2053 4147 
L 1259 4147 
z
" transform="scale(0.015625)"/>
      <path id="DejaVuSans-45" d="M 628 4666 
L 3578 4666 
L 3578 4134 
L 1259 4134 
L 1259 2753 
L 3481 2753 
L 3481 2222 
L 1259 2222 
L 1259 531 
L 3634 531 
L 3634 0 
L 628 0 
L 628 4666 
z
" transform="scale(0.015625)"/>
      <path id="DejaVuSans-3a" d="M 750 794 
L 1409 794 
L 1409 0 
L 750 0 
L 750 794 
z
M 750 3309 
L 1409 3309 
L 1409 2516 
L 750 2516 
L 750 3309 
z
" transform="scale(0.015625)"/>
      <path id="DejaVuSans-2e" d="M 684 794 
L 1344 794 
L 1344 0 
L 684 0 
L 684 794 
z
" transform="scale(0.015625)"/>
     </defs>
     <use xlink:href="#DejaVuSans-33"/>
     <use xlink:href="#DejaVuSans-34" x="63.623047"/>
     <use xlink:href="#DejaVuSans-39" x="127.246094"/>
     <use xlink:href="#DejaVuSans-5f" x="190.869141"/>
     <use xlink:href="#DejaVuSans-6e" x="240.869141"/>
     <use xlink:href="#DejaVuSans-5f" x="304.248047"/>
     <use xlink:href="#DejaVuSans-31" x="354.248047"/>
     <use xlink:href="#DejaVuSans-39" x="417.871094"/>
     <use xlink:href="#DejaVuSans-39" x="481.494141"/>
     <use xlink:href="#DejaVuSans-38" x="545.117188"/>
     <use xlink:href="#DejaVuSans-20" x="608.740234"/>
     <use xlink:href="#DejaVuSans-41" x="640.527344"/>
     <use xlink:href="#DejaVuSans-52" x="708.935547"/>
     <use xlink:href="#DejaVuSans-45" x="778.417969"/>
     <use xlink:href="#DejaVuSans-41" x="841.601562"/>
     <use xlink:href="#DejaVuSans-3a" x="908.259766"/>
     <use xlink:href="#DejaVuSans-20" x="941.951172"/>
     <use xlink:href="#DejaVuSans-33" x="973.738281"/>
     <use xlink:href="#DejaVuSans-2e" x="1037.361328"/>
     <use xlink:href="#DejaVuSans-30" x="1069.148438"/>
     <use xlink:href="#DejaVuSans-38" x="1132.771484"/>
     <use xlink:href="#DejaVuSans-38" x="1196.394531"/>
    </g>
   </g>
  </g>
 </g>
 <defs>
  <clipPath id="p00ed5fbdaf">
   <rect x="57.6" y="41.472" width="357.12" height="266.112"/>
  </clipPath>
 </defs>
</svg>
