<?xml version="1.0" encoding="utf-8" standalone="no"?>
<!DOCTYPE svg PUBLIC "-//W3C//DTD SVG 1.1//EN"
  "http://www.w3.org/Graphics/SVG/1.1/DTD/svg11.dtd">
<svg xmlns:xlink="http://www.w3.org/1999/xlink" width="460.8pt" height="345.6pt" viewBox="0 0 460.8 345.6" xmlns="http://www.w3.org/2000/svg" version="1.1">
 <metadata>
  <rdf:RDF xmlns:dc="http://purl.org/dc/elements/1.1/" xmlns:cc="http://creativecommons.org/ns#" xmlns:rdf="http://www.w3.org/1999/02/22-rdf-syntax-ns#">
   <cc:Work>
    <dc:type rdf:resource="http://purl.org/dc/dcmitype/StillImage"/>
    <dc:date>2023-05-29T01:39:02.070914</dc:date>
    <dc:format>image/svg+xml</dc:format>
    <dc:creator>
     <cc:Agent>
      <dc:title>Matplotlib v3.5.3, https://matplotlib.org/</dc:title>
     </cc:Agent>
    </dc:creator>
   </cc:Work>
  </rdf:RDF>
 </metadata>
 <defs>
  <style type="text/css">*{stroke-linejoin: round; stroke-linecap: butt}</style>
 </defs>
 <g id="figure_1">
  <g id="patch_1">
   <path d="M 0 345.6 
L 460.8 345.6 
L 460.8 0 
L 0 0 
z
" style="fill: #ffffff"/>
  </g>
  <g id="axes_1">
   <g id="patch_2">
    <path d="M 57.6 307.584 
L 414.72 307.584 
L 414.72 41.472 
L 57.6 41.472 
z
" style="fill: #ffffff"/>
   </g>
   <g id="PathCollection_1">
    <defs>
     <path id="mb5d6b9a398" d="M 0 3 
C 0.795609 3 1.55874 2.683901 2.12132 2.12132 
C 2.683901 1.55874 3 0.795609 3 0 
C 3 -0.795609 2.683901 -1.55874 2.12132 -2.12132 
C 1.55874 -2.683901 0.795609 -3 0 -3 
C -0.795609 -3 -1.55874 -2.683901 -2.12132 -2.12132 
C -2.683901 -1.55874 -3 -0.795609 -3 0 
C -3 0.795609 -2.683901 1.55874 -2.12132 2.12132 
C -1.55874 2.683901 -0.795609 3 0 3 
z
" style="stroke: #ff0000"/>
    </defs>
    <g clip-path="url(#pb1248413cc)">
     <use xlink:href="#mb5d6b9a398" x="73.709279" y="125.219954" style="fill: #ff0000; stroke: #ff0000"/>
     <use xlink:href="#mb5d6b9a398" x="318.937781" y="257.723642" style="fill: #ff0000; stroke: #ff0000"/>
     <use xlink:href="#mb5d6b9a398" x="173.138824" y="187.578792" style="fill: #ff0000; stroke: #ff0000"/>
     <use xlink:href="#mb5d6b9a398" x="207.8818" y="225.65274" style="fill: #ff0000; stroke: #ff0000"/>
     <use xlink:href="#mb5d6b9a398" x="303.075246" y="257.723413" style="fill: #ff0000; stroke: #ff0000"/>
     <use xlink:href="#mb5d6b9a398" x="301.772389" y="247.784442" style="fill: #ff0000; stroke: #ff0000"/>
     <use xlink:href="#mb5d6b9a398" x="293.66826" y="243.693994" style="fill: #ff0000; stroke: #ff0000"/>
     <use xlink:href="#mb5d6b9a398" x="283.271304" y="240.148645" style="fill: #ff0000; stroke: #ff0000"/>
     <use xlink:href="#mb5d6b9a398" x="133.28047" y="165.695909" style="fill: #ff0000; stroke: #ff0000"/>
     <use xlink:href="#mb5d6b9a398" x="118.71611" y="164.285233" style="fill: #ff0000; stroke: #ff0000"/>
     <use xlink:href="#mb5d6b9a398" x="162.177893" y="184.310098" style="fill: #ff0000; stroke: #ff0000"/>
     <use xlink:href="#mb5d6b9a398" x="287.094651" y="243.693938" style="fill: #ff0000; stroke: #ff0000"/>
     <use xlink:href="#mb5d6b9a398" x="161.048156" y="179.069497" style="fill: #ff0000; stroke: #ff0000"/>
     <use xlink:href="#mb5d6b9a398" x="153.84309" y="174.877307" style="fill: #ff0000; stroke: #ff0000"/>
     <use xlink:href="#mb5d6b9a398" x="105.132001" y="153.956606" style="fill: #ff0000; stroke: #ff0000"/>
     <use xlink:href="#mb5d6b9a398" x="99.209943" y="149.39329" style="fill: #ff0000; stroke: #ff0000"/>
     <use xlink:href="#mb5d6b9a398" x="264.456608" y="232.311656" style="fill: #ff0000; stroke: #ff0000"/>
     <use xlink:href="#mb5d6b9a398" x="246.259841" y="228.91399" style="fill: #ff0000; stroke: #ff0000"/>
     <use xlink:href="#mb5d6b9a398" x="273.206724" y="234.508549" style="fill: #ff0000; stroke: #ff0000"/>
     <use xlink:href="#mb5d6b9a398" x="278.174118" y="237.103537" style="fill: #ff0000; stroke: #ff0000"/>
     <use xlink:href="#mb5d6b9a398" x="256.981362" y="230.462432" style="fill: #ff0000; stroke: #ff0000"/>
     <use xlink:href="#mb5d6b9a398" x="161.843216" y="179.254287" style="fill: #ff0000; stroke: #ff0000"/>
     <use xlink:href="#mb5d6b9a398" x="140.700691" y="169.704656" style="fill: #ff0000; stroke: #ff0000"/>
     <use xlink:href="#mb5d6b9a398" x="270.724343" y="234.508519" style="fill: #ff0000; stroke: #ff0000"/>
     <use xlink:href="#mb5d6b9a398" x="240.092267" y="228.91299" style="fill: #ff0000; stroke: #ff0000"/>
     <use xlink:href="#mb5d6b9a398" x="266.823684" y="232.311687" style="fill: #ff0000; stroke: #ff0000"/>
     <use xlink:href="#mb5d6b9a398" x="150.031413" y="174.341342" style="fill: #ff0000; stroke: #ff0000"/>
     <use xlink:href="#mb5d6b9a398" x="111.805691" y="163.185839" style="fill: #ff0000; stroke: #ff0000"/>
     <use xlink:href="#mb5d6b9a398" x="253.257485" y="230.462331" style="fill: #ff0000; stroke: #ff0000"/>
     <use xlink:href="#mb5d6b9a398" x="277.460092" y="237.103534" style="fill: #ff0000; stroke: #ff0000"/>
     <use xlink:href="#mb5d6b9a398" x="146.32067" y="171.840947" style="fill: #ff0000; stroke: #ff0000"/>
     <use xlink:href="#mb5d6b9a398" x="162.112517" y="184.27994" style="fill: #ff0000; stroke: #ff0000"/>
     <use xlink:href="#mb5d6b9a398" x="145.838742" y="171.346567" style="fill: #ff0000; stroke: #ff0000"/>
     <use xlink:href="#mb5d6b9a398" x="219.613569" y="226.545" style="fill: #ff0000; stroke: #ff0000"/>
     <use xlink:href="#mb5d6b9a398" x="117.79591" y="163.758172" style="fill: #ff0000; stroke: #ff0000"/>
     <use xlink:href="#mb5d6b9a398" x="214.197167" y="225.655555" style="fill: #ff0000; stroke: #ff0000"/>
     <use xlink:href="#mb5d6b9a398" x="105.159324" y="157.22878" style="fill: #ff0000; stroke: #ff0000"/>
     <use xlink:href="#mb5d6b9a398" x="235.854206" y="227.621587" style="fill: #ff0000; stroke: #ff0000"/>
     <use xlink:href="#mb5d6b9a398" x="106.615566" y="161.181447" style="fill: #ff0000; stroke: #ff0000"/>
     <use xlink:href="#mb5d6b9a398" x="232.107027" y="227.620374" style="fill: #ff0000; stroke: #ff0000"/>
     <use xlink:href="#mb5d6b9a398" x="92.935155" y="139.680561" style="fill: #ff0000; stroke: #ff0000"/>
     <use xlink:href="#mb5d6b9a398" x="91.560222" y="136.993215" style="fill: #ff0000; stroke: #ff0000"/>
     <use xlink:href="#mb5d6b9a398" x="75.603266" y="128.10261" style="fill: #ff0000; stroke: #ff0000"/>
     <use xlink:href="#mb5d6b9a398" x="91.664559" y="139.155175" style="fill: #ff0000; stroke: #ff0000"/>
     <use xlink:href="#mb5d6b9a398" x="105.542949" y="158.433248" style="fill: #ff0000; stroke: #ff0000"/>
     <use xlink:href="#mb5d6b9a398" x="105.13206" y="153.993901" style="fill: #ff0000; stroke: #ff0000"/>
     <use xlink:href="#mb5d6b9a398" x="97.168416" y="145.752088" style="fill: #ff0000; stroke: #ff0000"/>
     <use xlink:href="#mb5d6b9a398" x="138.786712" y="168.920822" style="fill: #ff0000; stroke: #ff0000"/>
     <use xlink:href="#mb5d6b9a398" x="84.830772" y="130.851766" style="fill: #ff0000; stroke: #ff0000"/>
     <use xlink:href="#mb5d6b9a398" x="82.040206" y="129.651022" style="fill: #ff0000; stroke: #ff0000"/>
     <use xlink:href="#mb5d6b9a398" x="227.126742" y="227.620247" style="fill: #ff0000; stroke: #ff0000"/>
     <use xlink:href="#mb5d6b9a398" x="136.464791" y="167.478115" style="fill: #ff0000; stroke: #ff0000"/>
     <use xlink:href="#mb5d6b9a398" x="111.61483" y="161.699775" style="fill: #ff0000; stroke: #ff0000"/>
     <use xlink:href="#mb5d6b9a398" x="90.288129" y="135.052063" style="fill: #ff0000; stroke: #ff0000"/>
     <use xlink:href="#mb5d6b9a398" x="88.747292" y="133.417316" style="fill: #ff0000; stroke: #ff0000"/>
     <use xlink:href="#mb5d6b9a398" x="92.949221" y="141.968782" style="fill: #ff0000; stroke: #ff0000"/>
     <use xlink:href="#mb5d6b9a398" x="96.670251" y="144.057576" style="fill: #ff0000; stroke: #ff0000"/>
     <use xlink:href="#mb5d6b9a398" x="225.038267" y="226.547792" style="fill: #ff0000; stroke: #ff0000"/>
     <use xlink:href="#mb5d6b9a398" x="210.658536" y="225.652754" style="fill: #ff0000; stroke: #ff0000"/>
     <use xlink:href="#mb5d6b9a398" x="90.730842" y="136.160773" style="fill: #ff0000; stroke: #ff0000"/>
     <use xlink:href="#mb5d6b9a398" x="82.004706" y="129.212922" style="fill: #ff0000; stroke: #ff0000"/>
     <use xlink:href="#mb5d6b9a398" x="151.763424" y="174.464362" style="fill: #ff0000; stroke: #ff0000"/>
     <use xlink:href="#mb5d6b9a398" x="135.941845" y="166.38409" style="fill: #ff0000; stroke: #ff0000"/>
     <use xlink:href="#mb5d6b9a398" x="97.782814" y="146.741546" style="fill: #ff0000; stroke: #ff0000"/>
     <use xlink:href="#mb5d6b9a398" x="88.898245" y="134.357983" style="fill: #ff0000; stroke: #ff0000"/>
     <use xlink:href="#mb5d6b9a398" x="79.263071" y="128.49717" style="fill: #ff0000; stroke: #ff0000"/>
     <use xlink:href="#mb5d6b9a398" x="109.721572" y="161.43486" style="fill: #ff0000; stroke: #ff0000"/>
     <use xlink:href="#mb5d6b9a398" x="85.076002" y="132.24375" style="fill: #ff0000; stroke: #ff0000"/>
     <use xlink:href="#mb5d6b9a398" x="97.999175" y="148.501981" style="fill: #ff0000; stroke: #ff0000"/>
     <use xlink:href="#mb5d6b9a398" x="226.60171" y="227.619952" style="fill: #ff0000; stroke: #ff0000"/>
     <use xlink:href="#mb5d6b9a398" x="79.269987" y="128.546085" style="fill: #ff0000; stroke: #ff0000"/>
     <use xlink:href="#mb5d6b9a398" x="221.636038" y="226.545281" style="fill: #ff0000; stroke: #ff0000"/>
     <use xlink:href="#mb5d6b9a398" x="133.384452" y="166.356415" style="fill: #ff0000; stroke: #ff0000"/>
     <use xlink:href="#mb5d6b9a398" x="96.419675" y="143.398194" style="fill: #ff0000; stroke: #ff0000"/>
     <use xlink:href="#mb5d6b9a398" x="234.333671" y="227.621311" style="fill: #ff0000; stroke: #ff0000"/>
     <use xlink:href="#mb5d6b9a398" x="243.811593" y="228.913011" style="fill: #ff0000; stroke: #ff0000"/>
     <use xlink:href="#mb5d6b9a398" x="256.464638" y="230.462366" style="fill: #ff0000; stroke: #ff0000"/>
     <use xlink:href="#mb5d6b9a398" x="107.708258" y="161.391568" style="fill: #ff0000; stroke: #ff0000"/>
     <use xlink:href="#mb5d6b9a398" x="212.763538" y="225.652843" style="fill: #ff0000; stroke: #ff0000"/>
     <use xlink:href="#mb5d6b9a398" x="86.464337" y="132.895514" style="fill: #ff0000; stroke: #ff0000"/>
     <use xlink:href="#mb5d6b9a398" x="97.811544" y="147.93308" style="fill: #ff0000; stroke: #ff0000"/>
     <use xlink:href="#mb5d6b9a398" x="223.55036" y="226.546154" style="fill: #ff0000; stroke: #ff0000"/>
     <use xlink:href="#mb5d6b9a398" x="93.179338" y="142.308078" style="fill: #ff0000; stroke: #ff0000"/>
     <use xlink:href="#mb5d6b9a398" x="139.304914" y="169.153344" style="fill: #ff0000; stroke: #ff0000"/>
     <use xlink:href="#mb5d6b9a398" x="253.358004" y="230.462351" style="fill: #ff0000; stroke: #ff0000"/>
     <use xlink:href="#mb5d6b9a398" x="75.595441" y="127.004805" style="fill: #ff0000; stroke: #ff0000"/>
     <use xlink:href="#mb5d6b9a398" x="75.453904" y="125.62929" style="fill: #ff0000; stroke: #ff0000"/>
     <use xlink:href="#mb5d6b9a398" x="94.745396" y="142.837242" style="fill: #ff0000; stroke: #ff0000"/>
     <use xlink:href="#mb5d6b9a398" x="99.206896" y="149.382954" style="fill: #ff0000; stroke: #ff0000"/>
     <use xlink:href="#mb5d6b9a398" x="153.835393" y="174.876606" style="fill: #ff0000; stroke: #ff0000"/>
     <use xlink:href="#mb5d6b9a398" x="85.047092" y="131.201757" style="fill: #ff0000; stroke: #ff0000"/>
     <use xlink:href="#mb5d6b9a398" x="94.840309" y="142.996816" style="fill: #ff0000; stroke: #ff0000"/>
     <use xlink:href="#mb5d6b9a398" x="75.585105" y="126.385697" style="fill: #ff0000; stroke: #ff0000"/>
     <use xlink:href="#mb5d6b9a398" x="105.482444" y="158.394674" style="fill: #ff0000; stroke: #ff0000"/>
     <use xlink:href="#mb5d6b9a398" x="86.426994" y="132.773172" style="fill: #ff0000; stroke: #ff0000"/>
     <use xlink:href="#mb5d6b9a398" x="136.309169" y="167.36572" style="fill: #ff0000; stroke: #ff0000"/>
     <use xlink:href="#mb5d6b9a398" x="74.107961" y="125.503276" style="fill: #ff0000; stroke: #ff0000"/>
     <use xlink:href="#mb5d6b9a398" x="243.827054" y="228.913085" style="fill: #ff0000; stroke: #ff0000"/>
     <use xlink:href="#mb5d6b9a398" x="118.713326" y="164.284381" style="fill: #ff0000; stroke: #ff0000"/>
     <use xlink:href="#mb5d6b9a398" x="161.048156" y="179.069497" style="fill: #ff0000; stroke: #ff0000"/>
    </g>
   </g>
   <g id="PathCollection_2">
    <defs>
     <path id="maa89b5acc5" d="M 0 3 
C 0.795609 3 1.55874 2.683901 2.12132 2.12132 
C 2.683901 1.55874 3 0.795609 3 0 
C 3 -0.795609 2.683901 -1.55874 2.12132 -2.12132 
C 1.55874 -2.683901 0.795609 -3 0 -3 
C -0.795609 -3 -1.55874 -2.683901 -2.12132 -2.12132 
C -2.683901 -1.55874 -3 -0.795609 -3 0 
C -3 0.795609 -2.683901 1.55874 -2.12132 2.12132 
C -1.55874 2.683901 -0.795609 3 0 3 
z
" style="stroke: #0000ff"/>
    </defs>
    <g clip-path="url(#pb1248413cc)">
     <use xlink:href="#maa89b5acc5" x="73.709279" y="125.219954" style="fill: #0000ff; stroke: #0000ff"/>
     <use xlink:href="#maa89b5acc5" x="318.937781" y="257.723642" style="fill: #0000ff; stroke: #0000ff"/>
     <use xlink:href="#maa89b5acc5" x="173.138824" y="187.578792" style="fill: #0000ff; stroke: #0000ff"/>
     <use xlink:href="#maa89b5acc5" x="207.8818" y="225.65274" style="fill: #0000ff; stroke: #0000ff"/>
     <use xlink:href="#maa89b5acc5" x="303.075246" y="257.723413" style="fill: #0000ff; stroke: #0000ff"/>
     <use xlink:href="#maa89b5acc5" x="301.772389" y="247.784442" style="fill: #0000ff; stroke: #0000ff"/>
     <use xlink:href="#maa89b5acc5" x="293.66826" y="243.693994" style="fill: #0000ff; stroke: #0000ff"/>
     <use xlink:href="#maa89b5acc5" x="283.271304" y="240.148645" style="fill: #0000ff; stroke: #0000ff"/>
     <use xlink:href="#maa89b5acc5" x="133.28047" y="165.695909" style="fill: #0000ff; stroke: #0000ff"/>
     <use xlink:href="#maa89b5acc5" x="118.71611" y="164.285233" style="fill: #0000ff; stroke: #0000ff"/>
     <use xlink:href="#maa89b5acc5" x="162.177893" y="184.310098" style="fill: #0000ff; stroke: #0000ff"/>
     <use xlink:href="#maa89b5acc5" x="287.094651" y="243.693938" style="fill: #0000ff; stroke: #0000ff"/>
     <use xlink:href="#maa89b5acc5" x="161.048156" y="179.069497" style="fill: #0000ff; stroke: #0000ff"/>
     <use xlink:href="#maa89b5acc5" x="153.84309" y="174.877307" style="fill: #0000ff; stroke: #0000ff"/>
     <use xlink:href="#maa89b5acc5" x="105.132001" y="153.956606" style="fill: #0000ff; stroke: #0000ff"/>
     <use xlink:href="#maa89b5acc5" x="99.209943" y="149.39329" style="fill: #0000ff; stroke: #0000ff"/>
     <use xlink:href="#maa89b5acc5" x="264.456608" y="232.311656" style="fill: #0000ff; stroke: #0000ff"/>
     <use xlink:href="#maa89b5acc5" x="246.259841" y="228.91399" style="fill: #0000ff; stroke: #0000ff"/>
     <use xlink:href="#maa89b5acc5" x="273.206724" y="234.508549" style="fill: #0000ff; stroke: #0000ff"/>
     <use xlink:href="#maa89b5acc5" x="278.174118" y="237.103537" style="fill: #0000ff; stroke: #0000ff"/>
     <use xlink:href="#maa89b5acc5" x="256.981362" y="230.462432" style="fill: #0000ff; stroke: #0000ff"/>
     <use xlink:href="#maa89b5acc5" x="161.843216" y="179.254287" style="fill: #0000ff; stroke: #0000ff"/>
     <use xlink:href="#maa89b5acc5" x="140.700691" y="169.704656" style="fill: #0000ff; stroke: #0000ff"/>
     <use xlink:href="#maa89b5acc5" x="270.724343" y="234.508519" style="fill: #0000ff; stroke: #0000ff"/>
     <use xlink:href="#maa89b5acc5" x="240.092267" y="228.91299" style="fill: #0000ff; stroke: #0000ff"/>
     <use xlink:href="#maa89b5acc5" x="266.823684" y="232.311687" style="fill: #0000ff; stroke: #0000ff"/>
     <use xlink:href="#maa89b5acc5" x="150.031413" y="174.341342" style="fill: #0000ff; stroke: #0000ff"/>
     <use xlink:href="#maa89b5acc5" x="111.805691" y="163.185839" style="fill: #0000ff; stroke: #0000ff"/>
     <use xlink:href="#maa89b5acc5" x="253.257485" y="230.462331" style="fill: #0000ff; stroke: #0000ff"/>
     <use xlink:href="#maa89b5acc5" x="277.460092" y="237.103534" style="fill: #0000ff; stroke: #0000ff"/>
     <use xlink:href="#maa89b5acc5" x="146.32067" y="171.840947" style="fill: #0000ff; stroke: #0000ff"/>
     <use xlink:href="#maa89b5acc5" x="162.112517" y="184.27994" style="fill: #0000ff; stroke: #0000ff"/>
     <use xlink:href="#maa89b5acc5" x="145.838742" y="171.346567" style="fill: #0000ff; stroke: #0000ff"/>
     <use xlink:href="#maa89b5acc5" x="219.613569" y="226.545" style="fill: #0000ff; stroke: #0000ff"/>
     <use xlink:href="#maa89b5acc5" x="117.79591" y="163.758172" style="fill: #0000ff; stroke: #0000ff"/>
     <use xlink:href="#maa89b5acc5" x="214.197167" y="225.655555" style="fill: #0000ff; stroke: #0000ff"/>
     <use xlink:href="#maa89b5acc5" x="105.159324" y="157.22878" style="fill: #0000ff; stroke: #0000ff"/>
     <use xlink:href="#maa89b5acc5" x="235.854206" y="227.621587" style="fill: #0000ff; stroke: #0000ff"/>
     <use xlink:href="#maa89b5acc5" x="106.615566" y="161.181447" style="fill: #0000ff; stroke: #0000ff"/>
     <use xlink:href="#maa89b5acc5" x="232.107027" y="227.620374" style="fill: #0000ff; stroke: #0000ff"/>
     <use xlink:href="#maa89b5acc5" x="92.935155" y="139.680561" style="fill: #0000ff; stroke: #0000ff"/>
     <use xlink:href="#maa89b5acc5" x="91.560222" y="136.993215" style="fill: #0000ff; stroke: #0000ff"/>
     <use xlink:href="#maa89b5acc5" x="75.603266" y="128.10261" style="fill: #0000ff; stroke: #0000ff"/>
     <use xlink:href="#maa89b5acc5" x="91.664559" y="139.155175" style="fill: #0000ff; stroke: #0000ff"/>
     <use xlink:href="#maa89b5acc5" x="105.542949" y="158.433248" style="fill: #0000ff; stroke: #0000ff"/>
     <use xlink:href="#maa89b5acc5" x="105.13206" y="153.993901" style="fill: #0000ff; stroke: #0000ff"/>
     <use xlink:href="#maa89b5acc5" x="97.168416" y="145.752088" style="fill: #0000ff; stroke: #0000ff"/>
     <use xlink:href="#maa89b5acc5" x="138.786712" y="168.920822" style="fill: #0000ff; stroke: #0000ff"/>
     <use xlink:href="#maa89b5acc5" x="84.830772" y="130.851766" style="fill: #0000ff; stroke: #0000ff"/>
     <use xlink:href="#maa89b5acc5" x="82.040206" y="129.651022" style="fill: #0000ff; stroke: #0000ff"/>
     <use xlink:href="#maa89b5acc5" x="227.126742" y="227.620247" style="fill: #0000ff; stroke: #0000ff"/>
     <use xlink:href="#maa89b5acc5" x="136.464791" y="167.478115" style="fill: #0000ff; stroke: #0000ff"/>
     <use xlink:href="#maa89b5acc5" x="111.61483" y="161.699775" style="fill: #0000ff; stroke: #0000ff"/>
     <use xlink:href="#maa89b5acc5" x="90.288129" y="135.052063" style="fill: #0000ff; stroke: #0000ff"/>
     <use xlink:href="#maa89b5acc5" x="88.747292" y="133.417316" style="fill: #0000ff; stroke: #0000ff"/>
     <use xlink:href="#maa89b5acc5" x="92.949221" y="141.968782" style="fill: #0000ff; stroke: #0000ff"/>
     <use xlink:href="#maa89b5acc5" x="96.670251" y="144.057576" style="fill: #0000ff; stroke: #0000ff"/>
     <use xlink:href="#maa89b5acc5" x="225.038267" y="226.547792" style="fill: #0000ff; stroke: #0000ff"/>
     <use xlink:href="#maa89b5acc5" x="210.658536" y="225.652754" style="fill: #0000ff; stroke: #0000ff"/>
     <use xlink:href="#maa89b5acc5" x="90.730842" y="136.160773" style="fill: #0000ff; stroke: #0000ff"/>
     <use xlink:href="#maa89b5acc5" x="82.004706" y="129.212922" style="fill: #0000ff; stroke: #0000ff"/>
     <use xlink:href="#maa89b5acc5" x="151.763424" y="174.464362" style="fill: #0000ff; stroke: #0000ff"/>
     <use xlink:href="#maa89b5acc5" x="135.941845" y="166.38409" style="fill: #0000ff; stroke: #0000ff"/>
     <use xlink:href="#maa89b5acc5" x="97.782814" y="146.741546" style="fill: #0000ff; stroke: #0000ff"/>
     <use xlink:href="#maa89b5acc5" x="88.898245" y="134.357983" style="fill: #0000ff; stroke: #0000ff"/>
     <use xlink:href="#maa89b5acc5" x="79.263071" y="128.49717" style="fill: #0000ff; stroke: #0000ff"/>
     <use xlink:href="#maa89b5acc5" x="109.721572" y="161.43486" style="fill: #0000ff; stroke: #0000ff"/>
     <use xlink:href="#maa89b5acc5" x="85.076002" y="132.24375" style="fill: #0000ff; stroke: #0000ff"/>
     <use xlink:href="#maa89b5acc5" x="97.999175" y="148.501981" style="fill: #0000ff; stroke: #0000ff"/>
     <use xlink:href="#maa89b5acc5" x="226.60171" y="227.619952" style="fill: #0000ff; stroke: #0000ff"/>
     <use xlink:href="#maa89b5acc5" x="79.269987" y="128.546085" style="fill: #0000ff; stroke: #0000ff"/>
     <use xlink:href="#maa89b5acc5" x="221.636038" y="226.545281" style="fill: #0000ff; stroke: #0000ff"/>
     <use xlink:href="#maa89b5acc5" x="133.384452" y="166.356415" style="fill: #0000ff; stroke: #0000ff"/>
     <use xlink:href="#maa89b5acc5" x="96.419675" y="143.398194" style="fill: #0000ff; stroke: #0000ff"/>
     <use xlink:href="#maa89b5acc5" x="234.333671" y="227.621311" style="fill: #0000ff; stroke: #0000ff"/>
     <use xlink:href="#maa89b5acc5" x="243.811593" y="228.913011" style="fill: #0000ff; stroke: #0000ff"/>
     <use xlink:href="#maa89b5acc5" x="256.464638" y="230.462366" style="fill: #0000ff; stroke: #0000ff"/>
     <use xlink:href="#maa89b5acc5" x="107.708258" y="161.391568" style="fill: #0000ff; stroke: #0000ff"/>
     <use xlink:href="#maa89b5acc5" x="212.763538" y="225.652843" style="fill: #0000ff; stroke: #0000ff"/>
     <use xlink:href="#maa89b5acc5" x="86.464337" y="132.895514" style="fill: #0000ff; stroke: #0000ff"/>
     <use xlink:href="#maa89b5acc5" x="97.811544" y="147.93308" style="fill: #0000ff; stroke: #0000ff"/>
     <use xlink:href="#maa89b5acc5" x="223.55036" y="226.546154" style="fill: #0000ff; stroke: #0000ff"/>
     <use xlink:href="#maa89b5acc5" x="93.179338" y="142.308078" style="fill: #0000ff; stroke: #0000ff"/>
     <use xlink:href="#maa89b5acc5" x="139.304914" y="169.153344" style="fill: #0000ff; stroke: #0000ff"/>
     <use xlink:href="#maa89b5acc5" x="253.358004" y="230.462351" style="fill: #0000ff; stroke: #0000ff"/>
     <use xlink:href="#maa89b5acc5" x="75.595441" y="127.004805" style="fill: #0000ff; stroke: #0000ff"/>
     <use xlink:href="#maa89b5acc5" x="75.453904" y="125.62929" style="fill: #0000ff; stroke: #0000ff"/>
     <use xlink:href="#maa89b5acc5" x="94.745396" y="142.837242" style="fill: #0000ff; stroke: #0000ff"/>
     <use xlink:href="#maa89b5acc5" x="99.206896" y="149.382954" style="fill: #0000ff; stroke: #0000ff"/>
     <use xlink:href="#maa89b5acc5" x="153.835393" y="174.876606" style="fill: #0000ff; stroke: #0000ff"/>
     <use xlink:href="#maa89b5acc5" x="85.047092" y="131.201757" style="fill: #0000ff; stroke: #0000ff"/>
     <use xlink:href="#maa89b5acc5" x="94.840309" y="142.996816" style="fill: #0000ff; stroke: #0000ff"/>
     <use xlink:href="#maa89b5acc5" x="75.585105" y="126.385697" style="fill: #0000ff; stroke: #0000ff"/>
     <use xlink:href="#maa89b5acc5" x="105.482444" y="158.394674" style="fill: #0000ff; stroke: #0000ff"/>
     <use xlink:href="#maa89b5acc5" x="86.426994" y="132.773172" style="fill: #0000ff; stroke: #0000ff"/>
     <use xlink:href="#maa89b5acc5" x="136.309169" y="167.36572" style="fill: #0000ff; stroke: #0000ff"/>
     <use xlink:href="#maa89b5acc5" x="74.107961" y="125.503276" style="fill: #0000ff; stroke: #0000ff"/>
     <use xlink:href="#maa89b5acc5" x="243.827054" y="228.913085" style="fill: #0000ff; stroke: #0000ff"/>
     <use xlink:href="#maa89b5acc5" x="118.713326" y="164.284381" style="fill: #0000ff; stroke: #0000ff"/>
     <use xlink:href="#maa89b5acc5" x="161.048156" y="179.069497" style="fill: #0000ff; stroke: #0000ff"/>
    </g>
   </g>
   <g id="matplotlib.axis_1">
    <g id="xtick_1">
     <g id="line2d_1">
      <defs>
       <path id="mb889cc20ff" d="M 0 0 
L 0 3.5 
" style="stroke: #000000; stroke-width: 0.8"/>
      </defs>
      <g>
       <use xlink:href="#mb889cc20ff" x="68.103529" y="307.584" style="stroke: #000000; stroke-width: 0.8"/>
      </g>
     </g>
     <g id="text_1">
      <!-- 0 -->
      <g transform="translate(64.922279 322.182437)scale(0.1 -0.1)">
       <defs>
        <path id="DejaVuSans-30" d="M 2034 4250 
Q 1547 4250 1301 3770 
Q 1056 3291 1056 2328 
Q 1056 1369 1301 889 
Q 1547 409 2034 409 
Q 2525 409 2770 889 
Q 3016 1369 3016 2328 
Q 3016 3291 2770 3770 
Q 2525 4250 2034 4250 
z
M 2034 4750 
Q 2819 4750 3233 4129 
Q 3647 3509 3647 2328 
Q 3647 1150 3233 529 
Q 2819 -91 2034 -91 
Q 1250 -91 836 529 
Q 422 1150 422 2328 
Q 422 3509 836 4129 
Q 1250 4750 2034 4750 
z
" transform="scale(0.015625)"/>
       </defs>
       <use xlink:href="#DejaVuSans-30"/>
      </g>
     </g>
    </g>
    <g id="xtick_2">
     <g id="line2d_2">
      <g>
       <use xlink:href="#mb889cc20ff" x="173.138824" y="307.584" style="stroke: #000000; stroke-width: 0.8"/>
      </g>
     </g>
     <g id="text_2">
      <!-- 1 -->
      <g transform="translate(169.957574 322.182437)scale(0.1 -0.1)">
       <defs>
        <path id="DejaVuSans-31" d="M 794 531 
L 1825 531 
L 1825 4091 
L 703 3866 
L 703 4441 
L 1819 4666 
L 2450 4666 
L 2450 531 
L 3481 531 
L 3481 0 
L 794 0 
L 794 531 
z
" transform="scale(0.015625)"/>
       </defs>
       <use xlink:href="#DejaVuSans-31"/>
      </g>
     </g>
    </g>
    <g id="xtick_3">
     <g id="line2d_3">
      <g>
       <use xlink:href="#mb889cc20ff" x="278.174118" y="307.584" style="stroke: #000000; stroke-width: 0.8"/>
      </g>
     </g>
     <g id="text_3">
      <!-- 2 -->
      <g transform="translate(274.992868 322.182437)scale(0.1 -0.1)">
       <defs>
        <path id="DejaVuSans-32" d="M 1228 531 
L 3431 531 
L 3431 0 
L 469 0 
L 469 531 
Q 828 903 1448 1529 
Q 2069 2156 2228 2338 
Q 2531 2678 2651 2914 
Q 2772 3150 2772 3378 
Q 2772 3750 2511 3984 
Q 2250 4219 1831 4219 
Q 1534 4219 1204 4116 
Q 875 4013 500 3803 
L 500 4441 
Q 881 4594 1212 4672 
Q 1544 4750 1819 4750 
Q 2544 4750 2975 4387 
Q 3406 4025 3406 3419 
Q 3406 3131 3298 2873 
Q 3191 2616 2906 2266 
Q 2828 2175 2409 1742 
Q 1991 1309 1228 531 
z
" transform="scale(0.015625)"/>
       </defs>
       <use xlink:href="#DejaVuSans-32"/>
      </g>
     </g>
    </g>
    <g id="xtick_4">
     <g id="line2d_4">
      <g>
       <use xlink:href="#mb889cc20ff" x="383.209412" y="307.584" style="stroke: #000000; stroke-width: 0.8"/>
      </g>
     </g>
     <g id="text_4">
      <!-- 3 -->
      <g transform="translate(380.028162 322.182437)scale(0.1 -0.1)">
       <defs>
        <path id="DejaVuSans-33" d="M 2597 2516 
Q 3050 2419 3304 2112 
Q 3559 1806 3559 1356 
Q 3559 666 3084 287 
Q 2609 -91 1734 -91 
Q 1441 -91 1130 -33 
Q 819 25 488 141 
L 488 750 
Q 750 597 1062 519 
Q 1375 441 1716 441 
Q 2309 441 2620 675 
Q 2931 909 2931 1356 
Q 2931 1769 2642 2001 
Q 2353 2234 1838 2234 
L 1294 2234 
L 1294 2753 
L 1863 2753 
Q 2328 2753 2575 2939 
Q 2822 3125 2822 3475 
Q 2822 3834 2567 4026 
Q 2313 4219 1838 4219 
Q 1578 4219 1281 4162 
Q 984 4106 628 3988 
L 628 4550 
Q 988 4650 1302 4700 
Q 1616 4750 1894 4750 
Q 2613 4750 3031 4423 
Q 3450 4097 3450 3541 
Q 3450 3153 3228 2886 
Q 3006 2619 2597 2516 
z
" transform="scale(0.015625)"/>
       </defs>
       <use xlink:href="#DejaVuSans-33"/>
      </g>
     </g>
    </g>
   </g>
   <g id="matplotlib.axis_2">
    <g id="ytick_1">
     <g id="line2d_5">
      <defs>
       <path id="m898212eb6b" d="M 0 0 
L -3.5 0 
" style="stroke: #000000; stroke-width: 0.8"/>
      </defs>
      <g>
       <use xlink:href="#m898212eb6b" x="57.6" y="299.757176" style="stroke: #000000; stroke-width: 0.8"/>
      </g>
     </g>
     <g id="text_5">
      <!-- 0 -->
      <g transform="translate(44.2375 303.556395)scale(0.1 -0.1)">
       <use xlink:href="#DejaVuSans-30"/>
      </g>
     </g>
    </g>
    <g id="ytick_2">
     <g id="line2d_6">
      <g>
       <use xlink:href="#m898212eb6b" x="57.6" y="221.488941" style="stroke: #000000; stroke-width: 0.8"/>
      </g>
     </g>
     <g id="text_6">
      <!-- 1 -->
      <g transform="translate(44.2375 225.28816)scale(0.1 -0.1)">
       <use xlink:href="#DejaVuSans-31"/>
      </g>
     </g>
    </g>
    <g id="ytick_3">
     <g id="line2d_7">
      <g>
       <use xlink:href="#m898212eb6b" x="57.6" y="143.220706" style="stroke: #000000; stroke-width: 0.8"/>
      </g>
     </g>
     <g id="text_7">
      <!-- 2 -->
      <g transform="translate(44.2375 147.019925)scale(0.1 -0.1)">
       <use xlink:href="#DejaVuSans-32"/>
      </g>
     </g>
    </g>
    <g id="ytick_4">
     <g id="line2d_8">
      <g>
       <use xlink:href="#m898212eb6b" x="57.6" y="64.952471" style="stroke: #000000; stroke-width: 0.8"/>
      </g>
     </g>
     <g id="text_8">
      <!-- 3 -->
      <g transform="translate(44.2375 68.751689)scale(0.1 -0.1)">
       <use xlink:href="#DejaVuSans-33"/>
      </g>
     </g>
    </g>
   </g>
   <g id="patch_3">
    <path d="M 57.6 307.584 
L 57.6 41.472 
" style="fill: none; stroke: #000000; stroke-width: 0.8; stroke-linejoin: miter; stroke-linecap: square"/>
   </g>
   <g id="patch_4">
    <path d="M 414.72 307.584 
L 414.72 41.472 
" style="fill: none; stroke: #000000; stroke-width: 0.8; stroke-linejoin: miter; stroke-linecap: square"/>
   </g>
   <g id="patch_5">
    <path d="M 57.6 307.584 
L 414.72 307.584 
" style="fill: none; stroke: #000000; stroke-width: 0.8; stroke-linejoin: miter; stroke-linecap: square"/>
   </g>
   <g id="patch_6">
    <path d="M 57.6 41.472 
L 414.72 41.472 
" style="fill: none; stroke: #000000; stroke-width: 0.8; stroke-linejoin: miter; stroke-linecap: square"/>
   </g>
   <g id="text_9">
    <!-- 010_n_1998 AREA: 2.367 -->
    <g transform="translate(160.559062 35.472)scale(0.12 -0.12)">
     <defs>
      <path id="DejaVuSans-5f" d="M 3263 -1063 
L 3263 -1509 
L -63 -1509 
L -63 -1063 
L 3263 -1063 
z
" transform="scale(0.015625)"/>
      <path id="DejaVuSans-6e" d="M 3513 2113 
L 3513 0 
L 2938 0 
L 2938 2094 
Q 2938 2591 2744 2837 
Q 2550 3084 2163 3084 
Q 1697 3084 1428 2787 
Q 1159 2491 1159 1978 
L 1159 0 
L 581 0 
L 581 3500 
L 1159 3500 
L 1159 2956 
Q 1366 3272 1645 3428 
Q 1925 3584 2291 3584 
Q 2894 3584 3203 3211 
Q 3513 2838 3513 2113 
z
" transform="scale(0.015625)"/>
      <path id="DejaVuSans-39" d="M 703 97 
L 703 672 
Q 941 559 1184 500 
Q 1428 441 1663 441 
Q 2288 441 2617 861 
Q 2947 1281 2994 2138 
Q 2813 1869 2534 1725 
Q 2256 1581 1919 1581 
Q 1219 1581 811 2004 
Q 403 2428 403 3163 
Q 403 3881 828 4315 
Q 1253 4750 1959 4750 
Q 2769 4750 3195 4129 
Q 3622 3509 3622 2328 
Q 3622 1225 3098 567 
Q 2575 -91 1691 -91 
Q 1453 -91 1209 -44 
Q 966 3 703 97 
z
M 1959 2075 
Q 2384 2075 2632 2365 
Q 2881 2656 2881 3163 
Q 2881 3666 2632 3958 
Q 2384 4250 1959 4250 
Q 1534 4250 1286 3958 
Q 1038 3666 1038 3163 
Q 1038 2656 1286 2365 
Q 1534 2075 1959 2075 
z
" transform="scale(0.015625)"/>
      <path id="DejaVuSans-38" d="M 2034 2216 
Q 1584 2216 1326 1975 
Q 1069 1734 1069 1313 
Q 1069 891 1326 650 
Q 1584 409 2034 409 
Q 2484 409 2743 651 
Q 3003 894 3003 1313 
Q 3003 1734 2745 1975 
Q 2488 2216 2034 2216 
z
M 1403 2484 
Q 997 2584 770 2862 
Q 544 3141 544 3541 
Q 544 4100 942 4425 
Q 1341 4750 2034 4750 
Q 2731 4750 3128 4425 
Q 3525 4100 3525 3541 
Q 3525 3141 3298 2862 
Q 3072 2584 2669 2484 
Q 3125 2378 3379 2068 
Q 3634 1759 3634 1313 
Q 3634 634 3220 271 
Q 2806 -91 2034 -91 
Q 1263 -91 848 271 
Q 434 634 434 1313 
Q 434 1759 690 2068 
Q 947 2378 1403 2484 
z
M 1172 3481 
Q 1172 3119 1398 2916 
Q 1625 2713 2034 2713 
Q 2441 2713 2670 2916 
Q 2900 3119 2900 3481 
Q 2900 3844 2670 4047 
Q 2441 4250 2034 4250 
Q 1625 4250 1398 4047 
Q 1172 3844 1172 3481 
z
" transform="scale(0.015625)"/>
      <path id="DejaVuSans-20" transform="scale(0.015625)"/>
      <path id="DejaVuSans-41" d="M 2188 4044 
L 1331 1722 
L 3047 1722 
L 2188 4044 
z
M 1831 4666 
L 2547 4666 
L 4325 0 
L 3669 0 
L 3244 1197 
L 1141 1197 
L 716 0 
L 50 0 
L 1831 4666 
z
" transform="scale(0.015625)"/>
      <path id="DejaVuSans-52" d="M 2841 2188 
Q 3044 2119 3236 1894 
Q 3428 1669 3622 1275 
L 4263 0 
L 3584 0 
L 2988 1197 
Q 2756 1666 2539 1819 
Q 2322 1972 1947 1972 
L 1259 1972 
L 1259 0 
L 628 0 
L 628 4666 
L 2053 4666 
Q 2853 4666 3247 4331 
Q 3641 3997 3641 3322 
Q 3641 2881 3436 2590 
Q 3231 2300 2841 2188 
z
M 1259 4147 
L 1259 2491 
L 2053 2491 
Q 2509 2491 2742 2702 
Q 2975 2913 2975 3322 
Q 2975 3731 2742 3939 
Q 2509 4147 2053 4147 
L 1259 4147 
z
" transform="scale(0.015625)"/>
      <path id="DejaVuSans-45" d="M 628 4666 
L 3578 4666 
L 3578 4134 
L 1259 4134 
L 1259 2753 
L 3481 2753 
L 3481 2222 
L 1259 2222 
L 1259 531 
L 3634 531 
L 3634 0 
L 628 0 
L 628 4666 
z
" transform="scale(0.015625)"/>
      <path id="DejaVuSans-3a" d="M 750 794 
L 1409 794 
L 1409 0 
L 750 0 
L 750 794 
z
M 750 3309 
L 1409 3309 
L 1409 2516 
L 750 2516 
L 750 3309 
z
" transform="scale(0.015625)"/>
      <path id="DejaVuSans-2e" d="M 684 794 
L 1344 794 
L 1344 0 
L 684 0 
L 684 794 
z
" transform="scale(0.015625)"/>
      <path id="DejaVuSans-36" d="M 2113 2584 
Q 1688 2584 1439 2293 
Q 1191 2003 1191 1497 
Q 1191 994 1439 701 
Q 1688 409 2113 409 
Q 2538 409 2786 701 
Q 3034 994 3034 1497 
Q 3034 2003 2786 2293 
Q 2538 2584 2113 2584 
z
M 3366 4563 
L 3366 3988 
Q 3128 4100 2886 4159 
Q 2644 4219 2406 4219 
Q 1781 4219 1451 3797 
Q 1122 3375 1075 2522 
Q 1259 2794 1537 2939 
Q 1816 3084 2150 3084 
Q 2853 3084 3261 2657 
Q 3669 2231 3669 1497 
Q 3669 778 3244 343 
Q 2819 -91 2113 -91 
Q 1303 -91 875 529 
Q 447 1150 447 2328 
Q 447 3434 972 4092 
Q 1497 4750 2381 4750 
Q 2619 4750 2861 4703 
Q 3103 4656 3366 4563 
z
" transform="scale(0.015625)"/>
      <path id="DejaVuSans-37" d="M 525 4666 
L 3525 4666 
L 3525 4397 
L 1831 0 
L 1172 0 
L 2766 4134 
L 525 4134 
L 525 4666 
z
" transform="scale(0.015625)"/>
     </defs>
     <use xlink:href="#DejaVuSans-30"/>
     <use xlink:href="#DejaVuSans-31" x="63.623047"/>
     <use xlink:href="#DejaVuSans-30" x="127.246094"/>
     <use xlink:href="#DejaVuSans-5f" x="190.869141"/>
     <use xlink:href="#DejaVuSans-6e" x="240.869141"/>
     <use xlink:href="#DejaVuSans-5f" x="304.248047"/>
     <use xlink:href="#DejaVuSans-31" x="354.248047"/>
     <use xlink:href="#DejaVuSans-39" x="417.871094"/>
     <use xlink:href="#DejaVuSans-39" x="481.494141"/>
     <use xlink:href="#DejaVuSans-38" x="545.117188"/>
     <use xlink:href="#DejaVuSans-20" x="608.740234"/>
     <use xlink:href="#DejaVuSans-41" x="640.527344"/>
     <use xlink:href="#DejaVuSans-52" x="708.935547"/>
     <use xlink:href="#DejaVuSans-45" x="778.417969"/>
     <use xlink:href="#DejaVuSans-41" x="841.601562"/>
     <use xlink:href="#DejaVuSans-3a" x="908.259766"/>
     <use xlink:href="#DejaVuSans-20" x="941.951172"/>
     <use xlink:href="#DejaVuSans-32" x="973.738281"/>
     <use xlink:href="#DejaVuSans-2e" x="1037.361328"/>
     <use xlink:href="#DejaVuSans-33" x="1069.148438"/>
     <use xlink:href="#DejaVuSans-36" x="1132.771484"/>
     <use xlink:href="#DejaVuSans-37" x="1196.394531"/>
    </g>
   </g>
  </g>
 </g>
 <defs>
  <clipPath id="pb1248413cc">
   <rect x="57.6" y="41.472" width="357.12" height="266.112"/>
  </clipPath>
 </defs>
</svg>
