<?xml version="1.0" encoding="utf-8" standalone="no"?>
<!DOCTYPE svg PUBLIC "-//W3C//DTD SVG 1.1//EN"
  "http://www.w3.org/Graphics/SVG/1.1/DTD/svg11.dtd">
<svg xmlns:xlink="http://www.w3.org/1999/xlink" width="460.8pt" height="345.6pt" viewBox="0 0 460.8 345.6" xmlns="http://www.w3.org/2000/svg" version="1.1">
 <metadata>
  <rdf:RDF xmlns:dc="http://purl.org/dc/elements/1.1/" xmlns:cc="http://creativecommons.org/ns#" xmlns:rdf="http://www.w3.org/1999/02/22-rdf-syntax-ns#">
   <cc:Work>
    <dc:type rdf:resource="http://purl.org/dc/dcmitype/StillImage"/>
    <dc:date>2023-05-29T01:39:08.598478</dc:date>
    <dc:format>image/svg+xml</dc:format>
    <dc:creator>
     <cc:Agent>
      <dc:title>Matplotlib v3.5.3, https://matplotlib.org/</dc:title>
     </cc:Agent>
    </dc:creator>
   </cc:Work>
  </rdf:RDF>
 </metadata>
 <defs>
  <style type="text/css">*{stroke-linejoin: round; stroke-linecap: butt}</style>
 </defs>
 <g id="figure_1">
  <g id="patch_1">
   <path d="M 0 345.6 
L 460.8 345.6 
L 460.8 0 
L 0 0 
z
" style="fill: #ffffff"/>
  </g>
  <g id="axes_1">
   <g id="patch_2">
    <path d="M 57.6 307.584 
L 414.72 307.584 
L 414.72 41.472 
L 57.6 41.472 
z
" style="fill: #ffffff"/>
   </g>
   <g id="PathCollection_1">
    <defs>
     <path id="me0ab64316a" d="M 0 3 
C 0.795609 3 1.55874 2.683901 2.12132 2.12132 
C 2.683901 1.55874 3 0.795609 3 0 
C 3 -0.795609 2.683901 -1.55874 2.12132 -2.12132 
C 1.55874 -2.683901 0.795609 -3 0 -3 
C -0.795609 -3 -1.55874 -2.683901 -2.12132 -2.12132 
C -2.683901 -1.55874 -3 -0.795609 -3 0 
C -3 0.795609 -2.683901 1.55874 -2.12132 2.12132 
C -1.55874 2.683901 -0.795609 3 0 3 
z
" style="stroke: #ff0000"/>
    </defs>
    <g clip-path="url(#p74335ae6b8)">
     <use xlink:href="#me0ab64316a" x="68.103529" y="112.903944" style="fill: #ff0000; stroke: #ff0000"/>
     <use xlink:href="#me0ab64316a" x="337.327175" y="291.990374" style="fill: #ff0000; stroke: #ff0000"/>
     <use xlink:href="#me0ab64316a" x="141.628235" y="183.306492" style="fill: #ff0000; stroke: #ff0000"/>
     <use xlink:href="#me0ab64316a" x="68.110996" y="172.84945" style="fill: #ff0000; stroke: #ff0000"/>
     <use xlink:href="#me0ab64316a" x="68.134405" y="174.398895" style="fill: #ff0000; stroke: #ff0000"/>
     <use xlink:href="#me0ab64316a" x="173.138824" y="193.364248" style="fill: #ff0000; stroke: #ff0000"/>
     <use xlink:href="#me0ab64316a" x="177.276292" y="227.8267" style="fill: #ff0000; stroke: #ff0000"/>
     <use xlink:href="#me0ab64316a" x="328.590555" y="291.98697" style="fill: #ff0000; stroke: #ff0000"/>
     <use xlink:href="#me0ab64316a" x="278.174118" y="270.104714" style="fill: #ff0000; stroke: #ff0000"/>
     <use xlink:href="#me0ab64316a" x="296.187015" y="285.057574" style="fill: #ff0000; stroke: #ff0000"/>
     <use xlink:href="#me0ab64316a" x="295.711337" y="285.014169" style="fill: #ff0000; stroke: #ff0000"/>
     <use xlink:href="#me0ab64316a" x="152.131765" y="187.038749" style="fill: #ff0000; stroke: #ff0000"/>
     <use xlink:href="#me0ab64316a" x="162.635294" y="191.100129" style="fill: #ff0000; stroke: #ff0000"/>
     <use xlink:href="#me0ab64316a" x="220.067102" y="237.782669" style="fill: #ff0000; stroke: #ff0000"/>
     <use xlink:href="#me0ab64316a" x="206.120091" y="237.528043" style="fill: #ff0000; stroke: #ff0000"/>
     <use xlink:href="#me0ab64316a" x="267.015245" y="257.826259" style="fill: #ff0000; stroke: #ff0000"/>
     <use xlink:href="#me0ab64316a" x="194.145877" y="234.525098" style="fill: #ff0000; stroke: #ff0000"/>
     <use xlink:href="#me0ab64316a" x="263.872096" y="253.872573" style="fill: #ff0000; stroke: #ff0000"/>
     <use xlink:href="#me0ab64316a" x="271.853093" y="257.838625" style="fill: #ff0000; stroke: #ff0000"/>
     <use xlink:href="#me0ab64316a" x="250.271885" y="248.61839" style="fill: #ff0000; stroke: #ff0000"/>
     <use xlink:href="#me0ab64316a" x="204.642077" y="234.579447" style="fill: #ff0000; stroke: #ff0000"/>
     <use xlink:href="#me0ab64316a" x="183.640658" y="229.830014" style="fill: #ff0000; stroke: #ff0000"/>
     <use xlink:href="#me0ab64316a" x="192.86168" y="230.181556" style="fill: #ff0000; stroke: #ff0000"/>
     <use xlink:href="#me0ab64316a" x="278.173631" y="263.822395" style="fill: #ff0000; stroke: #ff0000"/>
     <use xlink:href="#me0ab64316a" x="262.750022" y="252.741023" style="fill: #ff0000; stroke: #ff0000"/>
     <use xlink:href="#me0ab64316a" x="278.171605" y="258.310648" style="fill: #ff0000; stroke: #ff0000"/>
     <use xlink:href="#me0ab64316a" x="226.955239" y="238.117871" style="fill: #ff0000; stroke: #ff0000"/>
     <use xlink:href="#me0ab64316a" x="238.696464" y="242.250658" style="fill: #ff0000; stroke: #ff0000"/>
     <use xlink:href="#me0ab64316a" x="232.776274" y="241.754565" style="fill: #ff0000; stroke: #ff0000"/>
     <use xlink:href="#me0ab64316a" x="278.172886" y="259.187186" style="fill: #ff0000; stroke: #ff0000"/>
     <use xlink:href="#me0ab64316a" x="278.173041" y="263.628659" style="fill: #ff0000; stroke: #ff0000"/>
     <use xlink:href="#me0ab64316a" x="246.289051" y="247.358523" style="fill: #ff0000; stroke: #ff0000"/>
     <use xlink:href="#me0ab64316a" x="256.847054" y="252.720321" style="fill: #ff0000; stroke: #ff0000"/>
     <use xlink:href="#me0ab64316a" x="229.199754" y="239.281136" style="fill: #ff0000; stroke: #ff0000"/>
     <use xlink:href="#me0ab64316a" x="253.175839" y="250.048448" style="fill: #ff0000; stroke: #ff0000"/>
     <use xlink:href="#me0ab64316a" x="254.130137" y="250.265532" style="fill: #ff0000; stroke: #ff0000"/>
     <use xlink:href="#me0ab64316a" x="256.378834" y="252.124897" style="fill: #ff0000; stroke: #ff0000"/>
     <use xlink:href="#me0ab64316a" x="240.176778" y="243.085777" style="fill: #ff0000; stroke: #ff0000"/>
     <use xlink:href="#me0ab64316a" x="180.553129" y="227.83776" style="fill: #ff0000; stroke: #ff0000"/>
     <use xlink:href="#me0ab64316a" x="204.646831" y="235.078926" style="fill: #ff0000; stroke: #ff0000"/>
     <use xlink:href="#me0ab64316a" x="230.964254" y="239.866215" style="fill: #ff0000; stroke: #ff0000"/>
     <use xlink:href="#me0ab64316a" x="242.970686" y="243.136129" style="fill: #ff0000; stroke: #ff0000"/>
     <use xlink:href="#me0ab64316a" x="204.649397" y="237.041702" style="fill: #ff0000; stroke: #ff0000"/>
     <use xlink:href="#me0ab64316a" x="227.491308" y="238.38009" style="fill: #ff0000; stroke: #ff0000"/>
     <use xlink:href="#me0ab64316a" x="244.973473" y="245.429742" style="fill: #ff0000; stroke: #ff0000"/>
     <use xlink:href="#me0ab64316a" x="242.975305" y="244.854597" style="fill: #ff0000; stroke: #ff0000"/>
     <use xlink:href="#me0ab64316a" x="194.133718" y="232.222794" style="fill: #ff0000; stroke: #ff0000"/>
     <use xlink:href="#me0ab64316a" x="193.626127" y="230.872537" style="fill: #ff0000; stroke: #ff0000"/>
     <use xlink:href="#me0ab64316a" x="242.327316" y="243.126374" style="fill: #ff0000; stroke: #ff0000"/>
     <use xlink:href="#me0ab64316a" x="243.16926" y="244.959766" style="fill: #ff0000; stroke: #ff0000"/>
     <use xlink:href="#me0ab64316a" x="239.033737" y="242.368611" style="fill: #ff0000; stroke: #ff0000"/>
     <use xlink:href="#me0ab64316a" x="194.144752" y="232.828639" style="fill: #ff0000; stroke: #ff0000"/>
     <use xlink:href="#me0ab64316a" x="231.350852" y="240.105043" style="fill: #ff0000; stroke: #ff0000"/>
     <use xlink:href="#me0ab64316a" x="245.370808" y="246.684293" style="fill: #ff0000; stroke: #ff0000"/>
     <use xlink:href="#me0ab64316a" x="231.789517" y="240.941729" style="fill: #ff0000; stroke: #ff0000"/>
     <use xlink:href="#me0ab64316a" x="181.369109" y="228.328154" style="fill: #ff0000; stroke: #ff0000"/>
     <use xlink:href="#me0ab64316a" x="183.640594" y="229.568343" style="fill: #ff0000; stroke: #ff0000"/>
     <use xlink:href="#me0ab64316a" x="183.211888" y="228.356371" style="fill: #ff0000; stroke: #ff0000"/>
     <use xlink:href="#me0ab64316a" x="183.453075" y="228.630005" style="fill: #ff0000; stroke: #ff0000"/>
     <use xlink:href="#me0ab64316a" x="245.342835" y="245.705815" style="fill: #ff0000; stroke: #ff0000"/>
     <use xlink:href="#me0ab64316a" x="204.649412" y="237.202699" style="fill: #ff0000; stroke: #ff0000"/>
     <use xlink:href="#me0ab64316a" x="232.699631" y="241.482199" style="fill: #ff0000; stroke: #ff0000"/>
     <use xlink:href="#me0ab64316a" x="205.73172" y="237.354535" style="fill: #ff0000; stroke: #ff0000"/>
     <use xlink:href="#me0ab64316a" x="278.172818" y="259.030106" style="fill: #ff0000; stroke: #ff0000"/>
     <use xlink:href="#me0ab64316a" x="181.237251" y="227.935861" style="fill: #ff0000; stroke: #ff0000"/>
     <use xlink:href="#me0ab64316a" x="231.977947" y="241.334311" style="fill: #ff0000; stroke: #ff0000"/>
     <use xlink:href="#me0ab64316a" x="245.960889" y="246.826613" style="fill: #ff0000; stroke: #ff0000"/>
     <use xlink:href="#me0ab64316a" x="192.995819" y="230.350207" style="fill: #ff0000; stroke: #ff0000"/>
     <use xlink:href="#me0ab64316a" x="193.281098" y="230.872018" style="fill: #ff0000; stroke: #ff0000"/>
     <use xlink:href="#me0ab64316a" x="253.820434" y="250.233201" style="fill: #ff0000; stroke: #ff0000"/>
     <use xlink:href="#me0ab64316a" x="227.207369" y="238.157671" style="fill: #ff0000; stroke: #ff0000"/>
     <use xlink:href="#me0ab64316a" x="245.29796" y="245.572462" style="fill: #ff0000; stroke: #ff0000"/>
     <use xlink:href="#me0ab64316a" x="231.915871" y="241.22618" style="fill: #ff0000; stroke: #ff0000"/>
     <use xlink:href="#me0ab64316a" x="204.642114" y="234.701939" style="fill: #ff0000; stroke: #ff0000"/>
     <use xlink:href="#me0ab64316a" x="256.736003" y="252.511771" style="fill: #ff0000; stroke: #ff0000"/>
     <use xlink:href="#me0ab64316a" x="181.245014" y="228.196337" style="fill: #ff0000; stroke: #ff0000"/>
     <use xlink:href="#me0ab64316a" x="256.629408" y="252.306698" style="fill: #ff0000; stroke: #ff0000"/>
     <use xlink:href="#me0ab64316a" x="246.255828" y="247.039782" style="fill: #ff0000; stroke: #ff0000"/>
     <use xlink:href="#me0ab64316a" x="194.144539" y="232.45117" style="fill: #ff0000; stroke: #ff0000"/>
     <use xlink:href="#me0ab64316a" x="193.05345" y="230.68518" style="fill: #ff0000; stroke: #ff0000"/>
     <use xlink:href="#me0ab64316a" x="183.419457" y="228.507507" style="fill: #ff0000; stroke: #ff0000"/>
     <use xlink:href="#me0ab64316a" x="193.034868" y="230.644418" style="fill: #ff0000; stroke: #ff0000"/>
     <use xlink:href="#me0ab64316a" x="246.248818" y="246.973145" style="fill: #ff0000; stroke: #ff0000"/>
     <use xlink:href="#me0ab64316a" x="194.144581" y="232.617819" style="fill: #ff0000; stroke: #ff0000"/>
     <use xlink:href="#me0ab64316a" x="295.989052" y="285.054903" style="fill: #ff0000; stroke: #ff0000"/>
     <use xlink:href="#me0ab64316a" x="227.418907" y="238.35957" style="fill: #ff0000; stroke: #ff0000"/>
     <use xlink:href="#me0ab64316a" x="205.836634" y="237.451647" style="fill: #ff0000; stroke: #ff0000"/>
     <use xlink:href="#me0ab64316a" x="246.029719" y="246.826906" style="fill: #ff0000; stroke: #ff0000"/>
     <use xlink:href="#me0ab64316a" x="253.508045" y="250.123971" style="fill: #ff0000; stroke: #ff0000"/>
     <use xlink:href="#me0ab64316a" x="253.48947" y="250.122729" style="fill: #ff0000; stroke: #ff0000"/>
     <use xlink:href="#me0ab64316a" x="183.279312" y="228.360331" style="fill: #ff0000; stroke: #ff0000"/>
     <use xlink:href="#me0ab64316a" x="256.78289" y="252.705745" style="fill: #ff0000; stroke: #ff0000"/>
     <use xlink:href="#me0ab64316a" x="194.144644" y="232.813061" style="fill: #ff0000; stroke: #ff0000"/>
     <use xlink:href="#me0ab64316a" x="278.173591" y="263.66709" style="fill: #ff0000; stroke: #ff0000"/>
     <use xlink:href="#me0ab64316a" x="256.612584" y="252.151964" style="fill: #ff0000; stroke: #ff0000"/>
     <use xlink:href="#me0ab64316a" x="205.75372" y="237.416879" style="fill: #ff0000; stroke: #ff0000"/>
     <use xlink:href="#me0ab64316a" x="256.623886" y="252.152084" style="fill: #ff0000; stroke: #ff0000"/>
     <use xlink:href="#me0ab64316a" x="227.433917" y="238.363302" style="fill: #ff0000; stroke: #ff0000"/>
     <use xlink:href="#me0ab64316a" x="229.199754" y="239.281136" style="fill: #ff0000; stroke: #ff0000"/>
     <use xlink:href="#me0ab64316a" x="162.635294" y="191.100129" style="fill: #ff0000; stroke: #ff0000"/>
    </g>
   </g>
   <g id="PathCollection_2">
    <defs>
     <path id="m2a80a056fa" d="M 0 3 
C 0.795609 3 1.55874 2.683901 2.12132 2.12132 
C 2.683901 1.55874 3 0.795609 3 0 
C 3 -0.795609 2.683901 -1.55874 2.12132 -2.12132 
C 1.55874 -2.683901 0.795609 -3 0 -3 
C -0.795609 -3 -1.55874 -2.683901 -2.12132 -2.12132 
C -2.683901 -1.55874 -3 -0.795609 -3 0 
C -3 0.795609 -2.683901 1.55874 -2.12132 2.12132 
C -1.55874 2.683901 -0.795609 3 0 3 
z
" style="stroke: #0000ff"/>
    </defs>
    <g clip-path="url(#p74335ae6b8)">
     <use xlink:href="#m2a80a056fa" x="68.103529" y="112.903944" style="fill: #0000ff; stroke: #0000ff"/>
     <use xlink:href="#m2a80a056fa" x="337.327175" y="291.990374" style="fill: #0000ff; stroke: #0000ff"/>
     <use xlink:href="#m2a80a056fa" x="141.628235" y="183.306492" style="fill: #0000ff; stroke: #0000ff"/>
     <use xlink:href="#m2a80a056fa" x="68.110996" y="172.84945" style="fill: #0000ff; stroke: #0000ff"/>
     <use xlink:href="#m2a80a056fa" x="68.134405" y="174.398895" style="fill: #0000ff; stroke: #0000ff"/>
     <use xlink:href="#m2a80a056fa" x="173.138824" y="193.364248" style="fill: #0000ff; stroke: #0000ff"/>
     <use xlink:href="#m2a80a056fa" x="177.276292" y="227.8267" style="fill: #0000ff; stroke: #0000ff"/>
     <use xlink:href="#m2a80a056fa" x="328.590555" y="291.98697" style="fill: #0000ff; stroke: #0000ff"/>
     <use xlink:href="#m2a80a056fa" x="278.174118" y="270.104714" style="fill: #0000ff; stroke: #0000ff"/>
     <use xlink:href="#m2a80a056fa" x="296.187015" y="285.057574" style="fill: #0000ff; stroke: #0000ff"/>
     <use xlink:href="#m2a80a056fa" x="295.711337" y="285.014169" style="fill: #0000ff; stroke: #0000ff"/>
     <use xlink:href="#m2a80a056fa" x="152.131765" y="187.038749" style="fill: #0000ff; stroke: #0000ff"/>
     <use xlink:href="#m2a80a056fa" x="162.635294" y="191.100129" style="fill: #0000ff; stroke: #0000ff"/>
     <use xlink:href="#m2a80a056fa" x="220.067102" y="237.782669" style="fill: #0000ff; stroke: #0000ff"/>
     <use xlink:href="#m2a80a056fa" x="206.120091" y="237.528043" style="fill: #0000ff; stroke: #0000ff"/>
     <use xlink:href="#m2a80a056fa" x="267.015245" y="257.826259" style="fill: #0000ff; stroke: #0000ff"/>
     <use xlink:href="#m2a80a056fa" x="194.145877" y="234.525098" style="fill: #0000ff; stroke: #0000ff"/>
     <use xlink:href="#m2a80a056fa" x="263.872096" y="253.872573" style="fill: #0000ff; stroke: #0000ff"/>
     <use xlink:href="#m2a80a056fa" x="271.853093" y="257.838625" style="fill: #0000ff; stroke: #0000ff"/>
     <use xlink:href="#m2a80a056fa" x="250.271885" y="248.61839" style="fill: #0000ff; stroke: #0000ff"/>
     <use xlink:href="#m2a80a056fa" x="204.642077" y="234.579447" style="fill: #0000ff; stroke: #0000ff"/>
     <use xlink:href="#m2a80a056fa" x="183.640658" y="229.830014" style="fill: #0000ff; stroke: #0000ff"/>
     <use xlink:href="#m2a80a056fa" x="192.86168" y="230.181556" style="fill: #0000ff; stroke: #0000ff"/>
     <use xlink:href="#m2a80a056fa" x="278.173631" y="263.822395" style="fill: #0000ff; stroke: #0000ff"/>
     <use xlink:href="#m2a80a056fa" x="262.750022" y="252.741023" style="fill: #0000ff; stroke: #0000ff"/>
     <use xlink:href="#m2a80a056fa" x="278.171605" y="258.310648" style="fill: #0000ff; stroke: #0000ff"/>
     <use xlink:href="#m2a80a056fa" x="226.955239" y="238.117871" style="fill: #0000ff; stroke: #0000ff"/>
     <use xlink:href="#m2a80a056fa" x="238.696464" y="242.250658" style="fill: #0000ff; stroke: #0000ff"/>
     <use xlink:href="#m2a80a056fa" x="232.776274" y="241.754565" style="fill: #0000ff; stroke: #0000ff"/>
     <use xlink:href="#m2a80a056fa" x="278.172886" y="259.187186" style="fill: #0000ff; stroke: #0000ff"/>
     <use xlink:href="#m2a80a056fa" x="278.173041" y="263.628659" style="fill: #0000ff; stroke: #0000ff"/>
     <use xlink:href="#m2a80a056fa" x="246.289051" y="247.358523" style="fill: #0000ff; stroke: #0000ff"/>
     <use xlink:href="#m2a80a056fa" x="256.847054" y="252.720321" style="fill: #0000ff; stroke: #0000ff"/>
     <use xlink:href="#m2a80a056fa" x="229.199754" y="239.281136" style="fill: #0000ff; stroke: #0000ff"/>
     <use xlink:href="#m2a80a056fa" x="253.175839" y="250.048448" style="fill: #0000ff; stroke: #0000ff"/>
     <use xlink:href="#m2a80a056fa" x="254.130137" y="250.265532" style="fill: #0000ff; stroke: #0000ff"/>
     <use xlink:href="#m2a80a056fa" x="256.378834" y="252.124897" style="fill: #0000ff; stroke: #0000ff"/>
     <use xlink:href="#m2a80a056fa" x="240.176778" y="243.085777" style="fill: #0000ff; stroke: #0000ff"/>
     <use xlink:href="#m2a80a056fa" x="180.553129" y="227.83776" style="fill: #0000ff; stroke: #0000ff"/>
     <use xlink:href="#m2a80a056fa" x="204.646831" y="235.078926" style="fill: #0000ff; stroke: #0000ff"/>
     <use xlink:href="#m2a80a056fa" x="230.964254" y="239.866215" style="fill: #0000ff; stroke: #0000ff"/>
     <use xlink:href="#m2a80a056fa" x="242.970686" y="243.136129" style="fill: #0000ff; stroke: #0000ff"/>
     <use xlink:href="#m2a80a056fa" x="204.649397" y="237.041702" style="fill: #0000ff; stroke: #0000ff"/>
     <use xlink:href="#m2a80a056fa" x="227.491308" y="238.38009" style="fill: #0000ff; stroke: #0000ff"/>
     <use xlink:href="#m2a80a056fa" x="244.973473" y="245.429742" style="fill: #0000ff; stroke: #0000ff"/>
     <use xlink:href="#m2a80a056fa" x="242.975305" y="244.854597" style="fill: #0000ff; stroke: #0000ff"/>
     <use xlink:href="#m2a80a056fa" x="194.133718" y="232.222794" style="fill: #0000ff; stroke: #0000ff"/>
     <use xlink:href="#m2a80a056fa" x="193.626127" y="230.872537" style="fill: #0000ff; stroke: #0000ff"/>
     <use xlink:href="#m2a80a056fa" x="242.327316" y="243.126374" style="fill: #0000ff; stroke: #0000ff"/>
     <use xlink:href="#m2a80a056fa" x="243.16926" y="244.959766" style="fill: #0000ff; stroke: #0000ff"/>
     <use xlink:href="#m2a80a056fa" x="239.033737" y="242.368611" style="fill: #0000ff; stroke: #0000ff"/>
     <use xlink:href="#m2a80a056fa" x="194.144752" y="232.828639" style="fill: #0000ff; stroke: #0000ff"/>
     <use xlink:href="#m2a80a056fa" x="231.350852" y="240.105043" style="fill: #0000ff; stroke: #0000ff"/>
     <use xlink:href="#m2a80a056fa" x="245.370808" y="246.684293" style="fill: #0000ff; stroke: #0000ff"/>
     <use xlink:href="#m2a80a056fa" x="231.789517" y="240.941729" style="fill: #0000ff; stroke: #0000ff"/>
     <use xlink:href="#m2a80a056fa" x="181.369109" y="228.328154" style="fill: #0000ff; stroke: #0000ff"/>
     <use xlink:href="#m2a80a056fa" x="183.640594" y="229.568343" style="fill: #0000ff; stroke: #0000ff"/>
     <use xlink:href="#m2a80a056fa" x="183.211888" y="228.356371" style="fill: #0000ff; stroke: #0000ff"/>
     <use xlink:href="#m2a80a056fa" x="183.453075" y="228.630005" style="fill: #0000ff; stroke: #0000ff"/>
     <use xlink:href="#m2a80a056fa" x="245.342835" y="245.705815" style="fill: #0000ff; stroke: #0000ff"/>
     <use xlink:href="#m2a80a056fa" x="204.649412" y="237.202699" style="fill: #0000ff; stroke: #0000ff"/>
     <use xlink:href="#m2a80a056fa" x="232.699631" y="241.482199" style="fill: #0000ff; stroke: #0000ff"/>
     <use xlink:href="#m2a80a056fa" x="205.73172" y="237.354535" style="fill: #0000ff; stroke: #0000ff"/>
     <use xlink:href="#m2a80a056fa" x="278.172818" y="259.030106" style="fill: #0000ff; stroke: #0000ff"/>
     <use xlink:href="#m2a80a056fa" x="181.237251" y="227.935861" style="fill: #0000ff; stroke: #0000ff"/>
     <use xlink:href="#m2a80a056fa" x="231.977947" y="241.334311" style="fill: #0000ff; stroke: #0000ff"/>
     <use xlink:href="#m2a80a056fa" x="245.960889" y="246.826613" style="fill: #0000ff; stroke: #0000ff"/>
     <use xlink:href="#m2a80a056fa" x="192.995819" y="230.350207" style="fill: #0000ff; stroke: #0000ff"/>
     <use xlink:href="#m2a80a056fa" x="193.281098" y="230.872018" style="fill: #0000ff; stroke: #0000ff"/>
     <use xlink:href="#m2a80a056fa" x="253.820434" y="250.233201" style="fill: #0000ff; stroke: #0000ff"/>
     <use xlink:href="#m2a80a056fa" x="227.207369" y="238.157671" style="fill: #0000ff; stroke: #0000ff"/>
     <use xlink:href="#m2a80a056fa" x="245.29796" y="245.572462" style="fill: #0000ff; stroke: #0000ff"/>
     <use xlink:href="#m2a80a056fa" x="231.915871" y="241.22618" style="fill: #0000ff; stroke: #0000ff"/>
     <use xlink:href="#m2a80a056fa" x="204.642114" y="234.701939" style="fill: #0000ff; stroke: #0000ff"/>
     <use xlink:href="#m2a80a056fa" x="256.736003" y="252.511771" style="fill: #0000ff; stroke: #0000ff"/>
     <use xlink:href="#m2a80a056fa" x="181.245014" y="228.196337" style="fill: #0000ff; stroke: #0000ff"/>
     <use xlink:href="#m2a80a056fa" x="256.629408" y="252.306698" style="fill: #0000ff; stroke: #0000ff"/>
     <use xlink:href="#m2a80a056fa" x="246.255828" y="247.039782" style="fill: #0000ff; stroke: #0000ff"/>
     <use xlink:href="#m2a80a056fa" x="194.144539" y="232.45117" style="fill: #0000ff; stroke: #0000ff"/>
     <use xlink:href="#m2a80a056fa" x="193.05345" y="230.68518" style="fill: #0000ff; stroke: #0000ff"/>
     <use xlink:href="#m2a80a056fa" x="183.419457" y="228.507507" style="fill: #0000ff; stroke: #0000ff"/>
     <use xlink:href="#m2a80a056fa" x="193.034868" y="230.644418" style="fill: #0000ff; stroke: #0000ff"/>
     <use xlink:href="#m2a80a056fa" x="246.248818" y="246.973145" style="fill: #0000ff; stroke: #0000ff"/>
     <use xlink:href="#m2a80a056fa" x="194.144581" y="232.617819" style="fill: #0000ff; stroke: #0000ff"/>
     <use xlink:href="#m2a80a056fa" x="295.989052" y="285.054903" style="fill: #0000ff; stroke: #0000ff"/>
     <use xlink:href="#m2a80a056fa" x="227.418907" y="238.35957" style="fill: #0000ff; stroke: #0000ff"/>
     <use xlink:href="#m2a80a056fa" x="205.836634" y="237.451647" style="fill: #0000ff; stroke: #0000ff"/>
     <use xlink:href="#m2a80a056fa" x="246.029719" y="246.826906" style="fill: #0000ff; stroke: #0000ff"/>
     <use xlink:href="#m2a80a056fa" x="253.508045" y="250.123971" style="fill: #0000ff; stroke: #0000ff"/>
     <use xlink:href="#m2a80a056fa" x="253.48947" y="250.122729" style="fill: #0000ff; stroke: #0000ff"/>
     <use xlink:href="#m2a80a056fa" x="183.279312" y="228.360331" style="fill: #0000ff; stroke: #0000ff"/>
     <use xlink:href="#m2a80a056fa" x="256.78289" y="252.705745" style="fill: #0000ff; stroke: #0000ff"/>
     <use xlink:href="#m2a80a056fa" x="194.144644" y="232.813061" style="fill: #0000ff; stroke: #0000ff"/>
     <use xlink:href="#m2a80a056fa" x="278.173591" y="263.66709" style="fill: #0000ff; stroke: #0000ff"/>
     <use xlink:href="#m2a80a056fa" x="256.612584" y="252.151964" style="fill: #0000ff; stroke: #0000ff"/>
     <use xlink:href="#m2a80a056fa" x="205.75372" y="237.416879" style="fill: #0000ff; stroke: #0000ff"/>
     <use xlink:href="#m2a80a056fa" x="256.623886" y="252.152084" style="fill: #0000ff; stroke: #0000ff"/>
     <use xlink:href="#m2a80a056fa" x="227.433917" y="238.363302" style="fill: #0000ff; stroke: #0000ff"/>
     <use xlink:href="#m2a80a056fa" x="229.199754" y="239.281136" style="fill: #0000ff; stroke: #0000ff"/>
     <use xlink:href="#m2a80a056fa" x="162.635294" y="191.100129" style="fill: #0000ff; stroke: #0000ff"/>
    </g>
   </g>
   <g id="matplotlib.axis_1">
    <g id="xtick_1">
     <g id="line2d_1">
      <defs>
       <path id="m13dfc71291" d="M 0 0 
L 0 3.5 
" style="stroke: #000000; stroke-width: 0.8"/>
      </defs>
      <g>
       <use xlink:href="#m13dfc71291" x="68.103529" y="307.584" style="stroke: #000000; stroke-width: 0.8"/>
      </g>
     </g>
     <g id="text_1">
      <!-- 0 -->
      <g transform="translate(64.922279 322.182437)scale(0.1 -0.1)">
       <defs>
        <path id="DejaVuSans-30" d="M 2034 4250 
Q 1547 4250 1301 3770 
Q 1056 3291 1056 2328 
Q 1056 1369 1301 889 
Q 1547 409 2034 409 
Q 2525 409 2770 889 
Q 3016 1369 3016 2328 
Q 3016 3291 2770 3770 
Q 2525 4250 2034 4250 
z
M 2034 4750 
Q 2819 4750 3233 4129 
Q 3647 3509 3647 2328 
Q 3647 1150 3233 529 
Q 2819 -91 2034 -91 
Q 1250 -91 836 529 
Q 422 1150 422 2328 
Q 422 3509 836 4129 
Q 1250 4750 2034 4750 
z
" transform="scale(0.015625)"/>
       </defs>
       <use xlink:href="#DejaVuSans-30"/>
      </g>
     </g>
    </g>
    <g id="xtick_2">
     <g id="line2d_2">
      <g>
       <use xlink:href="#m13dfc71291" x="173.138824" y="307.584" style="stroke: #000000; stroke-width: 0.8"/>
      </g>
     </g>
     <g id="text_2">
      <!-- 1 -->
      <g transform="translate(169.957574 322.182437)scale(0.1 -0.1)">
       <defs>
        <path id="DejaVuSans-31" d="M 794 531 
L 1825 531 
L 1825 4091 
L 703 3866 
L 703 4441 
L 1819 4666 
L 2450 4666 
L 2450 531 
L 3481 531 
L 3481 0 
L 794 0 
L 794 531 
z
" transform="scale(0.015625)"/>
       </defs>
       <use xlink:href="#DejaVuSans-31"/>
      </g>
     </g>
    </g>
    <g id="xtick_3">
     <g id="line2d_3">
      <g>
       <use xlink:href="#m13dfc71291" x="278.174118" y="307.584" style="stroke: #000000; stroke-width: 0.8"/>
      </g>
     </g>
     <g id="text_3">
      <!-- 2 -->
      <g transform="translate(274.992868 322.182437)scale(0.1 -0.1)">
       <defs>
        <path id="DejaVuSans-32" d="M 1228 531 
L 3431 531 
L 3431 0 
L 469 0 
L 469 531 
Q 828 903 1448 1529 
Q 2069 2156 2228 2338 
Q 2531 2678 2651 2914 
Q 2772 3150 2772 3378 
Q 2772 3750 2511 3984 
Q 2250 4219 1831 4219 
Q 1534 4219 1204 4116 
Q 875 4013 500 3803 
L 500 4441 
Q 881 4594 1212 4672 
Q 1544 4750 1819 4750 
Q 2544 4750 2975 4387 
Q 3406 4025 3406 3419 
Q 3406 3131 3298 2873 
Q 3191 2616 2906 2266 
Q 2828 2175 2409 1742 
Q 1991 1309 1228 531 
z
" transform="scale(0.015625)"/>
       </defs>
       <use xlink:href="#DejaVuSans-32"/>
      </g>
     </g>
    </g>
    <g id="xtick_4">
     <g id="line2d_4">
      <g>
       <use xlink:href="#m13dfc71291" x="383.209412" y="307.584" style="stroke: #000000; stroke-width: 0.8"/>
      </g>
     </g>
     <g id="text_4">
      <!-- 3 -->
      <g transform="translate(380.028162 322.182437)scale(0.1 -0.1)">
       <defs>
        <path id="DejaVuSans-33" d="M 2597 2516 
Q 3050 2419 3304 2112 
Q 3559 1806 3559 1356 
Q 3559 666 3084 287 
Q 2609 -91 1734 -91 
Q 1441 -91 1130 -33 
Q 819 25 488 141 
L 488 750 
Q 750 597 1062 519 
Q 1375 441 1716 441 
Q 2309 441 2620 675 
Q 2931 909 2931 1356 
Q 2931 1769 2642 2001 
Q 2353 2234 1838 2234 
L 1294 2234 
L 1294 2753 
L 1863 2753 
Q 2328 2753 2575 2939 
Q 2822 3125 2822 3475 
Q 2822 3834 2567 4026 
Q 2313 4219 1838 4219 
Q 1578 4219 1281 4162 
Q 984 4106 628 3988 
L 628 4550 
Q 988 4650 1302 4700 
Q 1616 4750 1894 4750 
Q 2613 4750 3031 4423 
Q 3450 4097 3450 3541 
Q 3450 3153 3228 2886 
Q 3006 2619 2597 2516 
z
" transform="scale(0.015625)"/>
       </defs>
       <use xlink:href="#DejaVuSans-33"/>
      </g>
     </g>
    </g>
   </g>
   <g id="matplotlib.axis_2">
    <g id="ytick_1">
     <g id="line2d_5">
      <defs>
       <path id="m6dfefb6ed0" d="M 0 0 
L -3.5 0 
" style="stroke: #000000; stroke-width: 0.8"/>
      </defs>
      <g>
       <use xlink:href="#m6dfefb6ed0" x="57.6" y="299.757176" style="stroke: #000000; stroke-width: 0.8"/>
      </g>
     </g>
     <g id="text_5">
      <!-- 0 -->
      <g transform="translate(44.2375 303.556395)scale(0.1 -0.1)">
       <use xlink:href="#DejaVuSans-30"/>
      </g>
     </g>
    </g>
    <g id="ytick_2">
     <g id="line2d_6">
      <g>
       <use xlink:href="#m6dfefb6ed0" x="57.6" y="221.488941" style="stroke: #000000; stroke-width: 0.8"/>
      </g>
     </g>
     <g id="text_6">
      <!-- 1 -->
      <g transform="translate(44.2375 225.28816)scale(0.1 -0.1)">
       <use xlink:href="#DejaVuSans-31"/>
      </g>
     </g>
    </g>
    <g id="ytick_3">
     <g id="line2d_7">
      <g>
       <use xlink:href="#m6dfefb6ed0" x="57.6" y="143.220706" style="stroke: #000000; stroke-width: 0.8"/>
      </g>
     </g>
     <g id="text_7">
      <!-- 2 -->
      <g transform="translate(44.2375 147.019925)scale(0.1 -0.1)">
       <use xlink:href="#DejaVuSans-32"/>
      </g>
     </g>
    </g>
    <g id="ytick_4">
     <g id="line2d_8">
      <g>
       <use xlink:href="#m6dfefb6ed0" x="57.6" y="64.952471" style="stroke: #000000; stroke-width: 0.8"/>
      </g>
     </g>
     <g id="text_8">
      <!-- 3 -->
      <g transform="translate(44.2375 68.751689)scale(0.1 -0.1)">
       <use xlink:href="#DejaVuSans-33"/>
      </g>
     </g>
    </g>
   </g>
   <g id="patch_3">
    <path d="M 57.6 307.584 
L 57.6 41.472 
" style="fill: none; stroke: #000000; stroke-width: 0.8; stroke-linejoin: miter; stroke-linecap: square"/>
   </g>
   <g id="patch_4">
    <path d="M 414.72 307.584 
L 414.72 41.472 
" style="fill: none; stroke: #000000; stroke-width: 0.8; stroke-linejoin: miter; stroke-linecap: square"/>
   </g>
   <g id="patch_5">
    <path d="M 57.6 307.584 
L 414.72 307.584 
" style="fill: none; stroke: #000000; stroke-width: 0.8; stroke-linejoin: miter; stroke-linecap: square"/>
   </g>
   <g id="patch_6">
    <path d="M 57.6 41.472 
L 414.72 41.472 
" style="fill: none; stroke: #000000; stroke-width: 0.8; stroke-linejoin: miter; stroke-linecap: square"/>
   </g>
   <g id="text_9">
    <!-- 239_n_1998 AREA: 2.231 -->
    <g transform="translate(160.559062 35.472)scale(0.12 -0.12)">
     <defs>
      <path id="DejaVuSans-39" d="M 703 97 
L 703 672 
Q 941 559 1184 500 
Q 1428 441 1663 441 
Q 2288 441 2617 861 
Q 2947 1281 2994 2138 
Q 2813 1869 2534 1725 
Q 2256 1581 1919 1581 
Q 1219 1581 811 2004 
Q 403 2428 403 3163 
Q 403 3881 828 4315 
Q 1253 4750 1959 4750 
Q 2769 4750 3195 4129 
Q 3622 3509 3622 2328 
Q 3622 1225 3098 567 
Q 2575 -91 1691 -91 
Q 1453 -91 1209 -44 
Q 966 3 703 97 
z
M 1959 2075 
Q 2384 2075 2632 2365 
Q 2881 2656 2881 3163 
Q 2881 3666 2632 3958 
Q 2384 4250 1959 4250 
Q 1534 4250 1286 3958 
Q 1038 3666 1038 3163 
Q 1038 2656 1286 2365 
Q 1534 2075 1959 2075 
z
" transform="scale(0.015625)"/>
      <path id="DejaVuSans-5f" d="M 3263 -1063 
L 3263 -1509 
L -63 -1509 
L -63 -1063 
L 3263 -1063 
z
" transform="scale(0.015625)"/>
      <path id="DejaVuSans-6e" d="M 3513 2113 
L 3513 0 
L 2938 0 
L 2938 2094 
Q 2938 2591 2744 2837 
Q 2550 3084 2163 3084 
Q 1697 3084 1428 2787 
Q 1159 2491 1159 1978 
L 1159 0 
L 581 0 
L 581 3500 
L 1159 3500 
L 1159 2956 
Q 1366 3272 1645 3428 
Q 1925 3584 2291 3584 
Q 2894 3584 3203 3211 
Q 3513 2838 3513 2113 
z
" transform="scale(0.015625)"/>
      <path id="DejaVuSans-38" d="M 2034 2216 
Q 1584 2216 1326 1975 
Q 1069 1734 1069 1313 
Q 1069 891 1326 650 
Q 1584 409 2034 409 
Q 2484 409 2743 651 
Q 3003 894 3003 1313 
Q 3003 1734 2745 1975 
Q 2488 2216 2034 2216 
z
M 1403 2484 
Q 997 2584 770 2862 
Q 544 3141 544 3541 
Q 544 4100 942 4425 
Q 1341 4750 2034 4750 
Q 2731 4750 3128 4425 
Q 3525 4100 3525 3541 
Q 3525 3141 3298 2862 
Q 3072 2584 2669 2484 
Q 3125 2378 3379 2068 
Q 3634 1759 3634 1313 
Q 3634 634 3220 271 
Q 2806 -91 2034 -91 
Q 1263 -91 848 271 
Q 434 634 434 1313 
Q 434 1759 690 2068 
Q 947 2378 1403 2484 
z
M 1172 3481 
Q 1172 3119 1398 2916 
Q 1625 2713 2034 2713 
Q 2441 2713 2670 2916 
Q 2900 3119 2900 3481 
Q 2900 3844 2670 4047 
Q 2441 4250 2034 4250 
Q 1625 4250 1398 4047 
Q 1172 3844 1172 3481 
z
" transform="scale(0.015625)"/>
      <path id="DejaVuSans-20" transform="scale(0.015625)"/>
      <path id="DejaVuSans-41" d="M 2188 4044 
L 1331 1722 
L 3047 1722 
L 2188 4044 
z
M 1831 4666 
L 2547 4666 
L 4325 0 
L 3669 0 
L 3244 1197 
L 1141 1197 
L 716 0 
L 50 0 
L 1831 4666 
z
" transform="scale(0.015625)"/>
      <path id="DejaVuSans-52" d="M 2841 2188 
Q 3044 2119 3236 1894 
Q 3428 1669 3622 1275 
L 4263 0 
L 3584 0 
L 2988 1197 
Q 2756 1666 2539 1819 
Q 2322 1972 1947 1972 
L 1259 1972 
L 1259 0 
L 628 0 
L 628 4666 
L 2053 4666 
Q 2853 4666 3247 4331 
Q 3641 3997 3641 3322 
Q 3641 2881 3436 2590 
Q 3231 2300 2841 2188 
z
M 1259 4147 
L 1259 2491 
L 2053 2491 
Q 2509 2491 2742 2702 
Q 2975 2913 2975 3322 
Q 2975 3731 2742 3939 
Q 2509 4147 2053 4147 
L 1259 4147 
z
" transform="scale(0.015625)"/>
      <path id="DejaVuSans-45" d="M 628 4666 
L 3578 4666 
L 3578 4134 
L 1259 4134 
L 1259 2753 
L 3481 2753 
L 3481 2222 
L 1259 2222 
L 1259 531 
L 3634 531 
L 3634 0 
L 628 0 
L 628 4666 
z
" transform="scale(0.015625)"/>
      <path id="DejaVuSans-3a" d="M 750 794 
L 1409 794 
L 1409 0 
L 750 0 
L 750 794 
z
M 750 3309 
L 1409 3309 
L 1409 2516 
L 750 2516 
L 750 3309 
z
" transform="scale(0.015625)"/>
      <path id="DejaVuSans-2e" d="M 684 794 
L 1344 794 
L 1344 0 
L 684 0 
L 684 794 
z
" transform="scale(0.015625)"/>
     </defs>
     <use xlink:href="#DejaVuSans-32"/>
     <use xlink:href="#DejaVuSans-33" x="63.623047"/>
     <use xlink:href="#DejaVuSans-39" x="127.246094"/>
     <use xlink:href="#DejaVuSans-5f" x="190.869141"/>
     <use xlink:href="#DejaVuSans-6e" x="240.869141"/>
     <use xlink:href="#DejaVuSans-5f" x="304.248047"/>
     <use xlink:href="#DejaVuSans-31" x="354.248047"/>
     <use xlink:href="#DejaVuSans-39" x="417.871094"/>
     <use xlink:href="#DejaVuSans-39" x="481.494141"/>
     <use xlink:href="#DejaVuSans-38" x="545.117188"/>
     <use xlink:href="#DejaVuSans-20" x="608.740234"/>
     <use xlink:href="#DejaVuSans-41" x="640.527344"/>
     <use xlink:href="#DejaVuSans-52" x="708.935547"/>
     <use xlink:href="#DejaVuSans-45" x="778.417969"/>
     <use xlink:href="#DejaVuSans-41" x="841.601562"/>
     <use xlink:href="#DejaVuSans-3a" x="908.259766"/>
     <use xlink:href="#DejaVuSans-20" x="941.951172"/>
     <use xlink:href="#DejaVuSans-32" x="973.738281"/>
     <use xlink:href="#DejaVuSans-2e" x="1037.361328"/>
     <use xlink:href="#DejaVuSans-32" x="1069.148438"/>
     <use xlink:href="#DejaVuSans-33" x="1132.771484"/>
     <use xlink:href="#DejaVuSans-31" x="1196.394531"/>
    </g>
   </g>
  </g>
 </g>
 <defs>
  <clipPath id="p74335ae6b8">
   <rect x="57.6" y="41.472" width="357.12" height="266.112"/>
  </clipPath>
 </defs>
</svg>
