<?xml version="1.0" encoding="utf-8" standalone="no"?>
<!DOCTYPE svg PUBLIC "-//W3C//DTD SVG 1.1//EN"
  "http://www.w3.org/Graphics/SVG/1.1/DTD/svg11.dtd">
<svg xmlns:xlink="http://www.w3.org/1999/xlink" width="460.8pt" height="345.6pt" viewBox="0 0 460.8 345.6" xmlns="http://www.w3.org/2000/svg" version="1.1">
 <metadata>
  <rdf:RDF xmlns:dc="http://purl.org/dc/elements/1.1/" xmlns:cc="http://creativecommons.org/ns#" xmlns:rdf="http://www.w3.org/1999/02/22-rdf-syntax-ns#">
   <cc:Work>
    <dc:type rdf:resource="http://purl.org/dc/dcmitype/StillImage"/>
    <dc:date>2023-05-29T01:39:09.342123</dc:date>
    <dc:format>image/svg+xml</dc:format>
    <dc:creator>
     <cc:Agent>
      <dc:title>Matplotlib v3.5.3, https://matplotlib.org/</dc:title>
     </cc:Agent>
    </dc:creator>
   </cc:Work>
  </rdf:RDF>
 </metadata>
 <defs>
  <style type="text/css">*{stroke-linejoin: round; stroke-linecap: butt}</style>
 </defs>
 <g id="figure_1">
  <g id="patch_1">
   <path d="M 0 345.6 
L 460.8 345.6 
L 460.8 0 
L 0 0 
z
" style="fill: #ffffff"/>
  </g>
  <g id="axes_1">
   <g id="patch_2">
    <path d="M 57.6 307.584 
L 414.72 307.584 
L 414.72 41.472 
L 57.6 41.472 
z
" style="fill: #ffffff"/>
   </g>
   <g id="PathCollection_1">
    <defs>
     <path id="m94260a70e3" d="M 0 3 
C 0.795609 3 1.55874 2.683901 2.12132 2.12132 
C 2.683901 1.55874 3 0.795609 3 0 
C 3 -0.795609 2.683901 -1.55874 2.12132 -2.12132 
C 1.55874 -2.683901 0.795609 -3 0 -3 
C -0.795609 -3 -1.55874 -2.683901 -2.12132 -2.12132 
C -2.683901 -1.55874 -3 -0.795609 -3 0 
C -3 0.795609 -2.683901 1.55874 -2.12132 2.12132 
C -1.55874 2.683901 -0.795609 3 0 3 
z
" style="stroke: #ff0000"/>
    </defs>
    <g clip-path="url(#pb837f3345e)">
     <use xlink:href="#m94260a70e3" x="281.050798" y="247.784193" style="fill: #ff0000; stroke: #ff0000"/>
     <use xlink:href="#m94260a70e3" x="68.103529" y="108.844658" style="fill: #ff0000; stroke: #ff0000"/>
     <use xlink:href="#m94260a70e3" x="205.129165" y="200.934436" style="fill: #ff0000; stroke: #ff0000"/>
     <use xlink:href="#m94260a70e3" x="178.892185" y="196.391011" style="fill: #ff0000; stroke: #ff0000"/>
     <use xlink:href="#m94260a70e3" x="234.238893" y="211.615096" style="fill: #ff0000; stroke: #ff0000"/>
     <use xlink:href="#m94260a70e3" x="173.138824" y="158.447473" style="fill: #ff0000; stroke: #ff0000"/>
     <use xlink:href="#m94260a70e3" x="173.367171" y="180.682837" style="fill: #ff0000; stroke: #ff0000"/>
     <use xlink:href="#m94260a70e3" x="245.434925" y="226.544359" style="fill: #ff0000; stroke: #ff0000"/>
     <use xlink:href="#m94260a70e3" x="266.407911" y="228.91282" style="fill: #ff0000; stroke: #ff0000"/>
     <use xlink:href="#m94260a70e3" x="256.076254" y="227.619805" style="fill: #ff0000; stroke: #ff0000"/>
     <use xlink:href="#m94260a70e3" x="217.389148" y="207.524714" style="fill: #ff0000; stroke: #ff0000"/>
     <use xlink:href="#m94260a70e3" x="215.33378" y="203.979451" style="fill: #ff0000; stroke: #ff0000"/>
     <use xlink:href="#m94260a70e3" x="278.174118" y="237.103531" style="fill: #ff0000; stroke: #ff0000"/>
     <use xlink:href="#m94260a70e3" x="237.555873" y="218.046264" style="fill: #ff0000; stroke: #ff0000"/>
     <use xlink:href="#m94260a70e3" x="68.694161" y="117.684994" style="fill: #ff0000; stroke: #ff0000"/>
     <use xlink:href="#m94260a70e3" x="279.313119" y="247.784192" style="fill: #ff0000; stroke: #ff0000"/>
     <use xlink:href="#m94260a70e3" x="109.455139" y="130.192101" style="fill: #ff0000; stroke: #ff0000"/>
     <use xlink:href="#m94260a70e3" x="277.02148" y="230.462265" style="fill: #ff0000; stroke: #ff0000"/>
     <use xlink:href="#m94260a70e3" x="83.635949" y="125.521915" style="fill: #ff0000; stroke: #ff0000"/>
     <use xlink:href="#m94260a70e3" x="97.16265" y="129.067176" style="fill: #ff0000; stroke: #ff0000"/>
     <use xlink:href="#m94260a70e3" x="237.227224" y="218.046259" style="fill: #ff0000; stroke: #ff0000"/>
     <use xlink:href="#m94260a70e3" x="156.418881" y="148.508406" style="fill: #ff0000; stroke: #ff0000"/>
     <use xlink:href="#m94260a70e3" x="170.259682" y="153.178593" style="fill: #ff0000; stroke: #ff0000"/>
     <use xlink:href="#m94260a70e3" x="161.944737" y="150.811826" style="fill: #ff0000; stroke: #ff0000"/>
     <use xlink:href="#m94260a70e3" x="122.684328" y="133.737361" style="fill: #ff0000; stroke: #ff0000"/>
     <use xlink:href="#m94260a70e3" x="176.015504" y="181.04018" style="fill: #ff0000; stroke: #ff0000"/>
     <use xlink:href="#m94260a70e3" x="89.267399" y="126.472145" style="fill: #ff0000; stroke: #ff0000"/>
     <use xlink:href="#m94260a70e3" x="176.628291" y="187.63045" style="fill: #ff0000; stroke: #ff0000"/>
     <use xlink:href="#m94260a70e3" x="128.526917" y="135.657479" style="fill: #ff0000; stroke: #ff0000"/>
     <use xlink:href="#m94260a70e3" x="145.326832" y="142.051254" style="fill: #ff0000; stroke: #ff0000"/>
     <use xlink:href="#m94260a70e3" x="135.085713" y="137.827745" style="fill: #ff0000; stroke: #ff0000"/>
     <use xlink:href="#m94260a70e3" x="78.067432" y="122.926885" style="fill: #ff0000; stroke: #ff0000"/>
     <use xlink:href="#m94260a70e3" x="78.66184" y="122.926886" style="fill: #ff0000; stroke: #ff0000"/>
     <use xlink:href="#m94260a70e3" x="153.323585" y="144.41803" style="fill: #ff0000; stroke: #ff0000"/>
     <use xlink:href="#m94260a70e3" x="72.445864" y="120.730012" style="fill: #ff0000; stroke: #ff0000"/>
     <use xlink:href="#m94260a70e3" x="114.613774" y="133.237122" style="fill: #ff0000; stroke: #ff0000"/>
     <use xlink:href="#m94260a70e3" x="177.395534" y="191.720838" style="fill: #ff0000; stroke: #ff0000"/>
     <use xlink:href="#m94260a70e3" x="140.501045" y="139.747836" style="fill: #ff0000; stroke: #ff0000"/>
     <use xlink:href="#m94260a70e3" x="135.092855" y="137.827745" style="fill: #ff0000; stroke: #ff0000"/>
     <use xlink:href="#m94260a70e3" x="140.908748" y="139.747878" style="fill: #ff0000; stroke: #ff0000"/>
     <use xlink:href="#m94260a70e3" x="278.174115" y="234.508502" style="fill: #ff0000; stroke: #ff0000"/>
     <use xlink:href="#m94260a70e3" x="217.2561" y="207.524712" style="fill: #ff0000; stroke: #ff0000"/>
     <use xlink:href="#m94260a70e3" x="110.744292" y="131.142332" style="fill: #ff0000; stroke: #ff0000"/>
     <use xlink:href="#m94260a70e3" x="113.768533" y="132.112191" style="fill: #ff0000; stroke: #ff0000"/>
     <use xlink:href="#m94260a70e3" x="171.905932" y="155.551726" style="fill: #ff0000; stroke: #ff0000"/>
     <use xlink:href="#m94260a70e3" x="147.414428" y="143.838221" style="fill: #ff0000; stroke: #ff0000"/>
     <use xlink:href="#m94260a70e3" x="96.668732" y="129.067175" style="fill: #ff0000; stroke: #ff0000"/>
     <use xlink:href="#m94260a70e3" x="92.081527" y="128.022219" style="fill: #ff0000; stroke: #ff0000"/>
     <use xlink:href="#m94260a70e3" x="177.112082" y="191.720825" style="fill: #ff0000; stroke: #ff0000"/>
     <use xlink:href="#m94260a70e3" x="176.923264" y="188.175577" style="fill: #ff0000; stroke: #ff0000"/>
     <use xlink:href="#m94260a70e3" x="123.249846" y="135.232716" style="fill: #ff0000; stroke: #ff0000"/>
     <use xlink:href="#m94260a70e3" x="145.834922" y="143.096623" style="fill: #ff0000; stroke: #ff0000"/>
     <use xlink:href="#m94260a70e3" x="91.300959" y="128.021805" style="fill: #ff0000; stroke: #ff0000"/>
     <use xlink:href="#m94260a70e3" x="172.01665" y="158.437767" style="fill: #ff0000; stroke: #ff0000"/>
     <use xlink:href="#m94260a70e3" x="69.426515" y="119.88187" style="fill: #ff0000; stroke: #ff0000"/>
     <use xlink:href="#m94260a70e3" x="151.287214" y="143.838221" style="fill: #ff0000; stroke: #ff0000"/>
     <use xlink:href="#m94260a70e3" x="124.774048" y="135.657452" style="fill: #ff0000; stroke: #ff0000"/>
     <use xlink:href="#m94260a70e3" x="277.86518" y="232.311627" style="fill: #ff0000; stroke: #ff0000"/>
     <use xlink:href="#m94260a70e3" x="277.777836" y="232.311625" style="fill: #ff0000; stroke: #ff0000"/>
     <use xlink:href="#m94260a70e3" x="161.309458" y="149.686899" style="fill: #ff0000; stroke: #ff0000"/>
     <use xlink:href="#m94260a70e3" x="126.418801" y="135.657452" style="fill: #ff0000; stroke: #ff0000"/>
     <use xlink:href="#m94260a70e3" x="175.114497" y="181.040169" style="fill: #ff0000; stroke: #ff0000"/>
     <use xlink:href="#m94260a70e3" x="159.322536" y="148.508406" style="fill: #ff0000; stroke: #ff0000"/>
     <use xlink:href="#m94260a70e3" x="151.489939" y="143.838222" style="fill: #ff0000; stroke: #ff0000"/>
     <use xlink:href="#m94260a70e3" x="71.480275" y="119.881871" style="fill: #ff0000; stroke: #ff0000"/>
     <use xlink:href="#m94260a70e3" x="153.304101" y="144.41803" style="fill: #ff0000; stroke: #ff0000"/>
     <use xlink:href="#m94260a70e3" x="114.611052" y="133.23712" style="fill: #ff0000; stroke: #ff0000"/>
     <use xlink:href="#m94260a70e3" x="161.939041" y="150.811825" style="fill: #ff0000; stroke: #ff0000"/>
     <use xlink:href="#m94260a70e3" x="173.404066" y="180.682996" style="fill: #ff0000; stroke: #ff0000"/>
     <use xlink:href="#m94260a70e3" x="171.468007" y="153.777286" style="fill: #ff0000; stroke: #ff0000"/>
     <use xlink:href="#m94260a70e3" x="171.497132" y="154.357241" style="fill: #ff0000; stroke: #ff0000"/>
     <use xlink:href="#m94260a70e3" x="69.456412" y="119.88187" style="fill: #ff0000; stroke: #ff0000"/>
     <use xlink:href="#m94260a70e3" x="72.220296" y="119.881873" style="fill: #ff0000; stroke: #ff0000"/>
     <use xlink:href="#m94260a70e3" x="128.086678" y="135.657456" style="fill: #ff0000; stroke: #ff0000"/>
     <use xlink:href="#m94260a70e3" x="160.979804" y="149.088209" style="fill: #ff0000; stroke: #ff0000"/>
     <use xlink:href="#m94260a70e3" x="160.079303" y="148.508429" style="fill: #ff0000; stroke: #ff0000"/>
     <use xlink:href="#m94260a70e3" x="279.399539" y="247.784193" style="fill: #ff0000; stroke: #ff0000"/>
     <use xlink:href="#m94260a70e3" x="72.224254" y="120.730009" style="fill: #ff0000; stroke: #ff0000"/>
     <use xlink:href="#m94260a70e3" x="171.006748" y="153.178632" style="fill: #ff0000; stroke: #ff0000"/>
     <use xlink:href="#m94260a70e3" x="161.00214" y="149.088213" style="fill: #ff0000; stroke: #ff0000"/>
     <use xlink:href="#m94260a70e3" x="176.705008" y="187.630478" style="fill: #ff0000; stroke: #ff0000"/>
     <use xlink:href="#m94260a70e3" x="176.921492" y="188.175577" style="fill: #ff0000; stroke: #ff0000"/>
     <use xlink:href="#m94260a70e3" x="172.835936" y="158.447471" style="fill: #ff0000; stroke: #ff0000"/>
     <use xlink:href="#m94260a70e3" x="171.493538" y="154.357089" style="fill: #ff0000; stroke: #ff0000"/>
     <use xlink:href="#m94260a70e3" x="172.144166" y="158.438399" style="fill: #ff0000; stroke: #ff0000"/>
     <use xlink:href="#m94260a70e3" x="170.500743" y="153.178596" style="fill: #ff0000; stroke: #ff0000"/>
     <use xlink:href="#m94260a70e3" x="91.694572" y="128.021806" style="fill: #ff0000; stroke: #ff0000"/>
     <use xlink:href="#m94260a70e3" x="159.85071" y="148.508415" style="fill: #ff0000; stroke: #ff0000"/>
     <use xlink:href="#m94260a70e3" x="170.976874" y="153.178604" style="fill: #ff0000; stroke: #ff0000"/>
     <use xlink:href="#m94260a70e3" x="97.065621" y="129.067176" style="fill: #ff0000; stroke: #ff0000"/>
     <use xlink:href="#m94260a70e3" x="128.257459" y="135.657458" style="fill: #ff0000; stroke: #ff0000"/>
     <use xlink:href="#m94260a70e3" x="140.574261" y="139.747849" style="fill: #ff0000; stroke: #ff0000"/>
     <use xlink:href="#m94260a70e3" x="237.431972" y="218.046263" style="fill: #ff0000; stroke: #ff0000"/>
     <use xlink:href="#m94260a70e3" x="159.562448" y="148.508413" style="fill: #ff0000; stroke: #ff0000"/>
     <use xlink:href="#m94260a70e3" x="177.350901" y="191.720827" style="fill: #ff0000; stroke: #ff0000"/>
     <use xlink:href="#m94260a70e3" x="91.91455" y="128.021924" style="fill: #ff0000; stroke: #ff0000"/>
     <use xlink:href="#m94260a70e3" x="170.33777" y="153.178594" style="fill: #ff0000; stroke: #ff0000"/>
     <use xlink:href="#m94260a70e3" x="159.556688" y="148.50841" style="fill: #ff0000; stroke: #ff0000"/>
     <use xlink:href="#m94260a70e3" x="160.069561" y="148.508415" style="fill: #ff0000; stroke: #ff0000"/>
     <use xlink:href="#m94260a70e3" x="91.819317" y="128.021806" style="fill: #ff0000; stroke: #ff0000"/>
    </g>
   </g>
   <g id="PathCollection_2">
    <defs>
     <path id="mcf386787e1" d="M 0 3 
C 0.795609 3 1.55874 2.683901 2.12132 2.12132 
C 2.683901 1.55874 3 0.795609 3 0 
C 3 -0.795609 2.683901 -1.55874 2.12132 -2.12132 
C 1.55874 -2.683901 0.795609 -3 0 -3 
C -0.795609 -3 -1.55874 -2.683901 -2.12132 -2.12132 
C -2.683901 -1.55874 -3 -0.795609 -3 0 
C -3 0.795609 -2.683901 1.55874 -2.12132 2.12132 
C -1.55874 2.683901 -0.795609 3 0 3 
z
" style="stroke: #0000ff"/>
    </defs>
    <g clip-path="url(#pb837f3345e)">
     <use xlink:href="#mcf386787e1" x="281.050798" y="247.784193" style="fill: #0000ff; stroke: #0000ff"/>
     <use xlink:href="#mcf386787e1" x="68.103529" y="108.844658" style="fill: #0000ff; stroke: #0000ff"/>
     <use xlink:href="#mcf386787e1" x="205.129165" y="200.934436" style="fill: #0000ff; stroke: #0000ff"/>
     <use xlink:href="#mcf386787e1" x="178.892185" y="196.391011" style="fill: #0000ff; stroke: #0000ff"/>
     <use xlink:href="#mcf386787e1" x="234.238893" y="211.615096" style="fill: #0000ff; stroke: #0000ff"/>
     <use xlink:href="#mcf386787e1" x="173.138824" y="158.447473" style="fill: #0000ff; stroke: #0000ff"/>
     <use xlink:href="#mcf386787e1" x="173.367171" y="180.682837" style="fill: #0000ff; stroke: #0000ff"/>
     <use xlink:href="#mcf386787e1" x="245.434925" y="226.544359" style="fill: #0000ff; stroke: #0000ff"/>
     <use xlink:href="#mcf386787e1" x="266.407911" y="228.91282" style="fill: #0000ff; stroke: #0000ff"/>
     <use xlink:href="#mcf386787e1" x="256.076254" y="227.619805" style="fill: #0000ff; stroke: #0000ff"/>
     <use xlink:href="#mcf386787e1" x="217.389148" y="207.524714" style="fill: #0000ff; stroke: #0000ff"/>
     <use xlink:href="#mcf386787e1" x="215.33378" y="203.979451" style="fill: #0000ff; stroke: #0000ff"/>
     <use xlink:href="#mcf386787e1" x="278.174118" y="237.103531" style="fill: #0000ff; stroke: #0000ff"/>
     <use xlink:href="#mcf386787e1" x="237.555873" y="218.046264" style="fill: #0000ff; stroke: #0000ff"/>
     <use xlink:href="#mcf386787e1" x="68.694161" y="117.684994" style="fill: #0000ff; stroke: #0000ff"/>
     <use xlink:href="#mcf386787e1" x="279.313119" y="247.784192" style="fill: #0000ff; stroke: #0000ff"/>
     <use xlink:href="#mcf386787e1" x="109.455139" y="130.192101" style="fill: #0000ff; stroke: #0000ff"/>
     <use xlink:href="#mcf386787e1" x="277.02148" y="230.462265" style="fill: #0000ff; stroke: #0000ff"/>
     <use xlink:href="#mcf386787e1" x="83.635949" y="125.521915" style="fill: #0000ff; stroke: #0000ff"/>
     <use xlink:href="#mcf386787e1" x="97.16265" y="129.067176" style="fill: #0000ff; stroke: #0000ff"/>
     <use xlink:href="#mcf386787e1" x="237.227224" y="218.046259" style="fill: #0000ff; stroke: #0000ff"/>
     <use xlink:href="#mcf386787e1" x="156.418881" y="148.508406" style="fill: #0000ff; stroke: #0000ff"/>
     <use xlink:href="#mcf386787e1" x="170.259682" y="153.178593" style="fill: #0000ff; stroke: #0000ff"/>
     <use xlink:href="#mcf386787e1" x="161.944737" y="150.811826" style="fill: #0000ff; stroke: #0000ff"/>
     <use xlink:href="#mcf386787e1" x="122.684328" y="133.737361" style="fill: #0000ff; stroke: #0000ff"/>
     <use xlink:href="#mcf386787e1" x="176.015504" y="181.04018" style="fill: #0000ff; stroke: #0000ff"/>
     <use xlink:href="#mcf386787e1" x="89.267399" y="126.472145" style="fill: #0000ff; stroke: #0000ff"/>
     <use xlink:href="#mcf386787e1" x="176.628291" y="187.63045" style="fill: #0000ff; stroke: #0000ff"/>
     <use xlink:href="#mcf386787e1" x="128.526917" y="135.657479" style="fill: #0000ff; stroke: #0000ff"/>
     <use xlink:href="#mcf386787e1" x="145.326832" y="142.051254" style="fill: #0000ff; stroke: #0000ff"/>
     <use xlink:href="#mcf386787e1" x="135.085713" y="137.827745" style="fill: #0000ff; stroke: #0000ff"/>
     <use xlink:href="#mcf386787e1" x="78.067432" y="122.926885" style="fill: #0000ff; stroke: #0000ff"/>
     <use xlink:href="#mcf386787e1" x="78.66184" y="122.926886" style="fill: #0000ff; stroke: #0000ff"/>
     <use xlink:href="#mcf386787e1" x="153.323585" y="144.41803" style="fill: #0000ff; stroke: #0000ff"/>
     <use xlink:href="#mcf386787e1" x="72.445864" y="120.730012" style="fill: #0000ff; stroke: #0000ff"/>
     <use xlink:href="#mcf386787e1" x="114.613774" y="133.237122" style="fill: #0000ff; stroke: #0000ff"/>
     <use xlink:href="#mcf386787e1" x="177.395534" y="191.720838" style="fill: #0000ff; stroke: #0000ff"/>
     <use xlink:href="#mcf386787e1" x="140.501045" y="139.747836" style="fill: #0000ff; stroke: #0000ff"/>
     <use xlink:href="#mcf386787e1" x="135.092855" y="137.827745" style="fill: #0000ff; stroke: #0000ff"/>
     <use xlink:href="#mcf386787e1" x="140.908748" y="139.747878" style="fill: #0000ff; stroke: #0000ff"/>
     <use xlink:href="#mcf386787e1" x="278.174115" y="234.508502" style="fill: #0000ff; stroke: #0000ff"/>
     <use xlink:href="#mcf386787e1" x="217.2561" y="207.524712" style="fill: #0000ff; stroke: #0000ff"/>
     <use xlink:href="#mcf386787e1" x="110.744292" y="131.142332" style="fill: #0000ff; stroke: #0000ff"/>
     <use xlink:href="#mcf386787e1" x="113.768533" y="132.112191" style="fill: #0000ff; stroke: #0000ff"/>
     <use xlink:href="#mcf386787e1" x="171.905932" y="155.551726" style="fill: #0000ff; stroke: #0000ff"/>
     <use xlink:href="#mcf386787e1" x="147.414428" y="143.838221" style="fill: #0000ff; stroke: #0000ff"/>
     <use xlink:href="#mcf386787e1" x="96.668732" y="129.067175" style="fill: #0000ff; stroke: #0000ff"/>
     <use xlink:href="#mcf386787e1" x="92.081527" y="128.022219" style="fill: #0000ff; stroke: #0000ff"/>
     <use xlink:href="#mcf386787e1" x="177.112082" y="191.720825" style="fill: #0000ff; stroke: #0000ff"/>
     <use xlink:href="#mcf386787e1" x="176.923264" y="188.175577" style="fill: #0000ff; stroke: #0000ff"/>
     <use xlink:href="#mcf386787e1" x="123.249846" y="135.232716" style="fill: #0000ff; stroke: #0000ff"/>
     <use xlink:href="#mcf386787e1" x="145.834922" y="143.096623" style="fill: #0000ff; stroke: #0000ff"/>
     <use xlink:href="#mcf386787e1" x="91.300959" y="128.021805" style="fill: #0000ff; stroke: #0000ff"/>
     <use xlink:href="#mcf386787e1" x="172.01665" y="158.437767" style="fill: #0000ff; stroke: #0000ff"/>
     <use xlink:href="#mcf386787e1" x="69.426515" y="119.88187" style="fill: #0000ff; stroke: #0000ff"/>
     <use xlink:href="#mcf386787e1" x="151.287214" y="143.838221" style="fill: #0000ff; stroke: #0000ff"/>
     <use xlink:href="#mcf386787e1" x="124.774048" y="135.657452" style="fill: #0000ff; stroke: #0000ff"/>
     <use xlink:href="#mcf386787e1" x="277.86518" y="232.311627" style="fill: #0000ff; stroke: #0000ff"/>
     <use xlink:href="#mcf386787e1" x="277.777836" y="232.311625" style="fill: #0000ff; stroke: #0000ff"/>
     <use xlink:href="#mcf386787e1" x="161.309458" y="149.686899" style="fill: #0000ff; stroke: #0000ff"/>
     <use xlink:href="#mcf386787e1" x="126.418801" y="135.657452" style="fill: #0000ff; stroke: #0000ff"/>
     <use xlink:href="#mcf386787e1" x="175.114497" y="181.040169" style="fill: #0000ff; stroke: #0000ff"/>
     <use xlink:href="#mcf386787e1" x="159.322536" y="148.508406" style="fill: #0000ff; stroke: #0000ff"/>
     <use xlink:href="#mcf386787e1" x="151.489939" y="143.838222" style="fill: #0000ff; stroke: #0000ff"/>
     <use xlink:href="#mcf386787e1" x="71.480275" y="119.881871" style="fill: #0000ff; stroke: #0000ff"/>
     <use xlink:href="#mcf386787e1" x="153.304101" y="144.41803" style="fill: #0000ff; stroke: #0000ff"/>
     <use xlink:href="#mcf386787e1" x="114.611052" y="133.23712" style="fill: #0000ff; stroke: #0000ff"/>
     <use xlink:href="#mcf386787e1" x="161.939041" y="150.811825" style="fill: #0000ff; stroke: #0000ff"/>
     <use xlink:href="#mcf386787e1" x="173.404066" y="180.682996" style="fill: #0000ff; stroke: #0000ff"/>
     <use xlink:href="#mcf386787e1" x="171.468007" y="153.777286" style="fill: #0000ff; stroke: #0000ff"/>
     <use xlink:href="#mcf386787e1" x="171.497132" y="154.357241" style="fill: #0000ff; stroke: #0000ff"/>
     <use xlink:href="#mcf386787e1" x="69.456412" y="119.88187" style="fill: #0000ff; stroke: #0000ff"/>
     <use xlink:href="#mcf386787e1" x="72.220296" y="119.881873" style="fill: #0000ff; stroke: #0000ff"/>
     <use xlink:href="#mcf386787e1" x="128.086678" y="135.657456" style="fill: #0000ff; stroke: #0000ff"/>
     <use xlink:href="#mcf386787e1" x="160.979804" y="149.088209" style="fill: #0000ff; stroke: #0000ff"/>
     <use xlink:href="#mcf386787e1" x="160.079303" y="148.508429" style="fill: #0000ff; stroke: #0000ff"/>
     <use xlink:href="#mcf386787e1" x="279.399539" y="247.784193" style="fill: #0000ff; stroke: #0000ff"/>
     <use xlink:href="#mcf386787e1" x="72.224254" y="120.730009" style="fill: #0000ff; stroke: #0000ff"/>
     <use xlink:href="#mcf386787e1" x="171.006748" y="153.178632" style="fill: #0000ff; stroke: #0000ff"/>
     <use xlink:href="#mcf386787e1" x="161.00214" y="149.088213" style="fill: #0000ff; stroke: #0000ff"/>
     <use xlink:href="#mcf386787e1" x="176.705008" y="187.630478" style="fill: #0000ff; stroke: #0000ff"/>
     <use xlink:href="#mcf386787e1" x="176.921492" y="188.175577" style="fill: #0000ff; stroke: #0000ff"/>
     <use xlink:href="#mcf386787e1" x="172.835936" y="158.447471" style="fill: #0000ff; stroke: #0000ff"/>
     <use xlink:href="#mcf386787e1" x="171.493538" y="154.357089" style="fill: #0000ff; stroke: #0000ff"/>
     <use xlink:href="#mcf386787e1" x="172.144166" y="158.438399" style="fill: #0000ff; stroke: #0000ff"/>
     <use xlink:href="#mcf386787e1" x="170.500743" y="153.178596" style="fill: #0000ff; stroke: #0000ff"/>
     <use xlink:href="#mcf386787e1" x="91.694572" y="128.021806" style="fill: #0000ff; stroke: #0000ff"/>
     <use xlink:href="#mcf386787e1" x="159.85071" y="148.508415" style="fill: #0000ff; stroke: #0000ff"/>
     <use xlink:href="#mcf386787e1" x="170.976874" y="153.178604" style="fill: #0000ff; stroke: #0000ff"/>
     <use xlink:href="#mcf386787e1" x="97.065621" y="129.067176" style="fill: #0000ff; stroke: #0000ff"/>
     <use xlink:href="#mcf386787e1" x="128.257459" y="135.657458" style="fill: #0000ff; stroke: #0000ff"/>
     <use xlink:href="#mcf386787e1" x="140.574261" y="139.747849" style="fill: #0000ff; stroke: #0000ff"/>
     <use xlink:href="#mcf386787e1" x="237.431972" y="218.046263" style="fill: #0000ff; stroke: #0000ff"/>
     <use xlink:href="#mcf386787e1" x="159.562448" y="148.508413" style="fill: #0000ff; stroke: #0000ff"/>
     <use xlink:href="#mcf386787e1" x="177.350901" y="191.720827" style="fill: #0000ff; stroke: #0000ff"/>
     <use xlink:href="#mcf386787e1" x="91.91455" y="128.021924" style="fill: #0000ff; stroke: #0000ff"/>
     <use xlink:href="#mcf386787e1" x="170.33777" y="153.178594" style="fill: #0000ff; stroke: #0000ff"/>
     <use xlink:href="#mcf386787e1" x="159.556688" y="148.50841" style="fill: #0000ff; stroke: #0000ff"/>
     <use xlink:href="#mcf386787e1" x="160.069561" y="148.508415" style="fill: #0000ff; stroke: #0000ff"/>
     <use xlink:href="#mcf386787e1" x="91.819317" y="128.021806" style="fill: #0000ff; stroke: #0000ff"/>
    </g>
   </g>
   <g id="matplotlib.axis_1">
    <g id="xtick_1">
     <g id="line2d_1">
      <defs>
       <path id="m1a2c7e6a7c" d="M 0 0 
L 0 3.5 
" style="stroke: #000000; stroke-width: 0.8"/>
      </defs>
      <g>
       <use xlink:href="#m1a2c7e6a7c" x="68.103529" y="307.584" style="stroke: #000000; stroke-width: 0.8"/>
      </g>
     </g>
     <g id="text_1">
      <!-- 0 -->
      <g transform="translate(64.922279 322.182437)scale(0.1 -0.1)">
       <defs>
        <path id="DejaVuSans-30" d="M 2034 4250 
Q 1547 4250 1301 3770 
Q 1056 3291 1056 2328 
Q 1056 1369 1301 889 
Q 1547 409 2034 409 
Q 2525 409 2770 889 
Q 3016 1369 3016 2328 
Q 3016 3291 2770 3770 
Q 2525 4250 2034 4250 
z
M 2034 4750 
Q 2819 4750 3233 4129 
Q 3647 3509 3647 2328 
Q 3647 1150 3233 529 
Q 2819 -91 2034 -91 
Q 1250 -91 836 529 
Q 422 1150 422 2328 
Q 422 3509 836 4129 
Q 1250 4750 2034 4750 
z
" transform="scale(0.015625)"/>
       </defs>
       <use xlink:href="#DejaVuSans-30"/>
      </g>
     </g>
    </g>
    <g id="xtick_2">
     <g id="line2d_2">
      <g>
       <use xlink:href="#m1a2c7e6a7c" x="173.138824" y="307.584" style="stroke: #000000; stroke-width: 0.8"/>
      </g>
     </g>
     <g id="text_2">
      <!-- 1 -->
      <g transform="translate(169.957574 322.182437)scale(0.1 -0.1)">
       <defs>
        <path id="DejaVuSans-31" d="M 794 531 
L 1825 531 
L 1825 4091 
L 703 3866 
L 703 4441 
L 1819 4666 
L 2450 4666 
L 2450 531 
L 3481 531 
L 3481 0 
L 794 0 
L 794 531 
z
" transform="scale(0.015625)"/>
       </defs>
       <use xlink:href="#DejaVuSans-31"/>
      </g>
     </g>
    </g>
    <g id="xtick_3">
     <g id="line2d_3">
      <g>
       <use xlink:href="#m1a2c7e6a7c" x="278.174118" y="307.584" style="stroke: #000000; stroke-width: 0.8"/>
      </g>
     </g>
     <g id="text_3">
      <!-- 2 -->
      <g transform="translate(274.992868 322.182437)scale(0.1 -0.1)">
       <defs>
        <path id="DejaVuSans-32" d="M 1228 531 
L 3431 531 
L 3431 0 
L 469 0 
L 469 531 
Q 828 903 1448 1529 
Q 2069 2156 2228 2338 
Q 2531 2678 2651 2914 
Q 2772 3150 2772 3378 
Q 2772 3750 2511 3984 
Q 2250 4219 1831 4219 
Q 1534 4219 1204 4116 
Q 875 4013 500 3803 
L 500 4441 
Q 881 4594 1212 4672 
Q 1544 4750 1819 4750 
Q 2544 4750 2975 4387 
Q 3406 4025 3406 3419 
Q 3406 3131 3298 2873 
Q 3191 2616 2906 2266 
Q 2828 2175 2409 1742 
Q 1991 1309 1228 531 
z
" transform="scale(0.015625)"/>
       </defs>
       <use xlink:href="#DejaVuSans-32"/>
      </g>
     </g>
    </g>
    <g id="xtick_4">
     <g id="line2d_4">
      <g>
       <use xlink:href="#m1a2c7e6a7c" x="383.209412" y="307.584" style="stroke: #000000; stroke-width: 0.8"/>
      </g>
     </g>
     <g id="text_4">
      <!-- 3 -->
      <g transform="translate(380.028162 322.182437)scale(0.1 -0.1)">
       <defs>
        <path id="DejaVuSans-33" d="M 2597 2516 
Q 3050 2419 3304 2112 
Q 3559 1806 3559 1356 
Q 3559 666 3084 287 
Q 2609 -91 1734 -91 
Q 1441 -91 1130 -33 
Q 819 25 488 141 
L 488 750 
Q 750 597 1062 519 
Q 1375 441 1716 441 
Q 2309 441 2620 675 
Q 2931 909 2931 1356 
Q 2931 1769 2642 2001 
Q 2353 2234 1838 2234 
L 1294 2234 
L 1294 2753 
L 1863 2753 
Q 2328 2753 2575 2939 
Q 2822 3125 2822 3475 
Q 2822 3834 2567 4026 
Q 2313 4219 1838 4219 
Q 1578 4219 1281 4162 
Q 984 4106 628 3988 
L 628 4550 
Q 988 4650 1302 4700 
Q 1616 4750 1894 4750 
Q 2613 4750 3031 4423 
Q 3450 4097 3450 3541 
Q 3450 3153 3228 2886 
Q 3006 2619 2597 2516 
z
" transform="scale(0.015625)"/>
       </defs>
       <use xlink:href="#DejaVuSans-33"/>
      </g>
     </g>
    </g>
   </g>
   <g id="matplotlib.axis_2">
    <g id="ytick_1">
     <g id="line2d_5">
      <defs>
       <path id="m153eda83fb" d="M 0 0 
L -3.5 0 
" style="stroke: #000000; stroke-width: 0.8"/>
      </defs>
      <g>
       <use xlink:href="#m153eda83fb" x="57.6" y="299.757176" style="stroke: #000000; stroke-width: 0.8"/>
      </g>
     </g>
     <g id="text_5">
      <!-- 0 -->
      <g transform="translate(44.2375 303.556395)scale(0.1 -0.1)">
       <use xlink:href="#DejaVuSans-30"/>
      </g>
     </g>
    </g>
    <g id="ytick_2">
     <g id="line2d_6">
      <g>
       <use xlink:href="#m153eda83fb" x="57.6" y="221.488941" style="stroke: #000000; stroke-width: 0.8"/>
      </g>
     </g>
     <g id="text_6">
      <!-- 1 -->
      <g transform="translate(44.2375 225.28816)scale(0.1 -0.1)">
       <use xlink:href="#DejaVuSans-31"/>
      </g>
     </g>
    </g>
    <g id="ytick_3">
     <g id="line2d_7">
      <g>
       <use xlink:href="#m153eda83fb" x="57.6" y="143.220706" style="stroke: #000000; stroke-width: 0.8"/>
      </g>
     </g>
     <g id="text_7">
      <!-- 2 -->
      <g transform="translate(44.2375 147.019925)scale(0.1 -0.1)">
       <use xlink:href="#DejaVuSans-32"/>
      </g>
     </g>
    </g>
    <g id="ytick_4">
     <g id="line2d_8">
      <g>
       <use xlink:href="#m153eda83fb" x="57.6" y="64.952471" style="stroke: #000000; stroke-width: 0.8"/>
      </g>
     </g>
     <g id="text_8">
      <!-- 3 -->
      <g transform="translate(44.2375 68.751689)scale(0.1 -0.1)">
       <use xlink:href="#DejaVuSans-33"/>
      </g>
     </g>
    </g>
   </g>
   <g id="patch_3">
    <path d="M 57.6 307.584 
L 57.6 41.472 
" style="fill: none; stroke: #000000; stroke-width: 0.8; stroke-linejoin: miter; stroke-linecap: square"/>
   </g>
   <g id="patch_4">
    <path d="M 414.72 307.584 
L 414.72 41.472 
" style="fill: none; stroke: #000000; stroke-width: 0.8; stroke-linejoin: miter; stroke-linecap: square"/>
   </g>
   <g id="patch_5">
    <path d="M 57.6 307.584 
L 414.72 307.584 
" style="fill: none; stroke: #000000; stroke-width: 0.8; stroke-linejoin: miter; stroke-linecap: square"/>
   </g>
   <g id="patch_6">
    <path d="M 57.6 41.472 
L 414.72 41.472 
" style="fill: none; stroke: #000000; stroke-width: 0.8; stroke-linejoin: miter; stroke-linecap: square"/>
   </g>
   <g id="text_9">
    <!-- 010_n_1998 AREA: 2.565 -->
    <g transform="translate(160.559062 35.472)scale(0.12 -0.12)">
     <defs>
      <path id="DejaVuSans-5f" d="M 3263 -1063 
L 3263 -1509 
L -63 -1509 
L -63 -1063 
L 3263 -1063 
z
" transform="scale(0.015625)"/>
      <path id="DejaVuSans-6e" d="M 3513 2113 
L 3513 0 
L 2938 0 
L 2938 2094 
Q 2938 2591 2744 2837 
Q 2550 3084 2163 3084 
Q 1697 3084 1428 2787 
Q 1159 2491 1159 1978 
L 1159 0 
L 581 0 
L 581 3500 
L 1159 3500 
L 1159 2956 
Q 1366 3272 1645 3428 
Q 1925 3584 2291 3584 
Q 2894 3584 3203 3211 
Q 3513 2838 3513 2113 
z
" transform="scale(0.015625)"/>
      <path id="DejaVuSans-39" d="M 703 97 
L 703 672 
Q 941 559 1184 500 
Q 1428 441 1663 441 
Q 2288 441 2617 861 
Q 2947 1281 2994 2138 
Q 2813 1869 2534 1725 
Q 2256 1581 1919 1581 
Q 1219 1581 811 2004 
Q 403 2428 403 3163 
Q 403 3881 828 4315 
Q 1253 4750 1959 4750 
Q 2769 4750 3195 4129 
Q 3622 3509 3622 2328 
Q 3622 1225 3098 567 
Q 2575 -91 1691 -91 
Q 1453 -91 1209 -44 
Q 966 3 703 97 
z
M 1959 2075 
Q 2384 2075 2632 2365 
Q 2881 2656 2881 3163 
Q 2881 3666 2632 3958 
Q 2384 4250 1959 4250 
Q 1534 4250 1286 3958 
Q 1038 3666 1038 3163 
Q 1038 2656 1286 2365 
Q 1534 2075 1959 2075 
z
" transform="scale(0.015625)"/>
      <path id="DejaVuSans-38" d="M 2034 2216 
Q 1584 2216 1326 1975 
Q 1069 1734 1069 1313 
Q 1069 891 1326 650 
Q 1584 409 2034 409 
Q 2484 409 2743 651 
Q 3003 894 3003 1313 
Q 3003 1734 2745 1975 
Q 2488 2216 2034 2216 
z
M 1403 2484 
Q 997 2584 770 2862 
Q 544 3141 544 3541 
Q 544 4100 942 4425 
Q 1341 4750 2034 4750 
Q 2731 4750 3128 4425 
Q 3525 4100 3525 3541 
Q 3525 3141 3298 2862 
Q 3072 2584 2669 2484 
Q 3125 2378 3379 2068 
Q 3634 1759 3634 1313 
Q 3634 634 3220 271 
Q 2806 -91 2034 -91 
Q 1263 -91 848 271 
Q 434 634 434 1313 
Q 434 1759 690 2068 
Q 947 2378 1403 2484 
z
M 1172 3481 
Q 1172 3119 1398 2916 
Q 1625 2713 2034 2713 
Q 2441 2713 2670 2916 
Q 2900 3119 2900 3481 
Q 2900 3844 2670 4047 
Q 2441 4250 2034 4250 
Q 1625 4250 1398 4047 
Q 1172 3844 1172 3481 
z
" transform="scale(0.015625)"/>
      <path id="DejaVuSans-20" transform="scale(0.015625)"/>
      <path id="DejaVuSans-41" d="M 2188 4044 
L 1331 1722 
L 3047 1722 
L 2188 4044 
z
M 1831 4666 
L 2547 4666 
L 4325 0 
L 3669 0 
L 3244 1197 
L 1141 1197 
L 716 0 
L 50 0 
L 1831 4666 
z
" transform="scale(0.015625)"/>
      <path id="DejaVuSans-52" d="M 2841 2188 
Q 3044 2119 3236 1894 
Q 3428 1669 3622 1275 
L 4263 0 
L 3584 0 
L 2988 1197 
Q 2756 1666 2539 1819 
Q 2322 1972 1947 1972 
L 1259 1972 
L 1259 0 
L 628 0 
L 628 4666 
L 2053 4666 
Q 2853 4666 3247 4331 
Q 3641 3997 3641 3322 
Q 3641 2881 3436 2590 
Q 3231 2300 2841 2188 
z
M 1259 4147 
L 1259 2491 
L 2053 2491 
Q 2509 2491 2742 2702 
Q 2975 2913 2975 3322 
Q 2975 3731 2742 3939 
Q 2509 4147 2053 4147 
L 1259 4147 
z
" transform="scale(0.015625)"/>
      <path id="DejaVuSans-45" d="M 628 4666 
L 3578 4666 
L 3578 4134 
L 1259 4134 
L 1259 2753 
L 3481 2753 
L 3481 2222 
L 1259 2222 
L 1259 531 
L 3634 531 
L 3634 0 
L 628 0 
L 628 4666 
z
" transform="scale(0.015625)"/>
      <path id="DejaVuSans-3a" d="M 750 794 
L 1409 794 
L 1409 0 
L 750 0 
L 750 794 
z
M 750 3309 
L 1409 3309 
L 1409 2516 
L 750 2516 
L 750 3309 
z
" transform="scale(0.015625)"/>
      <path id="DejaVuSans-2e" d="M 684 794 
L 1344 794 
L 1344 0 
L 684 0 
L 684 794 
z
" transform="scale(0.015625)"/>
      <path id="DejaVuSans-35" d="M 691 4666 
L 3169 4666 
L 3169 4134 
L 1269 4134 
L 1269 2991 
Q 1406 3038 1543 3061 
Q 1681 3084 1819 3084 
Q 2600 3084 3056 2656 
Q 3513 2228 3513 1497 
Q 3513 744 3044 326 
Q 2575 -91 1722 -91 
Q 1428 -91 1123 -41 
Q 819 9 494 109 
L 494 744 
Q 775 591 1075 516 
Q 1375 441 1709 441 
Q 2250 441 2565 725 
Q 2881 1009 2881 1497 
Q 2881 1984 2565 2268 
Q 2250 2553 1709 2553 
Q 1456 2553 1204 2497 
Q 953 2441 691 2322 
L 691 4666 
z
" transform="scale(0.015625)"/>
      <path id="DejaVuSans-36" d="M 2113 2584 
Q 1688 2584 1439 2293 
Q 1191 2003 1191 1497 
Q 1191 994 1439 701 
Q 1688 409 2113 409 
Q 2538 409 2786 701 
Q 3034 994 3034 1497 
Q 3034 2003 2786 2293 
Q 2538 2584 2113 2584 
z
M 3366 4563 
L 3366 3988 
Q 3128 4100 2886 4159 
Q 2644 4219 2406 4219 
Q 1781 4219 1451 3797 
Q 1122 3375 1075 2522 
Q 1259 2794 1537 2939 
Q 1816 3084 2150 3084 
Q 2853 3084 3261 2657 
Q 3669 2231 3669 1497 
Q 3669 778 3244 343 
Q 2819 -91 2113 -91 
Q 1303 -91 875 529 
Q 447 1150 447 2328 
Q 447 3434 972 4092 
Q 1497 4750 2381 4750 
Q 2619 4750 2861 4703 
Q 3103 4656 3366 4563 
z
" transform="scale(0.015625)"/>
     </defs>
     <use xlink:href="#DejaVuSans-30"/>
     <use xlink:href="#DejaVuSans-31" x="63.623047"/>
     <use xlink:href="#DejaVuSans-30" x="127.246094"/>
     <use xlink:href="#DejaVuSans-5f" x="190.869141"/>
     <use xlink:href="#DejaVuSans-6e" x="240.869141"/>
     <use xlink:href="#DejaVuSans-5f" x="304.248047"/>
     <use xlink:href="#DejaVuSans-31" x="354.248047"/>
     <use xlink:href="#DejaVuSans-39" x="417.871094"/>
     <use xlink:href="#DejaVuSans-39" x="481.494141"/>
     <use xlink:href="#DejaVuSans-38" x="545.117188"/>
     <use xlink:href="#DejaVuSans-20" x="608.740234"/>
     <use xlink:href="#DejaVuSans-41" x="640.527344"/>
     <use xlink:href="#DejaVuSans-52" x="708.935547"/>
     <use xlink:href="#DejaVuSans-45" x="778.417969"/>
     <use xlink:href="#DejaVuSans-41" x="841.601562"/>
     <use xlink:href="#DejaVuSans-3a" x="908.259766"/>
     <use xlink:href="#DejaVuSans-20" x="941.951172"/>
     <use xlink:href="#DejaVuSans-32" x="973.738281"/>
     <use xlink:href="#DejaVuSans-2e" x="1037.361328"/>
     <use xlink:href="#DejaVuSans-35" x="1069.148438"/>
     <use xlink:href="#DejaVuSans-36" x="1132.771484"/>
     <use xlink:href="#DejaVuSans-35" x="1196.394531"/>
    </g>
   </g>
  </g>
 </g>
 <defs>
  <clipPath id="pb837f3345e">
   <rect x="57.6" y="41.472" width="357.12" height="266.112"/>
  </clipPath>
 </defs>
</svg>
