<?xml version="1.0" encoding="utf-8" standalone="no"?>
<!DOCTYPE svg PUBLIC "-//W3C//DTD SVG 1.1//EN"
  "http://www.w3.org/Graphics/SVG/1.1/DTD/svg11.dtd">
<svg xmlns:xlink="http://www.w3.org/1999/xlink" width="460.8pt" height="345.6pt" viewBox="0 0 460.8 345.6" xmlns="http://www.w3.org/2000/svg" version="1.1">
 <metadata>
  <rdf:RDF xmlns:dc="http://purl.org/dc/elements/1.1/" xmlns:cc="http://creativecommons.org/ns#" xmlns:rdf="http://www.w3.org/1999/02/22-rdf-syntax-ns#">
   <cc:Work>
    <dc:type rdf:resource="http://purl.org/dc/dcmitype/StillImage"/>
    <dc:date>2023-05-29T01:39:09.707522</dc:date>
    <dc:format>image/svg+xml</dc:format>
    <dc:creator>
     <cc:Agent>
      <dc:title>Matplotlib v3.5.3, https://matplotlib.org/</dc:title>
     </cc:Agent>
    </dc:creator>
   </cc:Work>
  </rdf:RDF>
 </metadata>
 <defs>
  <style type="text/css">*{stroke-linejoin: round; stroke-linecap: butt}</style>
 </defs>
 <g id="figure_1">
  <g id="patch_1">
   <path d="M 0 345.6 
L 460.8 345.6 
L 460.8 0 
L 0 0 
z
" style="fill: #ffffff"/>
  </g>
  <g id="axes_1">
   <g id="patch_2">
    <path d="M 57.6 307.584 
L 414.72 307.584 
L 414.72 41.472 
L 57.6 41.472 
z
" style="fill: #ffffff"/>
   </g>
   <g id="PathCollection_1">
    <defs>
     <path id="m208a03c9a4" d="M 0 3 
C 0.795609 3 1.55874 2.683901 2.12132 2.12132 
C 2.683901 1.55874 3 0.795609 3 0 
C 3 -0.795609 2.683901 -1.55874 2.12132 -2.12132 
C 1.55874 -2.683901 0.795609 -3 0 -3 
C -0.795609 -3 -1.55874 -2.683901 -2.12132 -2.12132 
C -2.683901 -1.55874 -3 -0.795609 -3 0 
C -3 0.795609 -2.683901 1.55874 -2.12132 2.12132 
C -1.55874 2.683901 -0.795609 3 0 3 
z
" style="stroke: #ff0000"/>
    </defs>
    <g clip-path="url(#p463df9aba9)">
     <use xlink:href="#m208a03c9a4" x="68.103529" y="166.606248" style="fill: #ff0000; stroke: #ff0000"/>
     <use xlink:href="#m208a03c9a4" x="278.174118" y="299.757176" style="fill: #ff0000; stroke: #ff0000"/>
     <use xlink:href="#m208a03c9a4" x="267.670588" y="291.956338" style="fill: #ff0000; stroke: #ff0000"/>
     <use xlink:href="#m208a03c9a4" x="233.668656" y="262.218508" style="fill: #ff0000; stroke: #ff0000"/>
     <use xlink:href="#m208a03c9a4" x="110.117647" y="189.705382" style="fill: #ff0000; stroke: #ff0000"/>
     <use xlink:href="#m208a03c9a4" x="215.152941" y="254.156128" style="fill: #ff0000; stroke: #ff0000"/>
     <use xlink:href="#m208a03c9a4" x="78.607059" y="174.051597" style="fill: #ff0000; stroke: #ff0000"/>
     <use xlink:href="#m208a03c9a4" x="173.138824" y="224.948267" style="fill: #ff0000; stroke: #ff0000"/>
     <use xlink:href="#m208a03c9a4" x="89.110588" y="176.706344" style="fill: #ff0000; stroke: #ff0000"/>
     <use xlink:href="#m208a03c9a4" x="183.640783" y="240.128971" style="fill: #ff0000; stroke: #ff0000"/>
     <use xlink:href="#m208a03c9a4" x="194.145882" y="247.218718" style="fill: #ff0000; stroke: #ff0000"/>
     <use xlink:href="#m208a03c9a4" x="141.628235" y="209.535448" style="fill: #ff0000; stroke: #ff0000"/>
     <use xlink:href="#m208a03c9a4" x="131.124706" y="201.842451" style="fill: #ff0000; stroke: #ff0000"/>
     <use xlink:href="#m208a03c9a4" x="194.135715" y="245.615718" style="fill: #ff0000; stroke: #ff0000"/>
     <use xlink:href="#m208a03c9a4" x="99.614118" y="183.165015" style="fill: #ff0000; stroke: #ff0000"/>
     <use xlink:href="#m208a03c9a4" x="120.620579" y="196.455659" style="fill: #ff0000; stroke: #ff0000"/>
     <use xlink:href="#m208a03c9a4" x="99.614116" y="182.802746" style="fill: #ff0000; stroke: #ff0000"/>
     <use xlink:href="#m208a03c9a4" x="183.642353" y="240.281307" style="fill: #ff0000; stroke: #ff0000"/>
     <use xlink:href="#m208a03c9a4" x="131.124705" y="201.539852" style="fill: #ff0000; stroke: #ff0000"/>
     <use xlink:href="#m208a03c9a4" x="120.621176" y="196.552499" style="fill: #ff0000; stroke: #ff0000"/>
     <use xlink:href="#m208a03c9a4" x="225.644963" y="261.508448" style="fill: #ff0000; stroke: #ff0000"/>
     <use xlink:href="#m208a03c9a4" x="224.183725" y="254.57389" style="fill: #ff0000; stroke: #ff0000"/>
     <use xlink:href="#m208a03c9a4" x="143.666769" y="214.16656" style="fill: #ff0000; stroke: #ff0000"/>
     <use xlink:href="#m208a03c9a4" x="223.012047" y="254.57152" style="fill: #ff0000; stroke: #ff0000"/>
     <use xlink:href="#m208a03c9a4" x="225.656471" y="262.218404" style="fill: #ff0000; stroke: #ff0000"/>
     <use xlink:href="#m208a03c9a4" x="232.379732" y="262.218473" style="fill: #ff0000; stroke: #ff0000"/>
     <use xlink:href="#m208a03c9a4" x="162.635294" y="220.046871" style="fill: #ff0000; stroke: #ff0000"/>
     <use xlink:href="#m208a03c9a4" x="163.585331" y="221.245433" style="fill: #ff0000; stroke: #ff0000"/>
     <use xlink:href="#m208a03c9a4" x="152.131765" y="215.687366" style="fill: #ff0000; stroke: #ff0000"/>
     <use xlink:href="#m208a03c9a4" x="152.452888" y="216.946182" style="fill: #ff0000; stroke: #ff0000"/>
     <use xlink:href="#m208a03c9a4" x="155.78112" y="217.657542" style="fill: #ff0000; stroke: #ff0000"/>
     <use xlink:href="#m208a03c9a4" x="165.478979" y="221.733984" style="fill: #ff0000; stroke: #ff0000"/>
     <use xlink:href="#m208a03c9a4" x="162.018631" y="219.956835" style="fill: #ff0000; stroke: #ff0000"/>
     <use xlink:href="#m208a03c9a4" x="146.132312" y="214.577628" style="fill: #ff0000; stroke: #ff0000"/>
     <use xlink:href="#m208a03c9a4" x="169.452443" y="223.540726" style="fill: #ff0000; stroke: #ff0000"/>
     <use xlink:href="#m208a03c9a4" x="154.606316" y="217.451676" style="fill: #ff0000; stroke: #ff0000"/>
     <use xlink:href="#m208a03c9a4" x="149.483684" y="215.345776" style="fill: #ff0000; stroke: #ff0000"/>
     <use xlink:href="#m208a03c9a4" x="147.095362" y="214.755848" style="fill: #ff0000; stroke: #ff0000"/>
     <use xlink:href="#m208a03c9a4" x="153.957384" y="217.424009" style="fill: #ff0000; stroke: #ff0000"/>
     <use xlink:href="#m208a03c9a4" x="151.09439" y="215.647644" style="fill: #ff0000; stroke: #ff0000"/>
     <use xlink:href="#m208a03c9a4" x="169.251548" y="223.254616" style="fill: #ff0000; stroke: #ff0000"/>
     <use xlink:href="#m208a03c9a4" x="164.500625" y="221.709806" style="fill: #ff0000; stroke: #ff0000"/>
     <use xlink:href="#m208a03c9a4" x="165.855022" y="221.987921" style="fill: #ff0000; stroke: #ff0000"/>
     <use xlink:href="#m208a03c9a4" x="148.790952" y="215.314941" style="fill: #ff0000; stroke: #ff0000"/>
     <use xlink:href="#m208a03c9a4" x="168.138677" y="222.92953" style="fill: #ff0000; stroke: #ff0000"/>
     <use xlink:href="#m208a03c9a4" x="158.583213" y="218.73783" style="fill: #ff0000; stroke: #ff0000"/>
     <use xlink:href="#m208a03c9a4" x="160.72008" y="219.731186" style="fill: #ff0000; stroke: #ff0000"/>
     <use xlink:href="#m208a03c9a4" x="150.161209" y="215.3975" style="fill: #ff0000; stroke: #ff0000"/>
     <use xlink:href="#m208a03c9a4" x="156.212574" y="218.07229" style="fill: #ff0000; stroke: #ff0000"/>
     <use xlink:href="#m208a03c9a4" x="233.025309" y="262.218481" style="fill: #ff0000; stroke: #ff0000"/>
     <use xlink:href="#m208a03c9a4" x="163.78213" y="221.560448" style="fill: #ff0000; stroke: #ff0000"/>
     <use xlink:href="#m208a03c9a4" x="166.908218" y="222.520049" style="fill: #ff0000; stroke: #ff0000"/>
     <use xlink:href="#m208a03c9a4" x="172.369025" y="224.932237" style="fill: #ff0000; stroke: #ff0000"/>
     <use xlink:href="#m208a03c9a4" x="148.523213" y="215.090074" style="fill: #ff0000; stroke: #ff0000"/>
     <use xlink:href="#m208a03c9a4" x="167.578112" y="222.803898" style="fill: #ff0000; stroke: #ff0000"/>
     <use xlink:href="#m208a03c9a4" x="172.195037" y="224.755066" style="fill: #ff0000; stroke: #ff0000"/>
     <use xlink:href="#m208a03c9a4" x="152.948892" y="217.018501" style="fill: #ff0000; stroke: #ff0000"/>
     <use xlink:href="#m208a03c9a4" x="157.04864" y="218.269861" style="fill: #ff0000; stroke: #ff0000"/>
     <use xlink:href="#m208a03c9a4" x="171.292729" y="224.276262" style="fill: #ff0000; stroke: #ff0000"/>
     <use xlink:href="#m208a03c9a4" x="223.594659" y="254.572051" style="fill: #ff0000; stroke: #ff0000"/>
     <use xlink:href="#m208a03c9a4" x="170.849701" y="224.12187" style="fill: #ff0000; stroke: #ff0000"/>
     <use xlink:href="#m208a03c9a4" x="170.570068" y="223.98953" style="fill: #ff0000; stroke: #ff0000"/>
     <use xlink:href="#m208a03c9a4" x="171.848654" y="224.496354" style="fill: #ff0000; stroke: #ff0000"/>
     <use xlink:href="#m208a03c9a4" x="169.937084" y="223.782699" style="fill: #ff0000; stroke: #ff0000"/>
     <use xlink:href="#m208a03c9a4" x="147.667461" y="214.986944" style="fill: #ff0000; stroke: #ff0000"/>
     <use xlink:href="#m208a03c9a4" x="156.575009" y="218.255052" style="fill: #ff0000; stroke: #ff0000"/>
     <use xlink:href="#m208a03c9a4" x="160.338729" y="219.329923" style="fill: #ff0000; stroke: #ff0000"/>
     <use xlink:href="#m208a03c9a4" x="166.108974" y="222.209283" style="fill: #ff0000; stroke: #ff0000"/>
     <use xlink:href="#m208a03c9a4" x="167.291956" y="222.682149" style="fill: #ff0000; stroke: #ff0000"/>
     <use xlink:href="#m208a03c9a4" x="159.66795" y="219.096846" style="fill: #ff0000; stroke: #ff0000"/>
     <use xlink:href="#m208a03c9a4" x="155.952401" y="217.829375" style="fill: #ff0000; stroke: #ff0000"/>
     <use xlink:href="#m208a03c9a4" x="145.552652" y="214.31634" style="fill: #ff0000; stroke: #ff0000"/>
     <use xlink:href="#m208a03c9a4" x="153.566794" y="217.199248" style="fill: #ff0000; stroke: #ff0000"/>
     <use xlink:href="#m208a03c9a4" x="159.910675" y="219.173467" style="fill: #ff0000; stroke: #ff0000"/>
     <use xlink:href="#m208a03c9a4" x="157.529906" y="218.40462" style="fill: #ff0000; stroke: #ff0000"/>
     <use xlink:href="#m208a03c9a4" x="168.524087" y="223.226822" style="fill: #ff0000; stroke: #ff0000"/>
     <use xlink:href="#m208a03c9a4" x="143.817808" y="214.284809" style="fill: #ff0000; stroke: #ff0000"/>
     <use xlink:href="#m208a03c9a4" x="147.952509" y="215.060463" style="fill: #ff0000; stroke: #ff0000"/>
     <use xlink:href="#m208a03c9a4" x="160.655489" y="219.42629" style="fill: #ff0000; stroke: #ff0000"/>
     <use xlink:href="#m208a03c9a4" x="150.582441" y="215.470582" style="fill: #ff0000; stroke: #ff0000"/>
     <use xlink:href="#m208a03c9a4" x="145.84265" y="214.560627" style="fill: #ff0000; stroke: #ff0000"/>
     <use xlink:href="#m208a03c9a4" x="170.14211" y="223.834021" style="fill: #ff0000; stroke: #ff0000"/>
     <use xlink:href="#m208a03c9a4" x="164.26361" y="221.62806" style="fill: #ff0000; stroke: #ff0000"/>
     <use xlink:href="#m208a03c9a4" x="147.121634" y="214.859053" style="fill: #ff0000; stroke: #ff0000"/>
     <use xlink:href="#m208a03c9a4" x="144.474646" y="214.302533" style="fill: #ff0000; stroke: #ff0000"/>
     <use xlink:href="#m208a03c9a4" x="159.161585" y="218.946283" style="fill: #ff0000; stroke: #ff0000"/>
     <use xlink:href="#m208a03c9a4" x="171.584765" y="224.405849" style="fill: #ff0000; stroke: #ff0000"/>
     <use xlink:href="#m208a03c9a4" x="153.396334" y="217.109515" style="fill: #ff0000; stroke: #ff0000"/>
     <use xlink:href="#m208a03c9a4" x="145.15601" y="214.31262" style="fill: #ff0000; stroke: #ff0000"/>
     <use xlink:href="#m208a03c9a4" x="161.2288" y="219.910275" style="fill: #ff0000; stroke: #ff0000"/>
     <use xlink:href="#m208a03c9a4" x="168.439695" y="223.116227" style="fill: #ff0000; stroke: #ff0000"/>
     <use xlink:href="#m208a03c9a4" x="157.664773" y="218.533876" style="fill: #ff0000; stroke: #ff0000"/>
     <use xlink:href="#m208a03c9a4" x="158.155294" y="218.545503" style="fill: #ff0000; stroke: #ff0000"/>
     <use xlink:href="#m208a03c9a4" x="150.879212" y="215.575193" style="fill: #ff0000; stroke: #ff0000"/>
     <use xlink:href="#m208a03c9a4" x="161.228316" y="219.910229" style="fill: #ff0000; stroke: #ff0000"/>
     <use xlink:href="#m208a03c9a4" x="166.40635" y="222.440325" style="fill: #ff0000; stroke: #ff0000"/>
     <use xlink:href="#m208a03c9a4" x="159.162637" y="218.946595" style="fill: #ff0000; stroke: #ff0000"/>
     <use xlink:href="#m208a03c9a4" x="158.34339" y="218.611871" style="fill: #ff0000; stroke: #ff0000"/>
     <use xlink:href="#m208a03c9a4" x="144.693124" y="214.306277" style="fill: #ff0000; stroke: #ff0000"/>
     <use xlink:href="#m208a03c9a4" x="154.599799" y="217.451111" style="fill: #ff0000; stroke: #ff0000"/>
    </g>
   </g>
   <g id="PathCollection_2">
    <defs>
     <path id="mc88a972d35" d="M 0 3 
C 0.795609 3 1.55874 2.683901 2.12132 2.12132 
C 2.683901 1.55874 3 0.795609 3 0 
C 3 -0.795609 2.683901 -1.55874 2.12132 -2.12132 
C 1.55874 -2.683901 0.795609 -3 0 -3 
C -0.795609 -3 -1.55874 -2.683901 -2.12132 -2.12132 
C -2.683901 -1.55874 -3 -0.795609 -3 0 
C -3 0.795609 -2.683901 1.55874 -2.12132 2.12132 
C -1.55874 2.683901 -0.795609 3 0 3 
z
" style="stroke: #0000ff"/>
    </defs>
    <g clip-path="url(#p463df9aba9)">
     <use xlink:href="#mc88a972d35" x="68.103529" y="166.606248" style="fill: #0000ff; stroke: #0000ff"/>
     <use xlink:href="#mc88a972d35" x="278.174118" y="299.757176" style="fill: #0000ff; stroke: #0000ff"/>
     <use xlink:href="#mc88a972d35" x="267.670588" y="291.956338" style="fill: #0000ff; stroke: #0000ff"/>
     <use xlink:href="#mc88a972d35" x="233.668656" y="262.218508" style="fill: #0000ff; stroke: #0000ff"/>
     <use xlink:href="#mc88a972d35" x="110.117647" y="189.705382" style="fill: #0000ff; stroke: #0000ff"/>
     <use xlink:href="#mc88a972d35" x="215.152941" y="254.156128" style="fill: #0000ff; stroke: #0000ff"/>
     <use xlink:href="#mc88a972d35" x="78.607059" y="174.051597" style="fill: #0000ff; stroke: #0000ff"/>
     <use xlink:href="#mc88a972d35" x="173.138824" y="224.948267" style="fill: #0000ff; stroke: #0000ff"/>
     <use xlink:href="#mc88a972d35" x="89.110588" y="176.706344" style="fill: #0000ff; stroke: #0000ff"/>
     <use xlink:href="#mc88a972d35" x="183.640783" y="240.128971" style="fill: #0000ff; stroke: #0000ff"/>
     <use xlink:href="#mc88a972d35" x="194.145882" y="247.218718" style="fill: #0000ff; stroke: #0000ff"/>
     <use xlink:href="#mc88a972d35" x="141.628235" y="209.535448" style="fill: #0000ff; stroke: #0000ff"/>
     <use xlink:href="#mc88a972d35" x="131.124706" y="201.842451" style="fill: #0000ff; stroke: #0000ff"/>
     <use xlink:href="#mc88a972d35" x="194.135715" y="245.615718" style="fill: #0000ff; stroke: #0000ff"/>
     <use xlink:href="#mc88a972d35" x="99.614118" y="183.165015" style="fill: #0000ff; stroke: #0000ff"/>
     <use xlink:href="#mc88a972d35" x="120.620579" y="196.455659" style="fill: #0000ff; stroke: #0000ff"/>
     <use xlink:href="#mc88a972d35" x="99.614116" y="182.802746" style="fill: #0000ff; stroke: #0000ff"/>
     <use xlink:href="#mc88a972d35" x="183.642353" y="240.281307" style="fill: #0000ff; stroke: #0000ff"/>
     <use xlink:href="#mc88a972d35" x="131.124705" y="201.539852" style="fill: #0000ff; stroke: #0000ff"/>
     <use xlink:href="#mc88a972d35" x="120.621176" y="196.552499" style="fill: #0000ff; stroke: #0000ff"/>
     <use xlink:href="#mc88a972d35" x="225.644963" y="261.508448" style="fill: #0000ff; stroke: #0000ff"/>
     <use xlink:href="#mc88a972d35" x="224.183725" y="254.57389" style="fill: #0000ff; stroke: #0000ff"/>
     <use xlink:href="#mc88a972d35" x="143.666769" y="214.16656" style="fill: #0000ff; stroke: #0000ff"/>
     <use xlink:href="#mc88a972d35" x="223.012047" y="254.57152" style="fill: #0000ff; stroke: #0000ff"/>
     <use xlink:href="#mc88a972d35" x="225.656471" y="262.218404" style="fill: #0000ff; stroke: #0000ff"/>
     <use xlink:href="#mc88a972d35" x="232.379732" y="262.218473" style="fill: #0000ff; stroke: #0000ff"/>
     <use xlink:href="#mc88a972d35" x="162.635294" y="220.046871" style="fill: #0000ff; stroke: #0000ff"/>
     <use xlink:href="#mc88a972d35" x="163.585331" y="221.245433" style="fill: #0000ff; stroke: #0000ff"/>
     <use xlink:href="#mc88a972d35" x="152.131765" y="215.687366" style="fill: #0000ff; stroke: #0000ff"/>
     <use xlink:href="#mc88a972d35" x="152.452888" y="216.946182" style="fill: #0000ff; stroke: #0000ff"/>
     <use xlink:href="#mc88a972d35" x="155.78112" y="217.657542" style="fill: #0000ff; stroke: #0000ff"/>
     <use xlink:href="#mc88a972d35" x="165.478979" y="221.733984" style="fill: #0000ff; stroke: #0000ff"/>
     <use xlink:href="#mc88a972d35" x="162.018631" y="219.956835" style="fill: #0000ff; stroke: #0000ff"/>
     <use xlink:href="#mc88a972d35" x="146.132312" y="214.577628" style="fill: #0000ff; stroke: #0000ff"/>
     <use xlink:href="#mc88a972d35" x="169.452443" y="223.540726" style="fill: #0000ff; stroke: #0000ff"/>
     <use xlink:href="#mc88a972d35" x="154.606316" y="217.451676" style="fill: #0000ff; stroke: #0000ff"/>
     <use xlink:href="#mc88a972d35" x="149.483684" y="215.345776" style="fill: #0000ff; stroke: #0000ff"/>
     <use xlink:href="#mc88a972d35" x="147.095362" y="214.755848" style="fill: #0000ff; stroke: #0000ff"/>
     <use xlink:href="#mc88a972d35" x="153.957384" y="217.424009" style="fill: #0000ff; stroke: #0000ff"/>
     <use xlink:href="#mc88a972d35" x="151.09439" y="215.647644" style="fill: #0000ff; stroke: #0000ff"/>
     <use xlink:href="#mc88a972d35" x="169.251548" y="223.254616" style="fill: #0000ff; stroke: #0000ff"/>
     <use xlink:href="#mc88a972d35" x="164.500625" y="221.709806" style="fill: #0000ff; stroke: #0000ff"/>
     <use xlink:href="#mc88a972d35" x="165.855022" y="221.987921" style="fill: #0000ff; stroke: #0000ff"/>
     <use xlink:href="#mc88a972d35" x="148.790952" y="215.314941" style="fill: #0000ff; stroke: #0000ff"/>
     <use xlink:href="#mc88a972d35" x="168.138677" y="222.92953" style="fill: #0000ff; stroke: #0000ff"/>
     <use xlink:href="#mc88a972d35" x="158.583213" y="218.73783" style="fill: #0000ff; stroke: #0000ff"/>
     <use xlink:href="#mc88a972d35" x="160.72008" y="219.731186" style="fill: #0000ff; stroke: #0000ff"/>
     <use xlink:href="#mc88a972d35" x="150.161209" y="215.3975" style="fill: #0000ff; stroke: #0000ff"/>
     <use xlink:href="#mc88a972d35" x="156.212574" y="218.07229" style="fill: #0000ff; stroke: #0000ff"/>
     <use xlink:href="#mc88a972d35" x="233.025309" y="262.218481" style="fill: #0000ff; stroke: #0000ff"/>
     <use xlink:href="#mc88a972d35" x="163.78213" y="221.560448" style="fill: #0000ff; stroke: #0000ff"/>
     <use xlink:href="#mc88a972d35" x="166.908218" y="222.520049" style="fill: #0000ff; stroke: #0000ff"/>
     <use xlink:href="#mc88a972d35" x="172.369025" y="224.932237" style="fill: #0000ff; stroke: #0000ff"/>
     <use xlink:href="#mc88a972d35" x="148.523213" y="215.090074" style="fill: #0000ff; stroke: #0000ff"/>
     <use xlink:href="#mc88a972d35" x="167.578112" y="222.803898" style="fill: #0000ff; stroke: #0000ff"/>
     <use xlink:href="#mc88a972d35" x="172.195037" y="224.755066" style="fill: #0000ff; stroke: #0000ff"/>
     <use xlink:href="#mc88a972d35" x="152.948892" y="217.018501" style="fill: #0000ff; stroke: #0000ff"/>
     <use xlink:href="#mc88a972d35" x="157.04864" y="218.269861" style="fill: #0000ff; stroke: #0000ff"/>
     <use xlink:href="#mc88a972d35" x="171.292729" y="224.276262" style="fill: #0000ff; stroke: #0000ff"/>
     <use xlink:href="#mc88a972d35" x="223.594659" y="254.572051" style="fill: #0000ff; stroke: #0000ff"/>
     <use xlink:href="#mc88a972d35" x="170.849701" y="224.12187" style="fill: #0000ff; stroke: #0000ff"/>
     <use xlink:href="#mc88a972d35" x="170.570068" y="223.98953" style="fill: #0000ff; stroke: #0000ff"/>
     <use xlink:href="#mc88a972d35" x="171.848654" y="224.496354" style="fill: #0000ff; stroke: #0000ff"/>
     <use xlink:href="#mc88a972d35" x="169.937084" y="223.782699" style="fill: #0000ff; stroke: #0000ff"/>
     <use xlink:href="#mc88a972d35" x="147.667461" y="214.986944" style="fill: #0000ff; stroke: #0000ff"/>
     <use xlink:href="#mc88a972d35" x="156.575009" y="218.255052" style="fill: #0000ff; stroke: #0000ff"/>
     <use xlink:href="#mc88a972d35" x="160.338729" y="219.329923" style="fill: #0000ff; stroke: #0000ff"/>
     <use xlink:href="#mc88a972d35" x="166.108974" y="222.209283" style="fill: #0000ff; stroke: #0000ff"/>
     <use xlink:href="#mc88a972d35" x="167.291956" y="222.682149" style="fill: #0000ff; stroke: #0000ff"/>
     <use xlink:href="#mc88a972d35" x="159.66795" y="219.096846" style="fill: #0000ff; stroke: #0000ff"/>
     <use xlink:href="#mc88a972d35" x="155.952401" y="217.829375" style="fill: #0000ff; stroke: #0000ff"/>
     <use xlink:href="#mc88a972d35" x="145.552652" y="214.31634" style="fill: #0000ff; stroke: #0000ff"/>
     <use xlink:href="#mc88a972d35" x="153.566794" y="217.199248" style="fill: #0000ff; stroke: #0000ff"/>
     <use xlink:href="#mc88a972d35" x="159.910675" y="219.173467" style="fill: #0000ff; stroke: #0000ff"/>
     <use xlink:href="#mc88a972d35" x="157.529906" y="218.40462" style="fill: #0000ff; stroke: #0000ff"/>
     <use xlink:href="#mc88a972d35" x="168.524087" y="223.226822" style="fill: #0000ff; stroke: #0000ff"/>
     <use xlink:href="#mc88a972d35" x="143.817808" y="214.284809" style="fill: #0000ff; stroke: #0000ff"/>
     <use xlink:href="#mc88a972d35" x="147.952509" y="215.060463" style="fill: #0000ff; stroke: #0000ff"/>
     <use xlink:href="#mc88a972d35" x="160.655489" y="219.42629" style="fill: #0000ff; stroke: #0000ff"/>
     <use xlink:href="#mc88a972d35" x="150.582441" y="215.470582" style="fill: #0000ff; stroke: #0000ff"/>
     <use xlink:href="#mc88a972d35" x="145.84265" y="214.560627" style="fill: #0000ff; stroke: #0000ff"/>
     <use xlink:href="#mc88a972d35" x="170.14211" y="223.834021" style="fill: #0000ff; stroke: #0000ff"/>
     <use xlink:href="#mc88a972d35" x="164.26361" y="221.62806" style="fill: #0000ff; stroke: #0000ff"/>
     <use xlink:href="#mc88a972d35" x="147.121634" y="214.859053" style="fill: #0000ff; stroke: #0000ff"/>
     <use xlink:href="#mc88a972d35" x="144.474646" y="214.302533" style="fill: #0000ff; stroke: #0000ff"/>
     <use xlink:href="#mc88a972d35" x="159.161585" y="218.946283" style="fill: #0000ff; stroke: #0000ff"/>
     <use xlink:href="#mc88a972d35" x="171.584765" y="224.405849" style="fill: #0000ff; stroke: #0000ff"/>
     <use xlink:href="#mc88a972d35" x="153.396334" y="217.109515" style="fill: #0000ff; stroke: #0000ff"/>
     <use xlink:href="#mc88a972d35" x="145.15601" y="214.31262" style="fill: #0000ff; stroke: #0000ff"/>
     <use xlink:href="#mc88a972d35" x="161.2288" y="219.910275" style="fill: #0000ff; stroke: #0000ff"/>
     <use xlink:href="#mc88a972d35" x="168.439695" y="223.116227" style="fill: #0000ff; stroke: #0000ff"/>
     <use xlink:href="#mc88a972d35" x="157.664773" y="218.533876" style="fill: #0000ff; stroke: #0000ff"/>
     <use xlink:href="#mc88a972d35" x="158.155294" y="218.545503" style="fill: #0000ff; stroke: #0000ff"/>
     <use xlink:href="#mc88a972d35" x="150.879212" y="215.575193" style="fill: #0000ff; stroke: #0000ff"/>
     <use xlink:href="#mc88a972d35" x="161.228316" y="219.910229" style="fill: #0000ff; stroke: #0000ff"/>
     <use xlink:href="#mc88a972d35" x="166.40635" y="222.440325" style="fill: #0000ff; stroke: #0000ff"/>
     <use xlink:href="#mc88a972d35" x="159.162637" y="218.946595" style="fill: #0000ff; stroke: #0000ff"/>
     <use xlink:href="#mc88a972d35" x="158.34339" y="218.611871" style="fill: #0000ff; stroke: #0000ff"/>
     <use xlink:href="#mc88a972d35" x="144.693124" y="214.306277" style="fill: #0000ff; stroke: #0000ff"/>
     <use xlink:href="#mc88a972d35" x="154.599799" y="217.451111" style="fill: #0000ff; stroke: #0000ff"/>
    </g>
   </g>
   <g id="matplotlib.axis_1">
    <g id="xtick_1">
     <g id="line2d_1">
      <defs>
       <path id="m53d38f3a67" d="M 0 0 
L 0 3.5 
" style="stroke: #000000; stroke-width: 0.8"/>
      </defs>
      <g>
       <use xlink:href="#m53d38f3a67" x="68.103529" y="307.584" style="stroke: #000000; stroke-width: 0.8"/>
      </g>
     </g>
     <g id="text_1">
      <!-- 0 -->
      <g transform="translate(64.922279 322.182437)scale(0.1 -0.1)">
       <defs>
        <path id="DejaVuSans-30" d="M 2034 4250 
Q 1547 4250 1301 3770 
Q 1056 3291 1056 2328 
Q 1056 1369 1301 889 
Q 1547 409 2034 409 
Q 2525 409 2770 889 
Q 3016 1369 3016 2328 
Q 3016 3291 2770 3770 
Q 2525 4250 2034 4250 
z
M 2034 4750 
Q 2819 4750 3233 4129 
Q 3647 3509 3647 2328 
Q 3647 1150 3233 529 
Q 2819 -91 2034 -91 
Q 1250 -91 836 529 
Q 422 1150 422 2328 
Q 422 3509 836 4129 
Q 1250 4750 2034 4750 
z
" transform="scale(0.015625)"/>
       </defs>
       <use xlink:href="#DejaVuSans-30"/>
      </g>
     </g>
    </g>
    <g id="xtick_2">
     <g id="line2d_2">
      <g>
       <use xlink:href="#m53d38f3a67" x="173.138824" y="307.584" style="stroke: #000000; stroke-width: 0.8"/>
      </g>
     </g>
     <g id="text_2">
      <!-- 1 -->
      <g transform="translate(169.957574 322.182437)scale(0.1 -0.1)">
       <defs>
        <path id="DejaVuSans-31" d="M 794 531 
L 1825 531 
L 1825 4091 
L 703 3866 
L 703 4441 
L 1819 4666 
L 2450 4666 
L 2450 531 
L 3481 531 
L 3481 0 
L 794 0 
L 794 531 
z
" transform="scale(0.015625)"/>
       </defs>
       <use xlink:href="#DejaVuSans-31"/>
      </g>
     </g>
    </g>
    <g id="xtick_3">
     <g id="line2d_3">
      <g>
       <use xlink:href="#m53d38f3a67" x="278.174118" y="307.584" style="stroke: #000000; stroke-width: 0.8"/>
      </g>
     </g>
     <g id="text_3">
      <!-- 2 -->
      <g transform="translate(274.992868 322.182437)scale(0.1 -0.1)">
       <defs>
        <path id="DejaVuSans-32" d="M 1228 531 
L 3431 531 
L 3431 0 
L 469 0 
L 469 531 
Q 828 903 1448 1529 
Q 2069 2156 2228 2338 
Q 2531 2678 2651 2914 
Q 2772 3150 2772 3378 
Q 2772 3750 2511 3984 
Q 2250 4219 1831 4219 
Q 1534 4219 1204 4116 
Q 875 4013 500 3803 
L 500 4441 
Q 881 4594 1212 4672 
Q 1544 4750 1819 4750 
Q 2544 4750 2975 4387 
Q 3406 4025 3406 3419 
Q 3406 3131 3298 2873 
Q 3191 2616 2906 2266 
Q 2828 2175 2409 1742 
Q 1991 1309 1228 531 
z
" transform="scale(0.015625)"/>
       </defs>
       <use xlink:href="#DejaVuSans-32"/>
      </g>
     </g>
    </g>
    <g id="xtick_4">
     <g id="line2d_4">
      <g>
       <use xlink:href="#m53d38f3a67" x="383.209412" y="307.584" style="stroke: #000000; stroke-width: 0.8"/>
      </g>
     </g>
     <g id="text_4">
      <!-- 3 -->
      <g transform="translate(380.028162 322.182437)scale(0.1 -0.1)">
       <defs>
        <path id="DejaVuSans-33" d="M 2597 2516 
Q 3050 2419 3304 2112 
Q 3559 1806 3559 1356 
Q 3559 666 3084 287 
Q 2609 -91 1734 -91 
Q 1441 -91 1130 -33 
Q 819 25 488 141 
L 488 750 
Q 750 597 1062 519 
Q 1375 441 1716 441 
Q 2309 441 2620 675 
Q 2931 909 2931 1356 
Q 2931 1769 2642 2001 
Q 2353 2234 1838 2234 
L 1294 2234 
L 1294 2753 
L 1863 2753 
Q 2328 2753 2575 2939 
Q 2822 3125 2822 3475 
Q 2822 3834 2567 4026 
Q 2313 4219 1838 4219 
Q 1578 4219 1281 4162 
Q 984 4106 628 3988 
L 628 4550 
Q 988 4650 1302 4700 
Q 1616 4750 1894 4750 
Q 2613 4750 3031 4423 
Q 3450 4097 3450 3541 
Q 3450 3153 3228 2886 
Q 3006 2619 2597 2516 
z
" transform="scale(0.015625)"/>
       </defs>
       <use xlink:href="#DejaVuSans-33"/>
      </g>
     </g>
    </g>
   </g>
   <g id="matplotlib.axis_2">
    <g id="ytick_1">
     <g id="line2d_5">
      <defs>
       <path id="m823f4cd63b" d="M 0 0 
L -3.5 0 
" style="stroke: #000000; stroke-width: 0.8"/>
      </defs>
      <g>
       <use xlink:href="#m823f4cd63b" x="57.6" y="299.757176" style="stroke: #000000; stroke-width: 0.8"/>
      </g>
     </g>
     <g id="text_5">
      <!-- 0 -->
      <g transform="translate(44.2375 303.556395)scale(0.1 -0.1)">
       <use xlink:href="#DejaVuSans-30"/>
      </g>
     </g>
    </g>
    <g id="ytick_2">
     <g id="line2d_6">
      <g>
       <use xlink:href="#m823f4cd63b" x="57.6" y="221.488941" style="stroke: #000000; stroke-width: 0.8"/>
      </g>
     </g>
     <g id="text_6">
      <!-- 1 -->
      <g transform="translate(44.2375 225.28816)scale(0.1 -0.1)">
       <use xlink:href="#DejaVuSans-31"/>
      </g>
     </g>
    </g>
    <g id="ytick_3">
     <g id="line2d_7">
      <g>
       <use xlink:href="#m823f4cd63b" x="57.6" y="143.220706" style="stroke: #000000; stroke-width: 0.8"/>
      </g>
     </g>
     <g id="text_7">
      <!-- 2 -->
      <g transform="translate(44.2375 147.019925)scale(0.1 -0.1)">
       <use xlink:href="#DejaVuSans-32"/>
      </g>
     </g>
    </g>
    <g id="ytick_4">
     <g id="line2d_8">
      <g>
       <use xlink:href="#m823f4cd63b" x="57.6" y="64.952471" style="stroke: #000000; stroke-width: 0.8"/>
      </g>
     </g>
     <g id="text_8">
      <!-- 3 -->
      <g transform="translate(44.2375 68.751689)scale(0.1 -0.1)">
       <use xlink:href="#DejaVuSans-33"/>
      </g>
     </g>
    </g>
   </g>
   <g id="patch_3">
    <path d="M 57.6 307.584 
L 57.6 41.472 
" style="fill: none; stroke: #000000; stroke-width: 0.8; stroke-linejoin: miter; stroke-linecap: square"/>
   </g>
   <g id="patch_4">
    <path d="M 414.72 307.584 
L 414.72 41.472 
" style="fill: none; stroke: #000000; stroke-width: 0.8; stroke-linejoin: miter; stroke-linecap: square"/>
   </g>
   <g id="patch_5">
    <path d="M 57.6 307.584 
L 414.72 307.584 
" style="fill: none; stroke: #000000; stroke-width: 0.8; stroke-linejoin: miter; stroke-linecap: square"/>
   </g>
   <g id="patch_6">
    <path d="M 57.6 41.472 
L 414.72 41.472 
" style="fill: none; stroke: #000000; stroke-width: 0.8; stroke-linejoin: miter; stroke-linecap: square"/>
   </g>
   <g id="text_9">
    <!-- 010_n_1998 AREA: 1.795 -->
    <g transform="translate(160.559062 35.472)scale(0.12 -0.12)">
     <defs>
      <path id="DejaVuSans-5f" d="M 3263 -1063 
L 3263 -1509 
L -63 -1509 
L -63 -1063 
L 3263 -1063 
z
" transform="scale(0.015625)"/>
      <path id="DejaVuSans-6e" d="M 3513 2113 
L 3513 0 
L 2938 0 
L 2938 2094 
Q 2938 2591 2744 2837 
Q 2550 3084 2163 3084 
Q 1697 3084 1428 2787 
Q 1159 2491 1159 1978 
L 1159 0 
L 581 0 
L 581 3500 
L 1159 3500 
L 1159 2956 
Q 1366 3272 1645 3428 
Q 1925 3584 2291 3584 
Q 2894 3584 3203 3211 
Q 3513 2838 3513 2113 
z
" transform="scale(0.015625)"/>
      <path id="DejaVuSans-39" d="M 703 97 
L 703 672 
Q 941 559 1184 500 
Q 1428 441 1663 441 
Q 2288 441 2617 861 
Q 2947 1281 2994 2138 
Q 2813 1869 2534 1725 
Q 2256 1581 1919 1581 
Q 1219 1581 811 2004 
Q 403 2428 403 3163 
Q 403 3881 828 4315 
Q 1253 4750 1959 4750 
Q 2769 4750 3195 4129 
Q 3622 3509 3622 2328 
Q 3622 1225 3098 567 
Q 2575 -91 1691 -91 
Q 1453 -91 1209 -44 
Q 966 3 703 97 
z
M 1959 2075 
Q 2384 2075 2632 2365 
Q 2881 2656 2881 3163 
Q 2881 3666 2632 3958 
Q 2384 4250 1959 4250 
Q 1534 4250 1286 3958 
Q 1038 3666 1038 3163 
Q 1038 2656 1286 2365 
Q 1534 2075 1959 2075 
z
" transform="scale(0.015625)"/>
      <path id="DejaVuSans-38" d="M 2034 2216 
Q 1584 2216 1326 1975 
Q 1069 1734 1069 1313 
Q 1069 891 1326 650 
Q 1584 409 2034 409 
Q 2484 409 2743 651 
Q 3003 894 3003 1313 
Q 3003 1734 2745 1975 
Q 2488 2216 2034 2216 
z
M 1403 2484 
Q 997 2584 770 2862 
Q 544 3141 544 3541 
Q 544 4100 942 4425 
Q 1341 4750 2034 4750 
Q 2731 4750 3128 4425 
Q 3525 4100 3525 3541 
Q 3525 3141 3298 2862 
Q 3072 2584 2669 2484 
Q 3125 2378 3379 2068 
Q 3634 1759 3634 1313 
Q 3634 634 3220 271 
Q 2806 -91 2034 -91 
Q 1263 -91 848 271 
Q 434 634 434 1313 
Q 434 1759 690 2068 
Q 947 2378 1403 2484 
z
M 1172 3481 
Q 1172 3119 1398 2916 
Q 1625 2713 2034 2713 
Q 2441 2713 2670 2916 
Q 2900 3119 2900 3481 
Q 2900 3844 2670 4047 
Q 2441 4250 2034 4250 
Q 1625 4250 1398 4047 
Q 1172 3844 1172 3481 
z
" transform="scale(0.015625)"/>
      <path id="DejaVuSans-20" transform="scale(0.015625)"/>
      <path id="DejaVuSans-41" d="M 2188 4044 
L 1331 1722 
L 3047 1722 
L 2188 4044 
z
M 1831 4666 
L 2547 4666 
L 4325 0 
L 3669 0 
L 3244 1197 
L 1141 1197 
L 716 0 
L 50 0 
L 1831 4666 
z
" transform="scale(0.015625)"/>
      <path id="DejaVuSans-52" d="M 2841 2188 
Q 3044 2119 3236 1894 
Q 3428 1669 3622 1275 
L 4263 0 
L 3584 0 
L 2988 1197 
Q 2756 1666 2539 1819 
Q 2322 1972 1947 1972 
L 1259 1972 
L 1259 0 
L 628 0 
L 628 4666 
L 2053 4666 
Q 2853 4666 3247 4331 
Q 3641 3997 3641 3322 
Q 3641 2881 3436 2590 
Q 3231 2300 2841 2188 
z
M 1259 4147 
L 1259 2491 
L 2053 2491 
Q 2509 2491 2742 2702 
Q 2975 2913 2975 3322 
Q 2975 3731 2742 3939 
Q 2509 4147 2053 4147 
L 1259 4147 
z
" transform="scale(0.015625)"/>
      <path id="DejaVuSans-45" d="M 628 4666 
L 3578 4666 
L 3578 4134 
L 1259 4134 
L 1259 2753 
L 3481 2753 
L 3481 2222 
L 1259 2222 
L 1259 531 
L 3634 531 
L 3634 0 
L 628 0 
L 628 4666 
z
" transform="scale(0.015625)"/>
      <path id="DejaVuSans-3a" d="M 750 794 
L 1409 794 
L 1409 0 
L 750 0 
L 750 794 
z
M 750 3309 
L 1409 3309 
L 1409 2516 
L 750 2516 
L 750 3309 
z
" transform="scale(0.015625)"/>
      <path id="DejaVuSans-2e" d="M 684 794 
L 1344 794 
L 1344 0 
L 684 0 
L 684 794 
z
" transform="scale(0.015625)"/>
      <path id="DejaVuSans-37" d="M 525 4666 
L 3525 4666 
L 3525 4397 
L 1831 0 
L 1172 0 
L 2766 4134 
L 525 4134 
L 525 4666 
z
" transform="scale(0.015625)"/>
      <path id="DejaVuSans-35" d="M 691 4666 
L 3169 4666 
L 3169 4134 
L 1269 4134 
L 1269 2991 
Q 1406 3038 1543 3061 
Q 1681 3084 1819 3084 
Q 2600 3084 3056 2656 
Q 3513 2228 3513 1497 
Q 3513 744 3044 326 
Q 2575 -91 1722 -91 
Q 1428 -91 1123 -41 
Q 819 9 494 109 
L 494 744 
Q 775 591 1075 516 
Q 1375 441 1709 441 
Q 2250 441 2565 725 
Q 2881 1009 2881 1497 
Q 2881 1984 2565 2268 
Q 2250 2553 1709 2553 
Q 1456 2553 1204 2497 
Q 953 2441 691 2322 
L 691 4666 
z
" transform="scale(0.015625)"/>
     </defs>
     <use xlink:href="#DejaVuSans-30"/>
     <use xlink:href="#DejaVuSans-31" x="63.623047"/>
     <use xlink:href="#DejaVuSans-30" x="127.246094"/>
     <use xlink:href="#DejaVuSans-5f" x="190.869141"/>
     <use xlink:href="#DejaVuSans-6e" x="240.869141"/>
     <use xlink:href="#DejaVuSans-5f" x="304.248047"/>
     <use xlink:href="#DejaVuSans-31" x="354.248047"/>
     <use xlink:href="#DejaVuSans-39" x="417.871094"/>
     <use xlink:href="#DejaVuSans-39" x="481.494141"/>
     <use xlink:href="#DejaVuSans-38" x="545.117188"/>
     <use xlink:href="#DejaVuSans-20" x="608.740234"/>
     <use xlink:href="#DejaVuSans-41" x="640.527344"/>
     <use xlink:href="#DejaVuSans-52" x="708.935547"/>
     <use xlink:href="#DejaVuSans-45" x="778.417969"/>
     <use xlink:href="#DejaVuSans-41" x="841.601562"/>
     <use xlink:href="#DejaVuSans-3a" x="908.259766"/>
     <use xlink:href="#DejaVuSans-20" x="941.951172"/>
     <use xlink:href="#DejaVuSans-31" x="973.738281"/>
     <use xlink:href="#DejaVuSans-2e" x="1037.361328"/>
     <use xlink:href="#DejaVuSans-37" x="1069.148438"/>
     <use xlink:href="#DejaVuSans-39" x="1132.771484"/>
     <use xlink:href="#DejaVuSans-35" x="1196.394531"/>
    </g>
   </g>
  </g>
 </g>
 <defs>
  <clipPath id="p463df9aba9">
   <rect x="57.6" y="41.472" width="357.12" height="266.112"/>
  </clipPath>
 </defs>
</svg>
