<?xml version="1.0" encoding="utf-8" standalone="no"?>
<!DOCTYPE svg PUBLIC "-//W3C//DTD SVG 1.1//EN"
  "http://www.w3.org/Graphics/SVG/1.1/DTD/svg11.dtd">
<svg xmlns:xlink="http://www.w3.org/1999/xlink" width="460.8pt" height="345.6pt" viewBox="0 0 460.8 345.6" xmlns="http://www.w3.org/2000/svg" version="1.1">
 <metadata>
  <rdf:RDF xmlns:dc="http://purl.org/dc/elements/1.1/" xmlns:cc="http://creativecommons.org/ns#" xmlns:rdf="http://www.w3.org/1999/02/22-rdf-syntax-ns#">
   <cc:Work>
    <dc:type rdf:resource="http://purl.org/dc/dcmitype/StillImage"/>
    <dc:date>2023-05-29T01:39:03.263692</dc:date>
    <dc:format>image/svg+xml</dc:format>
    <dc:creator>
     <cc:Agent>
      <dc:title>Matplotlib v3.5.3, https://matplotlib.org/</dc:title>
     </cc:Agent>
    </dc:creator>
   </cc:Work>
  </rdf:RDF>
 </metadata>
 <defs>
  <style type="text/css">*{stroke-linejoin: round; stroke-linecap: butt}</style>
 </defs>
 <g id="figure_1">
  <g id="patch_1">
   <path d="M 0 345.6 
L 460.8 345.6 
L 460.8 0 
L 0 0 
z
" style="fill: #ffffff"/>
  </g>
  <g id="axes_1">
   <g id="patch_2">
    <path d="M 57.6 307.584 
L 414.72 307.584 
L 414.72 41.472 
L 57.6 41.472 
z
" style="fill: #ffffff"/>
   </g>
   <g id="PathCollection_1">
    <defs>
     <path id="mbbbfa5d8ee" d="M 0 3 
C 0.795609 3 1.55874 2.683901 2.12132 2.12132 
C 2.683901 1.55874 3 0.795609 3 0 
C 3 -0.795609 2.683901 -1.55874 2.12132 -2.12132 
C 1.55874 -2.683901 0.795609 -3 0 -3 
C -0.795609 -3 -1.55874 -2.683901 -2.12132 -2.12132 
C -2.683901 -1.55874 -3 -0.795609 -3 0 
C -3 0.795609 -2.683901 1.55874 -2.12132 2.12132 
C -1.55874 2.683901 -0.795609 3 0 3 
z
" style="stroke: #ff0000"/>
    </defs>
    <g clip-path="url(#pb932b23e89)">
     <use xlink:href="#mbbbfa5d8ee" x="70.767011" y="144.591082" style="fill: #ff0000; stroke: #ff0000"/>
     <use xlink:href="#mbbbfa5d8ee" x="304.548985" y="277.732571" style="fill: #ff0000; stroke: #ff0000"/>
     <use xlink:href="#mbbbfa5d8ee" x="176.679907" y="188.566866" style="fill: #ff0000; stroke: #ff0000"/>
     <use xlink:href="#mbbbfa5d8ee" x="115.501819" y="180.918897" style="fill: #ff0000; stroke: #ff0000"/>
     <use xlink:href="#mbbbfa5d8ee" x="177.093375" y="199.84119" style="fill: #ff0000; stroke: #ff0000"/>
     <use xlink:href="#mbbbfa5d8ee" x="217.820726" y="206.11389" style="fill: #ff0000; stroke: #ff0000"/>
     <use xlink:href="#mbbbfa5d8ee" x="282.016889" y="234.815564" style="fill: #ff0000; stroke: #ff0000"/>
     <use xlink:href="#mbbbfa5d8ee" x="282.908707" y="258.330494" style="fill: #ff0000; stroke: #ff0000"/>
     <use xlink:href="#mbbbfa5d8ee" x="250.438235" y="219.505321" style="fill: #ff0000; stroke: #ff0000"/>
     <use xlink:href="#mbbbfa5d8ee" x="283.375951" y="258.397323" style="fill: #ff0000; stroke: #ff0000"/>
     <use xlink:href="#mbbbfa5d8ee" x="293.78248" y="265.404697" style="fill: #ff0000; stroke: #ff0000"/>
     <use xlink:href="#mbbbfa5d8ee" x="80.491284" y="163.719854" style="fill: #ff0000; stroke: #ff0000"/>
     <use xlink:href="#mbbbfa5d8ee" x="98.856197" y="164.084564" style="fill: #ff0000; stroke: #ff0000"/>
     <use xlink:href="#mbbbfa5d8ee" x="259.939508" y="224.661948" style="fill: #ff0000; stroke: #ff0000"/>
     <use xlink:href="#mbbbfa5d8ee" x="177.072036" y="194.87955" style="fill: #ff0000; stroke: #ff0000"/>
     <use xlink:href="#mbbbfa5d8ee" x="113.446039" y="167.765613" style="fill: #ff0000; stroke: #ff0000"/>
     <use xlink:href="#mbbbfa5d8ee" x="271.511585" y="231.229291" style="fill: #ff0000; stroke: #ff0000"/>
     <use xlink:href="#mbbbfa5d8ee" x="239.957346" y="215.332924" style="fill: #ff0000; stroke: #ff0000"/>
     <use xlink:href="#mbbbfa5d8ee" x="280.984746" y="234.153343" style="fill: #ff0000; stroke: #ff0000"/>
     <use xlink:href="#mbbbfa5d8ee" x="114.657303" y="180.581682" style="fill: #ff0000; stroke: #ff0000"/>
     <use xlink:href="#mbbbfa5d8ee" x="105.674063" y="167.39999" style="fill: #ff0000; stroke: #ff0000"/>
     <use xlink:href="#mbbbfa5d8ee" x="293.882652" y="265.425681" style="fill: #ff0000; stroke: #ff0000"/>
     <use xlink:href="#mbbbfa5d8ee" x="299.181086" y="270.326437" style="fill: #ff0000; stroke: #ff0000"/>
     <use xlink:href="#mbbbfa5d8ee" x="114.133699" y="173.016499" style="fill: #ff0000; stroke: #ff0000"/>
     <use xlink:href="#mbbbfa5d8ee" x="72.047693" y="151.941287" style="fill: #ff0000; stroke: #ff0000"/>
     <use xlink:href="#mbbbfa5d8ee" x="269.665044" y="228.557458" style="fill: #ff0000; stroke: #ff0000"/>
     <use xlink:href="#mbbbfa5d8ee" x="78.540603" y="155.721958" style="fill: #ff0000; stroke: #ff0000"/>
     <use xlink:href="#mbbbfa5d8ee" x="302.560277" y="274.9917" style="fill: #ff0000; stroke: #ff0000"/>
     <use xlink:href="#mbbbfa5d8ee" x="228.299241" y="206.892152" style="fill: #ff0000; stroke: #ff0000"/>
     <use xlink:href="#mbbbfa5d8ee" x="71.495309" y="150.047623" style="fill: #ff0000; stroke: #ff0000"/>
     <use xlink:href="#mbbbfa5d8ee" x="217.822083" y="206.128078" style="fill: #ff0000; stroke: #ff0000"/>
     <use xlink:href="#mbbbfa5d8ee" x="261.007681" y="227.133916" style="fill: #ff0000; stroke: #ff0000"/>
     <use xlink:href="#mbbbfa5d8ee" x="299.181174" y="270.327259" style="fill: #ff0000; stroke: #ff0000"/>
     <use xlink:href="#mbbbfa5d8ee" x="78.573626" y="157.789388" style="fill: #ff0000; stroke: #ff0000"/>
     <use xlink:href="#mbbbfa5d8ee" x="239.710121" y="212.602434" style="fill: #ff0000; stroke: #ff0000"/>
     <use xlink:href="#mbbbfa5d8ee" x="238.968104" y="208.530315" style="fill: #ff0000; stroke: #ff0000"/>
     <use xlink:href="#mbbbfa5d8ee" x="176.718273" y="189.263926" style="fill: #ff0000; stroke: #ff0000"/>
     <use xlink:href="#mbbbfa5d8ee" x="249.421138" y="215.64465" style="fill: #ff0000; stroke: #ff0000"/>
     <use xlink:href="#mbbbfa5d8ee" x="229.168955" y="208.424013" style="fill: #ff0000; stroke: #ff0000"/>
     <use xlink:href="#mbbbfa5d8ee" x="71.294228" y="144.791575" style="fill: #ff0000; stroke: #ff0000"/>
     <use xlink:href="#mbbbfa5d8ee" x="78.592257" y="162.577636" style="fill: #ff0000; stroke: #ff0000"/>
     <use xlink:href="#mbbbfa5d8ee" x="113.791405" y="172.568754" style="fill: #ff0000; stroke: #ff0000"/>
     <use xlink:href="#mbbbfa5d8ee" x="177.087255" y="199.792427" style="fill: #ff0000; stroke: #ff0000"/>
     <use xlink:href="#mbbbfa5d8ee" x="101.055306" y="166.504629" style="fill: #ff0000; stroke: #ff0000"/>
     <use xlink:href="#mbbbfa5d8ee" x="250.191584" y="216.639561" style="fill: #ff0000; stroke: #ff0000"/>
     <use xlink:href="#mbbbfa5d8ee" x="239.709698" y="209.416413" style="fill: #ff0000; stroke: #ff0000"/>
     <use xlink:href="#mbbbfa5d8ee" x="304.386321" y="275.236612" style="fill: #ff0000; stroke: #ff0000"/>
     <use xlink:href="#mbbbfa5d8ee" x="304.531199" y="277.64723" style="fill: #ff0000; stroke: #ff0000"/>
     <use xlink:href="#mbbbfa5d8ee" x="101.03172" y="166.500325" style="fill: #ff0000; stroke: #ff0000"/>
     <use xlink:href="#mbbbfa5d8ee" x="99.376937" y="164.974532" style="fill: #ff0000; stroke: #ff0000"/>
     <use xlink:href="#mbbbfa5d8ee" x="78.571419" y="156.147348" style="fill: #ff0000; stroke: #ff0000"/>
     <use xlink:href="#mbbbfa5d8ee" x="78.599711" y="163.08615" style="fill: #ff0000; stroke: #ff0000"/>
     <use xlink:href="#mbbbfa5d8ee" x="270.900465" y="229.106929" style="fill: #ff0000; stroke: #ff0000"/>
     <use xlink:href="#mbbbfa5d8ee" x="71.583374" y="151.562152" style="fill: #ff0000; stroke: #ff0000"/>
     <use xlink:href="#mbbbfa5d8ee" x="260.099894" y="224.811142" style="fill: #ff0000; stroke: #ff0000"/>
     <use xlink:href="#mbbbfa5d8ee" x="260.642997" y="225.739884" style="fill: #ff0000; stroke: #ff0000"/>
     <use xlink:href="#mbbbfa5d8ee" x="260.691068" y="225.926235" style="fill: #ff0000; stroke: #ff0000"/>
     <use xlink:href="#mbbbfa5d8ee" x="99.361916" y="164.97342" style="fill: #ff0000; stroke: #ff0000"/>
     <use xlink:href="#mbbbfa5d8ee" x="260.719653" y="226.884167" style="fill: #ff0000; stroke: #ff0000"/>
     <use xlink:href="#mbbbfa5d8ee" x="304.071611" y="274.992871" style="fill: #ff0000; stroke: #ff0000"/>
     <use xlink:href="#mbbbfa5d8ee" x="271.145306" y="229.85352" style="fill: #ff0000; stroke: #ff0000"/>
     <use xlink:href="#mbbbfa5d8ee" x="228.303085" y="207.431064" style="fill: #ff0000; stroke: #ff0000"/>
     <use xlink:href="#mbbbfa5d8ee" x="271.428338" y="230.518985" style="fill: #ff0000; stroke: #ff0000"/>
     <use xlink:href="#mbbbfa5d8ee" x="270.903826" y="229.5283" style="fill: #ff0000; stroke: #ff0000"/>
     <use xlink:href="#mbbbfa5d8ee" x="176.682191" y="188.848338" style="fill: #ff0000; stroke: #ff0000"/>
     <use xlink:href="#mbbbfa5d8ee" x="250.179205" y="216.210658" style="fill: #ff0000; stroke: #ff0000"/>
     <use xlink:href="#mbbbfa5d8ee" x="249.97912" y="216.082136" style="fill: #ff0000; stroke: #ff0000"/>
     <use xlink:href="#mbbbfa5d8ee" x="271.508193" y="230.853007" style="fill: #ff0000; stroke: #ff0000"/>
     <use xlink:href="#mbbbfa5d8ee" x="249.520384" y="215.920951" style="fill: #ff0000; stroke: #ff0000"/>
     <use xlink:href="#mbbbfa5d8ee" x="281.599459" y="234.379999" style="fill: #ff0000; stroke: #ff0000"/>
     <use xlink:href="#mbbbfa5d8ee" x="113.901301" y="172.569538" style="fill: #ff0000; stroke: #ff0000"/>
     <use xlink:href="#mbbbfa5d8ee" x="229.025144" y="207.457244" style="fill: #ff0000; stroke: #ff0000"/>
     <use xlink:href="#mbbbfa5d8ee" x="114.080382" y="173.002789" style="fill: #ff0000; stroke: #ff0000"/>
     <use xlink:href="#mbbbfa5d8ee" x="281.039246" y="234.227151" style="fill: #ff0000; stroke: #ff0000"/>
     <use xlink:href="#mbbbfa5d8ee" x="229.167792" y="208.010671" style="fill: #ff0000; stroke: #ff0000"/>
     <use xlink:href="#mbbbfa5d8ee" x="239.065968" y="209.168004" style="fill: #ff0000; stroke: #ff0000"/>
     <use xlink:href="#mbbbfa5d8ee" x="281.672452" y="234.771152" style="fill: #ff0000; stroke: #ff0000"/>
     <use xlink:href="#mbbbfa5d8ee" x="71.954854" y="151.722762" style="fill: #ff0000; stroke: #ff0000"/>
     <use xlink:href="#mbbbfa5d8ee" x="115.315338" y="180.72559" style="fill: #ff0000; stroke: #ff0000"/>
     <use xlink:href="#mbbbfa5d8ee" x="78.598607" y="163.078385" style="fill: #ff0000; stroke: #ff0000"/>
     <use xlink:href="#mbbbfa5d8ee" x="71.060298" y="144.715066" style="fill: #ff0000; stroke: #ff0000"/>
     <use xlink:href="#mbbbfa5d8ee" x="229.03106" y="207.606511" style="fill: #ff0000; stroke: #ff0000"/>
     <use xlink:href="#mbbbfa5d8ee" x="229.163311" y="207.864731" style="fill: #ff0000; stroke: #ff0000"/>
     <use xlink:href="#mbbbfa5d8ee" x="271.088162" y="229.713067" style="fill: #ff0000; stroke: #ff0000"/>
     <use xlink:href="#mbbbfa5d8ee" x="239.481854" y="209.20985" style="fill: #ff0000; stroke: #ff0000"/>
     <use xlink:href="#mbbbfa5d8ee" x="239.017197" y="208.926363" style="fill: #ff0000; stroke: #ff0000"/>
     <use xlink:href="#mbbbfa5d8ee" x="78.540667" y="155.732198" style="fill: #ff0000; stroke: #ff0000"/>
     <use xlink:href="#mbbbfa5d8ee" x="176.713239" y="189.240102" style="fill: #ff0000; stroke: #ff0000"/>
     <use xlink:href="#mbbbfa5d8ee" x="281.649728" y="234.480193" style="fill: #ff0000; stroke: #ff0000"/>
     <use xlink:href="#mbbbfa5d8ee" x="238.982734" y="208.769843" style="fill: #ff0000; stroke: #ff0000"/>
     <use xlink:href="#mbbbfa5d8ee" x="304.373284" y="275.009433" style="fill: #ff0000; stroke: #ff0000"/>
     <use xlink:href="#mbbbfa5d8ee" x="229.168827" y="208.415871" style="fill: #ff0000; stroke: #ff0000"/>
     <use xlink:href="#mbbbfa5d8ee" x="260.797689" y="226.987665" style="fill: #ff0000; stroke: #ff0000"/>
     <use xlink:href="#mbbbfa5d8ee" x="271.4508" y="230.620779" style="fill: #ff0000; stroke: #ff0000"/>
     <use xlink:href="#mbbbfa5d8ee" x="71.586805" y="151.668828" style="fill: #ff0000; stroke: #ff0000"/>
     <use xlink:href="#mbbbfa5d8ee" x="239.676809" y="209.277352" style="fill: #ff0000; stroke: #ff0000"/>
     <use xlink:href="#mbbbfa5d8ee" x="283.124732" y="258.359186" style="fill: #ff0000; stroke: #ff0000"/>
     <use xlink:href="#mbbbfa5d8ee" x="249.423572" y="215.780569" style="fill: #ff0000; stroke: #ff0000"/>
     <use xlink:href="#mbbbfa5d8ee" x="115.501522" y="180.913326" style="fill: #ff0000; stroke: #ff0000"/>
     <use xlink:href="#mbbbfa5d8ee" x="115.315801" y="180.730803" style="fill: #ff0000; stroke: #ff0000"/>
    </g>
   </g>
   <g id="PathCollection_2">
    <defs>
     <path id="m3b892b391e" d="M 0 3 
C 0.795609 3 1.55874 2.683901 2.12132 2.12132 
C 2.683901 1.55874 3 0.795609 3 0 
C 3 -0.795609 2.683901 -1.55874 2.12132 -2.12132 
C 1.55874 -2.683901 0.795609 -3 0 -3 
C -0.795609 -3 -1.55874 -2.683901 -2.12132 -2.12132 
C -2.683901 -1.55874 -3 -0.795609 -3 0 
C -3 0.795609 -2.683901 1.55874 -2.12132 2.12132 
C -1.55874 2.683901 -0.795609 3 0 3 
z
" style="stroke: #0000ff"/>
    </defs>
    <g clip-path="url(#pb932b23e89)">
     <use xlink:href="#m3b892b391e" x="70.767011" y="144.591082" style="fill: #0000ff; stroke: #0000ff"/>
     <use xlink:href="#m3b892b391e" x="304.548985" y="277.732571" style="fill: #0000ff; stroke: #0000ff"/>
     <use xlink:href="#m3b892b391e" x="176.679907" y="188.566866" style="fill: #0000ff; stroke: #0000ff"/>
     <use xlink:href="#m3b892b391e" x="115.501819" y="180.918897" style="fill: #0000ff; stroke: #0000ff"/>
     <use xlink:href="#m3b892b391e" x="177.093375" y="199.84119" style="fill: #0000ff; stroke: #0000ff"/>
     <use xlink:href="#m3b892b391e" x="217.820726" y="206.11389" style="fill: #0000ff; stroke: #0000ff"/>
     <use xlink:href="#m3b892b391e" x="282.016889" y="234.815564" style="fill: #0000ff; stroke: #0000ff"/>
     <use xlink:href="#m3b892b391e" x="282.908707" y="258.330494" style="fill: #0000ff; stroke: #0000ff"/>
     <use xlink:href="#m3b892b391e" x="250.438235" y="219.505321" style="fill: #0000ff; stroke: #0000ff"/>
     <use xlink:href="#m3b892b391e" x="283.375951" y="258.397323" style="fill: #0000ff; stroke: #0000ff"/>
     <use xlink:href="#m3b892b391e" x="293.78248" y="265.404697" style="fill: #0000ff; stroke: #0000ff"/>
     <use xlink:href="#m3b892b391e" x="80.491284" y="163.719854" style="fill: #0000ff; stroke: #0000ff"/>
     <use xlink:href="#m3b892b391e" x="98.856197" y="164.084564" style="fill: #0000ff; stroke: #0000ff"/>
     <use xlink:href="#m3b892b391e" x="259.939508" y="224.661948" style="fill: #0000ff; stroke: #0000ff"/>
     <use xlink:href="#m3b892b391e" x="177.072036" y="194.87955" style="fill: #0000ff; stroke: #0000ff"/>
     <use xlink:href="#m3b892b391e" x="113.446039" y="167.765613" style="fill: #0000ff; stroke: #0000ff"/>
     <use xlink:href="#m3b892b391e" x="271.511585" y="231.229291" style="fill: #0000ff; stroke: #0000ff"/>
     <use xlink:href="#m3b892b391e" x="239.957346" y="215.332924" style="fill: #0000ff; stroke: #0000ff"/>
     <use xlink:href="#m3b892b391e" x="280.984746" y="234.153343" style="fill: #0000ff; stroke: #0000ff"/>
     <use xlink:href="#m3b892b391e" x="114.657303" y="180.581682" style="fill: #0000ff; stroke: #0000ff"/>
     <use xlink:href="#m3b892b391e" x="105.674063" y="167.39999" style="fill: #0000ff; stroke: #0000ff"/>
     <use xlink:href="#m3b892b391e" x="293.882652" y="265.425681" style="fill: #0000ff; stroke: #0000ff"/>
     <use xlink:href="#m3b892b391e" x="299.181086" y="270.326437" style="fill: #0000ff; stroke: #0000ff"/>
     <use xlink:href="#m3b892b391e" x="114.133699" y="173.016499" style="fill: #0000ff; stroke: #0000ff"/>
     <use xlink:href="#m3b892b391e" x="72.047693" y="151.941287" style="fill: #0000ff; stroke: #0000ff"/>
     <use xlink:href="#m3b892b391e" x="269.665044" y="228.557458" style="fill: #0000ff; stroke: #0000ff"/>
     <use xlink:href="#m3b892b391e" x="78.540603" y="155.721958" style="fill: #0000ff; stroke: #0000ff"/>
     <use xlink:href="#m3b892b391e" x="302.560277" y="274.9917" style="fill: #0000ff; stroke: #0000ff"/>
     <use xlink:href="#m3b892b391e" x="228.299241" y="206.892152" style="fill: #0000ff; stroke: #0000ff"/>
     <use xlink:href="#m3b892b391e" x="71.495309" y="150.047623" style="fill: #0000ff; stroke: #0000ff"/>
     <use xlink:href="#m3b892b391e" x="217.822083" y="206.128078" style="fill: #0000ff; stroke: #0000ff"/>
     <use xlink:href="#m3b892b391e" x="261.007681" y="227.133916" style="fill: #0000ff; stroke: #0000ff"/>
     <use xlink:href="#m3b892b391e" x="299.181174" y="270.327259" style="fill: #0000ff; stroke: #0000ff"/>
     <use xlink:href="#m3b892b391e" x="78.573626" y="157.789388" style="fill: #0000ff; stroke: #0000ff"/>
     <use xlink:href="#m3b892b391e" x="239.710121" y="212.602434" style="fill: #0000ff; stroke: #0000ff"/>
     <use xlink:href="#m3b892b391e" x="238.968104" y="208.530315" style="fill: #0000ff; stroke: #0000ff"/>
     <use xlink:href="#m3b892b391e" x="176.718273" y="189.263926" style="fill: #0000ff; stroke: #0000ff"/>
     <use xlink:href="#m3b892b391e" x="249.421138" y="215.64465" style="fill: #0000ff; stroke: #0000ff"/>
     <use xlink:href="#m3b892b391e" x="229.168955" y="208.424013" style="fill: #0000ff; stroke: #0000ff"/>
     <use xlink:href="#m3b892b391e" x="71.294228" y="144.791575" style="fill: #0000ff; stroke: #0000ff"/>
     <use xlink:href="#m3b892b391e" x="78.592257" y="162.577636" style="fill: #0000ff; stroke: #0000ff"/>
     <use xlink:href="#m3b892b391e" x="113.791405" y="172.568754" style="fill: #0000ff; stroke: #0000ff"/>
     <use xlink:href="#m3b892b391e" x="177.087255" y="199.792427" style="fill: #0000ff; stroke: #0000ff"/>
     <use xlink:href="#m3b892b391e" x="101.055306" y="166.504629" style="fill: #0000ff; stroke: #0000ff"/>
     <use xlink:href="#m3b892b391e" x="250.191584" y="216.639561" style="fill: #0000ff; stroke: #0000ff"/>
     <use xlink:href="#m3b892b391e" x="239.709698" y="209.416413" style="fill: #0000ff; stroke: #0000ff"/>
     <use xlink:href="#m3b892b391e" x="304.386321" y="275.236612" style="fill: #0000ff; stroke: #0000ff"/>
     <use xlink:href="#m3b892b391e" x="304.531199" y="277.64723" style="fill: #0000ff; stroke: #0000ff"/>
     <use xlink:href="#m3b892b391e" x="101.03172" y="166.500325" style="fill: #0000ff; stroke: #0000ff"/>
     <use xlink:href="#m3b892b391e" x="99.376937" y="164.974532" style="fill: #0000ff; stroke: #0000ff"/>
     <use xlink:href="#m3b892b391e" x="78.571419" y="156.147348" style="fill: #0000ff; stroke: #0000ff"/>
     <use xlink:href="#m3b892b391e" x="78.599711" y="163.08615" style="fill: #0000ff; stroke: #0000ff"/>
     <use xlink:href="#m3b892b391e" x="270.900465" y="229.106929" style="fill: #0000ff; stroke: #0000ff"/>
     <use xlink:href="#m3b892b391e" x="71.583374" y="151.562152" style="fill: #0000ff; stroke: #0000ff"/>
     <use xlink:href="#m3b892b391e" x="260.099894" y="224.811142" style="fill: #0000ff; stroke: #0000ff"/>
     <use xlink:href="#m3b892b391e" x="260.642997" y="225.739884" style="fill: #0000ff; stroke: #0000ff"/>
     <use xlink:href="#m3b892b391e" x="260.691068" y="225.926235" style="fill: #0000ff; stroke: #0000ff"/>
     <use xlink:href="#m3b892b391e" x="99.361916" y="164.97342" style="fill: #0000ff; stroke: #0000ff"/>
     <use xlink:href="#m3b892b391e" x="260.719653" y="226.884167" style="fill: #0000ff; stroke: #0000ff"/>
     <use xlink:href="#m3b892b391e" x="304.071611" y="274.992871" style="fill: #0000ff; stroke: #0000ff"/>
     <use xlink:href="#m3b892b391e" x="271.145306" y="229.85352" style="fill: #0000ff; stroke: #0000ff"/>
     <use xlink:href="#m3b892b391e" x="228.303085" y="207.431064" style="fill: #0000ff; stroke: #0000ff"/>
     <use xlink:href="#m3b892b391e" x="271.428338" y="230.518985" style="fill: #0000ff; stroke: #0000ff"/>
     <use xlink:href="#m3b892b391e" x="270.903826" y="229.5283" style="fill: #0000ff; stroke: #0000ff"/>
     <use xlink:href="#m3b892b391e" x="176.682191" y="188.848338" style="fill: #0000ff; stroke: #0000ff"/>
     <use xlink:href="#m3b892b391e" x="250.179205" y="216.210658" style="fill: #0000ff; stroke: #0000ff"/>
     <use xlink:href="#m3b892b391e" x="249.97912" y="216.082136" style="fill: #0000ff; stroke: #0000ff"/>
     <use xlink:href="#m3b892b391e" x="271.508193" y="230.853007" style="fill: #0000ff; stroke: #0000ff"/>
     <use xlink:href="#m3b892b391e" x="249.520384" y="215.920951" style="fill: #0000ff; stroke: #0000ff"/>
     <use xlink:href="#m3b892b391e" x="281.599459" y="234.379999" style="fill: #0000ff; stroke: #0000ff"/>
     <use xlink:href="#m3b892b391e" x="113.901301" y="172.569538" style="fill: #0000ff; stroke: #0000ff"/>
     <use xlink:href="#m3b892b391e" x="229.025144" y="207.457244" style="fill: #0000ff; stroke: #0000ff"/>
     <use xlink:href="#m3b892b391e" x="114.080382" y="173.002789" style="fill: #0000ff; stroke: #0000ff"/>
     <use xlink:href="#m3b892b391e" x="281.039246" y="234.227151" style="fill: #0000ff; stroke: #0000ff"/>
     <use xlink:href="#m3b892b391e" x="229.167792" y="208.010671" style="fill: #0000ff; stroke: #0000ff"/>
     <use xlink:href="#m3b892b391e" x="239.065968" y="209.168004" style="fill: #0000ff; stroke: #0000ff"/>
     <use xlink:href="#m3b892b391e" x="281.672452" y="234.771152" style="fill: #0000ff; stroke: #0000ff"/>
     <use xlink:href="#m3b892b391e" x="71.954854" y="151.722762" style="fill: #0000ff; stroke: #0000ff"/>
     <use xlink:href="#m3b892b391e" x="115.315338" y="180.72559" style="fill: #0000ff; stroke: #0000ff"/>
     <use xlink:href="#m3b892b391e" x="78.598607" y="163.078385" style="fill: #0000ff; stroke: #0000ff"/>
     <use xlink:href="#m3b892b391e" x="71.060298" y="144.715066" style="fill: #0000ff; stroke: #0000ff"/>
     <use xlink:href="#m3b892b391e" x="229.03106" y="207.606511" style="fill: #0000ff; stroke: #0000ff"/>
     <use xlink:href="#m3b892b391e" x="229.163311" y="207.864731" style="fill: #0000ff; stroke: #0000ff"/>
     <use xlink:href="#m3b892b391e" x="271.088162" y="229.713067" style="fill: #0000ff; stroke: #0000ff"/>
     <use xlink:href="#m3b892b391e" x="239.481854" y="209.20985" style="fill: #0000ff; stroke: #0000ff"/>
     <use xlink:href="#m3b892b391e" x="239.017197" y="208.926363" style="fill: #0000ff; stroke: #0000ff"/>
     <use xlink:href="#m3b892b391e" x="78.540667" y="155.732198" style="fill: #0000ff; stroke: #0000ff"/>
     <use xlink:href="#m3b892b391e" x="176.713239" y="189.240102" style="fill: #0000ff; stroke: #0000ff"/>
     <use xlink:href="#m3b892b391e" x="281.649728" y="234.480193" style="fill: #0000ff; stroke: #0000ff"/>
     <use xlink:href="#m3b892b391e" x="238.982734" y="208.769843" style="fill: #0000ff; stroke: #0000ff"/>
     <use xlink:href="#m3b892b391e" x="304.373284" y="275.009433" style="fill: #0000ff; stroke: #0000ff"/>
     <use xlink:href="#m3b892b391e" x="229.168827" y="208.415871" style="fill: #0000ff; stroke: #0000ff"/>
     <use xlink:href="#m3b892b391e" x="260.797689" y="226.987665" style="fill: #0000ff; stroke: #0000ff"/>
     <use xlink:href="#m3b892b391e" x="271.4508" y="230.620779" style="fill: #0000ff; stroke: #0000ff"/>
     <use xlink:href="#m3b892b391e" x="71.586805" y="151.668828" style="fill: #0000ff; stroke: #0000ff"/>
     <use xlink:href="#m3b892b391e" x="239.676809" y="209.277352" style="fill: #0000ff; stroke: #0000ff"/>
     <use xlink:href="#m3b892b391e" x="283.124732" y="258.359186" style="fill: #0000ff; stroke: #0000ff"/>
     <use xlink:href="#m3b892b391e" x="249.423572" y="215.780569" style="fill: #0000ff; stroke: #0000ff"/>
     <use xlink:href="#m3b892b391e" x="115.501522" y="180.913326" style="fill: #0000ff; stroke: #0000ff"/>
     <use xlink:href="#m3b892b391e" x="115.315801" y="180.730803" style="fill: #0000ff; stroke: #0000ff"/>
    </g>
   </g>
   <g id="matplotlib.axis_1">
    <g id="xtick_1">
     <g id="line2d_1">
      <defs>
       <path id="m1bcf90b7f9" d="M 0 0 
L 0 3.5 
" style="stroke: #000000; stroke-width: 0.8"/>
      </defs>
      <g>
       <use xlink:href="#m1bcf90b7f9" x="68.103529" y="307.584" style="stroke: #000000; stroke-width: 0.8"/>
      </g>
     </g>
     <g id="text_1">
      <!-- 0 -->
      <g transform="translate(64.922279 322.182437)scale(0.1 -0.1)">
       <defs>
        <path id="DejaVuSans-30" d="M 2034 4250 
Q 1547 4250 1301 3770 
Q 1056 3291 1056 2328 
Q 1056 1369 1301 889 
Q 1547 409 2034 409 
Q 2525 409 2770 889 
Q 3016 1369 3016 2328 
Q 3016 3291 2770 3770 
Q 2525 4250 2034 4250 
z
M 2034 4750 
Q 2819 4750 3233 4129 
Q 3647 3509 3647 2328 
Q 3647 1150 3233 529 
Q 2819 -91 2034 -91 
Q 1250 -91 836 529 
Q 422 1150 422 2328 
Q 422 3509 836 4129 
Q 1250 4750 2034 4750 
z
" transform="scale(0.015625)"/>
       </defs>
       <use xlink:href="#DejaVuSans-30"/>
      </g>
     </g>
    </g>
    <g id="xtick_2">
     <g id="line2d_2">
      <g>
       <use xlink:href="#m1bcf90b7f9" x="173.138824" y="307.584" style="stroke: #000000; stroke-width: 0.8"/>
      </g>
     </g>
     <g id="text_2">
      <!-- 1 -->
      <g transform="translate(169.957574 322.182437)scale(0.1 -0.1)">
       <defs>
        <path id="DejaVuSans-31" d="M 794 531 
L 1825 531 
L 1825 4091 
L 703 3866 
L 703 4441 
L 1819 4666 
L 2450 4666 
L 2450 531 
L 3481 531 
L 3481 0 
L 794 0 
L 794 531 
z
" transform="scale(0.015625)"/>
       </defs>
       <use xlink:href="#DejaVuSans-31"/>
      </g>
     </g>
    </g>
    <g id="xtick_3">
     <g id="line2d_3">
      <g>
       <use xlink:href="#m1bcf90b7f9" x="278.174118" y="307.584" style="stroke: #000000; stroke-width: 0.8"/>
      </g>
     </g>
     <g id="text_3">
      <!-- 2 -->
      <g transform="translate(274.992868 322.182437)scale(0.1 -0.1)">
       <defs>
        <path id="DejaVuSans-32" d="M 1228 531 
L 3431 531 
L 3431 0 
L 469 0 
L 469 531 
Q 828 903 1448 1529 
Q 2069 2156 2228 2338 
Q 2531 2678 2651 2914 
Q 2772 3150 2772 3378 
Q 2772 3750 2511 3984 
Q 2250 4219 1831 4219 
Q 1534 4219 1204 4116 
Q 875 4013 500 3803 
L 500 4441 
Q 881 4594 1212 4672 
Q 1544 4750 1819 4750 
Q 2544 4750 2975 4387 
Q 3406 4025 3406 3419 
Q 3406 3131 3298 2873 
Q 3191 2616 2906 2266 
Q 2828 2175 2409 1742 
Q 1991 1309 1228 531 
z
" transform="scale(0.015625)"/>
       </defs>
       <use xlink:href="#DejaVuSans-32"/>
      </g>
     </g>
    </g>
    <g id="xtick_4">
     <g id="line2d_4">
      <g>
       <use xlink:href="#m1bcf90b7f9" x="383.209412" y="307.584" style="stroke: #000000; stroke-width: 0.8"/>
      </g>
     </g>
     <g id="text_4">
      <!-- 3 -->
      <g transform="translate(380.028162 322.182437)scale(0.1 -0.1)">
       <defs>
        <path id="DejaVuSans-33" d="M 2597 2516 
Q 3050 2419 3304 2112 
Q 3559 1806 3559 1356 
Q 3559 666 3084 287 
Q 2609 -91 1734 -91 
Q 1441 -91 1130 -33 
Q 819 25 488 141 
L 488 750 
Q 750 597 1062 519 
Q 1375 441 1716 441 
Q 2309 441 2620 675 
Q 2931 909 2931 1356 
Q 2931 1769 2642 2001 
Q 2353 2234 1838 2234 
L 1294 2234 
L 1294 2753 
L 1863 2753 
Q 2328 2753 2575 2939 
Q 2822 3125 2822 3475 
Q 2822 3834 2567 4026 
Q 2313 4219 1838 4219 
Q 1578 4219 1281 4162 
Q 984 4106 628 3988 
L 628 4550 
Q 988 4650 1302 4700 
Q 1616 4750 1894 4750 
Q 2613 4750 3031 4423 
Q 3450 4097 3450 3541 
Q 3450 3153 3228 2886 
Q 3006 2619 2597 2516 
z
" transform="scale(0.015625)"/>
       </defs>
       <use xlink:href="#DejaVuSans-33"/>
      </g>
     </g>
    </g>
   </g>
   <g id="matplotlib.axis_2">
    <g id="ytick_1">
     <g id="line2d_5">
      <defs>
       <path id="m36fa790f22" d="M 0 0 
L -3.5 0 
" style="stroke: #000000; stroke-width: 0.8"/>
      </defs>
      <g>
       <use xlink:href="#m36fa790f22" x="57.6" y="299.757176" style="stroke: #000000; stroke-width: 0.8"/>
      </g>
     </g>
     <g id="text_5">
      <!-- 0 -->
      <g transform="translate(44.2375 303.556395)scale(0.1 -0.1)">
       <use xlink:href="#DejaVuSans-30"/>
      </g>
     </g>
    </g>
    <g id="ytick_2">
     <g id="line2d_6">
      <g>
       <use xlink:href="#m36fa790f22" x="57.6" y="221.488941" style="stroke: #000000; stroke-width: 0.8"/>
      </g>
     </g>
     <g id="text_6">
      <!-- 1 -->
      <g transform="translate(44.2375 225.28816)scale(0.1 -0.1)">
       <use xlink:href="#DejaVuSans-31"/>
      </g>
     </g>
    </g>
    <g id="ytick_3">
     <g id="line2d_7">
      <g>
       <use xlink:href="#m36fa790f22" x="57.6" y="143.220706" style="stroke: #000000; stroke-width: 0.8"/>
      </g>
     </g>
     <g id="text_7">
      <!-- 2 -->
      <g transform="translate(44.2375 147.019925)scale(0.1 -0.1)">
       <use xlink:href="#DejaVuSans-32"/>
      </g>
     </g>
    </g>
    <g id="ytick_4">
     <g id="line2d_8">
      <g>
       <use xlink:href="#m36fa790f22" x="57.6" y="64.952471" style="stroke: #000000; stroke-width: 0.8"/>
      </g>
     </g>
     <g id="text_8">
      <!-- 3 -->
      <g transform="translate(44.2375 68.751689)scale(0.1 -0.1)">
       <use xlink:href="#DejaVuSans-33"/>
      </g>
     </g>
    </g>
   </g>
   <g id="patch_3">
    <path d="M 57.6 307.584 
L 57.6 41.472 
" style="fill: none; stroke: #000000; stroke-width: 0.8; stroke-linejoin: miter; stroke-linecap: square"/>
   </g>
   <g id="patch_4">
    <path d="M 414.72 307.584 
L 414.72 41.472 
" style="fill: none; stroke: #000000; stroke-width: 0.8; stroke-linejoin: miter; stroke-linecap: square"/>
   </g>
   <g id="patch_5">
    <path d="M 57.6 307.584 
L 414.72 307.584 
" style="fill: none; stroke: #000000; stroke-width: 0.8; stroke-linejoin: miter; stroke-linecap: square"/>
   </g>
   <g id="patch_6">
    <path d="M 57.6 41.472 
L 414.72 41.472 
" style="fill: none; stroke: #000000; stroke-width: 0.8; stroke-linejoin: miter; stroke-linecap: square"/>
   </g>
   <g id="text_9">
    <!-- 349_n_1998 AREA: 2.541 -->
    <g transform="translate(160.559062 35.472)scale(0.12 -0.12)">
     <defs>
      <path id="DejaVuSans-34" d="M 2419 4116 
L 825 1625 
L 2419 1625 
L 2419 4116 
z
M 2253 4666 
L 3047 4666 
L 3047 1625 
L 3713 1625 
L 3713 1100 
L 3047 1100 
L 3047 0 
L 2419 0 
L 2419 1100 
L 313 1100 
L 313 1709 
L 2253 4666 
z
" transform="scale(0.015625)"/>
      <path id="DejaVuSans-39" d="M 703 97 
L 703 672 
Q 941 559 1184 500 
Q 1428 441 1663 441 
Q 2288 441 2617 861 
Q 2947 1281 2994 2138 
Q 2813 1869 2534 1725 
Q 2256 1581 1919 1581 
Q 1219 1581 811 2004 
Q 403 2428 403 3163 
Q 403 3881 828 4315 
Q 1253 4750 1959 4750 
Q 2769 4750 3195 4129 
Q 3622 3509 3622 2328 
Q 3622 1225 3098 567 
Q 2575 -91 1691 -91 
Q 1453 -91 1209 -44 
Q 966 3 703 97 
z
M 1959 2075 
Q 2384 2075 2632 2365 
Q 2881 2656 2881 3163 
Q 2881 3666 2632 3958 
Q 2384 4250 1959 4250 
Q 1534 4250 1286 3958 
Q 1038 3666 1038 3163 
Q 1038 2656 1286 2365 
Q 1534 2075 1959 2075 
z
" transform="scale(0.015625)"/>
      <path id="DejaVuSans-5f" d="M 3263 -1063 
L 3263 -1509 
L -63 -1509 
L -63 -1063 
L 3263 -1063 
z
" transform="scale(0.015625)"/>
      <path id="DejaVuSans-6e" d="M 3513 2113 
L 3513 0 
L 2938 0 
L 2938 2094 
Q 2938 2591 2744 2837 
Q 2550 3084 2163 3084 
Q 1697 3084 1428 2787 
Q 1159 2491 1159 1978 
L 1159 0 
L 581 0 
L 581 3500 
L 1159 3500 
L 1159 2956 
Q 1366 3272 1645 3428 
Q 1925 3584 2291 3584 
Q 2894 3584 3203 3211 
Q 3513 2838 3513 2113 
z
" transform="scale(0.015625)"/>
      <path id="DejaVuSans-38" d="M 2034 2216 
Q 1584 2216 1326 1975 
Q 1069 1734 1069 1313 
Q 1069 891 1326 650 
Q 1584 409 2034 409 
Q 2484 409 2743 651 
Q 3003 894 3003 1313 
Q 3003 1734 2745 1975 
Q 2488 2216 2034 2216 
z
M 1403 2484 
Q 997 2584 770 2862 
Q 544 3141 544 3541 
Q 544 4100 942 4425 
Q 1341 4750 2034 4750 
Q 2731 4750 3128 4425 
Q 3525 4100 3525 3541 
Q 3525 3141 3298 2862 
Q 3072 2584 2669 2484 
Q 3125 2378 3379 2068 
Q 3634 1759 3634 1313 
Q 3634 634 3220 271 
Q 2806 -91 2034 -91 
Q 1263 -91 848 271 
Q 434 634 434 1313 
Q 434 1759 690 2068 
Q 947 2378 1403 2484 
z
M 1172 3481 
Q 1172 3119 1398 2916 
Q 1625 2713 2034 2713 
Q 2441 2713 2670 2916 
Q 2900 3119 2900 3481 
Q 2900 3844 2670 4047 
Q 2441 4250 2034 4250 
Q 1625 4250 1398 4047 
Q 1172 3844 1172 3481 
z
" transform="scale(0.015625)"/>
      <path id="DejaVuSans-20" transform="scale(0.015625)"/>
      <path id="DejaVuSans-41" d="M 2188 4044 
L 1331 1722 
L 3047 1722 
L 2188 4044 
z
M 1831 4666 
L 2547 4666 
L 4325 0 
L 3669 0 
L 3244 1197 
L 1141 1197 
L 716 0 
L 50 0 
L 1831 4666 
z
" transform="scale(0.015625)"/>
      <path id="DejaVuSans-52" d="M 2841 2188 
Q 3044 2119 3236 1894 
Q 3428 1669 3622 1275 
L 4263 0 
L 3584 0 
L 2988 1197 
Q 2756 1666 2539 1819 
Q 2322 1972 1947 1972 
L 1259 1972 
L 1259 0 
L 628 0 
L 628 4666 
L 2053 4666 
Q 2853 4666 3247 4331 
Q 3641 3997 3641 3322 
Q 3641 2881 3436 2590 
Q 3231 2300 2841 2188 
z
M 1259 4147 
L 1259 2491 
L 2053 2491 
Q 2509 2491 2742 2702 
Q 2975 2913 2975 3322 
Q 2975 3731 2742 3939 
Q 2509 4147 2053 4147 
L 1259 4147 
z
" transform="scale(0.015625)"/>
      <path id="DejaVuSans-45" d="M 628 4666 
L 3578 4666 
L 3578 4134 
L 1259 4134 
L 1259 2753 
L 3481 2753 
L 3481 2222 
L 1259 2222 
L 1259 531 
L 3634 531 
L 3634 0 
L 628 0 
L 628 4666 
z
" transform="scale(0.015625)"/>
      <path id="DejaVuSans-3a" d="M 750 794 
L 1409 794 
L 1409 0 
L 750 0 
L 750 794 
z
M 750 3309 
L 1409 3309 
L 1409 2516 
L 750 2516 
L 750 3309 
z
" transform="scale(0.015625)"/>
      <path id="DejaVuSans-2e" d="M 684 794 
L 1344 794 
L 1344 0 
L 684 0 
L 684 794 
z
" transform="scale(0.015625)"/>
      <path id="DejaVuSans-35" d="M 691 4666 
L 3169 4666 
L 3169 4134 
L 1269 4134 
L 1269 2991 
Q 1406 3038 1543 3061 
Q 1681 3084 1819 3084 
Q 2600 3084 3056 2656 
Q 3513 2228 3513 1497 
Q 3513 744 3044 326 
Q 2575 -91 1722 -91 
Q 1428 -91 1123 -41 
Q 819 9 494 109 
L 494 744 
Q 775 591 1075 516 
Q 1375 441 1709 441 
Q 2250 441 2565 725 
Q 2881 1009 2881 1497 
Q 2881 1984 2565 2268 
Q 2250 2553 1709 2553 
Q 1456 2553 1204 2497 
Q 953 2441 691 2322 
L 691 4666 
z
" transform="scale(0.015625)"/>
     </defs>
     <use xlink:href="#DejaVuSans-33"/>
     <use xlink:href="#DejaVuSans-34" x="63.623047"/>
     <use xlink:href="#DejaVuSans-39" x="127.246094"/>
     <use xlink:href="#DejaVuSans-5f" x="190.869141"/>
     <use xlink:href="#DejaVuSans-6e" x="240.869141"/>
     <use xlink:href="#DejaVuSans-5f" x="304.248047"/>
     <use xlink:href="#DejaVuSans-31" x="354.248047"/>
     <use xlink:href="#DejaVuSans-39" x="417.871094"/>
     <use xlink:href="#DejaVuSans-39" x="481.494141"/>
     <use xlink:href="#DejaVuSans-38" x="545.117188"/>
     <use xlink:href="#DejaVuSans-20" x="608.740234"/>
     <use xlink:href="#DejaVuSans-41" x="640.527344"/>
     <use xlink:href="#DejaVuSans-52" x="708.935547"/>
     <use xlink:href="#DejaVuSans-45" x="778.417969"/>
     <use xlink:href="#DejaVuSans-41" x="841.601562"/>
     <use xlink:href="#DejaVuSans-3a" x="908.259766"/>
     <use xlink:href="#DejaVuSans-20" x="941.951172"/>
     <use xlink:href="#DejaVuSans-32" x="973.738281"/>
     <use xlink:href="#DejaVuSans-2e" x="1037.361328"/>
     <use xlink:href="#DejaVuSans-35" x="1069.148438"/>
     <use xlink:href="#DejaVuSans-34" x="1132.771484"/>
     <use xlink:href="#DejaVuSans-31" x="1196.394531"/>
    </g>
   </g>
  </g>
 </g>
 <defs>
  <clipPath id="pb932b23e89">
   <rect x="57.6" y="41.472" width="357.12" height="266.112"/>
  </clipPath>
 </defs>
</svg>
