<?xml version="1.0" encoding="utf-8" standalone="no"?>
<!DOCTYPE svg PUBLIC "-//W3C//DTD SVG 1.1//EN"
  "http://www.w3.org/Graphics/SVG/1.1/DTD/svg11.dtd">
<svg xmlns:xlink="http://www.w3.org/1999/xlink" width="460.8pt" height="345.6pt" viewBox="0 0 460.8 345.6" xmlns="http://www.w3.org/2000/svg" version="1.1">
 <metadata>
  <rdf:RDF xmlns:dc="http://purl.org/dc/elements/1.1/" xmlns:cc="http://creativecommons.org/ns#" xmlns:rdf="http://www.w3.org/1999/02/22-rdf-syntax-ns#">
   <cc:Work>
    <dc:type rdf:resource="http://purl.org/dc/dcmitype/StillImage"/>
    <dc:date>2023-05-29T01:39:03.034021</dc:date>
    <dc:format>image/svg+xml</dc:format>
    <dc:creator>
     <cc:Agent>
      <dc:title>Matplotlib v3.5.3, https://matplotlib.org/</dc:title>
     </cc:Agent>
    </dc:creator>
   </cc:Work>
  </rdf:RDF>
 </metadata>
 <defs>
  <style type="text/css">*{stroke-linejoin: round; stroke-linecap: butt}</style>
 </defs>
 <g id="figure_1">
  <g id="patch_1">
   <path d="M 0 345.6 
L 460.8 345.6 
L 460.8 0 
L 0 0 
z
" style="fill: #ffffff"/>
  </g>
  <g id="axes_1">
   <g id="patch_2">
    <path d="M 57.6 307.584 
L 414.72 307.584 
L 414.72 41.472 
L 57.6 41.472 
z
" style="fill: #ffffff"/>
   </g>
   <g id="PathCollection_1">
    <defs>
     <path id="m9217ec7014" d="M 0 3 
C 0.795609 3 1.55874 2.683901 2.12132 2.12132 
C 2.683901 1.55874 3 0.795609 3 0 
C 3 -0.795609 2.683901 -1.55874 2.12132 -2.12132 
C 1.55874 -2.683901 0.795609 -3 0 -3 
C -0.795609 -3 -1.55874 -2.683901 -2.12132 -2.12132 
C -2.683901 -1.55874 -3 -0.795609 -3 0 
C -3 0.795609 -2.683901 1.55874 -2.12132 2.12132 
C -1.55874 2.683901 -0.795609 3 0 3 
z
" style="stroke: #ff0000"/>
    </defs>
    <g clip-path="url(#p5e4f921e38)">
     <use xlink:href="#m9217ec7014" x="412.739245" y="299.757176" style="fill: #ff0000; stroke: #ff0000"/>
     <use xlink:href="#m9217ec7014" x="78.605859" y="156.467233" style="fill: #ff0000; stroke: #ff0000"/>
     <use xlink:href="#m9217ec7014" x="330.528407" y="284.30912" style="fill: #ff0000; stroke: #ff0000"/>
     <use xlink:href="#m9217ec7014" x="330.500962" y="252.454635" style="fill: #ff0000; stroke: #ff0000"/>
     <use xlink:href="#m9217ec7014" x="162.633893" y="164.978948" style="fill: #ff0000; stroke: #ff0000"/>
     <use xlink:href="#m9217ec7014" x="204.641939" y="210.420615" style="fill: #ff0000; stroke: #ff0000"/>
     <use xlink:href="#m9217ec7014" x="120.621116" y="164.193413" style="fill: #ff0000; stroke: #ff0000"/>
     <use xlink:href="#m9217ec7014" x="208.302257" y="225.652343" style="fill: #ff0000; stroke: #ff0000"/>
     <use xlink:href="#m9217ec7014" x="309.551157" y="230.462267" style="fill: #ff0000; stroke: #ff0000"/>
     <use xlink:href="#m9217ec7014" x="283.759625" y="228.912827" style="fill: #ff0000; stroke: #ff0000"/>
     <use xlink:href="#m9217ec7014" x="246.057939" y="226.544364" style="fill: #ff0000; stroke: #ff0000"/>
     <use xlink:href="#m9217ec7014" x="221.078748" y="225.652378" style="fill: #ff0000; stroke: #ff0000"/>
     <use xlink:href="#m9217ec7014" x="99.587814" y="159.515284" style="fill: #ff0000; stroke: #ff0000"/>
     <use xlink:href="#m9217ec7014" x="162.635289" y="178.445131" style="fill: #ff0000; stroke: #ff0000"/>
     <use xlink:href="#m9217ec7014" x="79.00403" y="158.713333" style="fill: #ff0000; stroke: #ff0000"/>
     <use xlink:href="#m9217ec7014" x="162.635066" y="172.84945" style="fill: #ff0000; stroke: #ff0000"/>
     <use xlink:href="#m9217ec7014" x="194.143571" y="192.846122" style="fill: #ff0000; stroke: #ff0000"/>
     <use xlink:href="#m9217ec7014" x="183.508714" y="178.445159" style="fill: #ff0000; stroke: #ff0000"/>
     <use xlink:href="#m9217ec7014" x="204.483922" y="196.394341" style="fill: #ff0000; stroke: #ff0000"/>
     <use xlink:href="#m9217ec7014" x="204.588438" y="197.769138" style="fill: #ff0000; stroke: #ff0000"/>
     <use xlink:href="#m9217ec7014" x="204.640996" y="205.152304" style="fill: #ff0000; stroke: #ff0000"/>
     <use xlink:href="#m9217ec7014" x="317.862163" y="240.14855" style="fill: #ff0000; stroke: #ff0000"/>
     <use xlink:href="#m9217ec7014" x="194.142349" y="191.720494" style="fill: #ff0000; stroke: #ff0000"/>
     <use xlink:href="#m9217ec7014" x="183.641524" y="189.800826" style="fill: #ff0000; stroke: #ff0000"/>
     <use xlink:href="#m9217ec7014" x="112.334167" y="162.605507" style="fill: #ff0000; stroke: #ff0000"/>
     <use xlink:href="#m9217ec7014" x="282.124395" y="228.912825" style="fill: #ff0000; stroke: #ff0000"/>
     <use xlink:href="#m9217ec7014" x="317.601998" y="237.103535" style="fill: #ff0000; stroke: #ff0000"/>
     <use xlink:href="#m9217ec7014" x="272.006965" y="227.619857" style="fill: #ff0000; stroke: #ff0000"/>
     <use xlink:href="#m9217ec7014" x="110.076651" y="161.911396" style="fill: #ff0000; stroke: #ff0000"/>
     <use xlink:href="#m9217ec7014" x="183.557939" y="181.040197" style="fill: #ff0000; stroke: #ff0000"/>
     <use xlink:href="#m9217ec7014" x="220.515855" y="225.652345" style="fill: #ff0000; stroke: #ff0000"/>
     <use xlink:href="#m9217ec7014" x="204.641361" y="205.15231" style="fill: #ff0000; stroke: #ff0000"/>
     <use xlink:href="#m9217ec7014" x="208.334097" y="225.652344" style="fill: #ff0000; stroke: #ff0000"/>
     <use xlink:href="#m9217ec7014" x="120.621106" y="163.438766" style="fill: #ff0000; stroke: #ff0000"/>
     <use xlink:href="#m9217ec7014" x="261.249942" y="227.619825" style="fill: #ff0000; stroke: #ff0000"/>
     <use xlink:href="#m9217ec7014" x="327.531583" y="240.148565" style="fill: #ff0000; stroke: #ff0000"/>
     <use xlink:href="#m9217ec7014" x="183.641108" y="184.936463" style="fill: #ff0000; stroke: #ff0000"/>
     <use xlink:href="#m9217ec7014" x="183.641226" y="189.800793" style="fill: #ff0000; stroke: #ff0000"/>
     <use xlink:href="#m9217ec7014" x="330.460958" y="247.784422" style="fill: #ff0000; stroke: #ff0000"/>
     <use xlink:href="#m9217ec7014" x="330.366385" y="247.784226" style="fill: #ff0000; stroke: #ff0000"/>
     <use xlink:href="#m9217ec7014" x="329.362234" y="243.693841" style="fill: #ff0000; stroke: #ff0000"/>
     <use xlink:href="#m9217ec7014" x="329.276999" y="240.148566" style="fill: #ff0000; stroke: #ff0000"/>
     <use xlink:href="#m9217ec7014" x="100.706582" y="161.787823" style="fill: #ff0000; stroke: #ff0000"/>
     <use xlink:href="#m9217ec7014" x="162.635282" y="176.248255" style="fill: #ff0000; stroke: #ff0000"/>
     <use xlink:href="#m9217ec7014" x="314.883636" y="232.311628" style="fill: #ff0000; stroke: #ff0000"/>
     <use xlink:href="#m9217ec7014" x="329.31009" y="243.69383" style="fill: #ff0000; stroke: #ff0000"/>
     <use xlink:href="#m9217ec7014" x="268.554952" y="227.619827" style="fill: #ff0000; stroke: #ff0000"/>
     <use xlink:href="#m9217ec7014" x="162.635164" y="174.477922" style="fill: #ff0000; stroke: #ff0000"/>
     <use xlink:href="#m9217ec7014" x="183.619203" y="184.0852" style="fill: #ff0000; stroke: #ff0000"/>
     <use xlink:href="#m9217ec7014" x="316.365613" y="234.508504" style="fill: #ff0000; stroke: #ff0000"/>
     <use xlink:href="#m9217ec7014" x="317.118561" y="234.508507" style="fill: #ff0000; stroke: #ff0000"/>
     <use xlink:href="#m9217ec7014" x="183.552509" y="178.445159" style="fill: #ff0000; stroke: #ff0000"/>
     <use xlink:href="#m9217ec7014" x="311.423048" y="232.311627" style="fill: #ff0000; stroke: #ff0000"/>
     <use xlink:href="#m9217ec7014" x="78.60695" y="157.672061" style="fill: #ff0000; stroke: #ff0000"/>
     <use xlink:href="#m9217ec7014" x="311.390977" y="230.46227" style="fill: #ff0000; stroke: #ff0000"/>
     <use xlink:href="#m9217ec7014" x="259.60078" y="226.544414" style="fill: #ff0000; stroke: #ff0000"/>
     <use xlink:href="#m9217ec7014" x="99.599361" y="161.031401" style="fill: #ff0000; stroke: #ff0000"/>
     <use xlink:href="#m9217ec7014" x="100.452069" y="161.765303" style="fill: #ff0000; stroke: #ff0000"/>
     <use xlink:href="#m9217ec7014" x="78.605911" y="156.783171" style="fill: #ff0000; stroke: #ff0000"/>
     <use xlink:href="#m9217ec7014" x="312.994502" y="232.311628" style="fill: #ff0000; stroke: #ff0000"/>
     <use xlink:href="#m9217ec7014" x="255.166429" y="226.54437" style="fill: #ff0000; stroke: #ff0000"/>
     <use xlink:href="#m9217ec7014" x="194.143516" y="191.721144" style="fill: #ff0000; stroke: #ff0000"/>
     <use xlink:href="#m9217ec7014" x="99.600843" y="161.037698" style="fill: #ff0000; stroke: #ff0000"/>
     <use xlink:href="#m9217ec7014" x="253.317658" y="226.544369" style="fill: #ff0000; stroke: #ff0000"/>
     <use xlink:href="#m9217ec7014" x="258.213231" y="226.544383" style="fill: #ff0000; stroke: #ff0000"/>
     <use xlink:href="#m9217ec7014" x="251.583969" y="226.544368" style="fill: #ff0000; stroke: #ff0000"/>
     <use xlink:href="#m9217ec7014" x="247.183827" y="226.544364" style="fill: #ff0000; stroke: #ff0000"/>
     <use xlink:href="#m9217ec7014" x="256.848697" y="226.544377" style="fill: #ff0000; stroke: #ff0000"/>
     <use xlink:href="#m9217ec7014" x="183.638263" y="184.434347" style="fill: #ff0000; stroke: #ff0000"/>
     <use xlink:href="#m9217ec7014" x="312.07395" y="232.311627" style="fill: #ff0000; stroke: #ff0000"/>
     <use xlink:href="#m9217ec7014" x="204.572396" y="196.783604" style="fill: #ff0000; stroke: #ff0000"/>
     <use xlink:href="#m9217ec7014" x="204.586453" y="197.682432" style="fill: #ff0000; stroke: #ff0000"/>
     <use xlink:href="#m9217ec7014" x="282.94733" y="228.912826" style="fill: #ff0000; stroke: #ff0000"/>
     <use xlink:href="#m9217ec7014" x="271.312347" y="227.619846" style="fill: #ff0000; stroke: #ff0000"/>
     <use xlink:href="#m9217ec7014" x="247.810729" y="226.544364" style="fill: #ff0000; stroke: #ff0000"/>
     <use xlink:href="#m9217ec7014" x="249.061542" y="226.544364" style="fill: #ff0000; stroke: #ff0000"/>
     <use xlink:href="#m9217ec7014" x="204.581071" y="197.124323" style="fill: #ff0000; stroke: #ff0000"/>
     <use xlink:href="#m9217ec7014" x="250.866337" y="226.544367" style="fill: #ff0000; stroke: #ff0000"/>
     <use xlink:href="#m9217ec7014" x="255.995177" y="226.544372" style="fill: #ff0000; stroke: #ff0000"/>
     <use xlink:href="#m9217ec7014" x="252.745021" y="226.544369" style="fill: #ff0000; stroke: #ff0000"/>
     <use xlink:href="#m9217ec7014" x="248.607723" y="226.544364" style="fill: #ff0000; stroke: #ff0000"/>
     <use xlink:href="#m9217ec7014" x="183.640422" y="184.936451" style="fill: #ff0000; stroke: #ff0000"/>
     <use xlink:href="#m9217ec7014" x="269.619855" y="227.619833" style="fill: #ff0000; stroke: #ff0000"/>
     <use xlink:href="#m9217ec7014" x="250.026521" y="226.544365" style="fill: #ff0000; stroke: #ff0000"/>
     <use xlink:href="#m9217ec7014" x="269.370155" y="227.619829" style="fill: #ff0000; stroke: #ff0000"/>
     <use xlink:href="#m9217ec7014" x="310.160021" y="230.462267" style="fill: #ff0000; stroke: #ff0000"/>
     <use xlink:href="#m9217ec7014" x="258.913806" y="226.544391" style="fill: #ff0000; stroke: #ff0000"/>
     <use xlink:href="#m9217ec7014" x="204.57123" y="196.43261" style="fill: #ff0000; stroke: #ff0000"/>
     <use xlink:href="#m9217ec7014" x="270.523322" y="227.619843" style="fill: #ff0000; stroke: #ff0000"/>
     <use xlink:href="#m9217ec7014" x="310.599218" y="230.462268" style="fill: #ff0000; stroke: #ff0000"/>
     <use xlink:href="#m9217ec7014" x="256.476627" y="226.544376" style="fill: #ff0000; stroke: #ff0000"/>
     <use xlink:href="#m9217ec7014" x="250.195463" y="226.544366" style="fill: #ff0000; stroke: #ff0000"/>
     <use xlink:href="#m9217ec7014" x="183.633455" y="184.261869" style="fill: #ff0000; stroke: #ff0000"/>
     <use xlink:href="#m9217ec7014" x="283.619975" y="228.912826" style="fill: #ff0000; stroke: #ff0000"/>
     <use xlink:href="#m9217ec7014" x="204.578503" y="197.086886" style="fill: #ff0000; stroke: #ff0000"/>
     <use xlink:href="#m9217ec7014" x="311.027713" y="230.462269" style="fill: #ff0000; stroke: #ff0000"/>
     <use xlink:href="#m9217ec7014" x="270.546987" y="227.619843" style="fill: #ff0000; stroke: #ff0000"/>
     <use xlink:href="#m9217ec7014" x="316.75977" y="234.508505" style="fill: #ff0000; stroke: #ff0000"/>
     <use xlink:href="#m9217ec7014" x="259.238727" y="226.544392" style="fill: #ff0000; stroke: #ff0000"/>
     <use xlink:href="#m9217ec7014" x="252.88673" y="226.544369" style="fill: #ff0000; stroke: #ff0000"/>
    </g>
   </g>
   <g id="PathCollection_2">
    <defs>
     <path id="m6d9eb7e066" d="M 0 3 
C 0.795609 3 1.55874 2.683901 2.12132 2.12132 
C 2.683901 1.55874 3 0.795609 3 0 
C 3 -0.795609 2.683901 -1.55874 2.12132 -2.12132 
C 1.55874 -2.683901 0.795609 -3 0 -3 
C -0.795609 -3 -1.55874 -2.683901 -2.12132 -2.12132 
C -2.683901 -1.55874 -3 -0.795609 -3 0 
C -3 0.795609 -2.683901 1.55874 -2.12132 2.12132 
C -1.55874 2.683901 -0.795609 3 0 3 
z
" style="stroke: #0000ff"/>
    </defs>
    <g clip-path="url(#p5e4f921e38)">
     <use xlink:href="#m6d9eb7e066" x="412.739245" y="299.757176" style="fill: #0000ff; stroke: #0000ff"/>
     <use xlink:href="#m6d9eb7e066" x="78.605859" y="156.467233" style="fill: #0000ff; stroke: #0000ff"/>
     <use xlink:href="#m6d9eb7e066" x="330.528407" y="284.30912" style="fill: #0000ff; stroke: #0000ff"/>
     <use xlink:href="#m6d9eb7e066" x="330.500962" y="252.454635" style="fill: #0000ff; stroke: #0000ff"/>
     <use xlink:href="#m6d9eb7e066" x="162.633893" y="164.978948" style="fill: #0000ff; stroke: #0000ff"/>
     <use xlink:href="#m6d9eb7e066" x="204.641939" y="210.420615" style="fill: #0000ff; stroke: #0000ff"/>
     <use xlink:href="#m6d9eb7e066" x="120.621116" y="164.193413" style="fill: #0000ff; stroke: #0000ff"/>
     <use xlink:href="#m6d9eb7e066" x="208.302257" y="225.652343" style="fill: #0000ff; stroke: #0000ff"/>
     <use xlink:href="#m6d9eb7e066" x="309.551157" y="230.462267" style="fill: #0000ff; stroke: #0000ff"/>
     <use xlink:href="#m6d9eb7e066" x="283.759625" y="228.912827" style="fill: #0000ff; stroke: #0000ff"/>
     <use xlink:href="#m6d9eb7e066" x="246.057939" y="226.544364" style="fill: #0000ff; stroke: #0000ff"/>
     <use xlink:href="#m6d9eb7e066" x="221.078748" y="225.652378" style="fill: #0000ff; stroke: #0000ff"/>
     <use xlink:href="#m6d9eb7e066" x="99.587814" y="159.515284" style="fill: #0000ff; stroke: #0000ff"/>
     <use xlink:href="#m6d9eb7e066" x="162.635289" y="178.445131" style="fill: #0000ff; stroke: #0000ff"/>
     <use xlink:href="#m6d9eb7e066" x="79.00403" y="158.713333" style="fill: #0000ff; stroke: #0000ff"/>
     <use xlink:href="#m6d9eb7e066" x="162.635066" y="172.84945" style="fill: #0000ff; stroke: #0000ff"/>
     <use xlink:href="#m6d9eb7e066" x="194.143571" y="192.846122" style="fill: #0000ff; stroke: #0000ff"/>
     <use xlink:href="#m6d9eb7e066" x="183.508714" y="178.445159" style="fill: #0000ff; stroke: #0000ff"/>
     <use xlink:href="#m6d9eb7e066" x="204.483922" y="196.394341" style="fill: #0000ff; stroke: #0000ff"/>
     <use xlink:href="#m6d9eb7e066" x="204.588438" y="197.769138" style="fill: #0000ff; stroke: #0000ff"/>
     <use xlink:href="#m6d9eb7e066" x="204.640996" y="205.152304" style="fill: #0000ff; stroke: #0000ff"/>
     <use xlink:href="#m6d9eb7e066" x="317.862163" y="240.14855" style="fill: #0000ff; stroke: #0000ff"/>
     <use xlink:href="#m6d9eb7e066" x="194.142349" y="191.720494" style="fill: #0000ff; stroke: #0000ff"/>
     <use xlink:href="#m6d9eb7e066" x="183.641524" y="189.800826" style="fill: #0000ff; stroke: #0000ff"/>
     <use xlink:href="#m6d9eb7e066" x="112.334167" y="162.605507" style="fill: #0000ff; stroke: #0000ff"/>
     <use xlink:href="#m6d9eb7e066" x="282.124395" y="228.912825" style="fill: #0000ff; stroke: #0000ff"/>
     <use xlink:href="#m6d9eb7e066" x="317.601998" y="237.103535" style="fill: #0000ff; stroke: #0000ff"/>
     <use xlink:href="#m6d9eb7e066" x="272.006965" y="227.619857" style="fill: #0000ff; stroke: #0000ff"/>
     <use xlink:href="#m6d9eb7e066" x="110.076651" y="161.911396" style="fill: #0000ff; stroke: #0000ff"/>
     <use xlink:href="#m6d9eb7e066" x="183.557939" y="181.040197" style="fill: #0000ff; stroke: #0000ff"/>
     <use xlink:href="#m6d9eb7e066" x="220.515855" y="225.652345" style="fill: #0000ff; stroke: #0000ff"/>
     <use xlink:href="#m6d9eb7e066" x="204.641361" y="205.15231" style="fill: #0000ff; stroke: #0000ff"/>
     <use xlink:href="#m6d9eb7e066" x="208.334097" y="225.652344" style="fill: #0000ff; stroke: #0000ff"/>
     <use xlink:href="#m6d9eb7e066" x="120.621106" y="163.438766" style="fill: #0000ff; stroke: #0000ff"/>
     <use xlink:href="#m6d9eb7e066" x="261.249942" y="227.619825" style="fill: #0000ff; stroke: #0000ff"/>
     <use xlink:href="#m6d9eb7e066" x="327.531583" y="240.148565" style="fill: #0000ff; stroke: #0000ff"/>
     <use xlink:href="#m6d9eb7e066" x="183.641108" y="184.936463" style="fill: #0000ff; stroke: #0000ff"/>
     <use xlink:href="#m6d9eb7e066" x="183.641226" y="189.800793" style="fill: #0000ff; stroke: #0000ff"/>
     <use xlink:href="#m6d9eb7e066" x="330.460958" y="247.784422" style="fill: #0000ff; stroke: #0000ff"/>
     <use xlink:href="#m6d9eb7e066" x="330.366385" y="247.784226" style="fill: #0000ff; stroke: #0000ff"/>
     <use xlink:href="#m6d9eb7e066" x="329.362234" y="243.693841" style="fill: #0000ff; stroke: #0000ff"/>
     <use xlink:href="#m6d9eb7e066" x="329.276999" y="240.148566" style="fill: #0000ff; stroke: #0000ff"/>
     <use xlink:href="#m6d9eb7e066" x="100.706582" y="161.787823" style="fill: #0000ff; stroke: #0000ff"/>
     <use xlink:href="#m6d9eb7e066" x="162.635282" y="176.248255" style="fill: #0000ff; stroke: #0000ff"/>
     <use xlink:href="#m6d9eb7e066" x="314.883636" y="232.311628" style="fill: #0000ff; stroke: #0000ff"/>
     <use xlink:href="#m6d9eb7e066" x="329.31009" y="243.69383" style="fill: #0000ff; stroke: #0000ff"/>
     <use xlink:href="#m6d9eb7e066" x="268.554952" y="227.619827" style="fill: #0000ff; stroke: #0000ff"/>
     <use xlink:href="#m6d9eb7e066" x="162.635164" y="174.477922" style="fill: #0000ff; stroke: #0000ff"/>
     <use xlink:href="#m6d9eb7e066" x="183.619203" y="184.0852" style="fill: #0000ff; stroke: #0000ff"/>
     <use xlink:href="#m6d9eb7e066" x="316.365613" y="234.508504" style="fill: #0000ff; stroke: #0000ff"/>
     <use xlink:href="#m6d9eb7e066" x="317.118561" y="234.508507" style="fill: #0000ff; stroke: #0000ff"/>
     <use xlink:href="#m6d9eb7e066" x="183.552509" y="178.445159" style="fill: #0000ff; stroke: #0000ff"/>
     <use xlink:href="#m6d9eb7e066" x="311.423048" y="232.311627" style="fill: #0000ff; stroke: #0000ff"/>
     <use xlink:href="#m6d9eb7e066" x="78.60695" y="157.672061" style="fill: #0000ff; stroke: #0000ff"/>
     <use xlink:href="#m6d9eb7e066" x="311.390977" y="230.46227" style="fill: #0000ff; stroke: #0000ff"/>
     <use xlink:href="#m6d9eb7e066" x="259.60078" y="226.544414" style="fill: #0000ff; stroke: #0000ff"/>
     <use xlink:href="#m6d9eb7e066" x="99.599361" y="161.031401" style="fill: #0000ff; stroke: #0000ff"/>
     <use xlink:href="#m6d9eb7e066" x="100.452069" y="161.765303" style="fill: #0000ff; stroke: #0000ff"/>
     <use xlink:href="#m6d9eb7e066" x="78.605911" y="156.783171" style="fill: #0000ff; stroke: #0000ff"/>
     <use xlink:href="#m6d9eb7e066" x="312.994502" y="232.311628" style="fill: #0000ff; stroke: #0000ff"/>
     <use xlink:href="#m6d9eb7e066" x="255.166429" y="226.54437" style="fill: #0000ff; stroke: #0000ff"/>
     <use xlink:href="#m6d9eb7e066" x="194.143516" y="191.721144" style="fill: #0000ff; stroke: #0000ff"/>
     <use xlink:href="#m6d9eb7e066" x="99.600843" y="161.037698" style="fill: #0000ff; stroke: #0000ff"/>
     <use xlink:href="#m6d9eb7e066" x="253.317658" y="226.544369" style="fill: #0000ff; stroke: #0000ff"/>
     <use xlink:href="#m6d9eb7e066" x="258.213231" y="226.544383" style="fill: #0000ff; stroke: #0000ff"/>
     <use xlink:href="#m6d9eb7e066" x="251.583969" y="226.544368" style="fill: #0000ff; stroke: #0000ff"/>
     <use xlink:href="#m6d9eb7e066" x="247.183827" y="226.544364" style="fill: #0000ff; stroke: #0000ff"/>
     <use xlink:href="#m6d9eb7e066" x="256.848697" y="226.544377" style="fill: #0000ff; stroke: #0000ff"/>
     <use xlink:href="#m6d9eb7e066" x="183.638263" y="184.434347" style="fill: #0000ff; stroke: #0000ff"/>
     <use xlink:href="#m6d9eb7e066" x="312.07395" y="232.311627" style="fill: #0000ff; stroke: #0000ff"/>
     <use xlink:href="#m6d9eb7e066" x="204.572396" y="196.783604" style="fill: #0000ff; stroke: #0000ff"/>
     <use xlink:href="#m6d9eb7e066" x="204.586453" y="197.682432" style="fill: #0000ff; stroke: #0000ff"/>
     <use xlink:href="#m6d9eb7e066" x="282.94733" y="228.912826" style="fill: #0000ff; stroke: #0000ff"/>
     <use xlink:href="#m6d9eb7e066" x="271.312347" y="227.619846" style="fill: #0000ff; stroke: #0000ff"/>
     <use xlink:href="#m6d9eb7e066" x="247.810729" y="226.544364" style="fill: #0000ff; stroke: #0000ff"/>
     <use xlink:href="#m6d9eb7e066" x="249.061542" y="226.544364" style="fill: #0000ff; stroke: #0000ff"/>
     <use xlink:href="#m6d9eb7e066" x="204.581071" y="197.124323" style="fill: #0000ff; stroke: #0000ff"/>
     <use xlink:href="#m6d9eb7e066" x="250.866337" y="226.544367" style="fill: #0000ff; stroke: #0000ff"/>
     <use xlink:href="#m6d9eb7e066" x="255.995177" y="226.544372" style="fill: #0000ff; stroke: #0000ff"/>
     <use xlink:href="#m6d9eb7e066" x="252.745021" y="226.544369" style="fill: #0000ff; stroke: #0000ff"/>
     <use xlink:href="#m6d9eb7e066" x="248.607723" y="226.544364" style="fill: #0000ff; stroke: #0000ff"/>
     <use xlink:href="#m6d9eb7e066" x="183.640422" y="184.936451" style="fill: #0000ff; stroke: #0000ff"/>
     <use xlink:href="#m6d9eb7e066" x="269.619855" y="227.619833" style="fill: #0000ff; stroke: #0000ff"/>
     <use xlink:href="#m6d9eb7e066" x="250.026521" y="226.544365" style="fill: #0000ff; stroke: #0000ff"/>
     <use xlink:href="#m6d9eb7e066" x="269.370155" y="227.619829" style="fill: #0000ff; stroke: #0000ff"/>
     <use xlink:href="#m6d9eb7e066" x="310.160021" y="230.462267" style="fill: #0000ff; stroke: #0000ff"/>
     <use xlink:href="#m6d9eb7e066" x="258.913806" y="226.544391" style="fill: #0000ff; stroke: #0000ff"/>
     <use xlink:href="#m6d9eb7e066" x="204.57123" y="196.43261" style="fill: #0000ff; stroke: #0000ff"/>
     <use xlink:href="#m6d9eb7e066" x="270.523322" y="227.619843" style="fill: #0000ff; stroke: #0000ff"/>
     <use xlink:href="#m6d9eb7e066" x="310.599218" y="230.462268" style="fill: #0000ff; stroke: #0000ff"/>
     <use xlink:href="#m6d9eb7e066" x="256.476627" y="226.544376" style="fill: #0000ff; stroke: #0000ff"/>
     <use xlink:href="#m6d9eb7e066" x="250.195463" y="226.544366" style="fill: #0000ff; stroke: #0000ff"/>
     <use xlink:href="#m6d9eb7e066" x="183.633455" y="184.261869" style="fill: #0000ff; stroke: #0000ff"/>
     <use xlink:href="#m6d9eb7e066" x="283.619975" y="228.912826" style="fill: #0000ff; stroke: #0000ff"/>
     <use xlink:href="#m6d9eb7e066" x="204.578503" y="197.086886" style="fill: #0000ff; stroke: #0000ff"/>
     <use xlink:href="#m6d9eb7e066" x="311.027713" y="230.462269" style="fill: #0000ff; stroke: #0000ff"/>
     <use xlink:href="#m6d9eb7e066" x="270.546987" y="227.619843" style="fill: #0000ff; stroke: #0000ff"/>
     <use xlink:href="#m6d9eb7e066" x="316.75977" y="234.508505" style="fill: #0000ff; stroke: #0000ff"/>
     <use xlink:href="#m6d9eb7e066" x="259.238727" y="226.544392" style="fill: #0000ff; stroke: #0000ff"/>
     <use xlink:href="#m6d9eb7e066" x="252.88673" y="226.544369" style="fill: #0000ff; stroke: #0000ff"/>
    </g>
   </g>
   <g id="matplotlib.axis_1">
    <g id="xtick_1">
     <g id="line2d_1">
      <defs>
       <path id="m8a058d9d1c" d="M 0 0 
L 0 3.5 
" style="stroke: #000000; stroke-width: 0.8"/>
      </defs>
      <g>
       <use xlink:href="#m8a058d9d1c" x="68.103529" y="307.584" style="stroke: #000000; stroke-width: 0.8"/>
      </g>
     </g>
     <g id="text_1">
      <!-- 0 -->
      <g transform="translate(64.922279 322.182437)scale(0.1 -0.1)">
       <defs>
        <path id="DejaVuSans-30" d="M 2034 4250 
Q 1547 4250 1301 3770 
Q 1056 3291 1056 2328 
Q 1056 1369 1301 889 
Q 1547 409 2034 409 
Q 2525 409 2770 889 
Q 3016 1369 3016 2328 
Q 3016 3291 2770 3770 
Q 2525 4250 2034 4250 
z
M 2034 4750 
Q 2819 4750 3233 4129 
Q 3647 3509 3647 2328 
Q 3647 1150 3233 529 
Q 2819 -91 2034 -91 
Q 1250 -91 836 529 
Q 422 1150 422 2328 
Q 422 3509 836 4129 
Q 1250 4750 2034 4750 
z
" transform="scale(0.015625)"/>
       </defs>
       <use xlink:href="#DejaVuSans-30"/>
      </g>
     </g>
    </g>
    <g id="xtick_2">
     <g id="line2d_2">
      <g>
       <use xlink:href="#m8a058d9d1c" x="173.138824" y="307.584" style="stroke: #000000; stroke-width: 0.8"/>
      </g>
     </g>
     <g id="text_2">
      <!-- 1 -->
      <g transform="translate(169.957574 322.182437)scale(0.1 -0.1)">
       <defs>
        <path id="DejaVuSans-31" d="M 794 531 
L 1825 531 
L 1825 4091 
L 703 3866 
L 703 4441 
L 1819 4666 
L 2450 4666 
L 2450 531 
L 3481 531 
L 3481 0 
L 794 0 
L 794 531 
z
" transform="scale(0.015625)"/>
       </defs>
       <use xlink:href="#DejaVuSans-31"/>
      </g>
     </g>
    </g>
    <g id="xtick_3">
     <g id="line2d_3">
      <g>
       <use xlink:href="#m8a058d9d1c" x="278.174118" y="307.584" style="stroke: #000000; stroke-width: 0.8"/>
      </g>
     </g>
     <g id="text_3">
      <!-- 2 -->
      <g transform="translate(274.992868 322.182437)scale(0.1 -0.1)">
       <defs>
        <path id="DejaVuSans-32" d="M 1228 531 
L 3431 531 
L 3431 0 
L 469 0 
L 469 531 
Q 828 903 1448 1529 
Q 2069 2156 2228 2338 
Q 2531 2678 2651 2914 
Q 2772 3150 2772 3378 
Q 2772 3750 2511 3984 
Q 2250 4219 1831 4219 
Q 1534 4219 1204 4116 
Q 875 4013 500 3803 
L 500 4441 
Q 881 4594 1212 4672 
Q 1544 4750 1819 4750 
Q 2544 4750 2975 4387 
Q 3406 4025 3406 3419 
Q 3406 3131 3298 2873 
Q 3191 2616 2906 2266 
Q 2828 2175 2409 1742 
Q 1991 1309 1228 531 
z
" transform="scale(0.015625)"/>
       </defs>
       <use xlink:href="#DejaVuSans-32"/>
      </g>
     </g>
    </g>
    <g id="xtick_4">
     <g id="line2d_4">
      <g>
       <use xlink:href="#m8a058d9d1c" x="383.209412" y="307.584" style="stroke: #000000; stroke-width: 0.8"/>
      </g>
     </g>
     <g id="text_4">
      <!-- 3 -->
      <g transform="translate(380.028162 322.182437)scale(0.1 -0.1)">
       <defs>
        <path id="DejaVuSans-33" d="M 2597 2516 
Q 3050 2419 3304 2112 
Q 3559 1806 3559 1356 
Q 3559 666 3084 287 
Q 2609 -91 1734 -91 
Q 1441 -91 1130 -33 
Q 819 25 488 141 
L 488 750 
Q 750 597 1062 519 
Q 1375 441 1716 441 
Q 2309 441 2620 675 
Q 2931 909 2931 1356 
Q 2931 1769 2642 2001 
Q 2353 2234 1838 2234 
L 1294 2234 
L 1294 2753 
L 1863 2753 
Q 2328 2753 2575 2939 
Q 2822 3125 2822 3475 
Q 2822 3834 2567 4026 
Q 2313 4219 1838 4219 
Q 1578 4219 1281 4162 
Q 984 4106 628 3988 
L 628 4550 
Q 988 4650 1302 4700 
Q 1616 4750 1894 4750 
Q 2613 4750 3031 4423 
Q 3450 4097 3450 3541 
Q 3450 3153 3228 2886 
Q 3006 2619 2597 2516 
z
" transform="scale(0.015625)"/>
       </defs>
       <use xlink:href="#DejaVuSans-33"/>
      </g>
     </g>
    </g>
   </g>
   <g id="matplotlib.axis_2">
    <g id="ytick_1">
     <g id="line2d_5">
      <defs>
       <path id="m5e7f5d7d26" d="M 0 0 
L -3.5 0 
" style="stroke: #000000; stroke-width: 0.8"/>
      </defs>
      <g>
       <use xlink:href="#m5e7f5d7d26" x="57.6" y="299.757176" style="stroke: #000000; stroke-width: 0.8"/>
      </g>
     </g>
     <g id="text_5">
      <!-- 0 -->
      <g transform="translate(44.2375 303.556395)scale(0.1 -0.1)">
       <use xlink:href="#DejaVuSans-30"/>
      </g>
     </g>
    </g>
    <g id="ytick_2">
     <g id="line2d_6">
      <g>
       <use xlink:href="#m5e7f5d7d26" x="57.6" y="221.488941" style="stroke: #000000; stroke-width: 0.8"/>
      </g>
     </g>
     <g id="text_6">
      <!-- 1 -->
      <g transform="translate(44.2375 225.28816)scale(0.1 -0.1)">
       <use xlink:href="#DejaVuSans-31"/>
      </g>
     </g>
    </g>
    <g id="ytick_3">
     <g id="line2d_7">
      <g>
       <use xlink:href="#m5e7f5d7d26" x="57.6" y="143.220706" style="stroke: #000000; stroke-width: 0.8"/>
      </g>
     </g>
     <g id="text_7">
      <!-- 2 -->
      <g transform="translate(44.2375 147.019925)scale(0.1 -0.1)">
       <use xlink:href="#DejaVuSans-32"/>
      </g>
     </g>
    </g>
    <g id="ytick_4">
     <g id="line2d_8">
      <g>
       <use xlink:href="#m5e7f5d7d26" x="57.6" y="64.952471" style="stroke: #000000; stroke-width: 0.8"/>
      </g>
     </g>
     <g id="text_8">
      <!-- 3 -->
      <g transform="translate(44.2375 68.751689)scale(0.1 -0.1)">
       <use xlink:href="#DejaVuSans-33"/>
      </g>
     </g>
    </g>
   </g>
   <g id="patch_3">
    <path d="M 57.6 307.584 
L 57.6 41.472 
" style="fill: none; stroke: #000000; stroke-width: 0.8; stroke-linejoin: miter; stroke-linecap: square"/>
   </g>
   <g id="patch_4">
    <path d="M 414.72 307.584 
L 414.72 41.472 
" style="fill: none; stroke: #000000; stroke-width: 0.8; stroke-linejoin: miter; stroke-linecap: square"/>
   </g>
   <g id="patch_5">
    <path d="M 57.6 307.584 
L 414.72 307.584 
" style="fill: none; stroke: #000000; stroke-width: 0.8; stroke-linejoin: miter; stroke-linecap: square"/>
   </g>
   <g id="patch_6">
    <path d="M 57.6 41.472 
L 414.72 41.472 
" style="fill: none; stroke: #000000; stroke-width: 0.8; stroke-linejoin: miter; stroke-linecap: square"/>
   </g>
   <g id="text_9">
    <!-- 010_n_1998 AREA: 3.331 -->
    <g transform="translate(160.559062 35.472)scale(0.12 -0.12)">
     <defs>
      <path id="DejaVuSans-5f" d="M 3263 -1063 
L 3263 -1509 
L -63 -1509 
L -63 -1063 
L 3263 -1063 
z
" transform="scale(0.015625)"/>
      <path id="DejaVuSans-6e" d="M 3513 2113 
L 3513 0 
L 2938 0 
L 2938 2094 
Q 2938 2591 2744 2837 
Q 2550 3084 2163 3084 
Q 1697 3084 1428 2787 
Q 1159 2491 1159 1978 
L 1159 0 
L 581 0 
L 581 3500 
L 1159 3500 
L 1159 2956 
Q 1366 3272 1645 3428 
Q 1925 3584 2291 3584 
Q 2894 3584 3203 3211 
Q 3513 2838 3513 2113 
z
" transform="scale(0.015625)"/>
      <path id="DejaVuSans-39" d="M 703 97 
L 703 672 
Q 941 559 1184 500 
Q 1428 441 1663 441 
Q 2288 441 2617 861 
Q 2947 1281 2994 2138 
Q 2813 1869 2534 1725 
Q 2256 1581 1919 1581 
Q 1219 1581 811 2004 
Q 403 2428 403 3163 
Q 403 3881 828 4315 
Q 1253 4750 1959 4750 
Q 2769 4750 3195 4129 
Q 3622 3509 3622 2328 
Q 3622 1225 3098 567 
Q 2575 -91 1691 -91 
Q 1453 -91 1209 -44 
Q 966 3 703 97 
z
M 1959 2075 
Q 2384 2075 2632 2365 
Q 2881 2656 2881 3163 
Q 2881 3666 2632 3958 
Q 2384 4250 1959 4250 
Q 1534 4250 1286 3958 
Q 1038 3666 1038 3163 
Q 1038 2656 1286 2365 
Q 1534 2075 1959 2075 
z
" transform="scale(0.015625)"/>
      <path id="DejaVuSans-38" d="M 2034 2216 
Q 1584 2216 1326 1975 
Q 1069 1734 1069 1313 
Q 1069 891 1326 650 
Q 1584 409 2034 409 
Q 2484 409 2743 651 
Q 3003 894 3003 1313 
Q 3003 1734 2745 1975 
Q 2488 2216 2034 2216 
z
M 1403 2484 
Q 997 2584 770 2862 
Q 544 3141 544 3541 
Q 544 4100 942 4425 
Q 1341 4750 2034 4750 
Q 2731 4750 3128 4425 
Q 3525 4100 3525 3541 
Q 3525 3141 3298 2862 
Q 3072 2584 2669 2484 
Q 3125 2378 3379 2068 
Q 3634 1759 3634 1313 
Q 3634 634 3220 271 
Q 2806 -91 2034 -91 
Q 1263 -91 848 271 
Q 434 634 434 1313 
Q 434 1759 690 2068 
Q 947 2378 1403 2484 
z
M 1172 3481 
Q 1172 3119 1398 2916 
Q 1625 2713 2034 2713 
Q 2441 2713 2670 2916 
Q 2900 3119 2900 3481 
Q 2900 3844 2670 4047 
Q 2441 4250 2034 4250 
Q 1625 4250 1398 4047 
Q 1172 3844 1172 3481 
z
" transform="scale(0.015625)"/>
      <path id="DejaVuSans-20" transform="scale(0.015625)"/>
      <path id="DejaVuSans-41" d="M 2188 4044 
L 1331 1722 
L 3047 1722 
L 2188 4044 
z
M 1831 4666 
L 2547 4666 
L 4325 0 
L 3669 0 
L 3244 1197 
L 1141 1197 
L 716 0 
L 50 0 
L 1831 4666 
z
" transform="scale(0.015625)"/>
      <path id="DejaVuSans-52" d="M 2841 2188 
Q 3044 2119 3236 1894 
Q 3428 1669 3622 1275 
L 4263 0 
L 3584 0 
L 2988 1197 
Q 2756 1666 2539 1819 
Q 2322 1972 1947 1972 
L 1259 1972 
L 1259 0 
L 628 0 
L 628 4666 
L 2053 4666 
Q 2853 4666 3247 4331 
Q 3641 3997 3641 3322 
Q 3641 2881 3436 2590 
Q 3231 2300 2841 2188 
z
M 1259 4147 
L 1259 2491 
L 2053 2491 
Q 2509 2491 2742 2702 
Q 2975 2913 2975 3322 
Q 2975 3731 2742 3939 
Q 2509 4147 2053 4147 
L 1259 4147 
z
" transform="scale(0.015625)"/>
      <path id="DejaVuSans-45" d="M 628 4666 
L 3578 4666 
L 3578 4134 
L 1259 4134 
L 1259 2753 
L 3481 2753 
L 3481 2222 
L 1259 2222 
L 1259 531 
L 3634 531 
L 3634 0 
L 628 0 
L 628 4666 
z
" transform="scale(0.015625)"/>
      <path id="DejaVuSans-3a" d="M 750 794 
L 1409 794 
L 1409 0 
L 750 0 
L 750 794 
z
M 750 3309 
L 1409 3309 
L 1409 2516 
L 750 2516 
L 750 3309 
z
" transform="scale(0.015625)"/>
      <path id="DejaVuSans-2e" d="M 684 794 
L 1344 794 
L 1344 0 
L 684 0 
L 684 794 
z
" transform="scale(0.015625)"/>
     </defs>
     <use xlink:href="#DejaVuSans-30"/>
     <use xlink:href="#DejaVuSans-31" x="63.623047"/>
     <use xlink:href="#DejaVuSans-30" x="127.246094"/>
     <use xlink:href="#DejaVuSans-5f" x="190.869141"/>
     <use xlink:href="#DejaVuSans-6e" x="240.869141"/>
     <use xlink:href="#DejaVuSans-5f" x="304.248047"/>
     <use xlink:href="#DejaVuSans-31" x="354.248047"/>
     <use xlink:href="#DejaVuSans-39" x="417.871094"/>
     <use xlink:href="#DejaVuSans-39" x="481.494141"/>
     <use xlink:href="#DejaVuSans-38" x="545.117188"/>
     <use xlink:href="#DejaVuSans-20" x="608.740234"/>
     <use xlink:href="#DejaVuSans-41" x="640.527344"/>
     <use xlink:href="#DejaVuSans-52" x="708.935547"/>
     <use xlink:href="#DejaVuSans-45" x="778.417969"/>
     <use xlink:href="#DejaVuSans-41" x="841.601562"/>
     <use xlink:href="#DejaVuSans-3a" x="908.259766"/>
     <use xlink:href="#DejaVuSans-20" x="941.951172"/>
     <use xlink:href="#DejaVuSans-33" x="973.738281"/>
     <use xlink:href="#DejaVuSans-2e" x="1037.361328"/>
     <use xlink:href="#DejaVuSans-33" x="1069.148438"/>
     <use xlink:href="#DejaVuSans-33" x="1132.771484"/>
     <use xlink:href="#DejaVuSans-31" x="1196.394531"/>
    </g>
   </g>
  </g>
 </g>
 <defs>
  <clipPath id="p5e4f921e38">
   <rect x="57.6" y="41.472" width="357.12" height="266.112"/>
  </clipPath>
 </defs>
</svg>
