<?xml version="1.0" encoding="utf-8" standalone="no"?>
<!DOCTYPE svg PUBLIC "-//W3C//DTD SVG 1.1//EN"
  "http://www.w3.org/Graphics/SVG/1.1/DTD/svg11.dtd">
<svg xmlns:xlink="http://www.w3.org/1999/xlink" width="460.8pt" height="345.6pt" viewBox="0 0 460.8 345.6" xmlns="http://www.w3.org/2000/svg" version="1.1">
 <metadata>
  <rdf:RDF xmlns:dc="http://purl.org/dc/elements/1.1/" xmlns:cc="http://creativecommons.org/ns#" xmlns:rdf="http://www.w3.org/1999/02/22-rdf-syntax-ns#">
   <cc:Work>
    <dc:type rdf:resource="http://purl.org/dc/dcmitype/StillImage"/>
    <dc:date>2023-05-29T01:39:11.253214</dc:date>
    <dc:format>image/svg+xml</dc:format>
    <dc:creator>
     <cc:Agent>
      <dc:title>Matplotlib v3.5.3, https://matplotlib.org/</dc:title>
     </cc:Agent>
    </dc:creator>
   </cc:Work>
  </rdf:RDF>
 </metadata>
 <defs>
  <style type="text/css">*{stroke-linejoin: round; stroke-linecap: butt}</style>
 </defs>
 <g id="figure_1">
  <g id="patch_1">
   <path d="M 0 345.6 
L 460.8 345.6 
L 460.8 0 
L 0 0 
z
" style="fill: #ffffff"/>
  </g>
  <g id="axes_1">
   <g id="patch_2">
    <path d="M 57.6 307.584 
L 414.72 307.584 
L 414.72 41.472 
L 57.6 41.472 
z
" style="fill: #ffffff"/>
   </g>
   <g id="PathCollection_1">
    <defs>
     <path id="mba5f017ddc" d="M 0 3 
C 0.795609 3 1.55874 2.683901 2.12132 2.12132 
C 2.683901 1.55874 3 0.795609 3 0 
C 3 -0.795609 2.683901 -1.55874 2.12132 -2.12132 
C 1.55874 -2.683901 0.795609 -3 0 -3 
C -0.795609 -3 -1.55874 -2.683901 -2.12132 -2.12132 
C -2.683901 -1.55874 -3 -0.795609 -3 0 
C -3 0.795609 -2.683901 1.55874 -2.12132 2.12132 
C -1.55874 2.683901 -0.795609 3 0 3 
z
" style="stroke: #ff0000"/>
    </defs>
    <g clip-path="url(#p21d4d8e18d)">
     <use xlink:href="#mba5f017ddc" x="68.103529" y="109.550626" style="fill: #ff0000; stroke: #ff0000"/>
     <use xlink:href="#mba5f017ddc" x="278.174118" y="299.757176" style="fill: #ff0000; stroke: #ff0000"/>
     <use xlink:href="#mba5f017ddc" x="274.47419" y="242.320627" style="fill: #ff0000; stroke: #ff0000"/>
     <use xlink:href="#mba5f017ddc" x="71.266228" y="128.61673" style="fill: #ff0000; stroke: #ff0000"/>
     <use xlink:href="#mba5f017ddc" x="128.598731" y="149.777094" style="fill: #ff0000; stroke: #ff0000"/>
     <use xlink:href="#mba5f017ddc" x="127.866935" y="147.45831" style="fill: #ff0000; stroke: #ff0000"/>
     <use xlink:href="#mba5f017ddc" x="118.156022" y="144.387806" style="fill: #ff0000; stroke: #ff0000"/>
     <use xlink:href="#mba5f017ddc" x="117.132095" y="142.770345" style="fill: #ff0000; stroke: #ff0000"/>
     <use xlink:href="#mba5f017ddc" x="107.790925" y="139.96467" style="fill: #ff0000; stroke: #ff0000"/>
     <use xlink:href="#mba5f017ddc" x="107.348723" y="138.48214" style="fill: #ff0000; stroke: #ff0000"/>
     <use xlink:href="#mba5f017ddc" x="138.60725" y="152.986935" style="fill: #ff0000; stroke: #ff0000"/>
     <use xlink:href="#mba5f017ddc" x="86.697671" y="135.217304" style="fill: #ff0000; stroke: #ff0000"/>
     <use xlink:href="#mba5f017ddc" x="139.02916" y="157.29965" style="fill: #ff0000; stroke: #ff0000"/>
     <use xlink:href="#mba5f017ddc" x="97.136354" y="136.702186" style="fill: #ff0000; stroke: #ff0000"/>
     <use xlink:href="#mba5f017ddc" x="97.064677" y="136.046442" style="fill: #ff0000; stroke: #ff0000"/>
     <use xlink:href="#mba5f017ddc" x="146.703116" y="158.331847" style="fill: #ff0000; stroke: #ff0000"/>
     <use xlink:href="#mba5f017ddc" x="187.15934" y="183.483047" style="fill: #ff0000; stroke: #ff0000"/>
     <use xlink:href="#mba5f017ddc" x="173.028719" y="174.15493" style="fill: #ff0000; stroke: #ff0000"/>
     <use xlink:href="#mba5f017ddc" x="85.723974" y="133.791423" style="fill: #ff0000; stroke: #ff0000"/>
     <use xlink:href="#mba5f017ddc" x="179.056638" y="182.910992" style="fill: #ff0000; stroke: #ff0000"/>
     <use xlink:href="#mba5f017ddc" x="194.57029" y="188.56174" style="fill: #ff0000; stroke: #ff0000"/>
     <use xlink:href="#mba5f017ddc" x="223.729219" y="206.492551" style="fill: #ff0000; stroke: #ff0000"/>
     <use xlink:href="#mba5f017ddc" x="253.811787" y="226.536344" style="fill: #ff0000; stroke: #ff0000"/>
     <use xlink:href="#mba5f017ddc" x="220.470343" y="204.613114" style="fill: #ff0000; stroke: #ff0000"/>
     <use xlink:href="#mba5f017ddc" x="251.78117" y="225.549665" style="fill: #ff0000; stroke: #ff0000"/>
     <use xlink:href="#mba5f017ddc" x="80.17301" y="132.876253" style="fill: #ff0000; stroke: #ff0000"/>
     <use xlink:href="#mba5f017ddc" x="247.195559" y="222.263922" style="fill: #ff0000; stroke: #ff0000"/>
     <use xlink:href="#mba5f017ddc" x="155.034894" y="163.471398" style="fill: #ff0000; stroke: #ff0000"/>
     <use xlink:href="#mba5f017ddc" x="245.546027" y="219.939913" style="fill: #ff0000; stroke: #ff0000"/>
     <use xlink:href="#mba5f017ddc" x="159.116841" y="166.430599" style="fill: #ff0000; stroke: #ff0000"/>
     <use xlink:href="#mba5f017ddc" x="174.631487" y="175.957825" style="fill: #ff0000; stroke: #ff0000"/>
     <use xlink:href="#mba5f017ddc" x="213.649515" y="201.086222" style="fill: #ff0000; stroke: #ff0000"/>
     <use xlink:href="#mba5f017ddc" x="168.732968" y="172.993109" style="fill: #ff0000; stroke: #ff0000"/>
     <use xlink:href="#mba5f017ddc" x="192.568016" y="187.327437" style="fill: #ff0000; stroke: #ff0000"/>
     <use xlink:href="#mba5f017ddc" x="209.245289" y="200.705976" style="fill: #ff0000; stroke: #ff0000"/>
     <use xlink:href="#mba5f017ddc" x="218.429304" y="203.963225" style="fill: #ff0000; stroke: #ff0000"/>
     <use xlink:href="#mba5f017ddc" x="264.741077" y="239.329514" style="fill: #ff0000; stroke: #ff0000"/>
     <use xlink:href="#mba5f017ddc" x="77.296014" y="131.65164" style="fill: #ff0000; stroke: #ff0000"/>
     <use xlink:href="#mba5f017ddc" x="239.326643" y="214.986342" style="fill: #ff0000; stroke: #ff0000"/>
     <use xlink:href="#mba5f017ddc" x="236.885844" y="213.894199" style="fill: #ff0000; stroke: #ff0000"/>
     <use xlink:href="#mba5f017ddc" x="228.262451" y="209.341221" style="fill: #ff0000; stroke: #ff0000"/>
     <use xlink:href="#mba5f017ddc" x="270.026935" y="239.89751" style="fill: #ff0000; stroke: #ff0000"/>
     <use xlink:href="#mba5f017ddc" x="74.575629" y="131.062209" style="fill: #ff0000; stroke: #ff0000"/>
     <use xlink:href="#mba5f017ddc" x="201.355975" y="194.748117" style="fill: #ff0000; stroke: #ff0000"/>
     <use xlink:href="#mba5f017ddc" x="244.2206" y="218.241852" style="fill: #ff0000; stroke: #ff0000"/>
     <use xlink:href="#mba5f017ddc" x="72.842425" y="130.067628" style="fill: #ff0000; stroke: #ff0000"/>
     <use xlink:href="#mba5f017ddc" x="178.571282" y="179.026602" style="fill: #ff0000; stroke: #ff0000"/>
     <use xlink:href="#mba5f017ddc" x="265.992646" y="239.574897" style="fill: #ff0000; stroke: #ff0000"/>
     <use xlink:href="#mba5f017ddc" x="163.726928" y="169.66432" style="fill: #ff0000; stroke: #ff0000"/>
     <use xlink:href="#mba5f017ddc" x="217.123786" y="201.672938" style="fill: #ff0000; stroke: #ff0000"/>
     <use xlink:href="#mba5f017ddc" x="241.575419" y="218.028609" style="fill: #ff0000; stroke: #ff0000"/>
     <use xlink:href="#mba5f017ddc" x="198.600944" y="192.989355" style="fill: #ff0000; stroke: #ff0000"/>
     <use xlink:href="#mba5f017ddc" x="177.222385" y="176.829855" style="fill: #ff0000; stroke: #ff0000"/>
     <use xlink:href="#mba5f017ddc" x="188.108186" y="183.545442" style="fill: #ff0000; stroke: #ff0000"/>
     <use xlink:href="#mba5f017ddc" x="239.535504" y="217.237305" style="fill: #ff0000; stroke: #ff0000"/>
     <use xlink:href="#mba5f017ddc" x="197.9468" y="190.089416" style="fill: #ff0000; stroke: #ff0000"/>
     <use xlink:href="#mba5f017ddc" x="149.441215" y="160.394366" style="fill: #ff0000; stroke: #ff0000"/>
     <use xlink:href="#mba5f017ddc" x="271.620557" y="240.149344" style="fill: #ff0000; stroke: #ff0000"/>
     <use xlink:href="#mba5f017ddc" x="259.63281" y="234.50922" style="fill: #ff0000; stroke: #ff0000"/>
     <use xlink:href="#mba5f017ddc" x="162.441481" y="167.495607" style="fill: #ff0000; stroke: #ff0000"/>
     <use xlink:href="#mba5f017ddc" x="258.614427" y="230.66681" style="fill: #ff0000; stroke: #ff0000"/>
     <use xlink:href="#mba5f017ddc" x="203.858271" y="195.963638" style="fill: #ff0000; stroke: #ff0000"/>
     <use xlink:href="#mba5f017ddc" x="262.116636" y="237.118742" style="fill: #ff0000; stroke: #ff0000"/>
     <use xlink:href="#mba5f017ddc" x="259.573554" y="234.448371" style="fill: #ff0000; stroke: #ff0000"/>
     <use xlink:href="#mba5f017ddc" x="190.682239" y="185.383222" style="fill: #ff0000; stroke: #ff0000"/>
     <use xlink:href="#mba5f017ddc" x="207.293378" y="198.337085" style="fill: #ff0000; stroke: #ff0000"/>
     <use xlink:href="#mba5f017ddc" x="273.132251" y="242.074736" style="fill: #ff0000; stroke: #ff0000"/>
     <use xlink:href="#mba5f017ddc" x="166.536047" y="169.933305" style="fill: #ff0000; stroke: #ff0000"/>
     <use xlink:href="#mba5f017ddc" x="151.621101" y="162.616664" style="fill: #ff0000; stroke: #ff0000"/>
     <use xlink:href="#mba5f017ddc" x="138.729492" y="153.470176" style="fill: #ff0000; stroke: #ff0000"/>
     <use xlink:href="#mba5f017ddc" x="254.649326" y="230.366738" style="fill: #ff0000; stroke: #ff0000"/>
     <use xlink:href="#mba5f017ddc" x="235.061479" y="213.108864" style="fill: #ff0000; stroke: #ff0000"/>
     <use xlink:href="#mba5f017ddc" x="262.116793" y="237.118891" style="fill: #ff0000; stroke: #ff0000"/>
     <use xlink:href="#mba5f017ddc" x="148.286073" y="159.814758" style="fill: #ff0000; stroke: #ff0000"/>
     <use xlink:href="#mba5f017ddc" x="248.56304" y="224.304014" style="fill: #ff0000; stroke: #ff0000"/>
     <use xlink:href="#mba5f017ddc" x="179.05395" y="182.901496" style="fill: #ff0000; stroke: #ff0000"/>
     <use xlink:href="#mba5f017ddc" x="229.933075" y="210.754551" style="fill: #ff0000; stroke: #ff0000"/>
     <use xlink:href="#mba5f017ddc" x="199.817572" y="194.097964" style="fill: #ff0000; stroke: #ff0000"/>
     <use xlink:href="#mba5f017ddc" x="227.569694" y="207.207804" style="fill: #ff0000; stroke: #ff0000"/>
     <use xlink:href="#mba5f017ddc" x="151.449557" y="161.986034" style="fill: #ff0000; stroke: #ff0000"/>
     <use xlink:href="#mba5f017ddc" x="226.162202" y="207.003228" style="fill: #ff0000; stroke: #ff0000"/>
     <use xlink:href="#mba5f017ddc" x="209.143922" y="199.190178" style="fill: #ff0000; stroke: #ff0000"/>
     <use xlink:href="#mba5f017ddc" x="205.565435" y="197.671063" style="fill: #ff0000; stroke: #ff0000"/>
     <use xlink:href="#mba5f017ddc" x="156.629576" y="164.84738" style="fill: #ff0000; stroke: #ff0000"/>
     <use xlink:href="#mba5f017ddc" x="167.945962" y="170.591842" style="fill: #ff0000; stroke: #ff0000"/>
     <use xlink:href="#mba5f017ddc" x="157.875531" y="164.934687" style="fill: #ff0000; stroke: #ff0000"/>
     <use xlink:href="#mba5f017ddc" x="258.356358" y="230.664164" style="fill: #ff0000; stroke: #ff0000"/>
     <use xlink:href="#mba5f017ddc" x="79.614962" y="132.362094" style="fill: #ff0000; stroke: #ff0000"/>
     <use xlink:href="#mba5f017ddc" x="215.247801" y="201.551934" style="fill: #ff0000; stroke: #ff0000"/>
     <use xlink:href="#mba5f017ddc" x="254.713905" y="230.367403" style="fill: #ff0000; stroke: #ff0000"/>
     <use xlink:href="#mba5f017ddc" x="191.038223" y="185.65493" style="fill: #ff0000; stroke: #ff0000"/>
     <use xlink:href="#mba5f017ddc" x="233.461505" y="212.407334" style="fill: #ff0000; stroke: #ff0000"/>
     <use xlink:href="#mba5f017ddc" x="198.425517" y="190.117483" style="fill: #ff0000; stroke: #ff0000"/>
     <use xlink:href="#mba5f017ddc" x="232.544715" y="211.801728" style="fill: #ff0000; stroke: #ff0000"/>
     <use xlink:href="#mba5f017ddc" x="230.83931" y="211.291619" style="fill: #ff0000; stroke: #ff0000"/>
     <use xlink:href="#mba5f017ddc" x="162.763548" y="168.04935" style="fill: #ff0000; stroke: #ff0000"/>
     <use xlink:href="#mba5f017ddc" x="248.328653" y="224.223863" style="fill: #ff0000; stroke: #ff0000"/>
     <use xlink:href="#mba5f017ddc" x="204.369662" y="196.888406" style="fill: #ff0000; stroke: #ff0000"/>
     <use xlink:href="#mba5f017ddc" x="168.600262" y="172.031555" style="fill: #ff0000; stroke: #ff0000"/>
     <use xlink:href="#mba5f017ddc" x="177.485554" y="178.517104" style="fill: #ff0000; stroke: #ff0000"/>
    </g>
   </g>
   <g id="PathCollection_2">
    <defs>
     <path id="mf833dce54f" d="M 0 3 
C 0.795609 3 1.55874 2.683901 2.12132 2.12132 
C 2.683901 1.55874 3 0.795609 3 0 
C 3 -0.795609 2.683901 -1.55874 2.12132 -2.12132 
C 1.55874 -2.683901 0.795609 -3 0 -3 
C -0.795609 -3 -1.55874 -2.683901 -2.12132 -2.12132 
C -2.683901 -1.55874 -3 -0.795609 -3 0 
C -3 0.795609 -2.683901 1.55874 -2.12132 2.12132 
C -1.55874 2.683901 -0.795609 3 0 3 
z
" style="stroke: #0000ff"/>
    </defs>
    <g clip-path="url(#p21d4d8e18d)">
     <use xlink:href="#mf833dce54f" x="68.103529" y="109.550626" style="fill: #0000ff; stroke: #0000ff"/>
     <use xlink:href="#mf833dce54f" x="278.174118" y="299.757176" style="fill: #0000ff; stroke: #0000ff"/>
     <use xlink:href="#mf833dce54f" x="274.47419" y="242.320627" style="fill: #0000ff; stroke: #0000ff"/>
     <use xlink:href="#mf833dce54f" x="71.266228" y="128.61673" style="fill: #0000ff; stroke: #0000ff"/>
     <use xlink:href="#mf833dce54f" x="128.598731" y="149.777094" style="fill: #0000ff; stroke: #0000ff"/>
     <use xlink:href="#mf833dce54f" x="127.866935" y="147.45831" style="fill: #0000ff; stroke: #0000ff"/>
     <use xlink:href="#mf833dce54f" x="118.156022" y="144.387806" style="fill: #0000ff; stroke: #0000ff"/>
     <use xlink:href="#mf833dce54f" x="117.132095" y="142.770345" style="fill: #0000ff; stroke: #0000ff"/>
     <use xlink:href="#mf833dce54f" x="107.790925" y="139.96467" style="fill: #0000ff; stroke: #0000ff"/>
     <use xlink:href="#mf833dce54f" x="107.348723" y="138.48214" style="fill: #0000ff; stroke: #0000ff"/>
     <use xlink:href="#mf833dce54f" x="138.60725" y="152.986935" style="fill: #0000ff; stroke: #0000ff"/>
     <use xlink:href="#mf833dce54f" x="86.697671" y="135.217304" style="fill: #0000ff; stroke: #0000ff"/>
     <use xlink:href="#mf833dce54f" x="139.02916" y="157.29965" style="fill: #0000ff; stroke: #0000ff"/>
     <use xlink:href="#mf833dce54f" x="97.136354" y="136.702186" style="fill: #0000ff; stroke: #0000ff"/>
     <use xlink:href="#mf833dce54f" x="97.064677" y="136.046442" style="fill: #0000ff; stroke: #0000ff"/>
     <use xlink:href="#mf833dce54f" x="146.703116" y="158.331847" style="fill: #0000ff; stroke: #0000ff"/>
     <use xlink:href="#mf833dce54f" x="187.15934" y="183.483047" style="fill: #0000ff; stroke: #0000ff"/>
     <use xlink:href="#mf833dce54f" x="173.028719" y="174.15493" style="fill: #0000ff; stroke: #0000ff"/>
     <use xlink:href="#mf833dce54f" x="85.723974" y="133.791423" style="fill: #0000ff; stroke: #0000ff"/>
     <use xlink:href="#mf833dce54f" x="179.056638" y="182.910992" style="fill: #0000ff; stroke: #0000ff"/>
     <use xlink:href="#mf833dce54f" x="194.57029" y="188.56174" style="fill: #0000ff; stroke: #0000ff"/>
     <use xlink:href="#mf833dce54f" x="223.729219" y="206.492551" style="fill: #0000ff; stroke: #0000ff"/>
     <use xlink:href="#mf833dce54f" x="253.811787" y="226.536344" style="fill: #0000ff; stroke: #0000ff"/>
     <use xlink:href="#mf833dce54f" x="220.470343" y="204.613114" style="fill: #0000ff; stroke: #0000ff"/>
     <use xlink:href="#mf833dce54f" x="251.78117" y="225.549665" style="fill: #0000ff; stroke: #0000ff"/>
     <use xlink:href="#mf833dce54f" x="80.17301" y="132.876253" style="fill: #0000ff; stroke: #0000ff"/>
     <use xlink:href="#mf833dce54f" x="247.195559" y="222.263922" style="fill: #0000ff; stroke: #0000ff"/>
     <use xlink:href="#mf833dce54f" x="155.034894" y="163.471398" style="fill: #0000ff; stroke: #0000ff"/>
     <use xlink:href="#mf833dce54f" x="245.546027" y="219.939913" style="fill: #0000ff; stroke: #0000ff"/>
     <use xlink:href="#mf833dce54f" x="159.116841" y="166.430599" style="fill: #0000ff; stroke: #0000ff"/>
     <use xlink:href="#mf833dce54f" x="174.631487" y="175.957825" style="fill: #0000ff; stroke: #0000ff"/>
     <use xlink:href="#mf833dce54f" x="213.649515" y="201.086222" style="fill: #0000ff; stroke: #0000ff"/>
     <use xlink:href="#mf833dce54f" x="168.732968" y="172.993109" style="fill: #0000ff; stroke: #0000ff"/>
     <use xlink:href="#mf833dce54f" x="192.568016" y="187.327437" style="fill: #0000ff; stroke: #0000ff"/>
     <use xlink:href="#mf833dce54f" x="209.245289" y="200.705976" style="fill: #0000ff; stroke: #0000ff"/>
     <use xlink:href="#mf833dce54f" x="218.429304" y="203.963225" style="fill: #0000ff; stroke: #0000ff"/>
     <use xlink:href="#mf833dce54f" x="264.741077" y="239.329514" style="fill: #0000ff; stroke: #0000ff"/>
     <use xlink:href="#mf833dce54f" x="77.296014" y="131.65164" style="fill: #0000ff; stroke: #0000ff"/>
     <use xlink:href="#mf833dce54f" x="239.326643" y="214.986342" style="fill: #0000ff; stroke: #0000ff"/>
     <use xlink:href="#mf833dce54f" x="236.885844" y="213.894199" style="fill: #0000ff; stroke: #0000ff"/>
     <use xlink:href="#mf833dce54f" x="228.262451" y="209.341221" style="fill: #0000ff; stroke: #0000ff"/>
     <use xlink:href="#mf833dce54f" x="270.026935" y="239.89751" style="fill: #0000ff; stroke: #0000ff"/>
     <use xlink:href="#mf833dce54f" x="74.575629" y="131.062209" style="fill: #0000ff; stroke: #0000ff"/>
     <use xlink:href="#mf833dce54f" x="201.355975" y="194.748117" style="fill: #0000ff; stroke: #0000ff"/>
     <use xlink:href="#mf833dce54f" x="244.2206" y="218.241852" style="fill: #0000ff; stroke: #0000ff"/>
     <use xlink:href="#mf833dce54f" x="72.842425" y="130.067628" style="fill: #0000ff; stroke: #0000ff"/>
     <use xlink:href="#mf833dce54f" x="178.571282" y="179.026602" style="fill: #0000ff; stroke: #0000ff"/>
     <use xlink:href="#mf833dce54f" x="265.992646" y="239.574897" style="fill: #0000ff; stroke: #0000ff"/>
     <use xlink:href="#mf833dce54f" x="163.726928" y="169.66432" style="fill: #0000ff; stroke: #0000ff"/>
     <use xlink:href="#mf833dce54f" x="217.123786" y="201.672938" style="fill: #0000ff; stroke: #0000ff"/>
     <use xlink:href="#mf833dce54f" x="241.575419" y="218.028609" style="fill: #0000ff; stroke: #0000ff"/>
     <use xlink:href="#mf833dce54f" x="198.600944" y="192.989355" style="fill: #0000ff; stroke: #0000ff"/>
     <use xlink:href="#mf833dce54f" x="177.222385" y="176.829855" style="fill: #0000ff; stroke: #0000ff"/>
     <use xlink:href="#mf833dce54f" x="188.108186" y="183.545442" style="fill: #0000ff; stroke: #0000ff"/>
     <use xlink:href="#mf833dce54f" x="239.535504" y="217.237305" style="fill: #0000ff; stroke: #0000ff"/>
     <use xlink:href="#mf833dce54f" x="197.9468" y="190.089416" style="fill: #0000ff; stroke: #0000ff"/>
     <use xlink:href="#mf833dce54f" x="149.441215" y="160.394366" style="fill: #0000ff; stroke: #0000ff"/>
     <use xlink:href="#mf833dce54f" x="271.620557" y="240.149344" style="fill: #0000ff; stroke: #0000ff"/>
     <use xlink:href="#mf833dce54f" x="259.63281" y="234.50922" style="fill: #0000ff; stroke: #0000ff"/>
     <use xlink:href="#mf833dce54f" x="162.441481" y="167.495607" style="fill: #0000ff; stroke: #0000ff"/>
     <use xlink:href="#mf833dce54f" x="258.614427" y="230.66681" style="fill: #0000ff; stroke: #0000ff"/>
     <use xlink:href="#mf833dce54f" x="203.858271" y="195.963638" style="fill: #0000ff; stroke: #0000ff"/>
     <use xlink:href="#mf833dce54f" x="262.116636" y="237.118742" style="fill: #0000ff; stroke: #0000ff"/>
     <use xlink:href="#mf833dce54f" x="259.573554" y="234.448371" style="fill: #0000ff; stroke: #0000ff"/>
     <use xlink:href="#mf833dce54f" x="190.682239" y="185.383222" style="fill: #0000ff; stroke: #0000ff"/>
     <use xlink:href="#mf833dce54f" x="207.293378" y="198.337085" style="fill: #0000ff; stroke: #0000ff"/>
     <use xlink:href="#mf833dce54f" x="273.132251" y="242.074736" style="fill: #0000ff; stroke: #0000ff"/>
     <use xlink:href="#mf833dce54f" x="166.536047" y="169.933305" style="fill: #0000ff; stroke: #0000ff"/>
     <use xlink:href="#mf833dce54f" x="151.621101" y="162.616664" style="fill: #0000ff; stroke: #0000ff"/>
     <use xlink:href="#mf833dce54f" x="138.729492" y="153.470176" style="fill: #0000ff; stroke: #0000ff"/>
     <use xlink:href="#mf833dce54f" x="254.649326" y="230.366738" style="fill: #0000ff; stroke: #0000ff"/>
     <use xlink:href="#mf833dce54f" x="235.061479" y="213.108864" style="fill: #0000ff; stroke: #0000ff"/>
     <use xlink:href="#mf833dce54f" x="262.116793" y="237.118891" style="fill: #0000ff; stroke: #0000ff"/>
     <use xlink:href="#mf833dce54f" x="148.286073" y="159.814758" style="fill: #0000ff; stroke: #0000ff"/>
     <use xlink:href="#mf833dce54f" x="248.56304" y="224.304014" style="fill: #0000ff; stroke: #0000ff"/>
     <use xlink:href="#mf833dce54f" x="179.05395" y="182.901496" style="fill: #0000ff; stroke: #0000ff"/>
     <use xlink:href="#mf833dce54f" x="229.933075" y="210.754551" style="fill: #0000ff; stroke: #0000ff"/>
     <use xlink:href="#mf833dce54f" x="199.817572" y="194.097964" style="fill: #0000ff; stroke: #0000ff"/>
     <use xlink:href="#mf833dce54f" x="227.569694" y="207.207804" style="fill: #0000ff; stroke: #0000ff"/>
     <use xlink:href="#mf833dce54f" x="151.449557" y="161.986034" style="fill: #0000ff; stroke: #0000ff"/>
     <use xlink:href="#mf833dce54f" x="226.162202" y="207.003228" style="fill: #0000ff; stroke: #0000ff"/>
     <use xlink:href="#mf833dce54f" x="209.143922" y="199.190178" style="fill: #0000ff; stroke: #0000ff"/>
     <use xlink:href="#mf833dce54f" x="205.565435" y="197.671063" style="fill: #0000ff; stroke: #0000ff"/>
     <use xlink:href="#mf833dce54f" x="156.629576" y="164.84738" style="fill: #0000ff; stroke: #0000ff"/>
     <use xlink:href="#mf833dce54f" x="167.945962" y="170.591842" style="fill: #0000ff; stroke: #0000ff"/>
     <use xlink:href="#mf833dce54f" x="157.875531" y="164.934687" style="fill: #0000ff; stroke: #0000ff"/>
     <use xlink:href="#mf833dce54f" x="258.356358" y="230.664164" style="fill: #0000ff; stroke: #0000ff"/>
     <use xlink:href="#mf833dce54f" x="79.614962" y="132.362094" style="fill: #0000ff; stroke: #0000ff"/>
     <use xlink:href="#mf833dce54f" x="215.247801" y="201.551934" style="fill: #0000ff; stroke: #0000ff"/>
     <use xlink:href="#mf833dce54f" x="254.713905" y="230.367403" style="fill: #0000ff; stroke: #0000ff"/>
     <use xlink:href="#mf833dce54f" x="191.038223" y="185.65493" style="fill: #0000ff; stroke: #0000ff"/>
     <use xlink:href="#mf833dce54f" x="233.461505" y="212.407334" style="fill: #0000ff; stroke: #0000ff"/>
     <use xlink:href="#mf833dce54f" x="198.425517" y="190.117483" style="fill: #0000ff; stroke: #0000ff"/>
     <use xlink:href="#mf833dce54f" x="232.544715" y="211.801728" style="fill: #0000ff; stroke: #0000ff"/>
     <use xlink:href="#mf833dce54f" x="230.83931" y="211.291619" style="fill: #0000ff; stroke: #0000ff"/>
     <use xlink:href="#mf833dce54f" x="162.763548" y="168.04935" style="fill: #0000ff; stroke: #0000ff"/>
     <use xlink:href="#mf833dce54f" x="248.328653" y="224.223863" style="fill: #0000ff; stroke: #0000ff"/>
     <use xlink:href="#mf833dce54f" x="204.369662" y="196.888406" style="fill: #0000ff; stroke: #0000ff"/>
     <use xlink:href="#mf833dce54f" x="168.600262" y="172.031555" style="fill: #0000ff; stroke: #0000ff"/>
     <use xlink:href="#mf833dce54f" x="177.485554" y="178.517104" style="fill: #0000ff; stroke: #0000ff"/>
    </g>
   </g>
   <g id="matplotlib.axis_1">
    <g id="xtick_1">
     <g id="line2d_1">
      <defs>
       <path id="md416fa17d6" d="M 0 0 
L 0 3.5 
" style="stroke: #000000; stroke-width: 0.8"/>
      </defs>
      <g>
       <use xlink:href="#md416fa17d6" x="68.103529" y="307.584" style="stroke: #000000; stroke-width: 0.8"/>
      </g>
     </g>
     <g id="text_1">
      <!-- 0 -->
      <g transform="translate(64.922279 322.182437)scale(0.1 -0.1)">
       <defs>
        <path id="DejaVuSans-30" d="M 2034 4250 
Q 1547 4250 1301 3770 
Q 1056 3291 1056 2328 
Q 1056 1369 1301 889 
Q 1547 409 2034 409 
Q 2525 409 2770 889 
Q 3016 1369 3016 2328 
Q 3016 3291 2770 3770 
Q 2525 4250 2034 4250 
z
M 2034 4750 
Q 2819 4750 3233 4129 
Q 3647 3509 3647 2328 
Q 3647 1150 3233 529 
Q 2819 -91 2034 -91 
Q 1250 -91 836 529 
Q 422 1150 422 2328 
Q 422 3509 836 4129 
Q 1250 4750 2034 4750 
z
" transform="scale(0.015625)"/>
       </defs>
       <use xlink:href="#DejaVuSans-30"/>
      </g>
     </g>
    </g>
    <g id="xtick_2">
     <g id="line2d_2">
      <g>
       <use xlink:href="#md416fa17d6" x="173.138824" y="307.584" style="stroke: #000000; stroke-width: 0.8"/>
      </g>
     </g>
     <g id="text_2">
      <!-- 1 -->
      <g transform="translate(169.957574 322.182437)scale(0.1 -0.1)">
       <defs>
        <path id="DejaVuSans-31" d="M 794 531 
L 1825 531 
L 1825 4091 
L 703 3866 
L 703 4441 
L 1819 4666 
L 2450 4666 
L 2450 531 
L 3481 531 
L 3481 0 
L 794 0 
L 794 531 
z
" transform="scale(0.015625)"/>
       </defs>
       <use xlink:href="#DejaVuSans-31"/>
      </g>
     </g>
    </g>
    <g id="xtick_3">
     <g id="line2d_3">
      <g>
       <use xlink:href="#md416fa17d6" x="278.174118" y="307.584" style="stroke: #000000; stroke-width: 0.8"/>
      </g>
     </g>
     <g id="text_3">
      <!-- 2 -->
      <g transform="translate(274.992868 322.182437)scale(0.1 -0.1)">
       <defs>
        <path id="DejaVuSans-32" d="M 1228 531 
L 3431 531 
L 3431 0 
L 469 0 
L 469 531 
Q 828 903 1448 1529 
Q 2069 2156 2228 2338 
Q 2531 2678 2651 2914 
Q 2772 3150 2772 3378 
Q 2772 3750 2511 3984 
Q 2250 4219 1831 4219 
Q 1534 4219 1204 4116 
Q 875 4013 500 3803 
L 500 4441 
Q 881 4594 1212 4672 
Q 1544 4750 1819 4750 
Q 2544 4750 2975 4387 
Q 3406 4025 3406 3419 
Q 3406 3131 3298 2873 
Q 3191 2616 2906 2266 
Q 2828 2175 2409 1742 
Q 1991 1309 1228 531 
z
" transform="scale(0.015625)"/>
       </defs>
       <use xlink:href="#DejaVuSans-32"/>
      </g>
     </g>
    </g>
    <g id="xtick_4">
     <g id="line2d_4">
      <g>
       <use xlink:href="#md416fa17d6" x="383.209412" y="307.584" style="stroke: #000000; stroke-width: 0.8"/>
      </g>
     </g>
     <g id="text_4">
      <!-- 3 -->
      <g transform="translate(380.028162 322.182437)scale(0.1 -0.1)">
       <defs>
        <path id="DejaVuSans-33" d="M 2597 2516 
Q 3050 2419 3304 2112 
Q 3559 1806 3559 1356 
Q 3559 666 3084 287 
Q 2609 -91 1734 -91 
Q 1441 -91 1130 -33 
Q 819 25 488 141 
L 488 750 
Q 750 597 1062 519 
Q 1375 441 1716 441 
Q 2309 441 2620 675 
Q 2931 909 2931 1356 
Q 2931 1769 2642 2001 
Q 2353 2234 1838 2234 
L 1294 2234 
L 1294 2753 
L 1863 2753 
Q 2328 2753 2575 2939 
Q 2822 3125 2822 3475 
Q 2822 3834 2567 4026 
Q 2313 4219 1838 4219 
Q 1578 4219 1281 4162 
Q 984 4106 628 3988 
L 628 4550 
Q 988 4650 1302 4700 
Q 1616 4750 1894 4750 
Q 2613 4750 3031 4423 
Q 3450 4097 3450 3541 
Q 3450 3153 3228 2886 
Q 3006 2619 2597 2516 
z
" transform="scale(0.015625)"/>
       </defs>
       <use xlink:href="#DejaVuSans-33"/>
      </g>
     </g>
    </g>
   </g>
   <g id="matplotlib.axis_2">
    <g id="ytick_1">
     <g id="line2d_5">
      <defs>
       <path id="m0bf5da5071" d="M 0 0 
L -3.5 0 
" style="stroke: #000000; stroke-width: 0.8"/>
      </defs>
      <g>
       <use xlink:href="#m0bf5da5071" x="57.6" y="299.757176" style="stroke: #000000; stroke-width: 0.8"/>
      </g>
     </g>
     <g id="text_5">
      <!-- 0 -->
      <g transform="translate(44.2375 303.556395)scale(0.1 -0.1)">
       <use xlink:href="#DejaVuSans-30"/>
      </g>
     </g>
    </g>
    <g id="ytick_2">
     <g id="line2d_6">
      <g>
       <use xlink:href="#m0bf5da5071" x="57.6" y="221.488941" style="stroke: #000000; stroke-width: 0.8"/>
      </g>
     </g>
     <g id="text_6">
      <!-- 1 -->
      <g transform="translate(44.2375 225.28816)scale(0.1 -0.1)">
       <use xlink:href="#DejaVuSans-31"/>
      </g>
     </g>
    </g>
    <g id="ytick_3">
     <g id="line2d_7">
      <g>
       <use xlink:href="#m0bf5da5071" x="57.6" y="143.220706" style="stroke: #000000; stroke-width: 0.8"/>
      </g>
     </g>
     <g id="text_7">
      <!-- 2 -->
      <g transform="translate(44.2375 147.019925)scale(0.1 -0.1)">
       <use xlink:href="#DejaVuSans-32"/>
      </g>
     </g>
    </g>
    <g id="ytick_4">
     <g id="line2d_8">
      <g>
       <use xlink:href="#m0bf5da5071" x="57.6" y="64.952471" style="stroke: #000000; stroke-width: 0.8"/>
      </g>
     </g>
     <g id="text_8">
      <!-- 3 -->
      <g transform="translate(44.2375 68.751689)scale(0.1 -0.1)">
       <use xlink:href="#DejaVuSans-33"/>
      </g>
     </g>
    </g>
   </g>
   <g id="patch_3">
    <path d="M 57.6 307.584 
L 57.6 41.472 
" style="fill: none; stroke: #000000; stroke-width: 0.8; stroke-linejoin: miter; stroke-linecap: square"/>
   </g>
   <g id="patch_4">
    <path d="M 414.72 307.584 
L 414.72 41.472 
" style="fill: none; stroke: #000000; stroke-width: 0.8; stroke-linejoin: miter; stroke-linecap: square"/>
   </g>
   <g id="patch_5">
    <path d="M 57.6 307.584 
L 414.72 307.584 
" style="fill: none; stroke: #000000; stroke-width: 0.8; stroke-linejoin: miter; stroke-linecap: square"/>
   </g>
   <g id="patch_6">
    <path d="M 57.6 41.472 
L 414.72 41.472 
" style="fill: none; stroke: #000000; stroke-width: 0.8; stroke-linejoin: miter; stroke-linecap: square"/>
   </g>
   <g id="text_9">
    <!-- 349_n_1998 AREA: 3.088 -->
    <g transform="translate(160.559062 35.472)scale(0.12 -0.12)">
     <defs>
      <path id="DejaVuSans-34" d="M 2419 4116 
L 825 1625 
L 2419 1625 
L 2419 4116 
z
M 2253 4666 
L 3047 4666 
L 3047 1625 
L 3713 1625 
L 3713 1100 
L 3047 1100 
L 3047 0 
L 2419 0 
L 2419 1100 
L 313 1100 
L 313 1709 
L 2253 4666 
z
" transform="scale(0.015625)"/>
      <path id="DejaVuSans-39" d="M 703 97 
L 703 672 
Q 941 559 1184 500 
Q 1428 441 1663 441 
Q 2288 441 2617 861 
Q 2947 1281 2994 2138 
Q 2813 1869 2534 1725 
Q 2256 1581 1919 1581 
Q 1219 1581 811 2004 
Q 403 2428 403 3163 
Q 403 3881 828 4315 
Q 1253 4750 1959 4750 
Q 2769 4750 3195 4129 
Q 3622 3509 3622 2328 
Q 3622 1225 3098 567 
Q 2575 -91 1691 -91 
Q 1453 -91 1209 -44 
Q 966 3 703 97 
z
M 1959 2075 
Q 2384 2075 2632 2365 
Q 2881 2656 2881 3163 
Q 2881 3666 2632 3958 
Q 2384 4250 1959 4250 
Q 1534 4250 1286 3958 
Q 1038 3666 1038 3163 
Q 1038 2656 1286 2365 
Q 1534 2075 1959 2075 
z
" transform="scale(0.015625)"/>
      <path id="DejaVuSans-5f" d="M 3263 -1063 
L 3263 -1509 
L -63 -1509 
L -63 -1063 
L 3263 -1063 
z
" transform="scale(0.015625)"/>
      <path id="DejaVuSans-6e" d="M 3513 2113 
L 3513 0 
L 2938 0 
L 2938 2094 
Q 2938 2591 2744 2837 
Q 2550 3084 2163 3084 
Q 1697 3084 1428 2787 
Q 1159 2491 1159 1978 
L 1159 0 
L 581 0 
L 581 3500 
L 1159 3500 
L 1159 2956 
Q 1366 3272 1645 3428 
Q 1925 3584 2291 3584 
Q 2894 3584 3203 3211 
Q 3513 2838 3513 2113 
z
" transform="scale(0.015625)"/>
      <path id="DejaVuSans-38" d="M 2034 2216 
Q 1584 2216 1326 1975 
Q 1069 1734 1069 1313 
Q 1069 891 1326 650 
Q 1584 409 2034 409 
Q 2484 409 2743 651 
Q 3003 894 3003 1313 
Q 3003 1734 2745 1975 
Q 2488 2216 2034 2216 
z
M 1403 2484 
Q 997 2584 770 2862 
Q 544 3141 544 3541 
Q 544 4100 942 4425 
Q 1341 4750 2034 4750 
Q 2731 4750 3128 4425 
Q 3525 4100 3525 3541 
Q 3525 3141 3298 2862 
Q 3072 2584 2669 2484 
Q 3125 2378 3379 2068 
Q 3634 1759 3634 1313 
Q 3634 634 3220 271 
Q 2806 -91 2034 -91 
Q 1263 -91 848 271 
Q 434 634 434 1313 
Q 434 1759 690 2068 
Q 947 2378 1403 2484 
z
M 1172 3481 
Q 1172 3119 1398 2916 
Q 1625 2713 2034 2713 
Q 2441 2713 2670 2916 
Q 2900 3119 2900 3481 
Q 2900 3844 2670 4047 
Q 2441 4250 2034 4250 
Q 1625 4250 1398 4047 
Q 1172 3844 1172 3481 
z
" transform="scale(0.015625)"/>
      <path id="DejaVuSans-20" transform="scale(0.015625)"/>
      <path id="DejaVuSans-41" d="M 2188 4044 
L 1331 1722 
L 3047 1722 
L 2188 4044 
z
M 1831 4666 
L 2547 4666 
L 4325 0 
L 3669 0 
L 3244 1197 
L 1141 1197 
L 716 0 
L 50 0 
L 1831 4666 
z
" transform="scale(0.015625)"/>
      <path id="DejaVuSans-52" d="M 2841 2188 
Q 3044 2119 3236 1894 
Q 3428 1669 3622 1275 
L 4263 0 
L 3584 0 
L 2988 1197 
Q 2756 1666 2539 1819 
Q 2322 1972 1947 1972 
L 1259 1972 
L 1259 0 
L 628 0 
L 628 4666 
L 2053 4666 
Q 2853 4666 3247 4331 
Q 3641 3997 3641 3322 
Q 3641 2881 3436 2590 
Q 3231 2300 2841 2188 
z
M 1259 4147 
L 1259 2491 
L 2053 2491 
Q 2509 2491 2742 2702 
Q 2975 2913 2975 3322 
Q 2975 3731 2742 3939 
Q 2509 4147 2053 4147 
L 1259 4147 
z
" transform="scale(0.015625)"/>
      <path id="DejaVuSans-45" d="M 628 4666 
L 3578 4666 
L 3578 4134 
L 1259 4134 
L 1259 2753 
L 3481 2753 
L 3481 2222 
L 1259 2222 
L 1259 531 
L 3634 531 
L 3634 0 
L 628 0 
L 628 4666 
z
" transform="scale(0.015625)"/>
      <path id="DejaVuSans-3a" d="M 750 794 
L 1409 794 
L 1409 0 
L 750 0 
L 750 794 
z
M 750 3309 
L 1409 3309 
L 1409 2516 
L 750 2516 
L 750 3309 
z
" transform="scale(0.015625)"/>
      <path id="DejaVuSans-2e" d="M 684 794 
L 1344 794 
L 1344 0 
L 684 0 
L 684 794 
z
" transform="scale(0.015625)"/>
     </defs>
     <use xlink:href="#DejaVuSans-33"/>
     <use xlink:href="#DejaVuSans-34" x="63.623047"/>
     <use xlink:href="#DejaVuSans-39" x="127.246094"/>
     <use xlink:href="#DejaVuSans-5f" x="190.869141"/>
     <use xlink:href="#DejaVuSans-6e" x="240.869141"/>
     <use xlink:href="#DejaVuSans-5f" x="304.248047"/>
     <use xlink:href="#DejaVuSans-31" x="354.248047"/>
     <use xlink:href="#DejaVuSans-39" x="417.871094"/>
     <use xlink:href="#DejaVuSans-39" x="481.494141"/>
     <use xlink:href="#DejaVuSans-38" x="545.117188"/>
     <use xlink:href="#DejaVuSans-20" x="608.740234"/>
     <use xlink:href="#DejaVuSans-41" x="640.527344"/>
     <use xlink:href="#DejaVuSans-52" x="708.935547"/>
     <use xlink:href="#DejaVuSans-45" x="778.417969"/>
     <use xlink:href="#DejaVuSans-41" x="841.601562"/>
     <use xlink:href="#DejaVuSans-3a" x="908.259766"/>
     <use xlink:href="#DejaVuSans-20" x="941.951172"/>
     <use xlink:href="#DejaVuSans-33" x="973.738281"/>
     <use xlink:href="#DejaVuSans-2e" x="1037.361328"/>
     <use xlink:href="#DejaVuSans-30" x="1069.148438"/>
     <use xlink:href="#DejaVuSans-38" x="1132.771484"/>
     <use xlink:href="#DejaVuSans-38" x="1196.394531"/>
    </g>
   </g>
  </g>
 </g>
 <defs>
  <clipPath id="p21d4d8e18d">
   <rect x="57.6" y="41.472" width="357.12" height="266.112"/>
  </clipPath>
 </defs>
</svg>
